<svg width="37" height="36" viewBox="0 0 37 36" fill="none" xmlns="http://www.w3.org/2000/svg">
<g filter="url(#filter0_b_4244_12434)">
<path opacity="0.3" d="M18.6692 35.9996C21.1281 35.9996 23.4428 35.529 25.6133 34.5878C27.7839 33.6467 29.6985 32.3467 31.3573 30.6878C33.0161 29.0291 34.3161 27.1144 35.2572 24.9438C36.1985 22.7733 36.6691 20.4586 36.6691 17.9998C36.6691 15.541 36.1985 13.2263 35.2572 11.0557C34.3161 8.88519 33.0161 6.97051 31.3573 5.3117C29.6985 3.6529 27.7809 2.35291 25.6044 1.41175C23.428 0.470583 21.1104 0 18.6516 0C16.1928 0 13.8781 0.470583 11.7075 1.41175C9.53698 2.35291 7.62524 3.6529 5.97231 5.3117C4.31939 6.97051 3.02235 8.88519 2.08118 11.0557C1.14002 13.2263 0.669434 15.541 0.669434 17.9998C0.669434 20.4586 1.14002 22.7733 2.08118 24.9438C3.02235 27.1144 4.32233 29.0291 5.98113 30.6878C7.63995 32.3467 9.55463 33.6467 11.7252 34.5878C13.8958 35.529 16.2104 35.9996 18.6692 35.9996ZM18.6692 32.9996C16.5869 32.9996 14.6399 32.6114 12.8281 31.835C11.0164 31.0585 9.42522 29.985 8.05464 28.6145C6.68407 27.2439 5.6135 25.6527 4.84292 23.841C4.07233 22.0292 3.68704 20.0822 3.68704 17.9998C3.68704 15.9175 4.07233 13.9704 4.84292 12.1587C5.6135 10.3469 6.68113 8.75284 8.04582 7.37638C9.41051 5.99993 10.9987 4.92641 12.8105 4.15583C14.6222 3.38526 16.5693 2.99997 18.6516 2.99997C20.7339 2.99997 22.681 3.38526 24.4927 4.15583C26.3044 4.92641 27.8986 5.99993 29.275 7.37638C30.6515 8.75284 31.728 10.3469 32.5044 12.1587C33.2808 13.9704 33.669 15.9175 33.669 17.9998C33.669 20.0822 33.2838 22.0292 32.5132 23.841C31.7426 25.6527 30.672 27.2439 29.3014 28.6145C27.9308 29.985 26.3367 31.0585 24.5191 31.835C22.7016 32.6114 20.7516 32.9996 18.6692 32.9996Z" fill="white"/>
<path opacity="0.7" d="M8.63948 19.4896C8.11008 19.4896 7.73656 19.3397 7.51892 19.0399C7.30127 18.7401 7.23656 18.4108 7.32481 18.0521C7.41304 17.6935 7.65126 17.4201 8.03949 17.232L25.2275 9.06543C25.6981 8.842 26.1245 8.80379 26.5069 8.95077C26.8893 9.09776 27.154 9.36234 27.3011 9.74451C27.4481 10.1267 27.4157 10.5529 27.2041 11.0233L19.1217 28.2206C18.9335 28.6087 18.6571 28.8497 18.2923 28.9438C17.9276 29.0378 17.5953 28.9761 17.2953 28.7586C16.9953 28.5411 16.8453 28.1559 16.8453 27.6032V20.0893C16.8453 19.6895 16.6512 19.4896 16.2629 19.4896H8.63948Z" fill="white"/>
</g>
<defs>
<filter id="filter0_b_4244_12434" x="-7.33057" y="-8" width="52" height="52" filterUnits="userSpaceOnUse" color-interpolation-filters="sRGB">
<feFlood flood-opacity="0" result="BackgroundImageFix"/>
<feGaussianBlur in="BackgroundImageFix" stdDeviation="4"/>
<feComposite in2="SourceAlpha" operator="in" result="effect1_backgroundBlur_4244_12434"/>
<feBlend mode="normal" in="SourceGraphic" in2="effect1_backgroundBlur_4244_12434" result="shape"/>
</filter>
</defs>
</svg>
