<svg width="37" height="36" viewBox="0 0 37 36" fill="none" xmlns="http://www.w3.org/2000/svg">
<g filter="url(#filter0_b_4244_12436)">
<path opacity="0.4" d="M18.812 36C21.2709 36 23.5856 35.5294 25.7561 34.5882C27.9267 33.647 29.8414 32.347 31.5002 30.6882C33.159 29.0294 34.459 27.1147 35.4002 24.9441C36.3414 22.7736 36.812 20.4589 36.812 18C36.812 15.5412 36.3414 13.2264 35.4002 11.0559C34.459 8.88529 33.159 6.97058 31.5002 5.31175C29.8414 3.65294 27.9238 2.35294 25.7472 1.41176C23.5708 0.470588 21.2532 0 18.7943 0C16.3355 0 14.0208 0.470588 11.8502 1.41176C9.67965 2.35294 7.76788 3.65294 6.11495 5.31175C4.46201 6.97058 3.16495 8.88529 2.22377 11.0559C1.2826 13.2264 0.812012 15.5412 0.812012 18C0.812012 20.4589 1.2826 22.7736 2.22377 24.9441C3.16495 27.1147 4.46495 29.0294 6.12376 30.6882C7.78259 32.347 9.6973 33.647 11.8679 34.5882C14.0385 35.5294 16.3532 36 18.812 36Z" fill="white"/>
<path d="M8.78158 19.4907C8.25218 19.4907 7.87865 19.3408 7.66101 19.041C7.44336 18.7411 7.37865 18.4119 7.4669 18.0532C7.55513 17.6946 7.79336 17.4212 8.18159 17.233L25.3698 9.0664C25.8403 8.84298 26.2668 8.80476 26.6492 8.95175C27.0316 9.09874 27.2963 9.36332 27.4434 9.74549C27.5904 10.1277 27.558 10.5539 27.3463 11.0243L19.2639 28.2218C19.0757 28.6098 18.7993 28.8509 18.4345 28.945C18.0698 29.039 17.7375 28.9773 17.4375 28.7598C17.1375 28.5422 16.9875 28.1571 16.9875 27.6044V20.0904C16.9875 19.6906 16.7933 19.4907 16.4051 19.4907H8.78158Z" fill="white"/>
</g>
<defs>
<filter id="filter0_b_4244_12436" x="-7.18799" y="-8" width="52" height="52" filterUnits="userSpaceOnUse" color-interpolation-filters="sRGB">
<feFlood flood-opacity="0" result="BackgroundImageFix"/>
<feGaussianBlur in="BackgroundImageFix" stdDeviation="4"/>
<feComposite in2="SourceAlpha" operator="in" result="effect1_backgroundBlur_4244_12436"/>
<feBlend mode="normal" in="SourceGraphic" in2="effect1_backgroundBlur_4244_12436" result="shape"/>
</filter>
</defs>
</svg>
