<svg width="25" height="25" viewBox="0 0 25 25" fill="none" xmlns="http://www.w3.org/2000/svg">
<g clip-path="url(#clip0_13900_36448)">
<path d="M0.356445 12.6006C0.356445 5.97317 5.72903 0.600586 12.3564 0.600586C18.9839 0.600586 24.3564 5.97317 24.3564 12.6006C24.3564 19.228 18.9839 24.6006 12.3564 24.6006C5.72903 24.6006 0.356445 19.228 0.356445 12.6006ZM18.1054 9.77811C18.4401 9.44337 18.4401 8.90066 18.1054 8.56592C17.7707 8.23119 17.2279 8.23119 16.8932 8.56592L11.0707 14.3884L8.24825 11.5659C7.91352 11.2312 7.3708 11.2312 7.03607 11.5659C6.70133 11.9007 6.70133 12.4434 7.03607 12.7781L10.4646 16.2067C10.7994 16.5414 11.3421 16.5414 11.6768 16.2067L18.1054 9.77811Z" fill="gray"/>
</g>
<defs>
<clipPath id="clip0_13900_36448">
<rect width="24.8571" height="24" fill="white" transform="translate(0.142578 0.600586)"/>
</clipPath>
</defs>
</svg>
