<svg xmlns="http://www.w3.org/2000/svg" width="19" height="19" viewBox="0 0 19 19" fill="none">
    <g clip-path="url(#clip0_13500_36914)">
        <path d="M4.85254 0.399414C3.6099 0.399414 2.60254 1.40677 2.60254 2.64941V16.1494C2.60254 17.3921 3.6099 18.3994 4.85254 18.3994H13.8525C15.0952 18.3994 16.1025 17.3921 16.1025 16.1494V6.4904C16.1025 6.04285 15.9247 5.61363 15.6083 5.29716L11.2048 0.893671C10.8883 0.577204 10.4591 0.399414 10.0115 0.399414H4.85254ZM3.72754 2.64941C3.72754 2.02809 4.23122 1.52441 4.85254 1.52441H9.35254V5.46191C9.35254 6.39389 10.1081 7.14941 11.04 7.14941H14.9775V16.1494C14.9775 16.7707 14.4739 17.2744 13.8525 17.2744H4.85254C4.23122 17.2744 3.72754 16.7707 3.72754 16.1494V2.64941ZM14.7445 6.02441H11.04C10.7294 6.02441 10.4775 5.77257 10.4775 5.46191V1.75741L14.7445 6.02441Z" fill="white"/>
    </g>
    <defs>
        <clipPath id="clip0_13500_36914">
            <rect width="18" height="18" fill="white" transform="translate(0.602539 0.399414)"/>
        </clipPath>
    </defs>
</svg>