<svg width="16" height="16" viewBox="0 0 16 16" fill="none" xmlns="http://www.w3.org/2000/svg">
<g clip-path="url(#clip0_13618_37430)">
<path d="M13.4235 2.36445C12.3998 1.34076 10.74 1.34076 9.71635 2.36445L1.84472 10.2361C1.47054 10.6103 1.20373 11.0781 1.07217 11.5906L0.20321 14.9761C0.159267 15.1473 0.208977 15.329 0.333957 15.4539C0.458938 15.5789 0.640618 15.6286 0.811818 15.5847L4.19728 14.7157C4.70984 14.5842 5.17765 14.3174 5.55183 13.9432L13.4235 6.07155C14.4471 5.04786 14.4471 3.38814 13.4235 2.36445ZM10.4235 3.07155C11.0566 2.43839 12.0832 2.43839 12.7163 3.07155C13.3495 3.70472 13.3495 4.73128 12.7163 5.36445L11.9375 6.14327L9.64463 3.85038L10.4235 3.07155ZM8.93752 4.55748L11.2304 6.85038L4.84472 13.2361C4.59719 13.4836 4.28773 13.6601 3.94867 13.7471L1.38197 14.4059L2.04077 11.8392C2.1278 11.5002 2.3043 11.1907 2.55183 10.9432L8.93752 4.55748Z" fill="white"/>
</g>
<defs>
<clipPath id="clip0_13618_37430">
<rect width="15" height="15" fill="white" transform="translate(0.1875 0.600586)"/>
</clipPath>
</defs>
</svg>
