<svg xmlns="http://www.w3.org/2000/svg" width="19" height="15" viewBox="0 0 19 15" fill="none">
  <path fill-rule="evenodd" clip-rule="evenodd" d="M15.7358 14.2013H4.43889C3.08144 14.2013 2.38965 13.5291 2.38965 12.1782V5.16517H3.44036V11.4603L5.3917 9.70475C5.6593 9.46327 5.93992 9.33928 6.22706 9.33928C6.54035 9.33928 6.834 9.46979 7.10811 9.71126L8.31546 10.8077L11.2653 8.17108C11.5655 7.90352 11.8853 7.77952 12.2508 7.77952C12.6032 7.77952 12.936 7.91655 13.2297 8.1776L16.7342 11.4668V4.26186C16.7342 3.58313 16.3623 3.23724 15.7162 3.23724L5.38166 3.23731V2.1866L15.7358 2.18652C17.0998 2.18652 17.7851 2.86525 17.7851 4.20965V12.1782C17.7851 13.5226 17.0998 14.2013 15.7358 14.2013ZM15.6364 5.81559C15.6364 6.66401 14.9446 7.35577 14.1027 7.35577C13.2544 7.35577 12.5626 6.66401 12.5626 5.81559C12.5626 4.97369 13.2544 4.27538 14.1027 4.27538C14.9446 4.27538 15.6364 4.97369 15.6364 5.81559Z" fill="white"/>
  <path fill-rule="evenodd" clip-rule="evenodd" d="M4.63468 0.399414C6.86156 0.399414 8.66681 2.20466 8.66681 4.43155C8.66681 6.65844 6.86156 8.46369 4.63468 8.46369C2.40779 8.46369 0.602539 6.65844 0.602539 4.43155C0.602539 2.20466 2.40779 0.399414 4.63468 0.399414ZM4.56879 1.87099L4.63468 1.86508L4.70056 1.87099C4.85019 1.89815 4.96817 2.01613 4.99533 2.16575L5.00123 2.23164L5.00098 4.06443L6.83737 4.06499L6.90326 4.0709C7.05288 4.09806 7.17086 4.21604 7.19802 4.36566L7.20393 4.43155L7.19802 4.49744C7.17086 4.64706 7.05288 4.76504 6.90326 4.7922L6.83737 4.79811L5.00171 4.79755L5.00204 6.63345L4.99614 6.69934C4.96898 6.84896 4.851 6.96695 4.70138 6.9941L4.63549 7.00001L4.5696 6.9941C4.41997 6.96695 4.30199 6.84896 4.27484 6.69934L4.26893 6.63345L4.26859 4.79755L2.43361 4.79811L2.36772 4.7922C2.21809 4.76504 2.10011 4.64706 2.07295 4.49744L2.06705 4.43155L2.07295 4.36566C2.10011 4.21604 2.21809 4.09806 2.36772 4.0709L2.43361 4.06499L4.26786 4.06443L4.26812 2.23164L4.27402 2.16575C4.30118 2.01613 4.41916 1.89815 4.56879 1.87099Z" fill="white"/>
</svg>