<svg width="13" height="15" viewBox="0 0 13 15" fill="none" xmlns="http://www.w3.org/2000/svg">
<path d="M1.0625 1.03809C1.0625 0.796462 0.866624 0.600586 0.625 0.600586C0.383375 0.600586 0.1875 0.796462 0.1875 1.03809V5.32558C0.1875 5.61553 0.42255 5.85058 0.7125 5.85058H5C5.24162 5.85058 5.4375 5.65471 5.4375 5.41308C5.4375 5.17146 5.24162 4.97558 5 4.97558H1.85528L4.89388 2.33417C6.35273 1.06601 8.56341 1.22059 9.83157 2.67944C11.0997 4.13829 10.9451 6.34897 9.48629 7.61713L2.33587 13.8329C2.15352 13.9914 2.1342 14.2677 2.29272 14.4501C2.45124 14.6325 2.72757 14.6518 2.90993 14.4933L10.0603 8.2775C11.8839 6.6923 12.0771 3.92896 10.4919 2.10539C8.90674 0.281829 6.14339 0.0885986 4.31983 1.6738L1.0625 4.50535V1.03809Z" fill="white"/>
</svg>
