<svg xmlns="http://www.w3.org/2000/svg" width="19" height="15" viewBox="0 0 19 15" fill="none">
  <path d="M2.90773 14.3994H15.5569C17.0839 14.3994 17.8621 13.6359 17.8621 12.1236V4.43719C17.8621 2.92487 17.0839 2.1687 15.5569 2.1687H13.839C13.2664 2.1687 13.0902 2.05124 12.7598 1.68416L12.1652 1.02343C11.8055 0.619678 11.4311 0.399414 10.6675 0.399414H7.74569C6.98952 0.399414 6.61511 0.619678 6.24806 1.02343L5.6534 1.68416C5.33039 2.04388 5.14687 2.1687 4.57422 2.1687H2.90773C1.38073 2.1687 0.602539 2.92487 0.602539 4.43719V12.1236C0.602539 13.6359 1.38073 14.3994 2.90773 14.3994ZM2.92975 13.2174C2.20296 13.2174 1.78452 12.8283 1.78452 12.0648V4.50325C1.78452 3.73974 2.20296 3.35065 2.92975 3.35065H4.86787C5.5286 3.35065 5.88099 3.22586 6.24806 2.81474L6.82801 2.1687C7.24649 1.69885 7.45936 1.58139 8.11276 1.58139H10.3005C10.9539 1.58139 11.1668 1.69885 11.5852 2.1687L12.1652 2.81474C12.5323 3.22586 12.8847 3.35065 13.5454 3.35065H15.5349C16.2617 3.35065 16.6802 3.73974 16.6802 4.50325V12.0648C16.6802 12.8283 16.2617 13.2174 15.5349 13.2174H2.92975ZM9.22865 12.0502C11.4531 12.0502 13.237 10.2662 13.237 8.03443C13.237 5.80266 11.4604 4.01874 9.22865 4.01874C7.01157 4.01874 5.22762 5.80266 5.22762 8.03443C5.22762 10.2662 7.01157 12.0502 9.22865 12.0502ZM14.5071 6.24315C15.0063 6.24315 15.4174 5.83937 15.4174 5.34017C15.4174 4.83361 15.0063 4.42983 14.5071 4.42983C14.0078 4.42983 13.5968 4.83361 13.5968 5.34017C13.5968 5.83937 14.0078 6.24315 14.5071 6.24315ZM9.22865 10.9343C7.63559 10.9343 6.33615 9.64221 6.33615 8.03443C6.33615 6.42667 7.62823 5.1346 9.22865 5.1346C10.8291 5.1346 12.1285 6.42667 12.1285 8.03443C12.1285 9.64221 10.8291 10.9343 9.22865 10.9343Z" fill="white"/>
</svg>