<svg width="18" height="20" viewBox="0 0 18 20" fill="none" xmlns="http://www.w3.org/2000/svg">
<path d="M7.69342 2.06588C7.84713 1.97804 8.03584 1.97804 8.18956 2.06588L11.3707 3.88369C11.7237 4.08537 11.9415 4.46071 11.9415 4.86721C11.9415 5.4479 11.5045 5.92654 10.9415 5.99228V8.18584C11.5575 8.47235 12.0073 9.06434 12.0867 9.77914L12.8767 16.8896C12.9426 17.4819 12.4789 18 11.8829 18H4.00012C3.40411 18 2.94042 17.4819 3.00623 16.8896L3.79628 9.77914C3.8757 9.06434 4.32546 8.47235 4.94149 8.18583V5.99228C4.37844 5.92654 3.94149 5.4479 3.94149 4.86721C3.94149 4.46071 4.1593 4.08537 4.51224 3.88369L7.69342 2.06588ZM7.94149 3.07588L5.00838 4.75194C4.96702 4.77557 4.94149 4.81956 4.94149 4.86721C4.94149 4.94053 5.00093 4.99997 5.07425 4.99997H10.8087C10.882 4.99997 10.9415 4.94053 10.9415 4.86721C10.9415 4.81956 10.916 4.77557 10.8746 4.75194L7.94149 3.07588ZM10.106 9.00002H5.77695C5.27053 9.00356 4.84618 9.38549 4.79017 9.88957L4.57643 11.8132L11.1129 10.0702L11.0928 9.88957C11.0368 9.38549 10.6124 9.00356 10.106 9.00002ZM9.94149 8V6H5.94149V8H9.94149ZM4.23292 14.9048L11.4366 12.9838L11.2246 11.0753L4.45792 12.8798L4.23292 14.9048ZM4.11441 15.9714L4.00012 17H11.8829L11.5483 13.989L4.11441 15.9714ZM13.4415 7H15.4415C15.7176 7 15.9415 6.77614 15.9415 6.5C15.9415 6.22386 15.7176 6 15.4415 6H13.4415C13.1653 6 12.9415 6.22386 12.9415 6.5C12.9415 6.77614 13.1653 7 13.4415 7ZM14.795 3.14645C14.9903 3.34171 14.9903 3.65829 14.795 3.85355L13.795 4.85355C13.5998 5.04882 13.2832 5.04882 13.0879 4.85355C12.8927 4.65829 12.8927 4.34171 13.0879 4.14645L14.0879 3.14645C14.2832 2.95118 14.5998 2.95118 14.795 3.14645ZM14.795 9.14645C14.9903 9.34171 14.9903 9.65829 14.795 9.85355C14.5998 10.0488 14.2832 10.0488 14.0879 9.85355L13.0879 8.85355C12.8927 8.65829 12.8927 8.34171 13.0879 8.14645C13.2832 7.95118 13.5998 7.95118 13.795 8.14645L14.795 9.14645Z" fill="white"/>
</svg>
