<svg xmlns="http://www.w3.org/2000/svg" width="1051" height="736" fill="none"><mask id="b" width="1051" height="736" x="0" y="0" maskUnits="userSpaceOnUse" style="mask-type:alpha"><path fill="url(#a)" d="M.199 0h1050v736H.199z"/></mask><g mask="url(#b)"><path stroke="#000" d="M1.699.5h1048.72v734.204H1.699z"/><path stroke="#fff" stroke-opacity=".2" stroke-width="1.327" d="M1.863.664h104.84v104.84H1.863zM106.703.664h104.84v104.84h-104.84z"/><path stroke="#fff" stroke-opacity=".2" stroke-width="1.327" d="M211.541.664h104.84v104.84h-104.84zM316.381.664h104.84v104.84h-104.84zM421.221.664h104.84v104.84h-104.84zM526.061.664h104.84v104.84h-104.84z"/><path fill="#fff" fill-opacity=".3" d="M630.236 0h106.167v106.167H630.236z"/><path stroke="#fff" stroke-opacity=".2" stroke-width="1.327" d="M630.9.664h104.84v104.84H630.9zM735.74.664h104.84v104.84H735.74zM840.58.664h104.84v104.84H840.58z"/><path stroke="#fff" stroke-opacity=".2" stroke-width="1.327" d="M945.419.664h104.84v104.84h-104.84z"/><g stroke="#fff" stroke-opacity=".2" stroke-width="1.327"><path d="M1.863 105.503h104.84v104.84H1.863zM106.703 105.503h104.84v104.84h-104.84z"/><path d="M211.541 105.503h104.84v104.84h-104.84zM316.381 105.503h104.84v104.84h-104.84zM421.221 105.503h104.84v104.84h-104.84zM526.061 105.503h104.84v104.84h-104.84z"/><path d="M630.9 105.503h104.84v104.84H630.9zM735.74 105.503h104.84v104.84H735.74zM840.58 105.503h104.84v104.84H840.58z"/><path d="M945.419 105.503h104.84v104.84h-104.84z"/></g><path stroke="#fff" stroke-opacity=".2" stroke-width="1.327" d="M1.863 210.343h104.84v104.84H1.863zM106.703 210.343h104.84v104.84h-104.84z"/><path stroke="#fff" stroke-opacity=".2" stroke-width="1.327" d="M211.541 210.343h104.84v104.84h-104.84zM316.381 210.343h104.84v104.84h-104.84z"/><path fill="#fff" fill-opacity=".3" d="M420.558 209.679h106.167v106.167H420.558z"/><path stroke="#fff" stroke-opacity=".2" stroke-width="1.327" d="M421.221 210.343h104.84v104.84h-104.84zM526.061 210.343h104.84v104.84h-104.84z"/><path fill="#fff" fill-opacity=".3" d="M630.236 209.679h106.167v106.167H630.236z"/><path stroke="#fff" stroke-opacity=".2" stroke-width="1.327" d="M630.9 210.343h104.84v104.84H630.9zM735.74 210.343h104.84v104.84H735.74zM840.58 210.343h104.84v104.84H840.58z"/><path stroke="#fff" stroke-opacity=".2" stroke-width="1.327" d="M945.419 210.343h104.84v104.84h-104.84z"/><g stroke="#fff" stroke-opacity=".2" stroke-width="1.327"><path d="M1.863 315.182h104.84v104.84H1.863zM106.703 315.182h104.84v104.84h-104.84z"/><path d="M211.541 315.182h104.84v104.84h-104.84zM316.381 315.182h104.84v104.84h-104.84zM421.221 315.182h104.84v104.84h-104.84zM526.061 315.182h104.84v104.84h-104.84z"/><path d="M630.9 315.182h104.84v104.84H630.9zM735.74 315.182h104.84v104.84H735.74zM840.58 315.182h104.84v104.84H840.58z"/><path d="M945.419 315.182h104.84v104.84h-104.84z"/></g><path stroke="#fff" stroke-opacity=".2" stroke-width="1.327" d="M1.863 420.022h104.84v104.84H1.863zM106.703 420.022h104.84v104.84h-104.84z"/><path stroke="#fff" stroke-opacity=".2" stroke-width="1.327" d="M211.541 420.022h104.84v104.84h-104.84z"/><path fill="#fff" fill-opacity=".3" d="M315.718 419.358h106.167v106.167H315.718z"/><path stroke="#fff" stroke-opacity=".2" stroke-width="1.327" d="M316.381 420.022h104.84v104.84h-104.84zM421.221 420.022h104.84v104.84h-104.84zM526.061 420.022h104.84v104.84h-104.84z"/><path stroke="#fff" stroke-opacity=".2" stroke-width="1.327" d="M630.9 420.022h104.84v104.84H630.9zM735.74 420.022h104.84v104.84H735.74zM840.58 420.022h104.84v104.84H840.58z"/><path stroke="#fff" stroke-opacity=".2" stroke-width="1.327" d="M945.419 420.022h104.84v104.84h-104.84z"/><g stroke="#fff" stroke-opacity=".2" stroke-width="1.327"><path d="M1.863 524.861h104.84v104.84H1.863zM106.703 524.861h104.84v104.84h-104.84z"/><path d="M211.541 524.861h104.84v104.84h-104.84zM316.381 524.861h104.84v104.84h-104.84zM421.221 524.861h104.84v104.84h-104.84zM526.061 524.861h104.84v104.84h-104.84z"/><path d="M630.9 524.861h104.84v104.84H630.9zM735.74 524.861h104.84v104.84H735.74zM840.58 524.861h104.84v104.84H840.58z"/><path d="M945.419 524.861h104.84v104.84h-104.84z"/></g><g stroke="#fff" stroke-opacity=".2" stroke-width="1.327"><path d="M1.863 629.701h104.84v104.84H1.863zM106.703 629.701h104.84v104.84h-104.84z"/><path d="M211.541 629.701h104.84v104.84h-104.84zM316.381 629.701h104.84v104.84h-104.84zM421.221 629.701h104.84v104.84h-104.84zM526.061 629.701h104.84v104.84h-104.84z"/><path d="M630.9 629.701h104.84v104.84H630.9zM735.74 629.701h104.84v104.84H735.74zM840.58 629.701h104.84v104.84H840.58z"/><path d="M945.419 629.701h104.84v104.84h-104.84z"/></g></g><defs><radialGradient id="a" cx="0" cy="0" r="1" gradientTransform="matrix(0 438.665 -625.813 0 525.199 368)" gradientUnits="userSpaceOnUse"><stop stop-color="#fff" stop-opacity=".15"/><stop offset=".615" stop-color="#fff" stop-opacity=".075"/><stop offset="1" stop-color="#fff" stop-opacity="0"/></radialGradient></defs></svg>