<svg width="993" height="736" viewBox="0 0 993 736" fill="none" xmlns="http://www.w3.org/2000/svg">
<mask id="mask0_10629_26848" style="mask-type:alpha" maskUnits="userSpaceOnUse" x="-57" y="0" width="1050" height="736">
<rect x="-57" width="1050" height="736" fill="url(#paint0_radial_10629_26848)"/>
</mask>
<g mask="url(#mask0_10629_26848)">
<rect x="-55.3365" y="0.663542" width="104.84" height="104.84" stroke="white" stroke-opacity="0.2" stroke-width="1.32708"/>
<rect x="49.5034" y="0.663542" width="104.84" height="104.84" stroke="white" stroke-opacity="0.2" stroke-width="1.32708"/>
<rect x="154.342" y="0.663542" width="104.84" height="104.84" stroke="white" stroke-opacity="0.2" stroke-width="1.32708"/>
<rect x="259.182" y="0.663542" width="104.84" height="104.84" stroke="white" stroke-opacity="0.2" stroke-width="1.32708"/>
<rect x="364.022" y="0.663542" width="104.84" height="104.84" stroke="white" stroke-opacity="0.2" stroke-width="1.32708"/>
<rect x="468.862" y="0.663542" width="104.84" height="104.84" stroke="white" stroke-opacity="0.2" stroke-width="1.32708"/>
<rect x="573.037" width="106.167" height="106.167" fill="white" fill-opacity="0.3"/>
<rect x="573.701" y="0.663542" width="104.84" height="104.84" stroke="white" stroke-opacity="0.2" stroke-width="1.32708"/>
<rect x="678.54" y="0.663542" width="104.84" height="104.84" stroke="white" stroke-opacity="0.2" stroke-width="1.32708"/>
<rect x="783.38" y="0.663542" width="104.84" height="104.84" stroke="white" stroke-opacity="0.2" stroke-width="1.32708"/>
<rect x="888.22" y="0.663542" width="104.84" height="104.84" stroke="white" stroke-opacity="0.2" stroke-width="1.32708"/>
<rect x="-55.3365" y="105.503" width="104.84" height="104.84" stroke="white" stroke-opacity="0.2" stroke-width="1.32708"/>
<rect x="49.5034" y="105.503" width="104.84" height="104.84" stroke="white" stroke-opacity="0.2" stroke-width="1.32708"/>
<rect x="154.342" y="105.503" width="104.84" height="104.84" stroke="white" stroke-opacity="0.2" stroke-width="1.32708"/>
<rect x="259.182" y="105.503" width="104.84" height="104.84" stroke="white" stroke-opacity="0.2" stroke-width="1.32708"/>
<rect x="364.022" y="105.503" width="104.84" height="104.84" stroke="white" stroke-opacity="0.2" stroke-width="1.32708"/>
<rect x="468.862" y="105.503" width="104.84" height="104.84" stroke="white" stroke-opacity="0.2" stroke-width="1.32708"/>
<rect x="573.701" y="105.503" width="104.84" height="104.84" stroke="white" stroke-opacity="0.2" stroke-width="1.32708"/>
<rect x="678.54" y="105.503" width="104.84" height="104.84" stroke="white" stroke-opacity="0.2" stroke-width="1.32708"/>
<rect x="783.38" y="105.503" width="104.84" height="104.84" stroke="white" stroke-opacity="0.2" stroke-width="1.32708"/>
<rect x="888.22" y="105.503" width="104.84" height="104.84" stroke="white" stroke-opacity="0.2" stroke-width="1.32708"/>
<rect x="-55.3365" y="210.343" width="104.84" height="104.84" stroke="white" stroke-opacity="0.2" stroke-width="1.32708"/>
<rect x="49.5034" y="210.343" width="104.84" height="104.84" stroke="white" stroke-opacity="0.2" stroke-width="1.32708"/>
<rect x="154.342" y="210.343" width="104.84" height="104.84" stroke="white" stroke-opacity="0.2" stroke-width="1.32708"/>
<rect x="259.182" y="210.343" width="104.84" height="104.84" stroke="white" stroke-opacity="0.2" stroke-width="1.32708"/>
<rect x="363.358" y="209.68" width="106.167" height="106.167" fill="white" fill-opacity="0.3"/>
<rect x="364.022" y="210.343" width="104.84" height="104.84" stroke="white" stroke-opacity="0.2" stroke-width="1.32708"/>
<rect x="468.862" y="210.343" width="104.84" height="104.84" stroke="white" stroke-opacity="0.2" stroke-width="1.32708"/>
<rect x="573.037" y="209.68" width="106.167" height="106.167" fill="white" fill-opacity="0.3"/>
<rect x="573.701" y="210.343" width="104.84" height="104.84" stroke="white" stroke-opacity="0.2" stroke-width="1.32708"/>
<rect x="678.54" y="210.343" width="104.84" height="104.84" stroke="white" stroke-opacity="0.2" stroke-width="1.32708"/>
<rect x="783.38" y="210.343" width="104.84" height="104.84" stroke="white" stroke-opacity="0.2" stroke-width="1.32708"/>
<rect x="888.22" y="210.343" width="104.84" height="104.84" stroke="white" stroke-opacity="0.2" stroke-width="1.32708"/>
<rect x="-55.3365" y="315.183" width="104.84" height="104.84" stroke="white" stroke-opacity="0.2" stroke-width="1.32708"/>
<rect x="49.5034" y="315.183" width="104.84" height="104.84" stroke="white" stroke-opacity="0.2" stroke-width="1.32708"/>
<rect x="154.342" y="315.183" width="104.84" height="104.84" stroke="white" stroke-opacity="0.2" stroke-width="1.32708"/>
<rect x="259.182" y="315.183" width="104.84" height="104.84" stroke="white" stroke-opacity="0.2" stroke-width="1.32708"/>
<rect x="364.022" y="315.183" width="104.84" height="104.84" stroke="white" stroke-opacity="0.2" stroke-width="1.32708"/>
<rect x="468.862" y="315.183" width="104.84" height="104.84" stroke="white" stroke-opacity="0.2" stroke-width="1.32708"/>
<rect x="573.701" y="315.183" width="104.84" height="104.84" stroke="white" stroke-opacity="0.2" stroke-width="1.32708"/>
<rect x="678.54" y="315.183" width="104.84" height="104.84" stroke="white" stroke-opacity="0.2" stroke-width="1.32708"/>
<rect x="783.38" y="315.183" width="104.84" height="104.84" stroke="white" stroke-opacity="0.2" stroke-width="1.32708"/>
<rect x="888.22" y="315.183" width="104.84" height="104.84" stroke="white" stroke-opacity="0.2" stroke-width="1.32708"/>
<rect x="-55.3365" y="420.023" width="104.84" height="104.84" stroke="white" stroke-opacity="0.2" stroke-width="1.32708"/>
<rect x="49.5034" y="420.023" width="104.84" height="104.84" stroke="white" stroke-opacity="0.2" stroke-width="1.32708"/>
<rect x="154.342" y="420.023" width="104.84" height="104.84" stroke="white" stroke-opacity="0.2" stroke-width="1.32708"/>
<rect x="258.519" y="419.359" width="106.167" height="106.167" fill="white" fill-opacity="0.3"/>
<rect x="259.182" y="420.023" width="104.84" height="104.84" stroke="white" stroke-opacity="0.2" stroke-width="1.32708"/>
<rect x="364.022" y="420.023" width="104.84" height="104.84" stroke="white" stroke-opacity="0.2" stroke-width="1.32708"/>
<rect x="468.862" y="420.023" width="104.84" height="104.84" stroke="white" stroke-opacity="0.2" stroke-width="1.32708"/>
<rect x="573.701" y="420.023" width="104.84" height="104.84" stroke="white" stroke-opacity="0.2" stroke-width="1.32708"/>
<rect x="678.54" y="420.023" width="104.84" height="104.84" stroke="white" stroke-opacity="0.2" stroke-width="1.32708"/>
<rect x="783.38" y="420.023" width="104.84" height="104.84" stroke="white" stroke-opacity="0.2" stroke-width="1.32708"/>
<rect x="888.22" y="420.023" width="104.84" height="104.84" stroke="white" stroke-opacity="0.2" stroke-width="1.32708"/>
<rect x="-55.3365" y="524.863" width="104.84" height="104.84" stroke="white" stroke-opacity="0.2" stroke-width="1.32708"/>
<rect x="49.5034" y="524.863" width="104.84" height="104.84" stroke="white" stroke-opacity="0.2" stroke-width="1.32708"/>
<rect x="154.342" y="524.863" width="104.84" height="104.84" stroke="white" stroke-opacity="0.2" stroke-width="1.32708"/>
<rect x="259.182" y="524.863" width="104.84" height="104.84" stroke="white" stroke-opacity="0.2" stroke-width="1.32708"/>
<rect x="364.022" y="524.863" width="104.84" height="104.84" stroke="white" stroke-opacity="0.2" stroke-width="1.32708"/>
<rect x="468.862" y="524.863" width="104.84" height="104.84" stroke="white" stroke-opacity="0.2" stroke-width="1.32708"/>
<rect x="573.701" y="524.863" width="104.84" height="104.84" stroke="white" stroke-opacity="0.2" stroke-width="1.32708"/>
<rect x="678.54" y="524.863" width="104.84" height="104.84" stroke="white" stroke-opacity="0.2" stroke-width="1.32708"/>
<rect x="783.38" y="524.863" width="104.84" height="104.84" stroke="white" stroke-opacity="0.2" stroke-width="1.32708"/>
<rect x="888.22" y="524.863" width="104.84" height="104.84" stroke="white" stroke-opacity="0.2" stroke-width="1.32708"/>
<rect x="-55.3365" y="629.703" width="104.84" height="104.84" stroke="white" stroke-opacity="0.2" stroke-width="1.32708"/>
<rect x="49.5034" y="629.703" width="104.84" height="104.84" stroke="white" stroke-opacity="0.2" stroke-width="1.32708"/>
<rect x="154.342" y="629.703" width="104.84" height="104.84" stroke="white" stroke-opacity="0.2" stroke-width="1.32708"/>
<rect x="259.182" y="629.703" width="104.84" height="104.84" stroke="white" stroke-opacity="0.2" stroke-width="1.32708"/>
<rect x="364.022" y="629.703" width="104.84" height="104.84" stroke="white" stroke-opacity="0.2" stroke-width="1.32708"/>
<rect x="468.862" y="629.703" width="104.84" height="104.84" stroke="white" stroke-opacity="0.2" stroke-width="1.32708"/>
<rect x="573.701" y="629.703" width="104.84" height="104.84" stroke="white" stroke-opacity="0.2" stroke-width="1.32708"/>
<rect x="678.54" y="629.703" width="104.84" height="104.84" stroke="white" stroke-opacity="0.2" stroke-width="1.32708"/>
<rect x="783.38" y="629.703" width="104.84" height="104.84" stroke="white" stroke-opacity="0.2" stroke-width="1.32708"/>
<rect x="888.22" y="629.703" width="104.84" height="104.84" stroke="white" stroke-opacity="0.2" stroke-width="1.32708"/>
</g>
<defs>
<radialGradient id="paint0_radial_10629_26848" cx="0" cy="0" r="1" gradientUnits="userSpaceOnUse" gradientTransform="translate(468 368) rotate(90) scale(438.665 625.813)">
<stop stop-color="white" stop-opacity="0.15"/>
<stop offset="0.615" stop-color="white" stop-opacity="0.075"/>
<stop offset="1" stop-color="white" stop-opacity="0"/>
</radialGradient>
</defs>
</svg>
