<svg width="24" height="20" viewBox="0 0 24 20" fill="none" xmlns="http://www.w3.org/2000/svg">
<path d="M16.5251 19.0141C15.7606 19.0141 14.8868 19.0082 14.2258 19.0052H13.8391L10.8593 19.0037L12.6474 8.12258H17.6987C17.7692 8.11959 18.4796 8.07188 18.7779 8.00626C19.992 7.73934 20.8958 7.06831 21.2586 6.16466C21.4549 5.67406 21.4489 5.19987 21.4265 4.96128C21.41 4.76892 21.3785 4.40954 21.1552 4.02333C21.1372 3.99052 20.9693 3.7072 20.6785 3.46414C20.2318 3.08985 19.5663 2.8796 18.7045 2.83784C17.937 2.80206 17.0677 2.78267 16.1189 2.78267C14.9407 2.78267 13.1675 2.81995 12.6294 2.83933L9.89246 19.0156L1.02051 19.0052L1.38474 17.1531L5.65359 17.174L8.06081 2.85872L4.80522 2.83784L5.17994 1.01562H18.4137C18.6895 1.01712 18.9653 1.03948 19.2351 1.08273C19.6293 1.14536 20.8254 1.33623 21.8551 2.2876C22.3048 2.70364 22.5701 3.12415 22.687 3.3359C22.8429 3.61773 23.1142 4.20824 23.1787 5.00303C23.2371 5.72178 23.1232 6.43009 22.8474 7.05042C22.4412 7.96451 21.6858 8.71159 20.692 9.19473C20.8044 9.27526 20.9138 9.36025 21.0188 9.44972C21.4744 9.8419 21.8401 10.3012 22.1085 10.8171C22.4352 11.439 22.6196 12.1174 22.657 12.8332C22.747 14.4646 22.0395 16.1063 20.716 17.3351C20.5406 17.5051 18.9203 19.0126 16.5266 19.0126L16.5251 19.0141ZM12.9787 17.1576C13.6127 17.1621 15.0981 17.1695 16.2433 17.1695C17.97 17.1695 19.2366 16.0348 19.3745 15.905C20.3652 14.985 20.9183 13.7443 20.8554 12.5872C20.8314 12.1324 20.7175 11.7103 20.5196 11.3331C20.3772 11.0587 20.1824 10.8141 19.944 10.6084C19.391 10.1357 18.5995 9.88515 17.6582 9.88515H14.1973L12.9787 17.1561V17.1576Z" fill="#0F0F0F" stroke="#0F0F0F" stroke-width="0.0373886" stroke-miterlimit="10"/>
</svg>
