<svg width="160" height="24" viewBox="0 0 160 24" fill="none" xmlns="http://www.w3.org/2000/svg">
<path d="M0.545898 23.0164V1.64551H7.18954C8.67317 1.64551 9.98226 1.80914 11.1168 2.13642C12.2514 2.46369 13.1459 3.00914 13.8004 3.77278C14.455 4.53642 14.7823 5.57278 14.7823 6.88187C14.7823 7.90733 14.4768 8.85642 13.8768 9.72915C13.2768 10.6019 12.3386 11.2019 11.0841 11.5291V11.6601C12.6114 11.9219 13.7895 12.4673 14.6186 13.2964C15.4477 14.1255 15.8623 15.271 15.8623 16.7328C15.8623 18.1946 15.5132 19.3291 14.815 20.2673C14.1168 21.2055 13.1568 21.9037 11.935 22.3401C10.7132 22.7873 9.31681 23.0164 7.7459 23.0164H0.545898ZM4.34226 10.4164H6.86226C8.36772 10.4164 9.44772 10.1546 10.1023 9.63096C10.7568 9.10733 11.0841 8.34369 11.0841 7.34005C11.0841 6.33642 10.735 5.67096 10.0477 5.26733C9.36044 4.86369 8.32408 4.65642 6.96044 4.65642H4.34226V10.4164ZM4.34226 19.9728H7.35317C8.92408 19.9728 10.1241 19.7001 10.9532 19.1328C11.7823 18.5764 12.1968 17.6928 12.1968 16.471C12.1968 15.3364 11.7823 14.5182 10.975 14.0382C10.1568 13.5473 8.9459 13.2964 7.36408 13.2964H4.35317V19.9728H4.34226Z" fill="white"/>
<path d="M21.2939 23.0164V1.61279H25.0576V19.8092H35.1049V23.0164H21.2939Z" fill="white"/>
<path d="M51.959 23.0164H55.9845L49.0463 1.61279H44.5954L37.6572 23.0164H41.519L43.1881 17.2237H50.3118L51.959 23.0164ZM44.039 14.2455L44.7918 11.6273C45.119 10.4928 45.4354 9.32552 45.7627 8.12552C46.079 6.92552 46.3845 5.73643 46.69 4.55825H46.8209C47.1045 5.73643 47.41 6.92552 47.759 8.12552C48.0972 9.32552 48.4136 10.4928 48.719 11.6273L49.4609 14.2455H44.039Z" fill="white"/>
<path d="M68.2253 23.4091C66.8944 23.4091 65.6399 23.1691 64.4726 22.6891C63.3053 22.2091 62.2799 21.5 61.3962 20.5619C60.5126 19.6237 59.8253 18.4673 59.3344 17.0928C58.8435 15.7182 58.6035 14.1473 58.6035 12.38C58.6035 10.0455 59.029 8.03823 59.9017 6.38005C60.7635 4.71096 61.9417 3.43459 63.4362 2.55096C64.9308 1.66732 66.6217 1.23096 68.4981 1.23096C69.829 1.23096 71.0181 1.50368 72.0653 2.04914C73.1126 2.59459 73.9635 3.21641 74.6181 3.91459L72.5235 6.27096C71.9999 5.7255 71.4108 5.30005 70.7562 4.99459C70.1017 4.68914 69.349 4.53641 68.4981 4.53641C67.3199 4.53641 66.2726 4.85278 65.3671 5.46368C64.4617 6.0855 63.7526 6.98005 63.2508 8.13641C62.749 9.29278 62.4981 10.6782 62.4981 12.2928C62.4981 13.9073 62.749 15.3037 63.2508 16.4819C63.7526 17.66 64.4617 18.5546 65.3781 19.1873C66.2944 19.8091 67.3635 20.1146 68.5853 20.1146C69.4799 20.1146 70.2762 19.9291 70.9744 19.5473C71.6726 19.1655 72.3272 18.6419 72.9381 17.9873L75.0326 20.311C74.1817 21.3146 73.189 22.0891 72.0544 22.6237C70.9199 23.1582 69.6435 23.42 68.2253 23.42V23.4091Z" fill="white"/>
<path d="M95.4872 23.0164L88.189 9.93643L94.8 1.61279H90.5454L82.92 11.3328H82.8218V1.61279H78.96V23.0164H82.8218V16.7001L85.8763 12.8492L91.2654 23.0164H95.4872Z" fill="white"/>
<path d="M110.334 23.4092C109.155 23.4092 107.955 23.1364 106.734 22.591C105.512 22.0455 104.486 21.1401 103.657 19.8746L105.883 17.5182C106.515 18.3692 107.214 19.0128 107.966 19.4492C108.719 19.8855 109.472 20.1037 110.235 20.1037C111.545 20.1037 112.515 19.7655 113.148 19.0673C113.781 18.3801 114.097 17.2346 114.097 15.6201V4.78734H105.425V1.61279H117.894V15.9473C117.894 17.3219 117.654 18.5764 117.174 19.7001C116.694 20.8237 115.908 21.7292 114.817 22.4055C113.726 23.0819 112.232 23.4201 110.334 23.4201V23.4092Z" fill="white"/>
<path d="M124.375 23.0164V1.61279H138.088V4.82007H128.171V10.2855H136.582V13.4928H128.171V19.8092H138.415V23.0164H124.375Z" fill="white"/>
<path d="M148.561 23.0164V4.78733H141.852V1.64551H159.066V4.78733H152.357V23.0164H148.561Z" fill="white"/>
</svg>
