<svg width="29" height="29" viewBox="0 0 29 29" fill="none" xmlns="http://www.w3.org/2000/svg">
<path d="M19.8271 1.48706C18.6808 0.216164 16.704 0.165474 15.4941 1.37594L1.41467 15.4613C0.214934 16.6615 0.253019 18.619 1.49853 19.7716L3.10281 21.2562C3.93566 22.0269 5.07652 21.8546 5.77455 21.5708C5.9992 21.4794 6.24562 21.4286 6.50606 21.4286C7.57987 21.4286 8.45037 22.2995 8.45037 23.3738C8.45037 23.5808 8.41838 23.7785 8.35972 23.9634C8.13193 24.6812 8.04838 25.833 8.88151 26.6039L10.071 27.7048C11.2421 28.7885 13.0574 28.7613 14.1956 27.643L27.6443 14.4289C28.7872 13.306 28.8422 11.4813 27.769 10.2915L26.5147 8.90101C25.7741 8.07992 24.6572 8.12546 23.947 8.3242C23.7809 8.37068 23.6049 8.39581 23.4216 8.39581C22.3478 8.39581 21.4773 7.52492 21.4773 6.45062C21.4773 6.1968 21.5254 5.95635 21.6123 5.7364C21.8835 5.04937 22.0424 3.94294 21.3021 3.12216L19.8271 1.48706Z" fill="#F2F2F2"/>
</svg>
