<svg width="97" height="96" viewBox="0 0 97 96" fill="none" xmlns="http://www.w3.org/2000/svg">
<g filter="url(#filter0_bi_7115_724)">
<g filter="url(#filter1_bi_7115_724)">
<ellipse cx="48.5" cy="47.9996" rx="47.0204" ry="46.5455" fill="black" fill-opacity="0.25"/>
<path d="M48.5 95.045C74.74 95.045 96.0204 73.9868 96.0204 47.9996C96.0204 22.0123 74.74 0.954102 48.5 0.954102C22.26 0.954102 0.979614 22.0123 0.979614 47.9996C0.979614 73.9868 22.26 95.045 48.5 95.045Z" stroke="url(#paint0_linear_7115_724)" stroke-opacity="0.2"/>
</g>
<path d="M40.9087 63.5147C41.6593 63.5147 42.3205 63.2493 43.1426 62.7717L64.2491 50.6886C65.786 49.804 66.4294 49.1141 66.4294 47.9995C66.4294 46.885 65.786 46.2127 64.2491 45.3105L43.1426 33.2274C42.3205 32.7497 41.6593 32.4844 40.9087 32.4844C39.4432 32.4844 38.4066 33.5989 38.4066 35.3503V60.6487C38.4066 62.4178 39.4432 63.5147 40.9087 63.5147Z" fill="white"/>
</g>
<defs>
<filter id="filter0_bi_7115_724" x="-19.5204" y="-20" width="136.041" height="136" filterUnits="userSpaceOnUse" color-interpolation-filters="sRGB">
<feFlood flood-opacity="0" result="BackgroundImageFix"/>
<feGaussianBlur in="BackgroundImageFix" stdDeviation="10"/>
<feComposite in2="SourceAlpha" operator="in" result="effect1_backgroundBlur_7115_724"/>
<feBlend mode="normal" in="SourceGraphic" in2="effect1_backgroundBlur_7115_724" result="shape"/>
<feColorMatrix in="SourceAlpha" type="matrix" values="0 0 0 0 0 0 0 0 0 0 0 0 0 0 0 0 0 0 127 0" result="hardAlpha"/>
<feMorphology radius="1.5" operator="dilate" in="SourceAlpha" result="effect2_innerShadow_7115_724"/>
<feOffset dx="-0.8" dy="0.8"/>
<feGaussianBlur stdDeviation="0.4"/>
<feComposite in2="hardAlpha" operator="arithmetic" k2="-1" k3="1"/>
<feColorMatrix type="matrix" values="0 0 0 0 1 0 0 0 0 1 0 0 0 0 1 0 0 0 0.35 0"/>
<feBlend mode="normal" in2="shape" result="effect2_innerShadow_7115_724"/>
</filter>
<filter id="filter1_bi_7115_724" x="-19.5204" y="-19.5459" width="136.041" height="135.091" filterUnits="userSpaceOnUse" color-interpolation-filters="sRGB">
<feFlood flood-opacity="0" result="BackgroundImageFix"/>
<feGaussianBlur in="BackgroundImageFix" stdDeviation="10"/>
<feComposite in2="SourceAlpha" operator="in" result="effect1_backgroundBlur_7115_724"/>
<feBlend mode="normal" in="SourceGraphic" in2="effect1_backgroundBlur_7115_724" result="shape"/>
<feColorMatrix in="SourceAlpha" type="matrix" values="0 0 0 0 0 0 0 0 0 0 0 0 0 0 0 0 0 0 127 0" result="hardAlpha"/>
<feMorphology radius="1.5" operator="dilate" in="SourceAlpha" result="effect2_innerShadow_7115_724"/>
<feOffset dx="-0.8" dy="0.8"/>
<feGaussianBlur stdDeviation="0.4"/>
<feComposite in2="hardAlpha" operator="arithmetic" k2="-1" k3="1"/>
<feColorMatrix type="matrix" values="0 0 0 0 1 0 0 0 0 1 0 0 0 0 1 0 0 0 0.35 0"/>
<feBlend mode="normal" in2="shape" result="effect2_innerShadow_7115_724"/>
</filter>
<linearGradient id="paint0_linear_7115_724" x1="96.8266" y1="0.161175" x2="49.276" y2="94.9344" gradientUnits="userSpaceOnUse">
<stop stop-color="white"/>
<stop offset="1" stop-color="white" stop-opacity="0.3"/>
</linearGradient>
</defs>
</svg>
