<svg width="98" height="96" viewBox="0 0 98 96" fill="none" xmlns="http://www.w3.org/2000/svg">
<g filter="url(#filter0_bi_1120_2812)">
<g filter="url(#filter1_bi_1120_2812)">
<ellipse cx="49.0009" cy="48" rx="47.0204" ry="46.5455" fill="black" fill-opacity="0.25"/>
<path d="M49.0009 95.0454C75.2409 95.0454 96.5213 73.9872 96.5213 48C96.5213 22.0127 75.2409 0.954529 49.0009 0.954529C22.7609 0.954529 1.48047 22.0127 1.48047 48C1.48047 73.9872 22.7609 95.0454 49.0009 95.0454Z" stroke="url(#paint0_linear_1120_2812)" stroke-opacity="0.2"/>
</g>
<path d="M39.6368 63.5152H44.0638C45.8535 63.5152 46.7765 62.6014 46.7765 60.8299V35.1702C46.7765 33.3613 45.8535 32.5035 44.0638 32.4849H39.6368C37.8472 32.4849 36.9241 33.3986 36.9241 35.1702V60.8299C36.9053 62.6014 37.8283 63.5152 39.6368 63.5152ZM53.9539 63.5152H58.3621C60.1517 63.5152 61.0748 62.6014 61.0748 60.8299V35.1702C61.0748 33.3613 60.1517 32.4849 58.3621 32.4849H53.9539C52.1455 32.4849 51.2412 33.3986 51.2412 35.1702V60.8299C51.2412 62.6014 52.1455 63.5152 53.9539 63.5152Z" fill="white"/>
</g>
<defs>
<filter id="filter0_bi_1120_2812" x="-19.0195" y="-20" width="136.041" height="136" filterUnits="userSpaceOnUse" color-interpolation-filters="sRGB">
<feFlood flood-opacity="0" result="BackgroundImageFix"/>
<feGaussianBlur in="BackgroundImageFix" stdDeviation="10"/>
<feComposite in2="SourceAlpha" operator="in" result="effect1_backgroundBlur_1120_2812"/>
<feBlend mode="normal" in="SourceGraphic" in2="effect1_backgroundBlur_1120_2812" result="shape"/>
<feColorMatrix in="SourceAlpha" type="matrix" values="0 0 0 0 0 0 0 0 0 0 0 0 0 0 0 0 0 0 127 0" result="hardAlpha"/>
<feMorphology radius="1.5" operator="dilate" in="SourceAlpha" result="effect2_innerShadow_1120_2812"/>
<feOffset dx="-0.8" dy="0.8"/>
<feGaussianBlur stdDeviation="0.4"/>
<feComposite in2="hardAlpha" operator="arithmetic" k2="-1" k3="1"/>
<feColorMatrix type="matrix" values="0 0 0 0 1 0 0 0 0 1 0 0 0 0 1 0 0 0 0.35 0"/>
<feBlend mode="normal" in2="shape" result="effect2_innerShadow_1120_2812"/>
</filter>
<filter id="filter1_bi_1120_2812" x="-19.0195" y="-19.5455" width="136.041" height="135.091" filterUnits="userSpaceOnUse" color-interpolation-filters="sRGB">
<feFlood flood-opacity="0" result="BackgroundImageFix"/>
<feGaussianBlur in="BackgroundImageFix" stdDeviation="10"/>
<feComposite in2="SourceAlpha" operator="in" result="effect1_backgroundBlur_1120_2812"/>
<feBlend mode="normal" in="SourceGraphic" in2="effect1_backgroundBlur_1120_2812" result="shape"/>
<feColorMatrix in="SourceAlpha" type="matrix" values="0 0 0 0 0 0 0 0 0 0 0 0 0 0 0 0 0 0 127 0" result="hardAlpha"/>
<feMorphology radius="1.5" operator="dilate" in="SourceAlpha" result="effect2_innerShadow_1120_2812"/>
<feOffset dx="-0.8" dy="0.8"/>
<feGaussianBlur stdDeviation="0.4"/>
<feComposite in2="hardAlpha" operator="arithmetic" k2="-1" k3="1"/>
<feColorMatrix type="matrix" values="0 0 0 0 1 0 0 0 0 1 0 0 0 0 1 0 0 0 0.35 0"/>
<feBlend mode="normal" in2="shape" result="effect2_innerShadow_1120_2812"/>
</filter>
<linearGradient id="paint0_linear_1120_2812" x1="97.3274" y1="0.161602" x2="49.7769" y2="94.9348" gradientUnits="userSpaceOnUse">
<stop stop-color="white"/>
<stop offset="1" stop-color="white" stop-opacity="0.3"/>
</linearGradient>
</defs>
</svg>
