<svg width="21" height="21" viewBox="0 0 21 21" fill="none" xmlns="http://www.w3.org/2000/svg">
<g id="Chat" clip-path="url(#clip0_130_6736)">
<path id="Shape" d="M10.5 0C16.0228 0 20.5 4.47715 20.5 10C20.5 15.5228 16.0228 20 10.5 20C8.88171 20 7.31782 19.6146 5.91286 18.888L2.08704 19.9553C1.42212 20.141 0.732581 19.7525 0.546906 19.0876C0.485464 18.8676 0.485494 18.6349 0.546948 18.4151L1.61461 14.5922C0.886366 13.186 0.5 11.6203 0.5 10C0.5 4.47715 4.97715 0 10.5 0ZM10.5 1.5C5.80558 1.5 2 5.30558 2 10C2 11.4696 2.37277 12.8834 3.07303 14.1375L3.22368 14.4072L2.11096 18.3914L6.09755 17.2792L6.36709 17.4295C7.62006 18.1281 9.03218 18.5 10.5 18.5C15.1944 18.5 19 14.6944 19 10C19 5.30558 15.1944 1.5 10.5 1.5ZM7.25 11H11.7483C12.1625 11 12.4983 11.3358 12.4983 11.75C12.4983 12.1297 12.2161 12.4435 11.85 12.4932L11.7483 12.5H7.25C6.83579 12.5 6.5 12.1642 6.5 11.75C6.5 11.3703 6.78215 11.0565 7.14823 11.0068L7.25 11H11.7483H7.25ZM7.25 7.5H13.7545C14.1687 7.5 14.5045 7.83579 14.5045 8.25C14.5045 8.6297 14.2223 8.94349 13.8563 8.99315L13.7545 9H7.25C6.83579 9 6.5 8.66421 6.5 8.25C6.5 7.8703 6.78215 7.55651 7.14823 7.50685L7.25 7.5H13.7545H7.25Z" fill="white"/>
</g>
<defs>
<clipPath id="clip0_130_6736">
<rect width="20" height="21" fill="white" transform="translate(0.5)"/>
</clipPath>
</defs>
</svg>
