<svg width="17" height="16" viewBox="0 0 17 16" fill="none" xmlns="http://www.w3.org/2000/svg">
<g clip-path="url(#clip0_9479_4080)">
<path d="M8.25 0C12.6683 0 16.25 3.58172 16.25 8C16.25 12.4183 12.6683 16 8.25 16C3.83172 16 0.25 12.4183 0.25 8C0.25 3.58172 3.83172 0 8.25 0ZM8.25 1C4.38401 1 1.25 4.13401 1.25 8C1.25 11.866 4.38401 15 8.25 15C12.116 15 15.25 11.866 15.25 8C15.25 4.13401 12.116 1 8.25 1ZM11.6084 5.64645C11.782 5.82001 11.8013 6.08944 11.6663 6.28431L11.6084 6.35355L7.60355 10.3584C7.42999 10.532 7.16056 10.5513 6.96569 10.4163L6.89645 10.3584L4.89645 8.35842C4.70118 8.16316 4.70118 7.84658 4.89645 7.65131C5.07001 7.47775 5.33944 7.45846 5.53431 7.59346L5.60355 7.65131L7.25 9.298L10.9013 5.64645C11.0966 5.45118 11.4132 5.45118 11.6084 5.64645Z" fill="#141414"/>
</g>
<defs>
<clipPath id="clip0_9479_4080">
<rect width="17" height="16" fill="white"/>
</clipPath>
</defs>
</svg>
