<svg width="21" height="20" viewBox="0 0 21 20" fill="none" xmlns="http://www.w3.org/2000/svg">
<rect x="0.5" width="20" height="20" rx="10" fill="#E6E6E6"/>
<path d="M5.08859 4.71569L5.14645 4.64645C5.32001 4.47288 5.58944 4.4536 5.78431 4.58859L5.85355 4.64645L10.5 9.293L15.1464 4.64645C15.3417 4.45118 15.6583 4.45118 15.8536 4.64645C16.0488 4.84171 16.0488 5.15829 15.8536 5.35355L11.207 10L15.8536 14.6464C16.0271 14.82 16.0464 15.0894 15.9114 15.2843L15.8536 15.3536C15.68 15.5271 15.4106 15.5464 15.2157 15.4114L15.1464 15.3536L10.5 10.707L5.85355 15.3536C5.65829 15.5488 5.34171 15.5488 5.14645 15.3536C4.95118 15.1583 4.95118 14.8417 5.14645 14.6464L9.793 10L5.14645 5.35355C4.97288 5.17999 4.9536 4.91056 5.08859 4.71569L5.14645 4.64645L5.08859 4.71569Z" fill="#141414"/>
</svg>
