<svg width="50" height="50" viewBox="0 0 50 50" fill="none" xmlns="http://www.w3.org/2000/svg">
<g filter="url(#filter0_bi_242_1896)">
<rect x="1" y="1" width="48" height="48" rx="24" fill="black" fill-opacity="0.25"/>
<rect x="0.5" y="0.5" width="49" height="49" rx="24.5" stroke="url(#paint0_linear_242_1896)" stroke-opacity="0.2"/>
<g clip-path="url(#clip0_242_1896)">
<path d="M33.2929 15.2929C33.6834 14.9024 34.3166 14.9024 34.7071 15.2929C35.0976 15.6834 35.0976 16.3166 34.7071 16.7071L26.4142 25L34.7071 33.2929C35.0976 33.6834 35.0976 34.3166 34.7071 34.7071C34.3166 35.0976 33.6834 35.0976 33.2929 34.7071L25 26.4142L16.7071 34.7071C16.3166 35.0976 15.6834 35.0976 15.2929 34.7071C14.9024 34.3166 14.9024 33.6834 15.2929 33.2929L23.5858 25L15.2929 16.7071C14.9024 16.3166 14.9024 15.6834 15.2929 15.2929C15.6834 14.9024 16.3166 14.9024 16.7071 15.2929L25 23.5858L33.2929 15.2929Z" fill="#B3B3B3"/>
</g>
</g>
<defs>
<filter id="filter0_bi_242_1896" x="-20" y="-20" width="90" height="90" filterUnits="userSpaceOnUse" color-interpolation-filters="sRGB">
<feFlood flood-opacity="0" result="BackgroundImageFix"/>
<feGaussianBlur in="BackgroundImageFix" stdDeviation="10"/>
<feComposite in2="SourceAlpha" operator="in" result="effect1_backgroundBlur_242_1896"/>
<feBlend mode="normal" in="SourceGraphic" in2="effect1_backgroundBlur_242_1896" result="shape"/>
<feColorMatrix in="SourceAlpha" type="matrix" values="0 0 0 0 0 0 0 0 0 0 0 0 0 0 0 0 0 0 127 0" result="hardAlpha"/>
<feMorphology radius="1.5" operator="dilate" in="SourceAlpha" result="effect2_innerShadow_242_1896"/>
<feOffset dx="-0.8" dy="0.8"/>
<feGaussianBlur stdDeviation="0.4"/>
<feComposite in2="hardAlpha" operator="arithmetic" k2="-1" k3="1"/>
<feColorMatrix type="matrix" values="0 0 0 0 1 0 0 0 0 1 0 0 0 0 1 0 0 0 0.35 0"/>
<feBlend mode="normal" in2="shape" result="effect2_innerShadow_242_1896"/>
</filter>
<linearGradient id="paint0_linear_242_1896" x1="49.6667" y1="0.333335" x2="25" y2="49" gradientUnits="userSpaceOnUse">
<stop stop-color="white"/>
<stop offset="1" stop-color="white" stop-opacity="0.3"/>
</linearGradient>
<clipPath id="clip0_242_1896">
<rect width="16" height="16" fill="white" transform="translate(17 17)"/>
</clipPath>
</defs>
</svg>
