<svg xmlns="http://www.w3.org/2000/svg" width="2241" height="1570" fill="none"><mask id="b" width="2241" height="1570" x="0" y="0" maskUnits="userSpaceOnUse" style="mask-type:alpha"><path fill="url(#a)" d="M.199 0h2240v1570H.199z"/></mask><g mask="url(#b)"><path stroke="#fff" stroke-opacity=".2" stroke-width="1.327" d="M1.863 2.664h223.673v223.673H1.863zM225.536 2.664h223.673v223.673H225.536z"/><path fill="#fff" fill-opacity=".3" d="M448.545 2h225v225h-225z"/><path stroke="#fff" stroke-opacity=".2" stroke-width="1.327" d="M449.208 2.664h223.673v223.673H449.208z"/><path stroke="#fff" stroke-opacity=".2" stroke-width="1.327" d="M672.881 2.664h223.673v223.673H672.881zM896.554 2.664h223.673v223.673H896.554zM1120.23 2.664h223.673v223.673H1120.23z"/><path fill="#fff" fill-opacity=".3" d="M1343.24 2h225v225h-225z"/><path stroke="#fff" stroke-opacity=".2" stroke-width="1.327" d="M1343.9 2.664h223.673v223.673H1343.9z"/><path stroke="#fff" stroke-opacity=".2" stroke-width="1.327" d="M1567.57 2.664h223.673v223.673H1567.57zM1791.25 2.664h223.673v223.673H1791.25z"/><path stroke="#fff" stroke-opacity=".2" stroke-width="1.327" d="M2014.92 2.664h223.673v223.673H2014.92zM1.863 226.336h223.673v223.673H1.863z"/><path fill="#fff" fill-opacity=".3" d="M224.872 225.673h225v225h-225z"/><path stroke="#fff" stroke-opacity=".2" stroke-width="1.327" d="M225.536 226.336h223.673v223.673H225.536z"/><path stroke="#fff" stroke-opacity=".2" stroke-width="1.327" d="M449.208 226.336h223.673v223.673H449.208z"/><path stroke="#fff" stroke-opacity=".2" stroke-width="1.327" d="M672.881 226.336h223.673v223.673H672.881zM896.554 226.336h223.673v223.673H896.554zM1120.23 226.336h223.673v223.673H1120.23z"/><path stroke="#fff" stroke-opacity=".2" stroke-width="1.327" d="M1343.9 226.336h223.673v223.673H1343.9z"/><path stroke="#fff" stroke-opacity=".2" stroke-width="1.327" d="M1567.57 226.336h223.673v223.673H1567.57z"/><path fill="#fff" fill-opacity=".3" d="M1790.58 225.673h225v225h-225z"/><path stroke="#fff" stroke-opacity=".2" stroke-width="1.327" d="M1791.25 226.336h223.673v223.673H1791.25z"/><path stroke="#fff" stroke-opacity=".2" stroke-width="1.327" d="M2014.92 226.336h223.673v223.673H2014.92zM1.863 450.009h223.673v223.673H1.863zM225.536 450.009h223.673v223.673H225.536z"/><path stroke="#fff" stroke-opacity=".2" stroke-width="1.327" d="M449.208 450.009h223.673v223.673H449.208z"/><path stroke="#fff" stroke-opacity=".2" stroke-width="1.327" d="M672.881 450.009h223.673v223.673H672.881z"/><path fill="#fff" fill-opacity=".3" d="M895.891 449.346h225v225h-225z"/><path stroke="#fff" stroke-opacity=".2" stroke-width="1.327" d="M896.554 450.009h223.673v223.673H896.554zM1120.23 450.009h223.673v223.673H1120.23z"/><path fill="#fff" fill-opacity=".3" d="M1343.24 449.346h225v225h-225z"/><path stroke="#fff" stroke-opacity=".2" stroke-width="1.327" d="M1343.9 450.009h223.673v223.673H1343.9z"/><path stroke="#fff" stroke-opacity=".2" stroke-width="1.327" d="M1567.57 450.009h223.673v223.673H1567.57zM1791.25 450.009h223.673v223.673H1791.25z"/><path stroke="#fff" stroke-opacity=".2" stroke-width="1.327" d="M2014.92 450.009h223.673v223.673H2014.92zM1.863 673.682h223.673v223.673H1.863zM225.536 673.682h223.673v223.673H225.536z"/><path stroke="#fff" stroke-opacity=".2" stroke-width="1.327" d="M449.208 673.682h223.673v223.673H449.208z"/><path stroke="#fff" stroke-opacity=".2" stroke-width="1.327" d="M672.881 673.682h223.673v223.673H672.881zM896.554 673.682h223.673v223.673H896.554zM1120.23 673.682h223.673v223.673H1120.23z"/><path stroke="#fff" stroke-opacity=".2" stroke-width="1.327" d="M1343.9 673.682h223.673v223.673H1343.9z"/><path stroke="#fff" stroke-opacity=".2" stroke-width="1.327" d="M1567.57 673.682h223.673v223.673H1567.57zM1791.25 673.682h223.673v223.673H1791.25z"/><path fill="#fff" fill-opacity=".3" d="M2014.26 673.019h225v225h-225z"/><path stroke="#fff" stroke-opacity=".2" stroke-width="1.327" d="M2014.92 673.682h223.673v223.673H2014.92z"/><path fill="#fff" fill-opacity=".3" d="M1.199 896.691h225v225h-225z"/><path stroke="#fff" stroke-opacity=".2" stroke-width="1.327" d="M1.863 897.355h223.673v223.673H1.863zM225.536 897.355h223.673v223.673H225.536z"/><path stroke="#fff" stroke-opacity=".2" stroke-width="1.327" d="M449.208 897.355h223.673v223.673H449.208z"/><path fill="#fff" fill-opacity=".3" d="M672.218 896.691h225v225h-225z"/><path stroke="#fff" stroke-opacity=".2" stroke-width="1.327" d="M896.554 897.355h223.673v223.673H896.554zM1120.23 897.355h223.673v223.673H1120.23z"/><path fill="#fff" fill-opacity=".3" d="M1343.24 896.691h225v225h-225z"/><path stroke="#fff" stroke-opacity=".2" stroke-width="1.327" d="M1343.9 897.355h223.673v223.673H1343.9z"/><path stroke="#fff" stroke-opacity=".2" stroke-width="1.327" d="M1567.57 897.355h223.673v223.673H1567.57zM1791.25 897.355h223.673v223.673H1791.25z"/><path stroke="#fff" stroke-opacity=".2" stroke-width="1.327" d="M2014.92 897.355h223.673v223.673H2014.92zM1.863 1121.03h223.673v223.673H1.863zM225.536 1121.03h223.673v223.673H225.536z"/><path stroke="#fff" stroke-opacity=".2" stroke-width="1.327" d="M449.208 1121.03h223.673v223.673H449.208z"/><path stroke="#fff" stroke-opacity=".2" stroke-width="1.327" d="M672.881 1121.03h223.673v223.673H672.881zM896.554 1121.03h223.673v223.673H896.554z"/><path fill="#fff" fill-opacity=".3" d="M1119.56 1120.36h225v225h-225z"/><path stroke="#fff" stroke-opacity=".2" stroke-width="1.327" d="M1120.23 1121.03h223.673v223.673H1120.23z"/><path stroke="#fff" stroke-opacity=".2" stroke-width="1.327" d="M1343.9 1121.03h223.673v223.673H1343.9z"/><path stroke="#fff" stroke-opacity=".2" stroke-width="1.327" d="M1567.57 1121.03h223.673v223.673H1567.57zM1791.25 1121.03h223.673v223.673H1791.25z"/><path stroke="#fff" stroke-opacity=".2" stroke-width="1.327" d="M2014.92 1121.03h223.673v223.673H2014.92zM1.863 1344.7h223.673v223.673H1.863zM225.536 1344.7h223.673v223.673H225.536z"/><path fill="#fff" fill-opacity=".3" d="M448.545 1344.04h225v225h-225z"/><path stroke="#fff" stroke-opacity=".2" stroke-width="1.327" d="M449.208 1344.7h223.673v223.673H449.208z"/><path stroke="#fff" stroke-opacity=".2" stroke-width="1.327" d="M672.881 1344.7h223.673v223.673H672.881zM896.554 1344.7h223.673v223.673H896.554zM1120.23 1344.7h223.673v223.673H1120.23z"/><path stroke="#fff" stroke-opacity=".2" stroke-width="1.327" d="M1343.9 1344.7h223.673v223.673H1343.9z"/><path fill="#fff" fill-opacity=".3" d="M1566.91 1344.04h225v225h-225z"/><path stroke="#fff" stroke-opacity=".2" stroke-width="1.327" d="M1567.57 1344.7h223.673v223.673H1567.57zM1791.25 1344.7h223.673v223.673H1791.25z"/><path stroke="#fff" stroke-opacity=".2" stroke-width="1.327" d="M2014.92 1344.7h223.673v223.673H2014.92z"/></g><defs><radialGradient id="a" cx="0" cy="0" r="1" gradientTransform="matrix(0 998.48 -1424.58 0 1120.2 785)" gradientUnits="userSpaceOnUse"><stop stop-color="#fff" stop-opacity=".1"/><stop offset=".615" stop-color="#fff" stop-opacity=".05"/><stop offset="1" stop-color="#fff" stop-opacity="0"/></radialGradient></defs></svg>