<svg xmlns="http://www.w3.org/2000/svg" width="1440" height="781" fill="none"><mask id="b" width="1490" height="1044" x="-25" y="-57" maskUnits="userSpaceOnUse" style="mask-type:alpha"><path fill="url(#a)" d="M-25-56.602h1490v1043H-25z"/></mask><g mask="url(#b)"><path stroke="#fff" stroke-opacity=".2" stroke-width="1.327" d="M-23.337-55.938h148.673V92.735H-23.337zM125.337-55.938H274.01V92.735H125.337z"/><path fill="#fff" fill-opacity=".3" d="M273.346-56.602h150v150h-150z"/><path stroke="#fff" stroke-opacity=".2" stroke-width="1.327" d="M274.009-55.938h148.673V92.735H274.009zM422.683-55.938h148.673V92.735H422.683z"/><path stroke="#fff" stroke-opacity=".2" stroke-width="1.327" d="M571.355-55.938h148.673V92.735H571.355zM720.029-55.938h148.673V92.735H720.029z"/><path fill="#fff" fill-opacity=".3" d="M868.037-56.602h150v150h-150z"/><path stroke="#fff" stroke-opacity=".2" stroke-width="1.327" d="M868.701-55.938h148.673V92.735H868.701z"/><path stroke="#fff" stroke-opacity=".2" stroke-width="1.327" d="M1017.37-55.938h148.673V92.735H1017.37zM1166.05-55.938h148.673V92.735H1166.05z"/><path stroke="#fff" stroke-opacity=".2" stroke-width="1.327" d="M1314.72-55.938h148.673V92.735H1314.72zM-23.337 92.736h148.673v148.673H-23.337z"/><path fill="#fff" fill-opacity=".3" d="M124.674 92.072h150v150h-150z"/><path stroke="#fff" stroke-opacity=".2" stroke-width="1.327" d="M125.337 92.736H274.01v148.673H125.337z"/><path stroke="#fff" stroke-opacity=".2" stroke-width="1.327" d="M274.009 92.736h148.673v148.673H274.009zM422.683 92.736h148.673v148.673H422.683z"/><path stroke="#fff" stroke-opacity=".2" stroke-width="1.327" d="M571.355 92.736h148.673v148.673H571.355zM720.029 92.736h148.673v148.673H720.029z"/><path stroke="#fff" stroke-opacity=".2" stroke-width="1.327" d="M868.701 92.736h148.673v148.673H868.701z"/><path stroke="#fff" stroke-opacity=".2" stroke-width="1.327" d="M1017.37 92.736h148.673v148.673H1017.37z"/><path fill="#fff" fill-opacity=".3" d="M1165.38 92.072h150v150h-150z"/><path stroke="#fff" stroke-opacity=".2" stroke-width="1.327" d="M1166.05 92.736h148.673v148.673H1166.05z"/><path stroke="#fff" stroke-opacity=".2" stroke-width="1.327" d="M1314.72 92.736h148.673v148.673H1314.72zM-23.337 241.408h148.673v148.673H-23.337zM125.337 241.408H274.01v148.673H125.337z"/><path stroke="#fff" stroke-opacity=".2" stroke-width="1.327" d="M274.009 241.408h148.673v148.673H274.009zM422.683 241.408h148.673v148.673H422.683z"/><path fill="#fff" fill-opacity=".3" d="M570.691 240.744h150v150h-150z"/><path stroke="#fff" stroke-opacity=".2" stroke-width="1.327" d="M571.355 241.408h148.673v148.673H571.355zM720.029 241.408h148.673v148.673H720.029z"/><path fill="#fff" fill-opacity=".3" d="M868.037 240.744h150v150h-150z"/><path stroke="#fff" stroke-opacity=".2" stroke-width="1.327" d="M868.701 241.408h148.673v148.673H868.701z"/><path stroke="#fff" stroke-opacity=".2" stroke-width="1.327" d="M1017.37 241.408h148.673v148.673H1017.37zM1166.05 241.408h148.673v148.673H1166.05z"/><path stroke="#fff" stroke-opacity=".2" stroke-width="1.327" d="M1314.72 241.408h148.673v148.673H1314.72zM-23.337 390.082h148.673v148.673H-23.337zM125.337 390.082H274.01v148.673H125.337z"/><path stroke="#fff" stroke-opacity=".2" stroke-width="1.327" d="M274.009 390.082h148.673v148.673H274.009zM422.683 390.082h148.673v148.673H422.683z"/><path stroke="#fff" stroke-opacity=".2" stroke-width="1.327" d="M571.355 390.082h148.673v148.673H571.355zM720.029 390.082h148.673v148.673H720.029z"/><path stroke="#fff" stroke-opacity=".2" stroke-width="1.327" d="M868.701 390.082h148.673v148.673H868.701z"/><path stroke="#fff" stroke-opacity=".2" stroke-width="1.327" d="M1017.37 390.082h148.673v148.673H1017.37zM1166.05 390.082h148.673v148.673H1166.05z"/><path fill="#fff" fill-opacity=".3" d="M1314.06 389.418h150v150h-150z"/><path stroke="#fff" stroke-opacity=".2" stroke-width="1.327" d="M1314.72 390.082h148.673v148.673H1314.72z"/><path fill="#fff" fill-opacity=".3" d="M-24 538.09h150v150H-24z"/><path stroke="#fff" stroke-opacity=".2" stroke-width="1.327" d="M-23.337 538.753h148.673v148.673H-23.337zM125.337 538.753H274.01v148.673H125.337z"/><path stroke="#fff" stroke-opacity=".2" stroke-width="1.327" d="M274.009 538.753h148.673v148.673H274.009z"/><path fill="#fff" fill-opacity=".3" d="M422.02 538.09h150v150h-150z"/><path stroke="#fff" stroke-opacity=".2" stroke-width="1.327" d="M422.683 538.753h148.673v148.673H422.683z"/><path stroke="#fff" stroke-opacity=".2" stroke-width="1.327" d="M571.355 538.753h148.673v148.673H571.355zM720.029 538.753h148.673v148.673H720.029z"/><path fill="#fff" fill-opacity=".3" d="M868.037 538.09h150v150h-150z"/><path stroke="#fff" stroke-opacity=".2" stroke-width="1.327" d="M868.701 538.753h148.673v148.673H868.701z"/><path stroke="#fff" stroke-opacity=".2" stroke-width="1.327" d="M1017.37 538.753h148.673v148.673H1017.37zM1166.05 538.753h148.673v148.673H1166.05z"/><path stroke="#fff" stroke-opacity=".2" stroke-width="1.327" d="M1314.72 538.753h148.673v148.673H1314.72zM-23.337 687.427h148.673V836.1H-23.337zM125.337 687.427H274.01V836.1H125.337z"/><path stroke="#fff" stroke-opacity=".2" stroke-width="1.327" d="M274.009 687.427h148.673V836.1H274.009zM422.683 687.427h148.673V836.1H422.683z"/><path stroke="#fff" stroke-opacity=".2" stroke-width="1.327" d="M571.355 687.427h148.673V836.1H571.355z"/><path fill="#fff" fill-opacity=".3" d="M719.365 686.764h150v150h-150z"/><path stroke="#fff" stroke-opacity=".2" stroke-width="1.327" d="M720.029 687.427h148.673V836.1H720.029z"/><path stroke="#fff" stroke-opacity=".2" stroke-width="1.327" d="M868.701 687.427h148.673V836.1H868.701z"/><path stroke="#fff" stroke-opacity=".2" stroke-width="1.327" d="M1017.37 687.427h148.673V836.1H1017.37zM1166.05 687.427h148.673V836.1H1166.05z"/><path stroke="#fff" stroke-opacity=".2" stroke-width="1.327" d="M1314.72 687.427h148.673V836.1H1314.72z"/></g><defs><radialGradient id="a" cx="0" cy="0" r="1" gradientTransform="matrix(0 663.321 -947.602 0 720 464.898)" gradientUnits="userSpaceOnUse"><stop stop-color="#fff" stop-opacity=".1"/><stop offset=".615" stop-color="#fff" stop-opacity=".05"/><stop offset="1" stop-color="#fff" stop-opacity="0"/></radialGradient></defs></svg>