<svg width="18" height="20" viewBox="0 0 18 20" fill="none" xmlns="http://www.w3.org/2000/svg">
<path d="M14.5 4C15.8807 4 17 5.11929 17 6.5V14.5C17 15.8807 15.8807 17 14.5 17H3.5C2.11929 17 1 15.8807 1 14.5V6.5C1 5.11929 2.11929 4 3.5 4H14.5ZM16 7.961L9.25351 11.931C9.12311 12.0077 8.96661 12.0205 8.82751 11.9693L8.74649 11.931L2 7.963V14.5C2 15.3284 2.67157 16 3.5 16H14.5C15.3284 16 16 15.3284 16 14.5V7.961ZM14.5 5H3.5C2.67157 5 2 5.67157 2 6.5V6.802L9 10.9199L16 6.801V6.5C16 5.67157 15.3284 5 14.5 5Z" fill="white"/>
</svg>
