<svg width="41" height="40" viewBox="0 0 41 40" fill="none" xmlns="http://www.w3.org/2000/svg">
<circle cx="20.5" cy="20" r="19" stroke="white" stroke-opacity="0.25" stroke-width="2"/>
<path d="M24.8082 22.2676V12.1871C24.8082 11.4348 24.2566 10.833 23.4842 10.833C22.9727 10.833 22.6116 11.0537 22.0599 11.5753L18.1682 15.1761C18.128 15.2162 18.0779 15.2463 18.0277 15.2463H17.777L24.8082 22.2676ZM28.3188 29.7702C28.6298 30.0711 29.1413 30.0812 29.4422 29.7702C29.7532 29.4492 29.7532 28.9477 29.4422 28.6368L11.8691 11.0737C11.5582 10.7628 11.0467 10.7528 10.7257 11.0737C10.4248 11.3746 10.4248 11.8962 10.7257 12.1971L28.3188 29.7702ZM14.7478 24.073H17.5764C17.6666 24.073 17.7469 24.1031 17.8071 24.1633L22.0599 28.1152C22.5614 28.5967 22.9827 28.8073 23.4943 28.8073C24.076 28.8073 24.5173 28.5064 24.718 27.9146L13.0327 16.2393C12.6916 16.6205 12.5111 17.1822 12.5111 17.9244V21.7359C12.5111 23.3007 13.2734 24.073 14.7478 24.073Z" fill="white"/>
</svg>
