<svg width="41" height="40" viewBox="0 0 41 40" fill="none" xmlns="http://www.w3.org/2000/svg">
<circle cx="20.5" cy="20" r="19" stroke="white" stroke-opacity="0.25" stroke-width="2"/>
<path d="M19.5352 29.167C20.2676 29.167 20.8047 28.6201 20.8047 27.8975V12.9854C20.8047 12.2529 20.2676 11.667 19.5156 11.667C19.0176 11.667 18.666 11.8818 18.1289 12.3896L14.0469 16.208C13.9883 16.2666 13.9102 16.2959 13.8223 16.2959H11.0586C9.61328 16.2959 8.83203 17.0967 8.83203 18.6104V22.2432C8.83203 23.7568 9.61328 24.5576 11.0586 24.5576H13.8223C13.9102 24.5576 13.9785 24.5869 14.0469 24.6455L18.1289 28.4932C18.6172 28.9619 19.0273 29.167 19.5352 29.167ZM28.2168 27.3799C28.666 27.6533 29.2129 27.5557 29.5254 27.0967C30.7949 25.2998 31.5371 22.8877 31.5371 20.4072C31.5371 17.9268 30.8047 15.5049 29.5254 13.7178C29.2129 13.2588 28.666 13.1514 28.2168 13.4346C27.748 13.7275 27.6797 14.3135 28.0312 14.8311C29.0664 16.3545 29.6621 18.3369 29.6621 20.4072C29.6621 22.4678 29.0566 24.4502 28.0312 25.9834C27.6895 26.501 27.748 27.0771 28.2168 27.3799ZM24.291 24.7627C24.7109 25.0361 25.2578 24.9385 25.5605 24.5088C26.3516 23.4541 26.8203 21.96 26.8203 20.4072C26.8203 18.8545 26.3516 17.3701 25.5605 16.3057C25.2578 15.876 24.7109 15.7783 24.291 16.0615C23.8125 16.374 23.7148 16.9502 24.1055 17.5166C24.6426 18.2881 24.9453 19.3232 24.9453 20.4072C24.9453 21.4912 24.6328 22.5166 24.1055 23.2979C23.7246 23.8643 23.8125 24.4404 24.291 24.7627Z" fill="#E6E6E6"/>
</svg>
