<svg width="1003" height="52" viewBox="0 0 1003 52" fill="none" xmlns="http://www.w3.org/2000/svg">
<g filter="url(#filter0_b_1129_2863)">
<rect x="1.5" y="1" width="1000" height="50" rx="25" fill="black" fill-opacity="0.25"/>
<rect x="1" y="0.5" width="1001" height="51" rx="25.5" stroke="#949494" stroke-opacity="0.5"/>
<path d="M49.2652 32.5882V23.1765L47.3828 24.9412" stroke="white" stroke-width="1.5" stroke-linecap="round" stroke-linejoin="round"/>
<path d="M53.0293 32.0002C53.5209 32.3694 54.1319 32.5882 54.794 32.5882C56.4184 32.5882 57.7352 31.2714 57.7352 29.647C57.7352 28.0227 56.4184 26.7059 54.794 26.7059C54.1319 26.7059 53.5209 26.9247 53.0293 27.2939L53.6175 23.1765H57.7352" stroke="white" stroke-width="1.5" stroke-linecap="round" stroke-linejoin="round"/>
<path d="M43.5716 17.9249C38.2494 22.8553 37.9583 31.1383 42.9213 36.4255C47.8843 41.7127 56.222 42.002 61.5442 37.0716C66.8664 32.1412 67.1575 23.8582 62.1945 18.571C59.3716 15.5636 55.4567 14.1733 51.6261 14.4407M53.4991 11.4117L50.1431 14.5908L53.4991 18" stroke="white" stroke-width="2.5" stroke-linecap="round" stroke-linejoin="round"/>
<path d="M115.382 32.5882V23.1765L113.5 24.9412" stroke="white" stroke-width="1.5" stroke-linecap="round" stroke-linejoin="round"/>
<path d="M119.146 32.0002C119.638 32.3694 120.249 32.5882 120.911 32.5882C122.536 32.5882 123.852 31.2714 123.852 29.647C123.852 28.0227 122.536 26.7059 120.911 26.7059C120.249 26.7059 119.638 26.9247 119.146 27.2939L119.735 23.1765H123.852" stroke="white" stroke-width="1.5" stroke-linecap="round" stroke-linejoin="round"/>
<path d="M127.663 17.9249C132.985 22.8553 133.276 31.1383 128.313 36.4255C123.35 41.7127 115.012 42.002 109.69 37.0716C104.368 32.1412 104.077 23.8582 109.04 18.571C111.863 15.5636 115.778 14.1733 119.608 14.4407M117.735 11.4117L121.091 14.5908L117.735 18" stroke="white" stroke-width="2.5" stroke-linecap="round" stroke-linejoin="round"/>
<path d="M195.834 33.8C194.954 33.8 194.154 33.5967 193.434 33.19C192.721 32.7767 192.158 32.2133 191.744 31.5C191.338 30.78 191.134 29.98 191.134 29.1V23.5C191.134 22.62 191.338 21.8233 191.744 21.11C192.158 20.39 192.721 19.8267 193.434 19.42C194.154 19.0067 194.954 18.8 195.834 18.8C196.714 18.8 197.511 19.0067 198.224 19.42C198.944 19.8267 199.508 20.39 199.914 21.11C200.328 21.8233 200.534 22.62 200.534 23.5V29.1C200.534 29.98 200.328 30.78 199.914 31.5C199.508 32.2133 198.944 32.7767 198.224 33.19C197.511 33.5967 196.714 33.8 195.834 33.8ZM195.834 32.38C196.414 32.38 196.951 32.2367 197.444 31.95C197.938 31.6633 198.328 31.2733 198.614 30.78C198.901 30.2867 199.044 29.75 199.044 29.17V23.43C199.044 22.8433 198.901 22.3067 198.614 21.82C198.328 21.3267 197.938 20.9367 197.444 20.65C196.951 20.3567 196.414 20.21 195.834 20.21C195.254 20.21 194.718 20.3567 194.224 20.65C193.731 20.9367 193.341 21.3267 193.054 21.82C192.768 22.3067 192.624 22.8433 192.624 23.43V29.17C192.624 29.75 192.768 30.2867 193.054 30.78C193.341 31.2733 193.731 31.6633 194.224 31.95C194.718 32.2367 195.254 32.38 195.834 32.38ZM204.991 32.01C204.705 32.01 204.461 31.9133 204.261 31.72C204.068 31.5267 203.971 31.2867 203.971 31C203.971 30.7067 204.068 30.4633 204.261 30.27C204.461 30.0767 204.705 29.98 204.991 29.98C205.285 29.98 205.528 30.08 205.721 30.28C205.921 30.4733 206.021 30.7133 206.021 31C206.021 31.2867 205.921 31.5267 205.721 31.72C205.528 31.9133 205.285 32.01 204.991 32.01ZM205.001 26.12C204.715 26.12 204.471 26.0233 204.271 25.83C204.078 25.6367 203.981 25.3967 203.981 25.11C203.981 24.8167 204.078 24.5733 204.271 24.38C204.471 24.1867 204.715 24.09 205.001 24.09C205.295 24.09 205.538 24.19 205.731 24.39C205.931 24.5833 206.031 24.8233 206.031 25.11C206.031 25.3967 205.931 25.6367 205.731 25.83C205.538 26.0233 205.295 26.12 205.001 26.12ZM213.738 24.21C214.605 24.21 215.398 24.4233 216.118 24.85C216.845 25.27 217.418 25.8433 217.838 26.57C218.258 27.2967 218.468 28.0967 218.468 28.97C218.468 29.8367 218.245 30.64 217.798 31.38C217.358 32.12 216.761 32.71 216.008 33.15C215.255 33.5833 214.441 33.8 213.568 33.8C212.835 33.8 212.148 33.65 211.508 33.35C210.868 33.0433 210.321 32.62 209.868 32.08C209.421 31.5333 209.105 30.91 208.918 30.21L210.328 29.83C210.455 30.3367 210.681 30.7833 211.008 31.17C211.341 31.55 211.735 31.8433 212.188 32.05C212.641 32.2567 213.115 32.36 213.608 32.36C214.235 32.36 214.805 32.2067 215.318 31.9C215.838 31.5933 216.248 31.18 216.548 30.66C216.848 30.14 216.998 29.5767 216.998 28.97C216.998 28.35 216.841 27.7833 216.528 27.27C216.221 26.75 215.808 26.34 215.288 26.04C214.768 25.74 214.208 25.59 213.608 25.59C212.955 25.59 212.378 25.73 211.878 26.01C211.385 26.29 210.981 26.67 210.668 27.15L209.328 26.59L209.768 19.1H217.458V20.51H211.108L210.818 25.3C211.218 24.9533 211.668 24.6867 212.168 24.5C212.675 24.3067 213.198 24.21 213.738 24.21ZM224.861 33.5H223.371V20.74L220.661 22.37V20.72L223.371 19.1H224.861V33.5Z" fill="white"/>
<rect x="235.734" y="21.869" width="504.765" height="9.81294" rx="4.90647" fill="white" fill-opacity="0.25"/>
<rect x="235.734" y="21.869" width="168.057" height="9.81294" rx="4.90647" fill="white"/>
<circle cx="406.664" cy="26" r="10" fill="white"/>
<path d="M751.74 32.08H758.9V33.49H749.5L749.51 32.15L756.02 26.27C756.547 25.7967 756.91 25.3333 757.11 24.88C757.31 24.4267 757.41 23.93 757.41 23.39C757.41 22.8033 757.27 22.27 756.99 21.79C756.717 21.3033 756.34 20.92 755.86 20.64C755.38 20.3533 754.85 20.21 754.27 20.21C753.67 20.21 753.127 20.3567 752.64 20.65C752.153 20.9367 751.77 21.3233 751.49 21.81C751.217 22.2967 751.083 22.82 751.09 23.38H749.59C749.59 22.52 749.793 21.74 750.2 21.04C750.613 20.34 751.177 19.7933 751.89 19.4C752.61 19 753.41 18.8 754.29 18.8C755.15 18.8 755.93 19.0033 756.63 19.41C757.337 19.8167 757.89 20.3733 758.29 21.08C758.697 21.78 758.9 22.5533 758.9 23.4C758.9 23.9933 758.827 24.5167 758.68 24.97C758.54 25.4167 758.323 25.8333 758.03 26.22C757.743 26.6067 757.353 27.02 756.86 27.46L751.74 32.08ZM762.956 32.01C762.67 32.01 762.426 31.9133 762.226 31.72C762.033 31.5267 761.936 31.2867 761.936 31C761.936 30.7067 762.033 30.4633 762.226 30.27C762.426 30.0767 762.67 29.98 762.956 29.98C763.25 29.98 763.493 30.08 763.686 30.28C763.886 30.4733 763.986 30.7133 763.986 31C763.986 31.2867 763.886 31.5267 763.686 31.72C763.493 31.9133 763.25 32.01 762.956 32.01ZM762.966 26.12C762.68 26.12 762.436 26.0233 762.236 25.83C762.043 25.6367 761.946 25.3967 761.946 25.11C761.946 24.8167 762.043 24.5733 762.236 24.38C762.436 24.1867 762.68 24.09 762.966 24.09C763.26 24.09 763.503 24.19 763.696 24.39C763.896 24.5833 763.996 24.8233 763.996 25.11C763.996 25.3967 763.896 25.6367 763.696 25.83C763.503 26.0233 763.26 26.12 762.966 26.12ZM771.353 24.56C772.213 24.5533 772.976 24.7433 773.643 25.13C774.309 25.51 774.826 26.0467 775.193 26.74C775.559 27.4333 775.743 28.2233 775.743 29.11C775.743 30.0167 775.546 30.8267 775.153 31.54C774.759 32.2467 774.213 32.8 773.513 33.2C772.813 33.5933 772.026 33.79 771.153 33.79C770.446 33.79 769.789 33.6633 769.183 33.41C768.583 33.1567 768.066 32.7933 767.633 32.32C767.199 31.8467 766.883 31.2867 766.683 30.64L768.083 30.22C768.316 30.9067 768.696 31.4367 769.223 31.81C769.756 32.1833 770.366 32.37 771.053 32.37C771.699 32.37 772.259 32.2367 772.733 31.97C773.213 31.6967 773.579 31.3133 773.833 30.82C774.093 30.3267 774.223 29.7567 774.223 29.11C774.223 28.4633 774.093 27.8933 773.833 27.4C773.573 26.9067 773.206 26.5267 772.733 26.26C772.266 25.9867 771.726 25.85 771.113 25.85C770.859 25.85 770.586 25.8867 770.293 25.96C770.006 26.0333 769.739 26.13 769.493 26.25L768.753 25.08L773.703 20.51H767.253V19.1H775.573V20.53L771.353 24.56ZM782.338 33.5H780.848V20.74L778.138 22.37V20.72L780.848 19.1H782.338V33.5Z" fill="white"/>
<path d="M856.179 38C857.183 38 857.92 37.25 857.92 36.2589V15.808C857.92 14.8036 857.183 14 856.152 14C855.469 14 854.987 14.2946 854.25 14.9911L848.652 20.2277C848.571 20.308 848.464 20.3482 848.344 20.3482H844.554C842.571 20.3482 841.5 21.4464 841.5 23.5223V28.5045C841.5 30.5804 842.571 31.6786 844.554 31.6786H848.344C848.464 31.6786 848.558 31.7188 848.652 31.7991L854.25 37.0759C854.92 37.7188 855.482 38 856.179 38ZM868.085 35.5491C868.701 35.9241 869.451 35.7902 869.879 35.1607C871.621 32.6964 872.638 29.3884 872.638 25.9866C872.638 22.5848 871.634 19.2634 869.879 16.8125C869.451 16.183 868.701 16.0357 868.085 16.4241C867.442 16.8259 867.348 17.6295 867.83 18.3393C869.25 20.4286 870.067 23.1473 870.067 25.9866C870.067 28.8125 869.237 31.5312 867.83 33.6339C867.362 34.3438 867.442 35.1339 868.085 35.5491ZM862.701 31.9598C863.277 32.3348 864.027 32.2009 864.442 31.6116C865.527 30.1652 866.17 28.1161 866.17 25.9866C866.17 23.8571 865.527 21.8214 864.442 20.3616C864.027 19.7723 863.277 19.6384 862.701 20.0268C862.045 20.4554 861.911 21.2455 862.446 22.0223C863.183 23.0804 863.598 24.5 863.598 25.9866C863.598 27.4732 863.17 28.8795 862.446 29.9509C861.924 30.7277 862.045 31.5179 862.701 31.9598Z" fill="white"/>
<g clip-path="url(#clip0_1129_2863)">
<path fill-rule="evenodd" clip-rule="evenodd" d="M953.1 11.6C953.1 10.9373 953.638 10.4 954.3 10.4H963.9C964.563 10.4 965.1 10.9373 965.1 11.6V21.2C965.1 21.8628 964.563 22.4 963.9 22.4C963.238 22.4 962.7 21.8628 962.7 21.2V14.4971L953.549 23.6486C953.08 24.1172 952.321 24.1172 951.852 23.6486C951.383 23.1799 951.383 22.4201 951.852 21.9515L961.003 12.8H954.3C953.638 12.8 953.1 12.2628 953.1 11.6ZM947.149 28.3515C947.618 28.8202 947.618 29.58 947.149 30.0486L937.997 39.2H944.7C945.363 39.2 945.9 39.7373 945.9 40.4C945.9 41.0628 945.363 41.6 944.7 41.6H935.1C934.438 41.6 933.9 41.0628 933.9 40.4V30.8C933.9 30.1373 934.438 29.6 935.1 29.6C935.763 29.6 936.3 30.1373 936.3 30.8V37.503L945.452 28.3515C945.92 27.8829 946.68 27.8829 947.149 28.3515Z" fill="white"/>
</g>
</g>
<defs>
<filter id="filter0_b_1129_2863" x="-19.5" y="-20" width="1042" height="92" filterUnits="userSpaceOnUse" color-interpolation-filters="sRGB">
<feFlood flood-opacity="0" result="BackgroundImageFix"/>
<feGaussianBlur in="BackgroundImageFix" stdDeviation="10"/>
<feComposite in2="SourceAlpha" operator="in" result="effect1_backgroundBlur_1129_2863"/>
<feBlend mode="normal" in="SourceGraphic" in2="effect1_backgroundBlur_1129_2863" result="shape"/>
</filter>
<clipPath id="clip0_1129_2863">
<rect width="32" height="32" fill="white" transform="translate(933.5 10)"/>
</clipPath>
</defs>
</svg>
