<svg width="15" height="15" viewBox="0 0 15 15" fill="none" xmlns="http://www.w3.org/2000/svg">
<g clip-path="url(#clip0_11413_1903)">
<path d="M-0.602948 -0.446212L-0.53033 -0.53033C-0.264064 -0.796597 0.1526 -0.820803 0.446212 -0.602948L0.53033 -0.53033L7 5.939L13.4697 -0.53033C13.7626 -0.823223 14.2374 -0.823223 14.5303 -0.53033C14.8232 -0.237437 14.8232 0.237437 14.5303 0.53033L8.061 7L14.5303 13.4697C14.7966 13.7359 14.8208 14.1526 14.6029 14.4462L14.5303 14.5303C14.2641 14.7966 13.8474 14.8208 13.5538 14.6029L13.4697 14.5303L7 8.061L0.53033 14.5303C0.237437 14.8232 -0.237437 14.8232 -0.53033 14.5303C-0.823223 14.2374 -0.823223 13.7626 -0.53033 13.4697L5.939 7L-0.53033 0.53033C-0.796597 0.264064 -0.820803 -0.1526 -0.602948 -0.446212L-0.53033 -0.53033L-0.602948 -0.446212Z" fill="#BFBFBF"/>
</g>
<defs>
<clipPath id="clip0_11413_1903">
<rect width="14.5" height="14.5" fill="white"/>
</clipPath>
</defs>
</svg>
