<svg width="18" height="20" viewBox="0 0 18 20" fill="none" xmlns="http://www.w3.org/2000/svg">
<path d="M3 4V16C3 17.1046 3.89543 18 5 18H14.5C14.7761 18 15 17.7761 15 17.5C15 17.2239 14.7761 17 14.5 17H5C4.44772 17 4 16.5523 4 16H14C14.5523 16 15 15.5523 15 15V4C15 2.89543 14.1046 2 13 2H5C3.89543 2 3 2.89543 3 4ZM13 3C13.5523 3 14 3.44772 14 4V15H4V4C4 3.44772 4.44772 3 5 3H13ZM9.75 5.75C9.75 5.33579 9.41421 5 9 5C8.58579 5 8.25 5.33579 8.25 5.75C8.25 6.16421 8.58579 6.5 9 6.5C9.41421 6.5 9.75 6.16421 9.75 5.75ZM9.5 12.5C9.5 12.7761 9.27614 13 9 13C8.72386 13 8.5 12.7761 8.5 12.5V8.5C8.5 8.22386 8.72386 8 9 8C9.27614 8 9.5 8.22386 9.5 8.5V12.5Z" fill="white"/>
</svg>
