<svg width="31" height="30" viewBox="0 0 31 30" fill="none" xmlns="http://www.w3.org/2000/svg">
<path d="M29.8657 14.5541C29.8657 16.17 28.5557 17.48 26.9397 17.48C26.9112 17.48 26.8827 17.4796 26.8542 17.4787L19.8911 17.2736L14.8169 27.7688C14.4088 28.613 13.5537 29.1494 12.6159 29.1494C11.8645 29.1494 11.2553 28.5403 11.2553 27.7888C11.2553 27.7347 11.2585 27.6806 11.2649 27.6268L12.5318 17.0582L6.99886 16.8966L6.27882 18.8666C6.00575 19.6135 5.29516 20.1103 4.49987 20.1103C3.7685 20.1103 3.17561 19.5174 3.17561 18.786L3.17664 16.6163L1.98534 16.3683C1.12627 16.1889 0.510742 15.4316 0.510742 14.5541C0.510742 13.6766 1.12653 12.9196 1.98558 12.741L3.17664 12.4931L3.17561 10.3221C3.17561 9.64695 3.68079 9.08983 4.33375 9.00812L4.49987 8.9978C5.29516 8.9978 6.00575 9.49461 6.27882 10.2416L7.00044 12.2111L12.5128 12.0495L11.2649 1.63983C11.2617 1.61295 11.2593 1.58599 11.2577 1.55898L11.2553 1.47784C11.2553 0.726372 11.8645 0.117188 12.6159 0.117188C13.4755 0.117188 14.2657 0.567914 14.7058 1.29334L14.8169 1.49786L19.8167 11.8357L26.8542 11.6297C28.4692 11.5823 29.817 12.8531 29.8644 14.4682L29.8657 14.5541Z" fill="white"/>
</svg>
