<svg width="25" height="28" viewBox="0 0 25 28" fill="none" xmlns="http://www.w3.org/2000/svg">
<path d="M12.3222 0C8.24145 0 4.93333 3.13401 4.93333 7C4.93333 10.866 8.24145 14 12.3222 14C16.403 14 19.7111 10.866 19.7111 7C19.7111 3.13401 16.403 0 12.3222 0ZM6.78056 7C6.78056 4.10051 9.26165 1.75 12.3222 1.75C15.3828 1.75 17.8639 4.10051 17.8639 7C17.8639 9.8995 15.3828 12.25 12.3222 12.25C9.26165 12.25 6.78056 9.8995 6.78056 7ZM3.64019 16.8C1.9063 16.8 0.500015 18.1309 0.500002 19.7742L0.5 20.3C0.5 22.9289 1.93468 24.8968 4.13546 26.1661C6.2996 27.4143 9.2086 28 12.3222 28C15.4358 28 18.3449 27.4143 20.509 26.1661C22.7098 24.8968 24.1444 22.9289 24.1444 20.3L24.1444 19.7741C24.1444 18.1308 22.7382 16.8 21.0043 16.8H3.64019ZM2.34722 19.7742C2.34723 19.0981 2.92574 18.55 3.64019 18.55H21.0043C21.7188 18.55 22.2972 19.0981 22.2972 19.7741L22.2972 20.3C22.2972 22.2211 21.2922 23.6656 19.5484 24.6714C17.768 25.6982 15.2277 26.25 12.3222 26.25C9.41671 26.25 6.87641 25.6982 5.09602 24.6714C3.35228 23.6656 2.34722 22.2211 2.34722 20.3L2.34722 19.7742Z" fill="white"/>
</svg>
