<svg width="33" height="32" viewBox="0 0 33 32" fill="none" xmlns="http://www.w3.org/2000/svg">
<g clip-path="url(#clip0_1124_2774)">
<path fill-rule="evenodd" clip-rule="evenodd" d="M31.7814 0.46863C32.4062 1.09347 32.4062 2.10653 31.7814 2.73137L23.3128 11.2H29.05C29.9337 11.2 30.65 11.9163 30.65 12.8C30.65 13.6836 29.9337 14.4 29.05 14.4H19.45C18.5664 14.4 17.85 13.6836 17.85 12.8V3.19997C17.85 2.31632 18.5664 1.59997 19.45 1.59997C20.3337 1.59997 21.05 2.31632 21.05 3.19997V8.93723L29.5186 0.468627C30.1435 -0.15621 31.1565 -0.156209 31.7814 0.46863ZM1.84997 19.2C1.84997 18.3164 2.56632 17.6 3.44997 17.6H13.05C13.9336 17.6 14.65 18.3164 14.65 19.2V28.8C14.65 29.6837 13.9336 30.4 13.05 30.4C12.1663 30.4 11.45 29.6837 11.45 28.8V23.0628L2.98137 31.5314C2.35653 32.1562 1.34347 32.1562 0.71863 31.5314C0.0937911 30.9065 0.0937898 29.8935 0.718627 29.2686L9.18723 20.8H3.44997C2.56632 20.8 1.84997 20.0837 1.84997 19.2Z" fill="white"/>
</g>
<defs>
<clipPath id="clip0_1124_2774">
<rect width="32" height="32" fill="white" transform="translate(0.25)"/>
</clipPath>
</defs>
</svg>
