<svg width="33" height="32" viewBox="0 0 33 32" fill="none" xmlns="http://www.w3.org/2000/svg">
<g clip-path="url(#clip0_1123_2764)">
<path fill-rule="evenodd" clip-rule="evenodd" d="M19.45 1.6C19.45 0.716344 20.1663 0 21.05 0H30.65C31.5337 0 32.25 0.716344 32.25 1.6V11.2C32.25 12.0837 31.5337 12.8 30.65 12.8C29.7663 12.8 29.05 12.0837 29.05 11.2V5.46275L20.5814 13.9314C19.9566 14.5562 18.9435 14.5562 18.3187 13.9314C17.6938 13.3065 17.6938 12.2935 18.3187 11.6686L26.7873 3.2H21.05C20.1663 3.2 19.45 2.48366 19.45 1.6ZM14.1814 18.0687C14.8062 18.6935 14.8062 19.7066 14.1814 20.3314L5.71275 28.8H11.45C12.3337 28.8 13.05 29.5163 13.05 30.4C13.05 31.2837 12.3337 32 11.45 32H1.85C0.966344 32 0.25 31.2837 0.25 30.4V20.8C0.25 19.9163 0.966344 19.2 1.85 19.2C2.73366 19.2 3.45 19.9163 3.45 20.8V26.5373L11.9186 18.0687C12.5435 17.4438 13.5565 17.4438 14.1814 18.0687Z" fill="white"/>
</g>
<defs>
<clipPath id="clip0_1123_2764">
<rect width="32" height="32" fill="white" transform="translate(0.25)"/>
</clipPath>
</defs>
</svg>
