<svg width="116" height="115" viewBox="0 0 116 115" fill="none" xmlns="http://www.w3.org/2000/svg">
<g id="Generic User">
<path id="Vector" d="M115.92 57.5003C115.92 71.2404 111.1 83.8541 103.06 93.7446C102.678 94.214 102.29 94.6769 101.894 95.1338C91.3515 107.303 75.7843 115 58.4202 115C41.0561 115 25.4884 107.303 14.9464 95.1338C14.6014 94.7356 14.2614 94.3324 13.9273 93.9246C5.7982 84.0071 0.919922 71.3241 0.919922 57.5003C0.919922 25.744 26.6639 0 58.4202 0C90.1764 0 115.92 25.744 115.92 57.5003Z" fill="#2B2B2B"/>
<path id="Vector_2" d="M103.06 93.7443C102.679 94.2137 102.29 94.6767 101.894 95.1335C91.3519 107.302 75.7847 115 58.4206 115C41.0564 115 25.4888 107.302 14.9468 95.1335C14.6018 94.7353 14.2617 94.3321 13.9277 93.9244C18.3205 91.4589 23.1 90.5456 25.411 90.1931C29.4428 89.5777 35.1731 86.8835 40.0935 83.2616C43.1884 80.9832 45.0761 77.9063 46.0516 75.9364C38.4501 70.2486 32.1946 59.965 32.1946 48.2229C32.1946 30.3201 42.9597 15.8066 58.4206 15.8066C73.8814 15.8066 84.646 30.3201 84.646 48.2229C84.646 59.9364 78.6153 70.198 71.0463 75.8942C73.7104 81.3538 78.2045 85.393 83.7724 87.5275C89.1637 89.5943 96.3279 89.7231 103.06 93.7443Z" fill="#1A1A1A"/>
</g>
</svg>
