<svg width="18" height="20" viewBox="0 0 18 20" fill="none" xmlns="http://www.w3.org/2000/svg">
<g clip-path="url(#clip0_11006_237)">
<path d="M3.61401 4.1193C3.36309 4.1193 3.12904 4.007 2.97189 3.81122C2.81476 3.61541 2.7561 3.36118 2.81095 3.11371C2.87938 2.80513 3.12298 2.56155 3.43158 2.49313C3.4917 2.47982 3.55307 2.47306 3.61398 2.47306C3.86492 2.47306 4.09895 2.58536 4.25605 2.7811C4.41318 2.97685 4.47186 3.23108 4.41701 3.47851C4.34865 3.78716 4.10505 4.03081 3.79641 4.09923C3.73627 4.11254 3.67491 4.1193 3.61401 4.1193ZM3.61398 2.76772C3.57447 2.76772 3.53454 2.77211 3.49533 2.78081C3.29808 2.82455 3.14237 2.98026 3.09863 3.17752C3.0632 3.33729 3.10077 3.50102 3.2017 3.62677C3.30263 3.75252 3.45291 3.82464 3.61401 3.82464C3.65351 3.82464 3.69343 3.82025 3.73266 3.81155C3.92991 3.76781 4.08562 3.61206 4.12933 3.41477C4.16474 3.25499 4.12717 3.09126 4.02626 2.96555C3.92536 2.8398 3.77508 2.76772 3.61398 2.76772Z" fill="white"/>
<path d="M7.2066 4.11886C6.95569 4.11886 6.72166 4.0066 6.56451 3.81082C6.40736 3.615 6.3487 3.36077 6.40355 3.11331C6.47198 2.80469 6.71558 2.56111 7.02418 2.49269C7.08196 2.47989 7.14088 2.47338 7.19924 2.47338C7.44437 2.47338 7.67648 2.5874 7.83604 2.78617C7.99648 2.98605 8.06137 3.24477 8.00963 3.47821C7.94119 3.78679 7.69759 4.03038 7.389 4.09879C7.32886 4.1121 7.26749 4.11886 7.2066 4.11886ZM7.19924 2.76804C7.1623 2.76804 7.12486 2.77217 7.08797 2.78038C6.89068 2.82411 6.73497 2.97982 6.69123 3.17708C6.6558 3.33685 6.69337 3.50062 6.7943 3.62637C6.89523 3.75208 7.04551 3.8242 7.2066 3.8242C7.24609 3.8242 7.28602 3.81981 7.32524 3.81111C7.5225 3.76737 7.67821 3.61166 7.72194 3.4144C7.75455 3.2674 7.71128 3.10147 7.60625 2.97062C7.50291 2.84188 7.35456 2.76804 7.19924 2.76804Z" fill="white"/>
<path d="M10.7968 4.11936C10.5459 4.11936 10.3118 4.00707 10.1547 3.81129C9.99751 3.61544 9.93888 3.3612 9.99377 3.11377C10.0191 2.99932 10.0682 2.89339 10.1397 2.79901C10.2563 2.64322 10.4254 2.53391 10.6152 2.49179C10.6975 2.47363 10.783 2.46852 10.8658 2.47662C11.0821 2.49417 11.288 2.60085 11.4285 2.76915C11.5707 2.93932 11.6372 3.15507 11.6157 3.3766C11.6133 3.40897 11.6081 3.44375 11.6008 3.47713C11.5754 3.59173 11.5263 3.6977 11.4549 3.79208C11.3382 3.94786 11.1691 4.05717 10.9793 4.09929C10.9191 4.1126 10.8577 4.11936 10.7968 4.11936ZM10.7882 2.76753C10.7516 2.76753 10.7148 2.77156 10.6789 2.77948C10.558 2.80634 10.45 2.87623 10.375 2.97626C10.3289 3.03719 10.2976 3.10471 10.2815 3.17755C10.246 3.33732 10.2836 3.50109 10.3845 3.62684C10.4854 3.75258 10.6357 3.8247 10.7968 3.8247C10.8363 3.8247 10.8763 3.82028 10.9156 3.81161C11.0366 3.78474 11.1446 3.71485 11.2195 3.61482C11.2656 3.55389 11.2969 3.48634 11.3131 3.41347C11.3175 3.39361 11.3205 3.37264 11.3222 3.3511C11.3362 3.20578 11.2936 3.06723 11.2024 2.95806C11.1121 2.85001 10.9799 2.78149 10.8397 2.77012C10.8212 2.76832 10.8046 2.76753 10.7882 2.76753Z" fill="white"/>
<path d="M14.3893 4.11886C14.1384 4.11886 13.9044 4.00656 13.7472 3.81078C13.5901 3.615 13.5314 3.36077 13.5863 3.11327C13.6547 2.80473 13.8983 2.56114 14.2069 2.49273C14.2644 2.47992 14.3234 2.47341 14.382 2.47341C14.6271 2.47341 14.8592 2.58744 15.0187 2.7862C15.1792 2.98605 15.244 3.2447 15.1923 3.47814C15.1239 3.78679 14.8803 4.03038 14.5717 4.09875C14.5117 4.1121 14.4503 4.11886 14.3893 4.11886ZM14.382 2.76807C14.3449 2.76807 14.3075 2.77221 14.2708 2.78038C14.0734 2.82415 13.9177 2.97982 13.8739 3.17708C13.8385 3.33685 13.8761 3.50062 13.977 3.62633C14.0779 3.75208 14.2282 3.8242 14.3893 3.8242C14.4288 3.8242 14.4687 3.81978 14.5078 3.81111C14.7052 3.76737 14.8609 3.61166 14.9046 3.41437C14.9372 3.26736 14.894 3.10147 14.789 2.97065C14.6856 2.84192 14.5373 2.76807 14.382 2.76807Z" fill="white"/>
<path d="M17.3444 3.78958C17.1872 3.5938 17.1286 3.33957 17.1834 3.09207C17.2271 2.89501 17.3424 2.72474 17.5003 2.60938V0.950881C17.5003 0.425713 16.7747 0 15.8795 0H10.681C10.681 0.544591 9.92845 0.986094 9.00016 0.986094C8.07187 0.986094 7.31934 0.544591 7.31934 0H2.1208C1.22565 0 0.5 0.425713 0.5 0.950881V2.62997C0.549156 2.66915 0.594626 2.71427 0.635323 2.76497C0.795745 2.96485 0.860634 3.22354 0.80891 3.45694C0.765949 3.65074 0.653842 3.81883 0.5 3.93407V19.0198C0.5 19.545 1.22565 19.9707 2.1208 19.9707H7.31934C7.31934 19.4261 8.07187 18.9846 9.00016 18.9846C9.92845 18.9846 10.681 19.4261 10.681 19.9707H15.8795C16.7747 19.9707 17.5003 19.545 17.5003 19.0198V3.93344C17.4415 3.89237 17.3883 3.84438 17.3444 3.78958ZM16.7048 2.29023C16.7032 2.28994 16.7016 2.28974 16.7001 2.28947V3.07272L16.6992 3.60539C16.6995 3.60533 16.6998 3.60521 16.7001 3.60513V4.39824C16.7016 4.39798 16.7032 4.39789 16.7048 4.39762V18.949C16.6172 19.0265 16.333 19.1751 15.8795 19.1751H11.2338C10.8416 18.5806 10.0096 18.189 9.00017 18.189C7.99073 18.189 7.15873 18.5806 6.76652 19.1751H2.12078C1.66732 19.1751 1.38305 19.0265 1.29557 18.949V4.41147C1.29645 4.41144 1.2973 4.41129 1.29816 4.41124L1.29862 3.06736C1.29847 3.0674 1.29878 3.06732 1.29862 3.06736L1.29816 2.2721C1.2973 2.27206 1.29645 2.27196 1.29557 2.27192V1.02167C1.38305 0.944154 1.66732 0.795566 2.12078 0.795566H6.76652C7.15873 1.3901 7.99069 1.78166 9.00017 1.78166C10.0096 1.78166 10.8416 1.3901 11.2338 0.795566H15.8795C16.333 0.795566 16.6172 0.944154 16.7048 1.02167V2.29023Z" fill="white"/>
<path d="M7.44152 19.3392C7.68775 18.974 8.29456 18.7155 9.00466 18.7155C9.71423 18.7155 10.3207 18.9736 10.5672 19.3384C13.5488 19.0195 15.2458 17.7251 15.2458 15.427V14.7039C15.2458 13.7039 14.3719 12.8932 13.294 12.8932C10.6385 13.8865 7.7755 13.8848 4.70607 12.8932C3.62809 12.8932 2.75423 13.7039 2.75423 14.7039V15.4241C2.75423 17.7259 4.45452 19.0216 7.44152 19.3392Z" fill="white"/>
<path d="M9.0057 12.4863C11.178 12.4863 12.9391 10.7252 12.9391 8.55276C12.9391 6.38043 11.178 4.61934 9.0057 4.61934C6.83325 4.61934 5.07218 6.38043 5.07218 8.55276C5.07218 10.7252 6.83325 12.4863 9.0057 12.4863Z" fill="white"/>
</g>
<defs>
<clipPath id="clip0_11006_237">
<rect width="17.5" height="20" fill="white" transform="translate(0.5)"/>
</clipPath>
</defs>
</svg>
