<svg width="51" height="50" viewBox="0 0 51 50" fill="none" xmlns="http://www.w3.org/2000/svg">
<g clip-path="url(#clip0_9193_22352)">
<path d="M16.25 13C15.897 13 15.5706 13.1862 15.3906 13.4902C15.2106 13.7932 15.2021 14.1695 15.3711 14.4785C15.3911 14.5155 16.4002 16.3953 17.4102 19.4883C14.4662 18.0173 11.4659 17.8247 10.7949 18.1367C10.4419 18.3017 10.1953 18.6755 10.1953 19.0645C10.1953 19.2455 10.2468 19.4251 10.3398 19.5801C10.3568 19.6091 11.2818 21.1877 12.1328 23.7207C9.62281 22.6997 7.07755 23.0552 6.93555 23.0762C6.58055 23.1292 6.28039 23.3691 6.15039 23.7051C6.02039 24.0411 6.08159 24.4202 6.30859 24.6992C6.33259 24.7272 8.46917 27.393 8.82617 31H6.25C5.905 31 5.58534 31.1787 5.40234 31.4707L0.402344 39.4707L0.417969 39.4785C0.320969 39.6335 0.25 39.805 0.25 40C0.25 40.552 0.698 41 1.25 41C4.23 41 6.219 39.5425 7.25 38.5215C8.281 39.5425 10.27 41 13.25 41C16.23 41 18.219 39.5425 19.25 38.5215C20.281 39.5425 22.27 41 25.25 41C28.23 41 30.219 39.5425 31.25 38.5215C32.281 39.5425 34.27 41 37.25 41C40.107 41 42.0551 39.6584 43.1191 38.6484C44.0221 39.7044 45.824 41 49.25 41C49.802 41 50.25 40.552 50.25 40C50.25 39.805 50.179 39.6345 50.082 39.4805L50.0977 39.4707L45.0977 31.4707C44.9147 31.1777 44.595 31 44.25 31H41.2754C41.5354 25.094 44.016 21.7625 44.041 21.7305C44.257 21.4515 44.3097 21.08 44.1797 20.752C44.0507 20.424 43.7582 20.1898 43.4102 20.1328C43.1122 20.0858 36.8287 19.1345 32.8027 23.0645C28.2357 13.1205 16.373 13 16.25 13ZM17.8984 15.1211C21.1554 15.5211 28.3058 17.2371 31.2578 24.5391L23.873 31H21.4414C21.2554 23.689 19.0924 17.8201 17.8984 15.1211ZM12.8594 20.1074C14.2254 20.3164 16.3415 20.9018 18.2305 22.3438C18.8535 24.8258 19.3475 27.773 19.4355 31H15.502C15.313 26.141 13.8244 22.1754 12.8594 20.1074ZM41.5391 22.0059C40.7371 23.5319 39.6656 26.2068 39.3496 29.8828L33.7461 24.9805C35.9931 22.3885 39.5601 21.9959 41.5391 22.0059ZM8.91797 25.0273C10.099 25.1143 11.6722 25.4541 12.9062 26.4941C13.2133 27.8621 13.4427 29.377 13.5117 30.998H10.8379C10.6309 28.488 9.68997 26.3763 8.91797 25.0273ZM32.25 26.3281L37.5879 31H26.9121L32.25 26.3281ZM6.80469 33H24.25H40.25H43.6953L47.3262 38.8086C44.8412 38.2696 44.2323 36.7699 44.1953 36.6719C44.1813 36.6319 44.1528 36.6034 44.1348 36.5664C44.1058 36.5064 44.0742 36.4514 44.0332 36.3984C43.9892 36.3414 43.9397 36.296 43.8867 36.25C43.8567 36.225 43.8396 36.191 43.8066 36.168C43.7886 36.156 43.766 36.1555 43.748 36.1445C43.686 36.1085 43.6227 36.0865 43.5547 36.0645C43.4967 36.0455 43.4418 36.0256 43.3828 36.0176C43.3218 36.0096 43.2603 36.0146 43.1973 36.0176C43.1283 36.0216 43.0611 36.0269 42.9941 36.0449C42.9741 36.0499 42.9555 36.0457 42.9355 36.0527C42.8955 36.0657 42.8661 36.0953 42.8281 36.1133C42.7651 36.1433 42.7064 36.1718 42.6504 36.2148C42.5944 36.2578 42.5509 36.3064 42.5059 36.3594C42.4789 36.3904 42.4439 36.4103 42.4199 36.4453C42.4019 36.4703 40.675 39 37.25 39C33.868 39 32.1551 36.5524 32.0801 36.4414C32.0341 36.3724 31.9692 36.3264 31.9102 36.2734C31.8732 36.2394 31.8477 36.197 31.8047 36.168H31.8027C31.6927 36.095 31.5684 36.0445 31.4414 36.0195C31.3704 36.0055 31.2995 36.0156 31.2285 36.0176C31.1715 36.0186 31.1156 36.0085 31.0586 36.0195C30.9306 36.0445 30.8063 36.094 30.6953 36.168C30.6573 36.193 30.6365 36.2317 30.6035 36.2617C30.5385 36.3187 30.468 36.3693 30.418 36.4453L30.416 36.4492H30.4141C30.3691 36.5152 28.647 39 25.25 39C21.868 39 20.1551 36.5524 20.0801 36.4414C20.0381 36.3794 19.9797 36.3381 19.9277 36.2891C19.8857 36.2491 19.8547 36.201 19.8047 36.168H19.8027C19.6927 36.095 19.5694 36.0445 19.4414 36.0195C19.3704 36.0055 19.2995 36.0156 19.2285 36.0176C19.1715 36.0186 19.1156 36.0085 19.0586 36.0195C18.9306 36.0445 18.8073 36.095 18.6973 36.168H18.6953C18.6423 36.203 18.6104 36.2558 18.5664 36.2988C18.5164 36.3478 18.4599 36.3843 18.4199 36.4453L18.418 36.4492H18.416C18.37 36.5152 16.647 39 13.25 39C9.868 39 8.15508 36.5524 8.08008 36.4414C8.03408 36.3724 7.96916 36.3264 7.91016 36.2734C7.87316 36.2394 7.84769 36.197 7.80469 36.168H7.80273C7.69273 36.095 7.56841 36.0445 7.44141 36.0195C7.37041 36.0055 7.29952 36.0156 7.22852 36.0176C7.17152 36.0186 7.11559 36.0085 7.05859 36.0195C6.93059 36.0445 6.80631 36.094 6.69531 36.168C6.65131 36.197 6.62684 36.2404 6.58984 36.2754C6.53084 36.3294 6.46497 36.3753 6.41797 36.4453L6.41602 36.4492H6.41406C6.37906 36.5012 5.32195 38.0155 3.25195 38.6855L6.80469 33ZM7.21289 41.0176C7.16089 41.0196 7.10959 41.0095 7.05859 41.0195C6.92959 41.0445 6.80631 41.094 6.69531 41.168C6.67231 41.183 6.66162 41.2076 6.64062 41.2246C6.55963 41.2886 6.48092 41.3543 6.41992 41.4453L6.41797 41.4492H6.41602C6.37002 41.5152 4.647 44 1.25 44C0.698 44 0.25 44.448 0.25 45C0.25 45.552 0.698 46 1.25 46C4.23 46 6.219 44.5425 7.25 43.5215C8.281 44.5425 10.27 46 13.25 46C16.23 46 18.219 44.5425 19.25 43.5215C20.281 44.5425 22.27 46 25.25 46C28.23 46 30.219 44.5425 31.25 43.5215C32.281 44.5425 34.27 46 37.25 46C40.107 46 42.0551 44.6584 43.1191 43.6484C44.0221 44.7044 45.824 46 49.25 46C49.802 46 50.25 45.552 50.25 45C50.25 44.448 49.802 44 49.25 44C45.132 44 44.2384 41.7909 44.1934 41.6699C44.1794 41.6299 44.1508 41.6024 44.1328 41.5664C44.1038 41.5074 44.0742 41.4514 44.0332 41.3984C43.9892 41.3404 43.9398 41.2931 43.8848 41.2461C43.8558 41.2211 43.8367 41.189 43.8047 41.168C43.7877 41.156 43.766 41.1545 43.748 41.1445C43.684 41.1075 43.6188 41.0855 43.5488 41.0625C43.4928 41.0445 43.4398 41.0246 43.3828 41.0176C43.3208 41.0096 43.2593 41.0136 43.1953 41.0176C43.1263 41.0216 43.0592 41.0269 42.9922 41.0449C42.9722 41.0499 42.9536 41.0457 42.9336 41.0527C42.8946 41.0657 42.8661 41.0943 42.8301 41.1113C42.7661 41.1413 42.7074 41.1708 42.6504 41.2148C42.5954 41.2568 42.5509 41.3074 42.5059 41.3594C42.4789 41.3914 42.4439 41.4093 42.4199 41.4453C42.4019 41.4703 40.675 44 37.25 44C33.868 44 32.1551 41.5524 32.0801 41.4414C32.0321 41.3694 31.9643 41.3206 31.9023 41.2656C31.8673 41.2346 31.8447 41.195 31.8047 41.168H31.8027C31.6927 41.095 31.5694 41.0445 31.4414 41.0195C31.3644 41.0045 31.2899 41.0146 31.2129 41.0176C31.1619 41.0196 31.1096 41.0095 31.0586 41.0195C30.9296 41.0445 30.8063 41.094 30.6953 41.168C30.6823 41.176 30.6761 41.1902 30.6641 41.1992C30.5721 41.2672 30.485 41.3443 30.418 41.4453L30.416 41.4492H30.4141C30.3691 41.5152 28.647 44 25.25 44C21.868 44 20.1551 41.5524 20.0801 41.4414C20.0361 41.3764 19.9749 41.3342 19.9199 41.2832C19.8799 41.2452 19.8517 41.2 19.8047 41.168L19.8027 41.166C19.6927 41.093 19.5694 41.0426 19.4414 41.0176C19.3644 41.0026 19.2899 41.0146 19.2129 41.0176C19.1619 41.0196 19.1096 41.0076 19.0586 41.0176C18.9296 41.0426 18.8073 41.094 18.6973 41.168H18.6953C18.6573 41.193 18.6365 41.2298 18.6035 41.2598C18.5385 41.3168 18.4699 41.3693 18.4199 41.4453L18.418 41.4473L18.416 41.4492C18.37 41.5162 16.647 44 13.25 44C9.868 44 8.15508 41.5524 8.08008 41.4414C8.03208 41.3694 7.96434 41.3206 7.90234 41.2656C7.86734 41.2346 7.84469 41.195 7.80469 41.168H7.80273C7.69273 41.095 7.56941 41.0445 7.44141 41.0195C7.36441 41.0045 7.28989 41.0146 7.21289 41.0176Z" fill="white"/>
</g>
<defs>
<clipPath id="clip0_9193_22352">
<rect width="50" height="50" fill="white" transform="translate(0.25)"/>
</clipPath>
</defs>
</svg>
