<svg width="51" height="50" viewBox="0 0 51 50" fill="none" xmlns="http://www.w3.org/2000/svg">
<g clip-path="url(#clip0_9193_22360)">
<path d="M25.75 0C22.5703 0 20.0078 0.234375 18.125 0.78125C17.1836 1.05469 16.3945 1.39453 15.7812 1.90625C15.168 2.41797 14.75 3.1875 14.75 4C14.7461 4.35938 14.9336 4.69531 15.2461 4.87891C15.5586 5.05859 15.9414 5.05859 16.2539 4.87891C16.5664 4.69531 16.7539 4.35938 16.75 4C16.75 3.8125 16.7773 3.70703 17.0625 3.46875C17.3477 3.23047 17.9102 2.94531 18.6875 2.71875C19.2734 2.54688 20.0195 2.39453 20.8438 2.28125L21.6875 7.21875C18.4102 7.57812 15.668 8.36719 13.5625 9.40625C10.6367 10.8477 8.75 12.7891 8.75 15V38.2812C8.75 41.3711 10.9414 43.9609 13.875 44.75L9.6875 48.25C9.38281 48.4688 9.22656 48.8398 9.28516 49.207C9.34375 49.5781 9.60156 49.8828 9.96094 50C10.3164 50.1133 10.707 50.0156 10.9688 49.75L16.6562 45H34.8438L40.5312 49.75C40.793 50.0156 41.1836 50.1133 41.5391 50C41.8984 49.8828 42.1562 49.5781 42.2148 49.207C42.2734 48.8398 42.1172 48.4688 41.8125 48.25L37.625 44.75C40.5586 43.9609 42.75 41.3711 42.75 38.2812V15C42.75 12.7891 40.8633 10.8477 37.9375 9.40625C35.832 8.36719 33.0898 7.57812 29.8125 7.21875L30.6562 2.28125C31.4805 2.39453 32.2266 2.54688 32.8125 2.71875C33.5898 2.94531 34.1523 3.23047 34.4375 3.46875C34.7227 3.70703 34.75 3.8125 34.75 4C34.7461 4.35938 34.9336 4.69531 35.2461 4.87891C35.5586 5.05859 35.9414 5.05859 36.2539 4.87891C36.5664 4.69531 36.7539 4.35938 36.75 4C36.75 3.1875 36.332 2.41797 35.7188 1.90625C35.1055 1.39453 34.3164 1.05469 33.375 0.78125C31.4922 0.234375 28.9297 0 25.75 0ZM25.75 2C26.793 2 27.7383 2.03516 28.625 2.09375L27.8125 7.03125C27.1445 6.99609 26.457 7 25.75 7C25.043 7 24.3555 6.99609 23.6875 7.03125L22.875 2.09375C23.7617 2.03516 24.707 2 25.75 2ZM25.75 9C30.6211 9 34.4883 9.94922 37.0625 11.2188C39.6367 12.4883 40.75 14.0586 40.75 15V38.2812C40.75 40.8672 38.5469 43 35.75 43H15.75C12.9531 43 10.75 40.8672 10.75 38.2812V15C10.75 14.0586 11.8633 12.4883 14.4375 11.2188C17.0117 9.94922 20.8789 9 25.75 9ZM19.75 12C18.6641 12 17.75 12.9141 17.75 14V16H15.75C14.1484 16 12.75 17.2422 12.75 18.8438V27.1562C12.75 28.7578 14.1484 30 15.75 30H35.75C37.3516 30 38.75 28.7578 38.75 27.1562V18.8438C38.75 17.2422 37.3516 16 35.75 16H33.75V14C33.75 12.9141 32.8359 12 31.75 12H19.75ZM19.75 14H31.75V16H19.75V14ZM15.75 18H35.75C36.3594 18 36.75 18.4219 36.75 18.8438V27.1562C36.75 27.5781 36.3594 28 35.75 28H15.75C15.1406 28 14.75 27.5781 14.75 27.1562V18.8438C14.75 18.4219 15.1406 18 15.75 18ZM16.75 33.0625C14.582 33.0625 12.8125 34.832 12.8125 37C12.8125 39.168 14.582 40.9375 16.75 40.9375C18.918 40.9375 20.6875 39.168 20.6875 37C20.6875 34.832 18.918 33.0625 16.75 33.0625ZM34.75 33.0625C32.582 33.0625 30.8125 34.832 30.8125 37C30.8125 39.168 32.582 40.9375 34.75 40.9375C36.918 40.9375 38.6875 39.168 38.6875 37C38.6875 34.832 36.918 33.0625 34.75 33.0625ZM16.75 34.9375C17.8945 34.9375 18.8125 35.8555 18.8125 37C18.8125 38.1445 17.8945 39.0625 16.75 39.0625C15.6055 39.0625 14.6875 38.1445 14.6875 37C14.6875 35.8555 15.6055 34.9375 16.75 34.9375ZM34.75 34.9375C35.8945 34.9375 36.8125 35.8555 36.8125 37C36.8125 38.1445 35.8945 39.0625 34.75 39.0625C33.6055 39.0625 32.6875 38.1445 32.6875 37C32.6875 35.8555 33.6055 34.9375 34.75 34.9375Z" fill="white"/>
</g>
<defs>
<clipPath id="clip0_9193_22360">
<rect width="50" height="50" fill="white" transform="translate(0.75)"/>
</clipPath>
</defs>
</svg>
