<svg width="28" height="28" viewBox="0 0 28 28" fill="none" xmlns="http://www.w3.org/2000/svg">
<path d="M11.9941 0.630129C13.0946 -0.210042 14.6609 -0.210044 15.7615 0.630128L26.1293 8.54483C26.8413 9.08837 27.2556 9.90997 27.2556 10.7785V25.1362C27.2556 26.7178 25.9079 28 24.2456 28H20.2322C18.5699 28 17.2222 26.7178 17.2222 25.1362V18.2362C17.2222 17.709 16.773 17.2816 16.2189 17.2816H11.5367C10.9825 17.2816 10.5333 17.709 10.5333 18.2362V25.1362C10.5333 26.7178 9.18571 28 7.52334 28H3.51C1.84762 28 0.5 26.7178 0.5 25.1362V10.7785C0.5 9.90998 0.914275 9.08837 1.62628 8.54483L11.9941 0.630129Z" fill="#F2F2F2"/>
</svg>
