<svg width="28" height="29" viewBox="0 0 28 29" fill="none" xmlns="http://www.w3.org/2000/svg">
<path d="M12.0331 1.13013C13.1337 0.289958 14.7 0.289956 15.8006 1.13013L26.1683 9.04483C26.8803 9.58837 27.2946 10.41 27.2946 11.2785V25.6362C27.2946 27.2178 25.947 28.5 24.2846 28.5H20.2713C18.6089 28.5 17.2613 27.2178 17.2613 25.6362V18.7362C17.2613 18.209 16.8121 17.7816 16.258 17.7816H11.5757C11.0216 17.7816 10.5724 18.209 10.5724 18.7362V25.6362C10.5724 27.2178 9.22478 28.5 7.5624 28.5H3.54906C1.88669 28.5 0.539062 27.2178 0.539062 25.6362V11.2785C0.539062 10.41 0.953338 9.58837 1.66535 9.04483L12.0331 1.13013ZM14.5447 2.61925C14.1779 2.33919 13.6558 2.33919 13.2889 2.61925L2.92116 10.5339C2.68382 10.7151 2.54573 10.989 2.54573 11.2785V25.6362C2.54573 26.1634 2.99494 26.5908 3.54906 26.5908H7.5624C8.11652 26.5908 8.56573 26.1634 8.56573 25.6362V18.7362C8.56573 17.1546 9.91336 15.8724 11.5757 15.8724H16.258C17.9203 15.8724 19.268 17.1546 19.268 18.7362V25.6362C19.268 26.1634 19.7172 26.5908 20.2713 26.5908H24.2846C24.8387 26.5908 25.288 26.1634 25.288 25.6362V11.2785C25.288 10.989 25.1499 10.7151 24.9125 10.5339L14.5447 2.61925Z" fill="white"/>
</svg>
