<svg width="54" height="56" viewBox="0 0 54 56" fill="none" xmlns="http://www.w3.org/2000/svg">
<path fill-rule="evenodd" clip-rule="evenodd" d="M27.1162 55.99C29.0262 55.99 30.8762 55.79 32.6862 55.42C34.4762 55.04 36.1962 54.49 37.8262 53.78C39.4562 53.08 40.9962 52.21 42.4262 51.2C43.8462 50.2 45.1562 49.05 46.3262 47.78C47.4962 46.52 48.5362 45.13 49.4262 43.64C50.3062 42.15 51.0462 40.56 51.6162 38.88C52.1962 37.21 52.6062 35.45 52.8562 33.63C53.0862 31.8 53.1562 29.92 53.0362 27.99C52.9062 26.05 52.6162 24.16 52.1562 22.34C51.6962 20.52 51.0862 18.76 50.3362 17.08C49.6062 15.41 48.7262 13.82 47.7362 12.33C46.7662 10.84 45.6662 9.45 44.4762 8.18C43.2962 6.92 42.0262 5.77 40.6762 4.77C39.3262 3.76 37.9062 2.89 36.4162 2.18C34.9362 1.48 33.3862 0.93 31.7962 0.55C30.1962 0.18 28.5462 0 26.8662 0C25.1762 0 23.5262 0.18 21.9362 0.55C20.3462 0.93 18.7962 1.48 17.3162 2.18C15.8462 2.89 14.4262 3.76 13.0962 4.77C11.7562 5.77 10.4862 6.92 9.31618 8.18C8.14618 9.45 7.05618 10.84 6.09618 12.33C5.11618 13.82 4.25618 15.41 3.52618 17.08C2.80618 18.76 2.20618 20.52 1.76618 22.34C1.32618 24.16 1.05618 26.05 0.94618 27.99C0.84618 29.92 0.92618 31.8 1.17618 33.63C1.43618 35.45 1.86618 37.21 2.44618 38.88C3.03618 40.56 3.79618 42.15 4.69618 43.64C5.58618 45.13 6.64618 46.52 7.81618 47.78C9.00618 49.05 10.3262 50.2 11.7562 51.2C13.1962 52.21 14.7362 53.08 16.3662 53.78C18.0162 54.49 19.7462 55.04 21.5362 55.42C23.3362 55.79 25.1962 55.99 27.1162 55.99ZM18.8262 32.7C18.3462 33.19 17.6162 33.19 17.1662 32.7C16.7062 32.21 16.7162 31.41 17.1962 30.93C17.1962 30.93 19.5062 28.49 21.7962 26.05C24.0662 23.61 26.3062 21.18 26.3062 21.18C26.7462 20.7 27.4662 20.69 27.9162 21.18C27.9162 21.18 30.1762 23.61 32.4662 26.05C34.7762 28.49 37.1162 30.93 37.1162 30.93C37.5862 31.42 37.6062 32.21 37.1662 32.7C36.7262 33.19 35.9762 33.19 35.5062 32.7C35.5062 32.7 33.3762 30.48 31.2662 28.27C29.1762 26.05 27.1162 23.84 27.1162 23.84C27.1162 23.84 25.0762 26.05 23.0062 28.26C20.9262 30.48 18.8262 32.7 18.8262 32.7Z" fill="white" fill-opacity="0.25"/>
</svg>
