<svg width="46" height="38" viewBox="0 0 46 38" fill="none" xmlns="http://www.w3.org/2000/svg">
<path d="M32.0099 36.997C30.481 36.997 28.7333 36.9851 27.4112 36.9791H26.6377L20.678 36.9761L24.2544 15.2139H34.3573C34.4982 15.2079 35.9191 15.1125 36.5157 14.9813C38.944 14.4474 40.7517 13.1054 41.4772 11.2981C41.8699 10.3169 41.8579 9.36849 41.813 8.89131C41.78 8.50659 41.717 7.78784 41.2703 7.01541C41.2344 6.9498 40.8986 6.38315 40.317 5.89703C39.4237 5.14845 38.0926 4.72794 36.3688 4.64444C34.8339 4.57286 33.0952 4.53409 31.1975 4.53409C28.8412 4.53409 25.2947 4.60865 24.2185 4.64742L18.7444 37L1 36.9791L1.72848 33.275L10.2664 33.3168L15.081 4.68619L8.56961 4.64444L9.31908 1H35.7872C36.3388 1.00298 36.8905 1.04772 37.4301 1.13421C38.2185 1.25946 40.6108 1.64121 42.6703 3.54395C43.5697 4.37602 44.1003 5.21705 44.3342 5.64054C44.6459 6.20421 45.1885 7.38522 45.3175 8.97482C45.4344 10.4123 45.2065 11.8289 44.6549 13.0696C43.8425 14.8978 42.3316 16.3919 40.344 17.3582C40.5688 17.5193 40.7877 17.6893 40.9975 17.8682C41.9089 18.6526 42.6404 19.5711 43.177 20.603C43.8305 21.8467 44.1993 23.2036 44.2742 24.6352C44.4541 27.8979 43.0391 31.1814 40.392 33.6389C40.0412 33.9789 36.8005 36.994 32.0129 36.994L32.0099 36.997ZM24.917 33.284C26.1851 33.2929 29.156 33.3078 31.4463 33.3078C34.8999 33.3078 37.4331 31.0383 37.7089 30.7788C39.6905 28.9387 40.7967 26.4574 40.6708 24.1431C40.6228 23.2335 40.395 22.3894 39.9992 21.6349C39.7144 21.0862 39.3247 20.597 38.8481 20.1855C37.7418 19.2401 36.159 18.739 34.2763 18.739H27.3542L24.917 33.281V33.284Z" fill="white" stroke="white" stroke-width="0.0448658" stroke-miterlimit="10"/>
</svg>
