<svg width="40" height="39" viewBox="0 0 40 39" fill="none" xmlns="http://www.w3.org/2000/svg">
<path d="M4.17604 13.9776C2.24614 13.9776 0.681641 15.5421 0.681641 17.472V26.9568C0.681641 31.9194 4.70463 35.9424 9.66723 35.9424C14.6298 35.9424 18.6528 31.9194 18.6528 26.9568V17.472C18.6528 15.5421 17.0883 13.9776 15.1584 13.9776H4.17604Z" fill="white"/>
<path d="M15.6576 5.9904C15.6576 9.2988 12.9756 11.9808 9.66723 11.9808C6.35883 11.9808 3.67684 9.2988 3.67684 5.9904C3.67684 2.68199 6.35883 0 9.66723 0C12.9756 0 15.6576 2.68199 15.6576 5.9904Z" fill="white"/>
<circle opacity="0.05" cx="31.9784" cy="30.2704" r="6.67568" fill="white"/>
<path d="M36.0863 24.6213L26.3301 34.3779L28.0549 36.1027L37.8111 26.3461L36.0863 24.6213Z" fill="white"/>
<path d="M31.3787 22.5674C26.8906 22.5674 23.248 26.2099 23.248 30.698C23.248 35.1861 26.8906 38.8286 31.3787 38.8286C35.8668 38.8286 39.5093 35.1861 39.5093 30.698C39.5093 26.2099 35.8668 22.5674 31.3787 22.5674ZM31.3787 35.5764C28.6793 35.5764 26.5003 33.3974 26.5003 30.698C26.5003 27.9986 28.6793 25.8196 31.3787 25.8196C34.078 25.8196 36.2571 27.9986 36.2571 30.698C36.2571 33.3974 34.078 35.5764 31.3787 35.5764Z" fill="white"/>
<g opacity="0.15">
<path d="M29.6811 25.5H31.1811H34.6811L36.6232 26.9568V17.472C36.6232 15.5421 35.0587 13.9776 33.1288 13.9776H28.3792C29.1633 14.927 29.6344 16.1445 29.6344 17.472L29.6811 25.5Z" fill="white"/>
<path d="M24.6973 11.2107C25.9073 9.81076 26.6392 7.98605 26.6392 5.9904C26.6392 3.99474 25.9073 2.17003 24.6973 0.770049C25.5659 0.279767 26.5691 0 27.6376 0C30.946 0 33.628 2.68199 33.628 5.9904C33.628 9.2988 30.946 11.9808 27.6376 11.9808C26.5691 11.9808 25.5659 11.701 24.6973 11.2107Z" fill="white"/>
</g>
<g opacity="0.3">
<path d="M17.6529 5.9904C17.6529 7.98605 16.921 9.81076 15.7109 11.2107C16.5795 11.701 17.5827 11.9808 18.6513 11.9808C21.9597 11.9808 24.6417 9.2988 24.6417 5.9904C24.6417 2.68199 21.9597 0 18.6513 0C17.5827 0 16.5795 0.279767 15.7109 0.770049C16.921 2.17003 17.6529 3.99474 17.6529 5.9904Z" fill="white"/>
<path d="M16.3756 35.6517C18.9744 33.6432 20.6481 30.4954 20.6481 26.9568V17.472C20.6481 16.1445 20.177 14.927 19.3929 13.9776H24.1425C26.0724 13.9776 27.6369 15.5421 27.6369 17.472V26.9568C25.6803 27.5 25.3012 30.8833 25.3012 33C23.6575 34.8076 21.2869 35.9424 18.6513 35.9424C17.865 35.9424 17.1024 35.8414 16.3756 35.6517Z" fill="white"/>
</g>
</svg>
