<svg width="28" height="28" viewBox="0 0 28 28" fill="none" xmlns="http://www.w3.org/2000/svg">
<path d="M23.6158 11.3833C22.303 10.0705 20.5225 9.33301 18.666 9.33301C16.8095 9.33301 15.029 10.0705 13.7163 11.3833C12.4035 12.696 11.666 14.4765 11.666 16.333V24.4997H16.3327V16.333C16.3327 15.7142 16.5785 15.1207 17.0161 14.6831C17.4537 14.2455 18.0472 13.9997 18.666 13.9997C19.2849 13.9997 19.8783 14.2455 20.3159 14.6831C20.7535 15.1207 20.9993 15.7142 20.9993 16.333V24.4997H25.666V16.333C25.666 14.4765 24.9285 12.696 23.6158 11.3833Z" stroke="white" stroke-width="2" stroke-linecap="round" stroke-linejoin="round"/>
<path d="M7.00065 10.5H2.33398V24.5H7.00065V10.5Z" stroke="white" stroke-width="2" stroke-linecap="round" stroke-linejoin="round"/>
<path d="M4.66732 6.99967C5.95598 6.99967 7.00065 5.95501 7.00065 4.66634C7.00065 3.37768 5.95598 2.33301 4.66732 2.33301C3.37865 2.33301 2.33398 3.37768 2.33398 4.66634C2.33398 5.95501 3.37865 6.99967 4.66732 6.99967Z" stroke="white" stroke-width="2" stroke-linecap="round" stroke-linejoin="round"/>
</svg>
