<svg width="45" height="48" viewBox="0 0 45 48" fill="none" xmlns="http://www.w3.org/2000/svg">
<path opacity="0.35" d="M34.2703 28.2423C33.5531 28.2423 32.867 28.3622 32.2035 28.5337V9.6409C32.2035 6.21617 29.4278 3.44043 26.003 3.44043H7.40164C3.97691 3.44043 1.20117 6.21617 1.20117 9.6409V34.4428C1.20117 37.8675 3.97691 40.6432 7.40164 40.6432H27.1501C28.5824 43.1048 31.2176 44.7769 34.2703 44.7769C38.8359 44.7769 42.5376 41.0752 42.5376 36.5096C42.5376 31.944 38.8359 28.2423 34.2703 28.2423Z" fill="white"/>
<path d="M23.56 16.0645H9.09221C7.95133 16.0645 7.02539 14.7949 7.02539 13.2305C7.02539 11.6661 7.95133 10.3965 9.09221 10.3965H23.56C24.7009 10.3965 25.6268 11.6661 25.6268 13.2305C25.6268 14.7949 24.7009 16.0645 23.56 16.0645Z" fill="white"/>
<path d="M20.8318 28.5342C20.2117 30.2913 19.7777 32.1901 19.5917 34.2022H9.09221C7.95546 34.2022 7.02539 32.9269 7.02539 31.3682C7.02539 29.8095 7.95546 28.5342 9.09221 28.5342H20.8318Z" fill="white"/>
<path d="M23.56 25.1338H9.09221C7.95133 25.1338 7.02539 23.8642 7.02539 22.2998C7.02539 20.7355 7.95133 19.4658 9.09221 19.4658H23.56C24.7009 19.4658 25.6268 20.7355 25.6268 22.2998C25.6268 23.8642 24.7009 25.1338 23.56 25.1338Z" fill="white"/>
<path d="M40.4724 15.8417V31.0535C38.9636 29.338 36.7521 28.2426 34.2719 28.2426C33.5485 28.2426 32.8665 28.3253 32.2051 28.5113V11.708H36.3387C38.6122 11.708 40.4724 13.5681 40.4724 15.8417Z" fill="white"/>
<path d="M32.7482 24.6523C27.0437 24.6523 22.4141 29.282 22.4141 34.9865C22.4141 40.6909 27.0437 45.3206 32.7482 45.3206C38.4526 45.3206 43.0823 40.6909 43.0823 34.9865C43.0823 29.282 38.4526 24.6523 32.7482 24.6523ZM32.7482 41.1869C29.3172 41.1869 26.5477 38.4174 26.5477 34.9865C26.5477 31.5555 29.3172 28.786 32.7482 28.786C36.1791 28.786 38.9486 31.5555 38.9486 34.9865C38.9486 38.4174 36.1791 41.1869 32.7482 41.1869Z" fill="white"/>
<path d="M37.8534 27.6911L25.4531 40.0918L27.6454 42.284L40.0457 29.8832L37.8534 27.6911Z" fill="white"/>
</svg>
