<svg width="48" height="48" viewBox="0 0 48 48" fill="none" xmlns="http://www.w3.org/2000/svg">
<path opacity="0.35" d="M8.96725 33.6415C12.196 33.6415 14.8134 31.0241 14.8134 27.7954C14.8134 24.5666 12.196 21.9492 8.96725 21.9492C5.73851 21.9492 3.12109 24.5666 3.12109 27.7954C3.12109 31.0241 5.73851 33.6415 8.96725 33.6415Z" fill="white"/>
<path opacity="0.35" d="M24.5571 33.6415C27.7858 33.6415 30.4032 31.0241 30.4032 27.7954C30.4032 24.5666 27.7858 21.9492 24.5571 21.9492C21.3283 21.9492 18.7109 24.5666 18.7109 27.7954C18.7109 31.0241 21.3283 33.6415 24.5571 33.6415Z" fill="white"/>
<path opacity="0.35" d="M40.1469 33.6415C43.3757 33.6415 45.9931 31.0241 45.9931 27.7954C45.9931 24.5666 43.3757 21.9492 40.1469 21.9492C36.9182 21.9492 34.3008 24.5666 34.3008 27.7954C34.3008 31.0241 36.9182 33.6415 40.1469 33.6415Z" fill="white"/>
<path d="M22.6098 2.46191H12.8662C10.7129 2.46191 8.96875 4.20602 8.96875 6.35935V16.1029C8.96875 17.7087 10.8025 18.6246 12.0867 17.6619L15.725 14.9337C16.3992 14.427 17.2196 14.1542 18.0634 14.1542H22.6098C24.7631 14.1542 26.5072 12.4101 26.5072 10.2568V6.35935C26.5072 4.20602 24.7631 2.46191 22.6098 2.46191Z" fill="white"/>
<path opacity="0.35" d="M22.6074 8.30759V12.205C22.6074 14.3584 24.3515 16.1025 26.5049 16.1025H31.0512C31.895 16.1025 32.7154 16.3753 33.3897 16.882L37.0279 19.6102C38.3121 20.5728 40.1459 19.6569 40.1459 18.0512V8.30759C40.1459 6.15426 38.4018 4.41016 36.2484 4.41016H26.5049C24.3515 4.41016 22.6074 6.15426 22.6074 8.30759Z" fill="white"/>
<path d="M44.0437 45.2304H5.06931C2.91598 45.2304 1.17188 43.4863 1.17188 41.333C1.17188 39.1796 2.91598 37.4355 5.06931 37.4355H44.0437C46.197 37.4355 47.9411 39.1796 47.9411 41.333C47.9411 43.4863 46.197 45.2304 44.0437 45.2304Z" fill="white"/>
</svg>
