<svg width="2240" height="1340" viewBox="0 0 2240 1340" fill="none" xmlns="http://www.w3.org/2000/svg">
<mask id="mask0_10629_1563" style="mask-type:alpha" maskUnits="userSpaceOnUse" x="0" y="-2" width="2240" height="1570">
<rect y="-2" width="2240" height="1570" fill="url(#paint0_radial_10629_1563)"/>
</mask>
<g mask="url(#mask0_10629_1563)">
<rect x="1.66354" y="0.663542" width="223.673" height="223.673" stroke="white" stroke-opacity="0.2" stroke-width="1.32708"/>
<rect x="225.336" y="0.663542" width="223.673" height="223.673" stroke="white" stroke-opacity="0.2" stroke-width="1.32708"/>
<rect x="448.346" width="225" height="225" fill="white" fill-opacity="0.3"/>
<rect x="449.009" y="0.663542" width="223.673" height="223.673" stroke="white" stroke-opacity="0.2" stroke-width="1.32708"/>
<rect x="672.682" y="0.663542" width="223.673" height="223.673" stroke="white" stroke-opacity="0.2" stroke-width="1.32708"/>
<rect x="896.355" y="0.663542" width="223.673" height="223.673" stroke="white" stroke-opacity="0.2" stroke-width="1.32708"/>
<rect x="1120.03" y="0.663542" width="223.673" height="223.673" stroke="white" stroke-opacity="0.2" stroke-width="1.32708"/>
<rect x="1343.04" width="225" height="225" fill="white" fill-opacity="0.3"/>
<rect x="1343.7" y="0.663542" width="223.673" height="223.673" stroke="white" stroke-opacity="0.2" stroke-width="1.32708"/>
<rect x="1567.37" y="0.663542" width="223.673" height="223.673" stroke="white" stroke-opacity="0.2" stroke-width="1.32708"/>
<rect x="1791.05" y="0.663542" width="223.673" height="223.673" stroke="white" stroke-opacity="0.2" stroke-width="1.32708"/>
<rect x="2014.72" y="0.663542" width="223.673" height="223.673" stroke="white" stroke-opacity="0.2" stroke-width="1.32708"/>
<rect x="1.66354" y="224.337" width="223.673" height="223.673" stroke="white" stroke-opacity="0.2" stroke-width="1.32708"/>
<rect x="224.673" y="223.674" width="225" height="225" fill="white" fill-opacity="0.3"/>
<rect x="225.336" y="224.337" width="223.673" height="223.673" stroke="white" stroke-opacity="0.2" stroke-width="1.32708"/>
<rect x="449.009" y="224.337" width="223.673" height="223.673" stroke="white" stroke-opacity="0.2" stroke-width="1.32708"/>
<rect x="672.682" y="224.337" width="223.673" height="223.673" stroke="white" stroke-opacity="0.2" stroke-width="1.32708"/>
<rect x="896.355" y="224.337" width="223.673" height="223.673" stroke="white" stroke-opacity="0.2" stroke-width="1.32708"/>
<rect x="1120.03" y="224.337" width="223.673" height="223.673" stroke="white" stroke-opacity="0.2" stroke-width="1.32708"/>
<rect x="1343.7" y="224.337" width="223.673" height="223.673" stroke="white" stroke-opacity="0.2" stroke-width="1.32708"/>
<rect x="1567.37" y="224.337" width="223.673" height="223.673" stroke="white" stroke-opacity="0.2" stroke-width="1.32708"/>
<rect x="1790.38" y="223.674" width="225" height="225" fill="white" fill-opacity="0.3"/>
<rect x="1791.05" y="224.337" width="223.673" height="223.673" stroke="white" stroke-opacity="0.2" stroke-width="1.32708"/>
<rect x="2014.72" y="224.337" width="223.673" height="223.673" stroke="white" stroke-opacity="0.2" stroke-width="1.32708"/>
<rect x="1.66354" y="448.009" width="223.673" height="223.673" stroke="white" stroke-opacity="0.2" stroke-width="1.32708"/>
<rect x="225.336" y="448.009" width="223.673" height="223.673" stroke="white" stroke-opacity="0.2" stroke-width="1.32708"/>
<rect x="449.009" y="448.009" width="223.673" height="223.673" stroke="white" stroke-opacity="0.2" stroke-width="1.32708"/>
<rect x="672.682" y="448.009" width="223.673" height="223.673" stroke="white" stroke-opacity="0.2" stroke-width="1.32708"/>
<rect x="895.691" y="447.346" width="225" height="225" fill="white" fill-opacity="0.3"/>
<rect x="896.355" y="448.009" width="223.673" height="223.673" stroke="white" stroke-opacity="0.2" stroke-width="1.32708"/>
<rect x="1120.03" y="448.009" width="223.673" height="223.673" stroke="white" stroke-opacity="0.2" stroke-width="1.32708"/>
<rect x="1343.04" y="447.346" width="225" height="225" fill="white" fill-opacity="0.3"/>
<rect x="1343.7" y="448.009" width="223.673" height="223.673" stroke="white" stroke-opacity="0.2" stroke-width="1.32708"/>
<rect x="1567.37" y="448.009" width="223.673" height="223.673" stroke="white" stroke-opacity="0.2" stroke-width="1.32708"/>
<rect x="1791.05" y="448.009" width="223.673" height="223.673" stroke="white" stroke-opacity="0.2" stroke-width="1.32708"/>
<rect x="2014.72" y="448.009" width="223.673" height="223.673" stroke="white" stroke-opacity="0.2" stroke-width="1.32708"/>
<rect x="1.66354" y="671.683" width="223.673" height="223.673" stroke="white" stroke-opacity="0.2" stroke-width="1.32708"/>
<rect x="225.336" y="671.683" width="223.673" height="223.673" stroke="white" stroke-opacity="0.2" stroke-width="1.32708"/>
<rect x="449.009" y="671.683" width="223.673" height="223.673" stroke="white" stroke-opacity="0.2" stroke-width="1.32708"/>
<rect x="672.682" y="671.683" width="223.673" height="223.673" stroke="white" stroke-opacity="0.2" stroke-width="1.32708"/>
<rect x="896.355" y="671.683" width="223.673" height="223.673" stroke="white" stroke-opacity="0.2" stroke-width="1.32708"/>
<rect x="1120.03" y="671.683" width="223.673" height="223.673" stroke="white" stroke-opacity="0.2" stroke-width="1.32708"/>
<rect x="1343.7" y="671.683" width="223.673" height="223.673" stroke="white" stroke-opacity="0.2" stroke-width="1.32708"/>
<rect x="1567.37" y="671.683" width="223.673" height="223.673" stroke="white" stroke-opacity="0.2" stroke-width="1.32708"/>
<rect x="1791.05" y="671.683" width="223.673" height="223.673" stroke="white" stroke-opacity="0.2" stroke-width="1.32708"/>
<rect x="2014.06" y="671.02" width="225" height="225" fill="white" fill-opacity="0.3"/>
<rect x="2014.72" y="671.683" width="223.673" height="223.673" stroke="white" stroke-opacity="0.2" stroke-width="1.32708"/>
<rect x="1" y="894.691" width="225" height="225" fill="white" fill-opacity="0.3"/>
<rect x="1.66354" y="895.355" width="223.673" height="223.673" stroke="white" stroke-opacity="0.2" stroke-width="1.32708"/>
<rect x="225.336" y="895.355" width="223.673" height="223.673" stroke="white" stroke-opacity="0.2" stroke-width="1.32708"/>
<rect x="449.009" y="895.355" width="223.673" height="223.673" stroke="white" stroke-opacity="0.2" stroke-width="1.32708"/>
<rect x="672.019" y="894.691" width="225" height="225" fill="white" fill-opacity="0.3"/>
<rect x="896.355" y="895.355" width="223.673" height="223.673" stroke="white" stroke-opacity="0.2" stroke-width="1.32708"/>
<rect x="1120.03" y="895.355" width="223.673" height="223.673" stroke="white" stroke-opacity="0.2" stroke-width="1.32708"/>
<rect x="1343.04" y="894.691" width="225" height="225" fill="white" fill-opacity="0.3"/>
<rect x="1343.7" y="895.355" width="223.673" height="223.673" stroke="white" stroke-opacity="0.2" stroke-width="1.32708"/>
<rect x="1567.37" y="895.355" width="223.673" height="223.673" stroke="white" stroke-opacity="0.2" stroke-width="1.32708"/>
<rect x="1791.05" y="895.355" width="223.673" height="223.673" stroke="white" stroke-opacity="0.2" stroke-width="1.32708"/>
<rect x="2014.72" y="895.355" width="223.673" height="223.673" stroke="white" stroke-opacity="0.2" stroke-width="1.32708"/>
<rect x="1.66354" y="1119.03" width="223.673" height="223.673" stroke="white" stroke-opacity="0.2" stroke-width="1.32708"/>
<rect x="225.336" y="1119.03" width="223.673" height="223.673" stroke="white" stroke-opacity="0.2" stroke-width="1.32708"/>
<rect x="449.009" y="1119.03" width="223.673" height="223.673" stroke="white" stroke-opacity="0.2" stroke-width="1.32708"/>
<rect x="672.682" y="1119.03" width="223.673" height="223.673" stroke="white" stroke-opacity="0.2" stroke-width="1.32708"/>
<rect x="896.355" y="1119.03" width="223.673" height="223.673" stroke="white" stroke-opacity="0.2" stroke-width="1.32708"/>
<rect x="1119.36" y="1118.36" width="225" height="225" fill="white" fill-opacity="0.3"/>
<rect x="1120.03" y="1119.03" width="223.673" height="223.673" stroke="white" stroke-opacity="0.2" stroke-width="1.32708"/>
<rect x="1343.7" y="1119.03" width="223.673" height="223.673" stroke="white" stroke-opacity="0.2" stroke-width="1.32708"/>
<rect x="1567.37" y="1119.03" width="223.673" height="223.673" stroke="white" stroke-opacity="0.2" stroke-width="1.32708"/>
<rect x="1791.05" y="1119.03" width="223.673" height="223.673" stroke="white" stroke-opacity="0.2" stroke-width="1.32708"/>
<rect x="2014.72" y="1119.03" width="223.673" height="223.673" stroke="white" stroke-opacity="0.2" stroke-width="1.32708"/>
</g>
<defs>
<radialGradient id="paint0_radial_10629_1563" cx="0" cy="0" r="1" gradientUnits="userSpaceOnUse" gradientTransform="translate(1120 783) rotate(90) scale(998.48 1424.58)">
<stop stop-color="white" stop-opacity="0.1"/>
<stop offset="0.615" stop-color="white" stop-opacity="0.05"/>
<stop offset="1" stop-color="white" stop-opacity="0"/>
</radialGradient>
</defs>
</svg>
