<svg width="47" height="48" viewBox="0 0 47 48" fill="none" xmlns="http://www.w3.org/2000/svg">
<path d="M3.10826 21.9618C4.70111 21.9618 5.99386 23.2866 5.99386 24.9233C5.99386 21.6577 8.58321 19.0002 11.7651 19.0002C16.4032 19.0002 18.904 22.329 20.1487 24.9233C20.3353 24.5363 20.495 24.1632 20.6277 23.8236C21.3433 21.9874 22.2533 20.3823 23.3075 18.9884C20.4392 15.1917 16.4282 13.0771 11.7651 13.0771C5.39943 13.0771 0.222656 18.3901 0.222656 24.9233C0.222656 23.2866 1.51541 21.9618 3.10826 21.9618Z" fill="white"/>
<path d="M43.5078 27.8844C41.915 27.8844 40.6222 26.5596 40.6222 24.9229C40.6222 28.1884 38.0329 30.8459 34.851 30.8459C30.2129 30.8459 27.712 27.5172 26.4674 24.9229C26.2808 25.3098 26.1211 25.683 25.9884 26.0226C25.2727 27.8587 24.3628 29.4639 23.3086 30.8578C26.1769 34.6545 30.1879 36.769 34.851 36.769C41.2166 36.769 46.3934 31.456 46.3934 24.9229C46.3934 26.5596 45.1007 27.8844 43.5078 27.8844Z" fill="white"/>
<path opacity="0.35" d="M11.7651 36.7695C5.39943 36.7695 0.222656 31.4565 0.222656 24.9233C0.222656 23.2866 1.51541 21.9618 3.10826 21.9618C4.70111 21.9618 5.99386 23.2866 5.99386 24.9233C5.99386 28.1889 8.58321 30.8464 11.7651 30.8464C17.0957 30.8464 19.6062 26.4455 20.6277 23.8236C23.2902 16.9943 28.4746 13.0771 34.8499 13.0771C41.2155 13.0771 46.3923 18.3901 46.3923 24.9233C46.3923 26.56 45.0995 27.8848 43.5067 27.8848C41.9138 27.8848 40.6211 26.56 40.6211 24.9233C40.6211 21.6577 38.0317 19.0002 34.8499 19.0002C29.5192 19.0002 27.0087 23.4011 25.9872 26.023C23.3248 32.8523 18.1403 36.7695 11.7651 36.7695Z" fill="white"/>
</svg>
