<svg width="47" height="48" viewBox="0 0 47 48" fill="none" xmlns="http://www.w3.org/2000/svg">
<path opacity="0.35" d="M41.8204 29.7531V26.3221C39.4314 25.4161 37.712 23.0052 37.712 20.1446C37.712 17.284 39.4314 14.873 41.8204 13.967V9.17592C41.8204 5.54091 39.0616 2.59473 35.6578 2.59473H6.89894C3.49512 2.59473 0.736328 5.54091 0.736328 9.17592V13.967C3.12537 14.873 4.84474 17.284 4.84474 20.1446C4.84474 23.0052 3.12537 25.4161 0.736328 26.3221V31.1132C0.736328 34.7483 3.49512 37.6944 6.89894 37.6944H27.7306C28.6468 41.472 31.8329 44.2756 35.6578 44.2756C40.1955 44.2756 43.8746 40.3467 43.8746 35.5007C43.8746 33.2894 43.0837 31.2953 41.8204 29.7531Z" fill="white"/>
<path d="M16.3122 22.8464C15.951 22.8464 15.6584 23.1391 15.6584 23.5001L15.6584 24.1541C15.6584 24.526 15.8192 25.1264 16.4775 25.6604C17.149 26.2052 18.4537 26.7695 20.8837 26.7695C23.3192 26.7695 24.6271 26.2134 25.3001 25.6726C25.9549 25.1465 26.1199 24.5497 26.1199 24.1541V23.5001C26.1199 23.1391 25.8273 22.8464 25.466 22.8464H16.3122Z" fill="white"/>
<path d="M20.8891 16.3079C21.6113 16.3079 22.1968 15.7224 22.1968 15.0002C22.1968 14.278 21.6113 13.6925 20.8891 13.6925C20.1669 13.6925 19.5814 14.278 19.5814 15.0002C19.5814 15.7224 20.1669 16.3079 20.8891 16.3079Z" fill="white"/>
<path fill-rule="evenodd" clip-rule="evenodd" d="M20.8891 18.9233C18.7225 18.9233 16.966 17.1669 16.966 15.0002C16.966 12.8336 18.7225 11.0771 20.8891 11.0771C23.0558 11.0771 24.8122 12.8336 24.8122 15.0002C24.8122 17.1669 23.0558 18.9233 20.8891 18.9233ZM22.1968 15.0002C22.1968 15.7224 21.6113 16.3079 20.8891 16.3079C20.1669 16.3079 19.5814 15.7224 19.5814 15.0002C19.5814 14.278 20.1669 13.6925 20.8891 13.6925C21.6113 13.6925 22.1968 14.278 22.1968 15.0002Z" fill="white"/>
<path fill-rule="evenodd" clip-rule="evenodd" d="M13.043 23.5001C13.043 21.6944 14.5068 20.231 16.3122 20.231H25.466C27.2715 20.231 28.7353 21.6944 28.7353 23.5001V24.1541C28.7353 25.2956 28.2464 26.6603 26.9383 27.7114C25.6484 28.7479 23.6844 29.3848 20.8837 29.3848C18.0775 29.3848 16.1156 28.7346 14.8297 27.6915C13.5305 26.6374 13.043 25.2763 13.043 24.1541V23.5001ZM15.6584 23.5001C15.6584 23.1391 15.951 22.8464 16.3122 22.8464H25.466C25.8273 22.8464 26.1199 23.1391 26.1199 23.5001V24.1541C26.1199 24.5497 25.9549 25.1465 25.3001 25.6726C24.6271 26.2134 23.3192 26.7695 20.8837 26.7695C18.4537 26.7695 17.149 26.2052 16.4775 25.6604C15.8192 25.1264 15.6584 24.526 15.6584 24.1541L15.6584 23.5001Z" fill="white"/>
<rect x="9.85156" y="7.88477" width="22.3846" height="24.8462" rx="4.5" stroke="white"/>
<path d="M46.0692 36.8207C46.0692 31.4403 41.706 27.0771 36.3256 27.0771C30.9452 27.0771 26.582 31.4403 26.582 36.8207C26.582 42.2011 30.9452 46.5643 36.3256 46.5643C41.706 46.5643 46.0692 42.1973 46.0692 36.8207ZM34.3769 41.6925V38.7695H31.4538C30.382 38.7695 29.5051 37.8925 29.5051 36.8207C29.5051 35.7489 30.382 34.872 31.4538 34.872H34.3769V31.9489C34.3769 30.8771 35.2538 30.0002 36.3256 30.0002C37.3974 30.0002 38.2743 30.8771 38.2743 31.9489V34.872H41.1974C42.2692 34.872 43.1461 35.7489 43.1461 36.8207C43.1461 37.8925 42.2692 38.7695 41.1974 38.7695H38.2743V41.6925C38.2743 42.7643 37.3974 43.6413 36.3256 43.6413C35.2538 43.6413 34.3769 42.7643 34.3769 41.6925Z" fill="white"/>
</svg>
