<svg width="39" height="39" viewBox="0 0 39 39" fill="none" xmlns="http://www.w3.org/2000/svg">
<g clip-path="url(#clip0_0_991)">
<path d="M2.4375 17.0625C3.783 17.0625 4.875 18.1529 4.875 19.5C4.875 16.8122 7.06225 14.625 9.75 14.625C13.6679 14.625 15.7804 17.3647 16.8317 19.5C16.9894 19.1815 17.1243 18.8744 17.2364 18.5949C17.8409 17.0836 18.6095 15.7625 19.5 14.6153C17.0771 11.4904 13.689 9.75 9.75 9.75C4.37288 9.75 0 14.1229 0 19.5C0 18.1529 1.092 17.0625 2.4375 17.0625Z" fill="white"/>
<path d="M36.5625 21.9375C35.217 21.9375 34.125 20.8471 34.125 19.5C34.125 22.1878 31.9378 24.375 29.25 24.375C25.3321 24.375 23.2196 21.6352 22.1683 19.5C22.0106 19.8185 21.8757 20.1256 21.7636 20.4051C21.1591 21.9164 20.3905 23.2375 19.5 24.3847C21.9229 27.5096 25.311 29.25 29.25 29.25C34.6271 29.25 39 24.8771 39 19.5C39 20.8471 37.908 21.9375 36.5625 21.9375Z" fill="white"/>
<path opacity="0.35" d="M9.62338 28.9968C4.31608 28.9968 0 24.6807 0 19.3734C0 18.0437 1.07782 16.9675 2.40584 16.9675C3.73387 16.9675 4.81169 18.0437 4.81169 19.3734C4.81169 22.0262 6.97053 24.1851 9.62338 24.1851C14.0678 24.1851 16.1609 20.61 17.0125 18.48C19.2323 12.9321 23.5548 9.75 28.8701 9.75C34.1774 9.75 38.4935 14.0661 38.4935 19.3734C38.4935 20.703 37.4157 21.7792 36.0877 21.7792C34.7596 21.7792 33.6818 20.703 33.6818 19.3734C33.6818 16.7205 31.523 14.5617 28.8701 14.5617C24.4257 14.5617 22.3326 18.1368 21.481 20.2667C19.2612 25.8146 14.9387 28.9968 9.62338 28.9968Z" fill="white"/>
</g>
<defs>
<clipPath id="clip0_0_991">
<rect width="38.5" height="38.5" fill="white" transform="scale(1.01299)"/>
</clipPath>
</defs>
</svg>
