<svg width="45" height="48" viewBox="0 0 45 48" fill="none" xmlns="http://www.w3.org/2000/svg">
<path d="M30.1805 21.5326L24.7078 20.8288C23.0649 20.6165 21.5174 19.9389 20.2447 18.8687L9.74488 10.0452C8.61391 8.90811 6.78295 8.90811 5.65487 10.0452C4.5239 11.1823 4.5239 13.0232 5.65487 14.1574L14.8675 24.9846C16.6782 27.1134 19.3972 28.2389 22.174 28.0091L30.1834 27.346C31.78 27.346 33.0759 26.0432 33.0759 24.4378C33.073 22.8354 31.7771 21.5326 30.1805 21.5326Z" fill="white"/>
<path opacity="0.35" d="M37.3773 8.92867C33.82 5.37134 29.3206 3.33585 24.6826 2.81791C23.4166 2.67724 22.3061 3.67687 22.3061 4.95146V23.9999L8.83561 10.5294C7.9255 9.61924 6.42711 9.72368 5.6257 10.7297C-1.54223 19.7157 -0.393398 33.1521 9.07006 40.7123C12.8917 43.7644 17.5978 45.2905 22.3061 45.2927C27.0123 45.2905 31.7184 43.7644 35.5422 40.7123C45.6621 32.6278 46.2738 17.8252 37.3773 8.92867Z" fill="white"/>
</svg>
