<svg width="52" height="48" viewBox="0 0 52 48" fill="none" xmlns="http://www.w3.org/2000/svg">
<path opacity="0.35" d="M42.566 29.5613C42.5959 29.1458 42.6278 28.7302 42.6278 28.306C42.6278 18.7935 34.9933 11.0811 25.5769 11.0811C16.1605 11.0811 8.5259 18.7935 8.5259 28.306C8.5259 28.7302 8.55787 29.1458 8.58771 29.5613C7.31741 29.9876 6.39453 31.1848 6.39453 32.6123C6.39453 34.3951 7.82681 35.842 9.59159 35.842C9.81112 35.842 10.0243 35.8204 10.231 35.7774C12.9869 41.5434 18.814 45.531 25.5769 45.531C32.3397 45.531 38.1669 41.5434 40.9227 35.7774C41.1295 35.8204 41.3426 35.842 41.5621 35.842C43.3269 35.842 44.7592 34.3951 44.7592 32.6123C44.7592 31.1848 43.8363 29.9876 42.566 29.5613Z" fill="white"/>
<path d="M31.971 6.77499C31.971 4.39579 30.0634 2.46875 27.7082 2.46875H25.5769C14.9818 2.46875 6.39453 11.1437 6.39453 21.8469V28.3062C6.39453 29.4947 7.34939 30.4593 8.5259 30.4593C9.70242 30.4593 10.6573 29.8285 10.6573 28.3062C10.6573 24.7751 13.5197 21.8469 17.0514 21.8469H34.1024C37.634 21.8469 40.4965 24.7385 40.4965 28.3062C40.4965 29.5636 41.4513 30.4593 42.6278 30.4593C43.8044 30.4593 44.7592 29.4947 44.7592 28.3062V21.8469C44.7592 6.77499 31.971 6.77499 31.971 6.77499Z" fill="white"/>
<path d="M31.2355 34.7656C31.6319 34.7656 31.9729 35.108 31.9282 35.5063C31.5637 38.7252 28.8569 41.225 25.5746 41.225C22.2923 41.225 19.5854 38.7252 19.2231 35.5063C19.1762 35.108 19.5172 34.7656 19.9136 34.7656H31.2355Z" fill="white"/>
<path opacity="0.35" d="M44.7583 6.77499C45.9354 6.77499 46.8897 5.81101 46.8897 4.62187C46.8897 3.43274 45.9354 2.46875 44.7583 2.46875C43.5812 2.46875 42.627 3.43274 42.627 4.62187C42.627 5.81101 43.5812 6.77499 44.7583 6.77499Z" fill="white"/>
<path opacity="0.35" d="M6.39309 6.77499C7.57021 6.77499 8.52446 5.81101 8.52446 4.62187C8.52446 3.43274 7.57021 2.46875 6.39309 2.46875C5.21597 2.46875 4.26172 3.43274 4.26172 4.62187C4.26172 5.81101 5.21597 6.77499 6.39309 6.77499Z" fill="white"/>
<path d="M19.6704 30.5211C20.8476 30.5211 21.8018 29.5571 21.8018 28.368C21.8018 27.1788 20.8476 26.2148 19.6704 26.2148C18.4933 26.2148 17.5391 27.1788 17.5391 28.368C17.5391 29.5571 18.4933 30.5211 19.6704 30.5211Z" fill="white"/>
<path d="M31.3618 30.5211C32.539 30.5211 33.4932 29.5571 33.4932 28.368C33.4932 27.1788 32.539 26.2148 31.3618 26.2148C30.1847 26.2148 29.2305 27.1788 29.2305 28.368C29.2305 29.5571 30.1847 30.5211 31.3618 30.5211Z" fill="white"/>
<path opacity="0.35" d="M49.022 15.3873C50.1991 15.3873 51.1534 14.4233 51.1534 13.2342C51.1534 12.045 50.1991 11.0811 49.022 11.0811C47.8449 11.0811 46.8906 12.045 46.8906 13.2342C46.8906 14.4233 47.8449 15.3873 49.022 15.3873Z" fill="white"/>
<path opacity="0.35" d="M2.13137 15.3873C3.30849 15.3873 4.26274 14.4233 4.26274 13.2342C4.26274 12.045 3.30849 11.0811 2.13137 11.0811C0.954247 11.0811 0 12.045 0 13.2342C0 14.4233 0.954247 15.3873 2.13137 15.3873Z" fill="white"/>
</svg>
