<svg width="44" height="48" viewBox="0 0 44 48" fill="none" xmlns="http://www.w3.org/2000/svg">
<path d="M1.6222 35.3672C0.453244 35.3672 -0.134078 36.9018 0.688173 37.8055L6.53297 44.2282C7.27755 45.0447 8.49008 45.0447 9.23465 44.2282L15.0795 37.8055C15.9017 36.9018 15.3125 35.3672 14.1454 35.3672H1.6222Z" fill="white"/>
<path d="M23.0395 18.3164H19.2503C12.9717 18.3164 7.88281 23.4053 7.88281 29.6839V39.1569" stroke="white" stroke-width="4" stroke-miterlimit="10" stroke-linecap="round" stroke-linejoin="round"/>
<path opacity="0.35" d="M41.6044 10.1943L35.7596 3.7716C35.015 2.95504 33.8025 2.95504 33.0579 3.7716L27.2131 10.1943C26.3909 11.098 26.9801 12.6326 28.1472 12.6326H30.6196V18.3163C30.6196 22.4958 27.2207 25.8947 23.0412 25.8947H19.2521C17.1604 25.8947 15.4629 27.5922 15.4629 29.6839C15.4629 31.7755 17.1604 33.473 19.2521 33.473H23.0412C31.3983 33.473 38.1979 26.6734 38.1979 18.3163V12.6326H40.6704C41.8374 12.6326 42.4267 11.098 41.6044 10.1943Z" fill="white"/>
</svg>
