<svg width="45" height="48" viewBox="0 0 45 48" fill="none" xmlns="http://www.w3.org/2000/svg">
<path opacity="0.35" d="M0.345703 39.528V26.4199C0.345703 24.8788 1.37235 23.5388 2.82586 23.1818L7.87154 21.9503C10.4502 21.3199 13.158 21.5662 15.5922 22.6485L25.1779 26.9147C28.2184 28.2682 29.5888 31.9379 28.2119 35.0471L29.0284 36.1521L39.2139 32.3988C41.1468 31.6577 43.2898 32.7174 43.9421 34.7353C44.5157 36.5114 43.7364 38.4524 42.1143 39.2907L31.9945 44.5511C29.9784 45.5905 27.6449 45.7623 25.5063 45.0279L12.0657 40.4024C10.1503 39.7426 8.08169 39.7381 6.16192 40.3844L2.93969 41.4712C1.6613 41.9028 0.345703 40.9176 0.345703 39.528Z" fill="white"/>
<path d="M21.9877 15.2004C23.1107 16.3596 29.912 22.2007 30.3848 22.6888C30.8555 23.1746 31.4706 23.4164 32.0879 23.4164C32.7052 23.4164 33.3203 23.1746 33.7909 22.6888C34.2638 22.2007 41.065 16.3618 42.188 15.2004C44.7732 12.5318 44.7732 8.20232 42.188 5.53369C39.6028 2.86507 35.4086 2.86507 32.8234 5.53369C32.5432 5.82293 32.3068 6.13927 32.0879 6.4624C31.869 6.13927 31.6326 5.82293 31.3524 5.53369C28.7671 2.86507 24.573 2.86507 21.9877 5.53369C19.4025 8.20232 19.4025 12.5318 21.9877 15.2004Z" fill="white"/>
</svg>
