<svg width="45" height="48" viewBox="0 0 45 48" fill="none" xmlns="http://www.w3.org/2000/svg">
<path opacity="0.35" d="M35.399 37.1625H9.07422V33.9716C9.07422 30.4457 11.4303 27.5898 14.3392 27.5898H30.134C33.0429 27.5898 35.399 30.4457 35.399 33.9716V37.1625Z" fill="white"/>
<path d="M36.5955 27.1914C35.2745 27.1914 34.2023 28.2188 34.2023 29.4848V24.8979C34.2023 21.0977 30.9883 18.0176 27.0228 18.0176H17.4502C13.4847 18.0176 10.2707 21.0977 10.2707 24.8979V29.4848C10.2707 28.2188 9.19856 27.1914 7.87754 27.1914C6.55651 27.1914 5.48438 28.2188 5.48438 29.4848V40.9521C5.48438 43.484 7.62626 45.5389 10.2707 45.5389H34.2023C36.8468 45.5389 38.9886 43.484 38.9886 40.9521V29.4848C38.9886 28.2188 37.9165 27.1914 36.5955 27.1914ZM34.2023 36.3652H10.2707V34.0717C10.2707 31.5397 12.4126 29.4848 15.057 29.4848H29.416C32.0604 29.4848 34.2023 31.5397 34.2023 34.0717V36.3652Z" fill="white"/>
<path d="M10.2394 2.69727H2.24008C1.13616 2.69727 0.240234 3.6986 0.240234 4.93238V18.3431C0.240234 19.5769 1.13616 20.5782 2.24008 20.5782H10.2394C11.3434 20.5782 12.2393 19.5769 12.2393 18.3431V4.93238C12.2393 3.6986 11.3434 2.69727 10.2394 2.69727ZM8.2396 16.108H4.23992V7.1675H8.2396V16.108Z" fill="white"/>
<path opacity="0.35" d="M8.23796 7.16699H4.23828V16.1075H8.23796V7.16699Z" fill="white"/>
<path d="M42.2336 2.69727H34.2342C33.1303 2.69727 32.2344 3.6986 32.2344 4.93238V18.3431C32.2344 19.5769 33.1303 20.5782 34.2342 20.5782H42.2336C43.3375 20.5782 44.2334 19.5769 44.2334 18.3431V4.93238C44.2334 3.6986 43.3375 2.69727 42.2336 2.69727ZM40.2337 16.108H36.2341V7.1675H40.2337V16.108Z" fill="white"/>
<path opacity="0.35" d="M40.236 7.16699H36.2363V16.1075H40.236V7.16699Z" fill="white"/>
</svg>
