<svg width="33" height="33" viewBox="0 0 33 33" fill="none" xmlns="http://www.w3.org/2000/svg">
<path opacity="0.35" d="M16.2487 32.5413C25.1083 32.5413 32.2904 25.3592 32.2904 16.4997C32.2904 7.64011 25.1083 0.458008 16.2487 0.458008C7.38913 0.458008 0.207031 7.64011 0.207031 16.4997C0.207031 25.3592 7.38913 32.5413 16.2487 32.5413Z" fill="white"/>
<path d="M21.3877 19.3695L19.5156 16.9488C18.9541 16.2222 18.6124 15.3495 18.529 14.4351L17.8537 6.87467C17.8537 5.98917 17.135 5.27051 16.2495 5.27051C15.364 5.27051 14.6453 5.98917 14.6453 6.87467L14.0342 14.711C13.9138 16.251 14.5411 17.7557 15.7201 18.7551L19.1194 21.6378C19.7466 22.265 20.762 22.265 21.3877 21.6378C22.0149 21.0122 22.0149 19.9952 21.3877 19.3695Z" fill="white"/>
</svg>
