<svg width="18" height="20" viewBox="0 0 18 20" fill="none" xmlns="http://www.w3.org/2000/svg">
<path d="M6 6V4.75C6 3.7835 6.7835 3 7.75 3H10.25C11.2165 3 12 3.7835 12 4.75V6H13.5C14.8807 6 16 7.11929 16 8.5V14.5C16 15.8807 14.8807 17 13.5 17H4.5C3.11929 17 2 15.8807 2 14.5V8.5C2 7.11929 3.11929 6 4.5 6H6ZM7 4.75V6H11V4.75C11 4.33579 10.6642 4 10.25 4H7.75C7.33579 4 7 4.33579 7 4.75ZM4.5 7C3.67157 7 3 7.67157 3 8.5V9.5C3 10.3284 3.67157 11 4.5 11H8V10.5C8 10.2239 8.22386 10 8.5 10H9.5C9.77614 10 10 10.2239 10 10.5V11H13.5C14.3284 11 15 10.3284 15 9.5V8.5C15 7.67157 14.3284 7 13.5 7H4.5ZM13.5 12H10V12.5C10 12.7761 9.77614 13 9.5 13H8.5C8.22386 13 8 12.7761 8 12.5V12H4.5C3.9372 12 3.41783 11.814 3 11.5002V14.5C3 15.3284 3.67157 16 4.5 16H13.5C14.3284 16 15 15.3284 15 14.5V11.5002C14.5822 11.814 14.0628 12 13.5 12Z" fill="white"/>
</svg>
