<svg width="38" height="40" viewBox="0 0 38 40" fill="none" xmlns="http://www.w3.org/2000/svg">
<path d="M2.52619 18.0454C3.82038 18.0454 4.87074 19.1218 4.87074 20.4517C4.87074 17.7984 6.97459 15.6392 9.55985 15.6392C13.3283 15.6392 15.3603 18.3438 16.3715 20.4517C16.5232 20.1372 16.6529 19.8341 16.7607 19.5581C17.3422 18.0663 18.0815 16.7621 18.9381 15.6295C16.6076 12.5447 13.3486 10.8267 9.55985 10.8267C4.38777 10.8267 0.181641 15.1435 0.181641 20.4517C0.181641 19.1218 1.232 18.0454 2.52619 18.0454Z" fill="white"/>
<path d="M35.3494 22.8579C34.0552 22.8579 33.0048 21.7815 33.0048 20.4517C33.0048 23.105 30.901 25.2642 28.3157 25.2642C24.5472 25.2642 22.5153 22.5595 21.504 20.4517C21.3524 20.7661 21.2227 21.0693 21.1148 21.3452C20.5334 22.8371 19.794 24.1412 18.9375 25.2738C21.268 28.3586 24.5269 30.0767 28.3157 30.0767C33.4878 30.0767 37.6939 25.7598 37.6939 20.4517C37.6939 21.7815 36.6436 22.8579 35.3494 22.8579Z" fill="white"/>
<path opacity="0.35" d="M9.55985 30.0767C4.38777 30.0767 0.181641 25.7598 0.181641 20.4517C0.181641 19.1218 1.232 18.0454 2.52619 18.0454C3.82038 18.0454 4.87074 19.1218 4.87074 20.4517C4.87074 23.105 6.97459 25.2642 9.55985 25.2642C13.891 25.2642 15.9308 21.6885 16.7607 19.5581C18.924 14.0093 23.1364 10.8267 28.3163 10.8267C33.4883 10.8267 37.6945 15.1435 37.6945 20.4517C37.6945 21.7815 36.6441 22.8579 35.3499 22.8579C34.0557 22.8579 33.0054 21.7815 33.0054 20.4517C33.0054 17.7984 30.9015 15.6392 28.3163 15.6392C23.9851 15.6392 21.9453 19.2148 21.1154 21.3452C18.9521 26.894 14.7397 30.0767 9.55985 30.0767Z" fill="white"/>
</svg>
