<svg width="35" height="40" viewBox="0 0 35 40" fill="none" xmlns="http://www.w3.org/2000/svg">
<path d="M1.31755 28.938C0.367773 28.938 -0.109426 30.1849 0.558652 30.9191L5.30755 36.1375C5.91252 36.801 6.8977 36.801 7.50267 36.1375L12.2516 30.9191C12.9196 30.1849 12.4409 28.938 11.4927 28.938H1.31755Z" fill="white"/>
<path d="M18.7201 15.0835H15.6414C10.54 15.0835 6.40527 19.2182 6.40527 24.3196V32.0164" stroke="white" stroke-width="4" stroke-miterlimit="10" stroke-linecap="round" stroke-linejoin="round"/>
<path opacity="0.35" d="M33.8035 8.48455L29.0546 3.26615C28.4496 2.60269 27.4644 2.60269 26.8594 3.26615L22.1105 8.48455C21.4425 9.21882 21.9212 10.4657 22.8694 10.4657H24.8783V15.0838C24.8783 18.4796 22.1167 21.2412 18.7209 21.2412H15.6422C13.9427 21.2412 12.5635 22.6204 12.5635 24.3199C12.5635 26.0193 13.9427 27.3986 15.6422 27.3986H18.7209C25.511 27.3986 31.0357 21.8738 31.0357 15.0838V10.4657H33.0446C33.9928 10.4657 34.4715 9.21882 33.8035 8.48455Z" fill="white"/>
</svg>
