<svg width="36" height="40" viewBox="0 0 36 40" fill="none" xmlns="http://www.w3.org/2000/svg">
<path d="M24.5215 18.1968L20.075 17.625C18.7401 17.4525 17.4828 16.9019 16.4487 16.0324L7.91759 8.86333C6.99868 7.93944 5.51102 7.93944 4.59446 8.86333C3.67554 9.78723 3.67554 11.2829 4.59446 12.2045L12.0797 21.0016C13.5509 22.7312 15.7601 23.6457 18.0163 23.459L24.5239 22.9203C25.8211 22.9203 26.874 21.8617 26.874 20.5574C26.8717 19.2554 25.8188 18.1968 24.5215 18.1968Z" fill="white"/>
<path opacity="0.35" d="M30.3686 7.9562C27.4783 5.06588 23.8225 3.41204 20.0542 2.99121C19.0255 2.87692 18.1232 3.68912 18.1232 4.72472V20.2016L7.17844 9.25676C6.43898 8.5173 5.22154 8.60215 4.5704 9.41955C-1.25355 16.7207 -0.320124 27.6378 7.36894 33.7804C10.474 36.2603 14.2978 37.5002 18.1232 37.5019C21.947 37.5002 25.7707 36.2603 28.8775 33.7804C37.1 27.2118 37.597 15.1846 30.3686 7.9562Z" fill="white"/>
</svg>
