<svg width="36" height="40" viewBox="0 0 36 40" fill="none" xmlns="http://www.w3.org/2000/svg">
<path opacity="0.35" d="M28.761 30.8959H7.37207V28.3033C7.37207 25.4385 9.28638 23.1182 11.6498 23.1182H24.4832C26.8467 23.1182 28.761 25.4385 28.761 28.3033V30.8959Z" fill="white"/>
<path d="M29.7338 22.794C28.6605 22.794 27.7894 23.6288 27.7894 24.6575V20.9306C27.7894 17.8429 25.178 15.3403 21.9561 15.3403H14.1783C10.9563 15.3403 8.34494 17.8429 8.34494 20.9306V24.6575C8.34494 23.6288 7.47383 22.794 6.4005 22.794C5.32717 22.794 4.45605 23.6288 4.45605 24.6575V33.9746C4.45605 36.0318 6.19633 37.7014 8.34494 37.7014H27.7894C29.938 37.7014 31.6783 36.0318 31.6783 33.9746V24.6575C31.6783 23.6288 30.8072 22.794 29.7338 22.794ZM27.7894 30.2477H8.34494V28.3843C8.34494 26.3271 10.0852 24.6575 12.2338 24.6575H23.9005C26.0491 24.6575 27.7894 26.3271 27.7894 28.3843V30.2477Z" fill="white"/>
<path d="M8.31869 2.89307H1.81921C0.922278 2.89307 0.194336 3.70665 0.194336 4.7091V15.6053C0.194336 16.6077 0.922278 17.4213 1.81921 17.4213H8.31869C9.21562 17.4213 9.94356 16.6077 9.94356 15.6053V4.7091C9.94356 3.70665 9.21562 2.89307 8.31869 2.89307ZM6.69382 13.7893H3.44408V6.52513H6.69382V13.7893Z" fill="white"/>
<path opacity="0.35" d="M6.6931 6.5249H3.44336V13.789H6.6931V6.5249Z" fill="white"/>
<path d="M34.3148 2.89307H27.8153C26.9184 2.89307 26.1904 3.70665 26.1904 4.7091V15.6053C26.1904 16.6077 26.9184 17.4213 27.8153 17.4213H34.3148C35.2117 17.4213 35.9397 16.6077 35.9397 15.6053V4.7091C35.9397 3.70665 35.2117 2.89307 34.3148 2.89307ZM32.6899 13.7893H29.4402V6.52513H32.6899V13.7893Z" fill="white"/>
<path opacity="0.35" d="M32.6911 6.5249H29.4414V13.789H32.6911V6.5249Z" fill="white"/>
</svg>
