<svg width="39" height="40" viewBox="0 0 39 40" fill="none" xmlns="http://www.w3.org/2000/svg">
<path opacity="0.35" d="M7.28711 28.0352C9.91046 28.0352 12.0371 25.9085 12.0371 23.2852C12.0371 20.6618 9.91046 18.5352 7.28711 18.5352C4.66376 18.5352 2.53711 20.6618 2.53711 23.2852C2.53711 25.9085 4.66376 28.0352 7.28711 28.0352Z" fill="white"/>
<path opacity="0.35" d="M19.9531 28.0352C22.5765 28.0352 24.7031 25.9085 24.7031 23.2852C24.7031 20.6618 22.5765 18.5352 19.9531 18.5352C17.3298 18.5352 15.2031 20.6618 15.2031 23.2852C15.2031 25.9085 17.3298 28.0352 19.9531 28.0352Z" fill="white"/>
<path opacity="0.35" d="M32.6191 28.0352C35.2425 28.0352 37.3691 25.9085 37.3691 23.2852C37.3691 20.6618 35.2425 18.5352 32.6191 18.5352C29.9958 18.5352 27.8691 20.6618 27.8691 23.2852C27.8691 25.9085 29.9958 28.0352 32.6191 28.0352Z" fill="white"/>
<path d="M18.3704 2.70166H10.4538C8.70419 2.70166 7.28711 4.11874 7.28711 5.86833V13.785C7.28711 15.0897 8.77703 15.8338 9.82044 15.0517L12.7765 12.835C13.3244 12.4233 13.9909 12.2017 14.6765 12.2017H18.3704C20.12 12.2017 21.5371 10.7846 21.5371 9.03499V5.86833C21.5371 4.11874 20.12 2.70166 18.3704 2.70166Z" fill="white"/>
<path opacity="0.35" d="M18.3691 7.45182V10.6185C18.3691 12.3681 19.7862 13.7852 21.5358 13.7852H25.2297C25.9153 13.7852 26.5819 14.0068 27.1297 14.4185L30.0858 16.6352C31.1292 17.4173 32.6191 16.6732 32.6191 15.3685V7.45182C32.6191 5.70224 31.2021 4.28516 29.4525 4.28516H21.5358C19.7862 4.28516 18.3691 5.70224 18.3691 7.45182Z" fill="white"/>
<path d="M35.7865 37.4515H4.11979C2.37021 37.4515 0.953125 36.0344 0.953125 34.2848C0.953125 32.5352 2.37021 31.1182 4.11979 31.1182H35.7865C37.536 31.1182 38.9531 32.5352 38.9531 34.2848C38.9531 36.0344 37.536 37.4515 35.7865 37.4515Z" fill="white"/>
</svg>
