<svg width="38" height="40" viewBox="0 0 38 40" fill="none" xmlns="http://www.w3.org/2000/svg">
<path opacity="0.35" d="M33.9785 24.3758V21.5881C32.0374 20.852 30.6404 18.8931 30.6404 16.5688C30.6404 14.2446 32.0374 12.2857 33.9785 11.5496V7.65679C33.9785 4.70334 31.7369 2.30957 28.9713 2.30957H5.60478C2.83918 2.30957 0.597656 4.70334 0.597656 7.65679V11.5496C2.53875 12.2857 3.93574 14.2446 3.93574 16.5688C3.93574 18.8931 2.53875 20.852 0.597656 21.5881V25.4809C0.597656 28.4343 2.83918 30.8281 5.60478 30.8281H22.5305C23.2749 33.8974 25.8636 36.1753 28.9713 36.1753C32.6583 36.1753 35.6475 32.983 35.6475 29.0457C35.6475 27.249 35.0049 25.6288 33.9785 24.3758Z" fill="white"/>
<path d="M13.2539 18.7642C12.9604 18.7642 12.7227 19.002 12.7227 19.2953L12.7227 19.8267C12.7227 20.1288 12.8534 20.6167 13.3882 21.0505C13.9338 21.4932 14.9939 21.9517 16.9682 21.9517C18.9471 21.9517 20.0098 21.4999 20.5566 21.0605C21.0886 20.633 21.2227 20.1481 21.2227 19.8267V19.2953C21.2227 19.002 20.9849 18.7642 20.6914 18.7642H13.2539Z" fill="white"/>
<path d="M16.9727 13.4517C17.5595 13.4517 18.0352 12.976 18.0352 12.3892C18.0352 11.8024 17.5595 11.3267 16.9727 11.3267C16.3859 11.3267 15.9102 11.8024 15.9102 12.3892C15.9102 12.976 16.3859 13.4517 16.9727 13.4517Z" fill="white"/>
<path fill-rule="evenodd" clip-rule="evenodd" d="M16.9727 15.5767C15.2122 15.5767 13.7852 14.1496 13.7852 12.3892C13.7852 10.6288 15.2122 9.20166 16.9727 9.20166C18.7331 9.20166 20.1602 10.6288 20.1602 12.3892C20.1602 14.1496 18.7331 15.5767 16.9727 15.5767ZM18.0352 12.3892C18.0352 12.976 17.5595 13.4517 16.9727 13.4517C16.3859 13.4517 15.9102 12.976 15.9102 12.3892C15.9102 11.8024 16.3859 11.3267 16.9727 11.3267C17.5595 11.3267 18.0352 11.8024 18.0352 12.3892Z" fill="white"/>
<path fill-rule="evenodd" clip-rule="evenodd" d="M10.5977 19.2953C10.5977 17.8282 11.787 16.6392 13.2539 16.6392H20.6914C22.1583 16.6392 23.3477 17.8282 23.3477 19.2953V19.8267C23.3477 20.7541 22.9504 21.863 21.8876 22.717C20.8396 23.5592 19.2438 24.0767 16.9682 24.0767C14.6882 24.0767 13.0942 23.5484 12.0494 22.7008C10.9938 21.8444 10.5977 20.7385 10.5977 19.8267V19.2953ZM12.7227 19.2953C12.7227 19.002 12.9604 18.7642 13.2539 18.7642H20.6914C20.9849 18.7642 21.2227 19.002 21.2227 19.2953V19.8267C21.2227 20.1481 21.0886 20.633 20.5566 21.0605C20.0098 21.4999 18.9471 21.9517 16.9682 21.9517C14.9939 21.9517 13.9338 21.4932 13.3882 21.0505C12.8534 20.6167 12.7227 20.1288 12.7227 19.8267L12.7227 19.2953Z" fill="white"/>
<rect x="8.09766" y="6.70166" width="18" height="20" rx="4.5" stroke="white"/>
<path d="M37.431 30.1183C37.431 25.7467 33.8859 22.2017 29.5143 22.2017C25.1427 22.2017 21.5977 25.7467 21.5977 30.1183C21.5977 34.4899 25.1427 38.035 29.5143 38.035C33.8859 38.035 37.431 34.4867 37.431 30.1183ZM27.931 34.0767V31.7017H25.556C24.6852 31.7017 23.9727 30.9892 23.9727 30.1183C23.9727 29.2475 24.6852 28.535 25.556 28.535H27.931V26.16C27.931 25.2892 28.6435 24.5767 29.5143 24.5767C30.3852 24.5767 31.0977 25.2892 31.0977 26.16V28.535H33.4727C34.3435 28.535 35.056 29.2475 35.056 30.1183C35.056 30.9892 34.3435 31.7017 33.4727 31.7017H31.0977V34.0767C31.0977 34.9475 30.3852 35.66 29.5143 35.66C28.6435 35.66 27.931 34.9475 27.931 34.0767Z" fill="white"/>
</svg>
