<svg width="42" height="40" viewBox="0 0 42 40" fill="none" xmlns="http://www.w3.org/2000/svg">
<path opacity="0.35" d="M34.5847 24.2203C34.6089 23.8826 34.6349 23.545 34.6349 23.2004C34.6349 15.4715 28.4318 9.20508 20.781 9.20508C13.1301 9.20508 6.92705 15.4715 6.92705 23.2004C6.92705 23.545 6.95303 23.8826 6.97727 24.2203C5.94515 24.5667 5.19531 25.5393 5.19531 26.6992C5.19531 28.1477 6.35904 29.3233 7.79292 29.3233C7.97129 29.3233 8.14446 29.3058 8.31244 29.2708C10.5516 33.9558 15.2862 37.1957 20.781 37.1957C26.2758 37.1957 31.0103 33.9558 33.2495 29.2708C33.4175 29.3058 33.5906 29.3233 33.769 29.3233C35.2029 29.3233 36.3666 28.1477 36.3666 26.6992C36.3666 25.5393 35.6168 24.5667 34.5847 24.2203Z" fill="white"/>
<path d="M25.9762 5.70634C25.9762 3.77324 24.4263 2.20752 22.5127 2.20752H20.781C12.1725 2.20752 5.19531 9.2559 5.19531 17.9522V23.2005C5.19531 24.1661 5.97113 24.9499 6.92705 24.9499C7.88297 24.9499 8.65879 24.4373 8.65879 23.2005C8.65879 20.3314 10.9845 17.9522 13.854 17.9522H27.7079C30.5774 17.9522 32.9031 20.3017 32.9031 23.2005C32.9031 24.2221 33.679 24.9499 34.6349 24.9499C35.5908 24.9499 36.3666 24.1661 36.3666 23.2005V17.9522C36.3666 5.70634 25.9762 5.70634 25.9762 5.70634Z" fill="white"/>
<path d="M25.3798 28.4487C25.7019 28.4487 25.979 28.7269 25.9426 29.0505C25.6465 31.6659 23.4472 33.697 20.7803 33.697C18.1134 33.697 15.9141 31.6659 15.6197 29.0505C15.5816 28.7269 15.8587 28.4487 16.1808 28.4487H25.3798Z" fill="white"/>
<path opacity="0.35" d="M36.3655 5.70634C37.3219 5.70634 38.0973 4.92311 38.0973 3.95693C38.0973 2.99076 37.3219 2.20752 36.3655 2.20752C35.4091 2.20752 34.6338 2.99076 34.6338 3.95693C34.6338 4.92311 35.4091 5.70634 36.3655 5.70634Z" fill="white"/>
<path opacity="0.35" d="M5.19463 5.70634C6.15104 5.70634 6.92637 4.92311 6.92637 3.95693C6.92637 2.99076 6.15104 2.20752 5.19463 2.20752C4.23822 2.20752 3.46289 2.99076 3.46289 3.95693C3.46289 4.92311 4.23822 5.70634 5.19463 5.70634Z" fill="white"/>
<path d="M15.9817 24.9998C16.9382 24.9998 17.7135 24.2166 17.7135 23.2504C17.7135 22.2842 16.9382 21.501 15.9817 21.501C15.0253 21.501 14.25 22.2842 14.25 23.2504C14.25 24.2166 15.0253 24.9998 15.9817 24.9998Z" fill="white"/>
<path d="M25.4817 24.9998C26.4382 24.9998 27.2135 24.2166 27.2135 23.2504C27.2135 22.2842 26.4382 21.501 25.4817 21.501C24.5253 21.501 23.75 22.2842 23.75 23.2504C23.75 24.2166 24.5253 24.9998 25.4817 24.9998Z" fill="white"/>
<path opacity="0.35" d="M39.8313 12.7039C40.7878 12.7039 41.5631 11.9207 41.5631 10.9545C41.5631 9.98832 40.7878 9.20508 39.8313 9.20508C38.8749 9.20508 38.0996 9.98832 38.0996 10.9545C38.0996 11.9207 38.8749 12.7039 39.8313 12.7039Z" fill="white"/>
<path opacity="0.35" d="M1.73174 12.7039C2.68815 12.7039 3.46348 11.9207 3.46348 10.9545C3.46348 9.98832 2.68815 9.20508 1.73174 9.20508C0.775326 9.20508 0 9.98832 0 10.9545C0 11.9207 0.775326 12.7039 1.73174 12.7039Z" fill="white"/>
</svg>
