<svg width="48" height="40" viewBox="0 0 48 40" fill="none" xmlns="http://www.w3.org/2000/svg">
<path opacity="0.95" d="M31.6599 24.1043C32.0796 23.6987 32.7374 23.6987 33.1429 24.1043L35.199 26.1467L37.0455 24.3002L33.1009 18.0331C32.7788 17.5157 32.0234 17.5157 31.7019 18.0331L27.8828 24.1043L29.3516 26.4125L31.6593 24.1043H31.6599Z" fill="white"/>
<path opacity="0.5" d="M38.1925 26.1182L35.9404 28.3844C35.5343 28.7905 34.863 28.7905 34.4574 28.3844L32.4013 26.3283L30.4844 28.2447L34.7653 35.0435C35.2691 35.8415 35.3804 36.8201 35.0731 37.7016H43.97C44.6277 37.7016 45.0191 36.9883 44.6692 36.4288L38.1925 26.1182Z" fill="white"/>
<path d="M17.3317 21.3281C17.7248 20.9345 18.4216 20.9345 18.8153 21.3281L21.4699 23.9822L23.8422 21.6099L19.0533 13.996V11.008H25.366C25.7295 11.008 26.0611 10.8073 26.2321 10.4859C26.4015 10.1656 26.3796 9.77723 26.1765 9.47708L24.5603 7.10485L26.1765 4.73263C26.3802 4.43247 26.4021 4.04411 26.2321 3.72382C26.0616 3.40295 25.7295 3.20166 25.366 3.20166H18.0735C17.533 3.20166 17.0943 3.64035 17.0943 4.18145V13.9972L12.3066 21.6088L14.6789 23.9816L17.3323 21.3276L17.3317 21.3281Z" fill="white"/>
<path opacity="0.8" d="M24.988 23.4317L22.212 26.2077C21.8024 26.618 21.1381 26.618 20.7284 26.2077L18.0738 23.5531L15.421 26.2077C15.2238 26.4043 14.9574 26.5156 14.6792 26.5156C14.4009 26.5156 14.1339 26.4043 13.9374 26.2077L11.1608 23.4312L3.15607 36.1572C2.73455 36.8274 3.21646 37.6994 4.00799 37.6994H32.1408C32.9329 37.6994 33.4148 36.8274 32.9927 36.1572L24.988 23.4317Z" fill="white"/>
</svg>
