<svg width="36" height="40" viewBox="0 0 36 40" fill="none" xmlns="http://www.w3.org/2000/svg">
<path opacity="0.35" d="M27.8452 23.1486C27.2625 23.1486 26.705 23.246 26.166 23.3854V8.03495C26.166 5.25236 23.9107 2.99707 21.1281 2.99707H6.01444C3.23185 2.99707 0.976562 5.25236 0.976562 8.03495V28.1865C0.976562 30.9691 3.23185 33.2243 6.01444 33.2243H22.0601C23.2238 35.2244 25.3649 36.5829 27.8452 36.5829C31.5548 36.5829 34.5624 33.5753 34.5624 29.8658C34.5624 26.1562 31.5548 23.1486 27.8452 23.1486Z" fill="white"/>
<path d="M19.1414 13.2542H7.38632C6.45935 13.2542 5.70703 12.2226 5.70703 10.9516C5.70703 9.6805 6.45935 8.64893 7.38632 8.64893H19.1414C20.0683 8.64893 20.8207 9.6805 20.8207 10.9516C20.8207 12.2226 20.0683 13.2542 19.1414 13.2542Z" fill="white"/>
<path d="M16.9247 23.3857C16.4209 24.8134 16.0683 26.3561 15.9171 27.991H7.38632C6.46271 27.991 5.70703 26.9548 5.70703 25.6884C5.70703 24.4219 6.46271 23.3857 7.38632 23.3857H16.9247Z" fill="white"/>
<path d="M19.1414 20.6228H7.38632C6.45935 20.6228 5.70703 19.5913 5.70703 18.3202C5.70703 17.0492 6.45935 16.0176 7.38632 16.0176H19.1414C20.0683 16.0176 20.8207 17.0492 20.8207 18.3202C20.8207 19.5913 20.0683 20.6228 19.1414 20.6228Z" fill="white"/>
<path d="M32.8832 13.0729V25.4325C31.6573 24.0387 29.8605 23.1487 27.8453 23.1487C27.2576 23.1487 26.7034 23.2159 26.166 23.367V9.71436H29.5246C31.3718 9.71436 32.8832 11.2257 32.8832 13.0729Z" fill="white"/>
<path d="M26.6074 20.2319C21.9726 20.2319 18.2109 23.9935 18.2109 28.6284C18.2109 33.2632 21.9726 37.0249 26.6074 37.0249C31.2423 37.0249 35.0039 33.2632 35.0039 28.6284C35.0039 23.9935 31.2423 20.2319 26.6074 20.2319ZM26.6074 33.6663C23.8198 33.6663 21.5695 31.416 21.5695 28.6284C21.5695 25.8408 23.8198 23.5905 26.6074 23.5905C29.395 23.5905 31.6453 25.8408 31.6453 28.6284C31.6453 31.416 29.395 33.6663 26.6074 33.6663Z" fill="white"/>
<path d="M30.7559 22.7008L20.6807 32.7764L22.4619 34.5575L32.5371 24.4819L30.7559 22.7008Z" fill="white"/>
</svg>
