<svg width="40" height="40" viewBox="0 0 40 40" fill="none" xmlns="http://www.w3.org/2000/svg">
<path d="M4.17604 14.1792C2.24614 14.1792 0.681641 15.7437 0.681641 17.6736V27.1584C0.681641 32.121 4.70463 36.144 9.66723 36.144C14.6298 36.144 18.6528 32.121 18.6528 27.1584V17.6736C18.6528 15.7437 17.0883 14.1792 15.1584 14.1792H4.17604Z" fill="white"/>
<path d="M15.6576 6.19206C15.6576 9.50046 12.9756 12.1825 9.66723 12.1825C6.35883 12.1825 3.67684 9.50046 3.67684 6.19206C3.67684 2.88365 6.35883 0.20166 9.66723 0.20166C12.9756 0.20166 15.6576 2.88365 15.6576 6.19206Z" fill="white"/>
<circle opacity="0.05" cx="31.9784" cy="30.4721" r="6.67568" fill="white"/>
<path d="M36.0863 24.8235L26.3301 34.5801L28.0549 36.3048L37.8111 26.5482L36.0863 24.8235Z" fill="white"/>
<path d="M31.3797 22.7695C26.8915 22.7695 23.249 26.4121 23.249 30.9002C23.249 35.3883 26.8915 39.0308 31.3797 39.0308C35.8678 39.0308 39.5103 35.3883 39.5103 30.9002C39.5103 26.4121 35.8678 22.7695 31.3797 22.7695ZM31.3797 35.7785C28.6803 35.7785 26.5013 33.5995 26.5013 30.9002C26.5013 28.2008 28.6803 26.0218 31.3797 26.0218C34.079 26.0218 36.258 28.2008 36.258 30.9002C36.258 33.5995 34.079 35.7785 31.3797 35.7785Z" fill="white"/>
<g opacity="0.15">
<path d="M29.6811 25.7017H31.1811H34.6811L36.6232 27.1584V17.6736C36.6232 15.7437 35.0587 14.1792 33.1288 14.1792H28.3792C29.1633 15.1287 29.6344 16.3461 29.6344 17.6736L29.6811 25.7017Z" fill="white"/>
<path d="M24.6973 11.4124C25.9073 10.0124 26.6392 8.18771 26.6392 6.19206C26.6392 4.1964 25.9073 2.37169 24.6973 0.971709C25.5659 0.481428 26.5691 0.20166 27.6376 0.20166C30.946 0.20166 33.628 2.88365 33.628 6.19206C33.628 9.50046 30.946 12.1825 27.6376 12.1825C26.5691 12.1825 25.5659 11.9027 24.6973 11.4124Z" fill="white"/>
</g>
<g opacity="0.3">
<path d="M17.6538 6.19206C17.6538 8.18771 16.9219 10.0124 15.7119 11.4124C16.5805 11.9027 17.5837 12.1825 18.6522 12.1825C21.9606 12.1825 24.6426 9.50046 24.6426 6.19206C24.6426 2.88365 21.9606 0.20166 18.6522 0.20166C17.5837 0.20166 16.5805 0.481428 15.7119 0.971709C16.9219 2.37169 17.6538 4.1964 17.6538 6.19206Z" fill="white"/>
<path d="M16.3766 35.8534C18.9754 33.8448 20.649 30.6971 20.649 27.1584V17.6736C20.649 16.3461 20.178 15.1287 19.3939 14.1792H24.1434C26.0733 14.1792 27.6378 15.7437 27.6378 17.6736V27.1584C25.6813 27.7017 25.3022 31.0849 25.3022 33.2017C23.6585 35.0093 21.2879 36.144 18.6522 36.144C17.866 36.144 17.1034 36.043 16.3766 35.8534Z" fill="white"/>
</g>
</svg>
