<svg width="36" height="40" viewBox="0 0 36 40" fill="none" xmlns="http://www.w3.org/2000/svg">
<path opacity="0.35" d="M0.280273 32.318V21.6676C0.280273 20.4155 1.11443 19.3268 2.2954 19.0367L6.39502 18.0361C8.49018 17.5239 10.6903 17.724 12.6681 18.6034L20.4564 22.0697C22.9269 23.1694 24.0403 26.151 22.9215 28.6773L23.5849 29.575L31.8607 26.5255C33.4311 25.9233 35.1724 26.7844 35.7024 28.4239C36.1684 29.867 35.5352 31.444 34.2173 32.1252L25.9949 36.3993C24.3568 37.2438 22.4609 37.3833 20.7232 36.7866L9.80277 33.0285C8.24651 32.4924 6.56576 32.4887 5.00595 33.0138L2.38789 33.8969C1.3492 34.2475 0.280273 33.4471 0.280273 32.318Z" fill="white"/>
<path d="M17.8654 12.5522C18.7778 13.494 24.3039 18.2399 24.688 18.6365C25.0704 19.0312 25.5702 19.2277 26.0718 19.2277C26.5733 19.2277 27.0731 19.0312 27.4555 18.6365C27.8397 18.2399 33.3657 13.4958 34.2781 12.5522C36.3786 10.3839 36.3786 6.86622 34.2781 4.69797C32.1776 2.52971 28.7699 2.52971 26.6694 4.69797C26.4417 4.93297 26.2496 5.19 26.0718 5.45254C25.8939 5.19 25.7018 4.93297 25.4742 4.69797C23.3737 2.52971 19.9659 2.52971 17.8654 4.69797C15.7649 6.86622 15.7649 10.3839 17.8654 12.5522Z" fill="white"/>
</svg>
