<svg width="51" height="52" viewBox="0 0 51 52" fill="none" xmlns="http://www.w3.org/2000/svg">
<circle cx="25.5" cy="26" r="25" stroke="white"/>
<path d="M16.7528 31.4997H35.2528C35.667 31.4997 36.0028 31.8355 36.0028 32.2497C36.0028 32.6294 35.7207 32.9432 35.3546 32.9928L35.2528 32.9997H16.7528C16.3386 32.9997 16.0028 32.6639 16.0028 32.2497C16.0028 31.87 16.285 31.5562 16.651 31.5065L16.7528 31.4997H35.2528H16.7528ZM16.7528 25.0027H35.2528C35.667 25.0027 36.0028 25.3385 36.0028 25.7527C36.0028 26.1324 35.7207 26.4462 35.3546 26.4959L35.2528 26.5027H16.7528C16.3386 26.5027 16.0028 26.1669 16.0028 25.7527C16.0028 25.373 16.285 25.0592 16.651 25.0095L16.7528 25.0027H35.2528H16.7528ZM16.752 18.5029H35.252C35.6662 18.5029 36.002 18.8387 36.002 19.2529C36.002 19.6326 35.7198 19.9464 35.3537 19.9961L35.252 20.0029H16.752C16.3377 20.0029 16.002 19.6671 16.002 19.2529C16.002 18.8732 16.2841 18.5594 16.6502 18.5098L16.752 18.5029H35.252H16.752Z" fill="white"/>
</svg>
