<svg width="29" height="28" viewBox="0 0 29 28" fill="none" xmlns="http://www.w3.org/2000/svg">
<circle cx="14.5" cy="14" r="13.25" stroke="white" stroke-opacity="0.25" stroke-width="1.5"/>
<path d="M18.1472 15.5088V8.00762C18.1472 7.44783 17.7367 7 17.162 7C16.7813 7 16.5126 7.1642 16.1021 7.55233L13.2061 10.2318C13.1763 10.2617 13.1389 10.2841 13.1016 10.2841H12.915L18.1472 15.5088ZM20.7595 21.0918C20.9909 21.3157 21.3716 21.3231 21.5955 21.0918C21.8269 20.8529 21.8269 20.4797 21.5955 20.2483L8.51882 7.17913C8.28744 6.94775 7.90678 6.94029 7.66794 7.17913C7.44402 7.40305 7.44402 7.79117 7.66794 8.01508L20.7595 21.0918ZM10.6609 16.8523H12.7657C12.8329 16.8523 12.8926 16.8747 12.9374 16.9195L16.1021 19.8602C16.4753 20.2185 16.7888 20.3752 17.1694 20.3752C17.6023 20.3752 17.9307 20.1513 18.08 19.7109L9.38462 11.023C9.13085 11.3066 8.9965 11.7246 8.9965 12.2769V15.1132C8.9965 16.2776 9.56376 16.8523 10.6609 16.8523Z" fill="#E6E6E6"/>
</svg>
