<svg width="29" height="28" viewBox="0 0 29 28" fill="none" xmlns="http://www.w3.org/2000/svg">
<circle cx="14.5" cy="14" r="13.25" stroke="white" stroke-opacity="0.25" stroke-width="1.5"/>
<path d="M13.7773 21C14.3267 21 14.7295 20.5898 14.7295 20.0479V8.86377C14.7295 8.31445 14.3267 7.875 13.7627 7.875C13.3892 7.875 13.1255 8.03613 12.7227 8.41699L9.66113 11.2808C9.61719 11.3247 9.55859 11.3467 9.49268 11.3467H7.41992C6.33594 11.3467 5.75 11.9473 5.75 13.0825V15.8071C5.75 16.9424 6.33594 17.543 7.41992 17.543H9.49268C9.55859 17.543 9.60986 17.5649 9.66113 17.6089L12.7227 20.4946C13.0889 20.8462 13.3965 21 13.7773 21ZM20.2886 19.6597C20.6255 19.8647 21.0356 19.7915 21.27 19.4473C22.2222 18.0996 22.7788 16.2905 22.7788 14.4302C22.7788 12.5698 22.2295 10.7534 21.27 9.41309C21.0356 9.06885 20.6255 8.98828 20.2886 9.20068C19.937 9.42041 19.8857 9.85986 20.1494 10.248C20.9258 11.3906 21.3726 12.8774 21.3726 14.4302C21.3726 15.9756 20.9185 17.4624 20.1494 18.6123C19.8931 19.0005 19.937 19.4326 20.2886 19.6597ZM17.3442 17.6968C17.6592 17.9019 18.0693 17.8286 18.2964 17.5063C18.8896 16.7153 19.2412 15.5947 19.2412 14.4302C19.2412 13.2656 18.8896 12.1523 18.2964 11.354C18.0693 11.0317 17.6592 10.9585 17.3442 11.1709C16.9854 11.4053 16.9121 11.8374 17.2051 12.2622C17.6079 12.8408 17.835 13.6172 17.835 14.4302C17.835 15.2432 17.6006 16.0122 17.2051 16.5981C16.9194 17.0229 16.9854 17.4551 17.3442 17.6968Z" fill="white"/>
</svg>
