<svg width="48" height="48" viewBox="0 0 48 48" fill="none" xmlns="http://www.w3.org/2000/svg">
<circle cx="24" cy="24" r="23.5" stroke="white" stroke-opacity="0.25"/>
<path d="M29.1699 26.7215V14.6249C29.1699 13.7222 28.5079 13 27.5811 13C26.9672 13 26.5339 13.2648 25.8719 13.8907L21.2018 18.2117C21.1537 18.2599 21.0935 18.296 21.0333 18.296H20.7324L29.1699 26.7215ZM33.3826 35.7247C33.7557 36.0857 34.3696 36.0978 34.7307 35.7247C35.1038 35.3395 35.1038 34.7377 34.7307 34.3645L13.643 13.2889C13.2698 12.9157 12.656 12.9037 12.2708 13.2889C11.9097 13.65 11.9097 14.2759 12.2708 14.6369L33.3826 35.7247ZM17.0974 28.888H20.4917C20.6 28.888 20.6963 28.9241 20.7685 28.9963L25.8719 33.7387C26.4737 34.3164 26.9793 34.5692 27.5931 34.5692C28.2912 34.5692 28.8208 34.2081 29.0615 33.4979L15.0392 19.4876C14.6299 19.945 14.4133 20.619 14.4133 21.5097V26.0835C14.4133 27.9612 15.3281 28.888 17.0974 28.888Z" fill="#F2F2F2"/>
</svg>
