<svg width="32" height="25" viewBox="0 0 32 25" fill="none" xmlns="http://www.w3.org/2000/svg">
<path d="M14.6786 24.5C15.683 24.5 16.4196 23.75 16.4196 22.7589V2.30804C16.4196 1.30357 15.683 0.5 14.6518 0.5C13.9687 0.5 13.4866 0.794643 12.75 1.49107L7.15179 6.72768C7.07143 6.80804 6.96429 6.84821 6.84375 6.84821H3.05357C1.07143 6.84821 0 7.94643 0 10.0223V15.0045C0 17.0804 1.07143 18.1786 3.05357 18.1786H6.84375C6.96429 18.1786 7.05804 18.2188 7.15179 18.2991L12.75 23.5759C13.4196 24.2188 13.9821 24.5 14.6786 24.5ZM26.5848 22.0491C27.2009 22.4241 27.9509 22.2902 28.3795 21.6607C30.1205 19.1964 31.1384 15.8884 31.1384 12.4866C31.1384 9.08482 30.1339 5.76339 28.3795 3.3125C27.9509 2.68304 27.2009 2.53571 26.5848 2.92411C25.942 3.32589 25.8482 4.12946 26.3304 4.83929C27.75 6.92857 28.567 9.64732 28.567 12.4866C28.567 15.3125 27.7366 18.0313 26.3304 20.1339C25.8616 20.8438 25.942 21.6339 26.5848 22.0491ZM21.2009 18.4598C21.7768 18.8348 22.5268 18.7009 22.942 18.1116C24.0268 16.6652 24.6696 14.6161 24.6696 12.4866C24.6696 10.3571 24.0268 8.32143 22.942 6.86161C22.5268 6.27232 21.7768 6.13839 21.2009 6.52679C20.5446 6.95536 20.4107 7.74554 20.9464 8.52232C21.683 9.58036 22.0982 11 22.0982 12.4866C22.0982 13.9732 21.6696 15.3795 20.9464 16.4509C20.4241 17.2277 20.5446 18.0179 21.2009 18.4598Z" fill="white"/>
</svg>
