<svg width="21" height="15" viewBox="0 0 21 15" fill="none" xmlns="http://www.w3.org/2000/svg">
<g clip-path="url(#clip0_11923_81702)">
<path d="M0.752812 12.9997H19.2528C19.667 12.9997 20.0028 13.3355 20.0028 13.7497C20.0028 14.1294 19.7207 14.4432 19.3546 14.4928L19.2528 14.4997H0.752812C0.338599 14.4997 0.00281239 14.1639 0.00281239 13.7497C0.00281239 13.37 0.284966 13.0562 0.651042 13.0065L0.752812 12.9997H19.2528H0.752812ZM0.752812 6.5027H19.2528C19.667 6.5027 20.0028 6.83848 20.0028 7.2527C20.0028 7.63239 19.7207 7.94619 19.3546 7.99585L19.2528 8.0027H0.752812C0.338599 8.0027 0.00281239 7.66691 0.00281239 7.2527C0.00281239 6.873 0.284966 6.55921 0.651042 6.50954L0.752812 6.5027H19.2528H0.752812ZM0.751953 0.00292969H19.252C19.6662 0.00292969 20.002 0.338716 20.002 0.75293C20.002 1.13263 19.7198 1.44642 19.3537 1.49608L19.252 1.50293H0.751953C0.33774 1.50293 0.00195312 1.16714 0.00195312 0.75293C0.00195312 0.373234 0.284107 0.0594385 0.650183 0.00977612L0.751953 0.00292969H19.252H0.751953Z" fill="white"/>
</g>
<defs>
<clipPath id="clip0_11923_81702">
<rect width="21" height="15" fill="white"/>
</clipPath>
</defs>
</svg>
