<svg width="1440" height="780" viewBox="0 0 1440 780" fill="none" xmlns="http://www.w3.org/2000/svg">
<mask id="mask0_3439_14737" style="mask-type:alpha" maskUnits="userSpaceOnUse" x="-25" y="-57" width="1490" height="1043">
<rect x="-25" y="-57" width="1490" height="1043" fill="url(#paint0_radial_3439_14737)"/>
</mask>
<g mask="url(#mask0_3439_14737)">
<rect x="-23.3365" y="-56.3365" width="148.673" height="148.673" stroke="white" stroke-opacity="0.2" stroke-width="1.32708"/>
<rect x="125.337" y="-56.3365" width="148.673" height="148.673" stroke="white" stroke-opacity="0.2" stroke-width="1.32708"/>
<rect x="273.346" y="-57" width="150" height="150" fill="white" fill-opacity="0.3"/>
<rect x="274.009" y="-56.3365" width="148.673" height="148.673" stroke="white" stroke-opacity="0.2" stroke-width="1.32708"/>
<rect x="422.683" y="-56.3365" width="148.673" height="148.673" stroke="white" stroke-opacity="0.2" stroke-width="1.32708"/>
<rect x="571.355" y="-56.3365" width="148.673" height="148.673" stroke="white" stroke-opacity="0.2" stroke-width="1.32708"/>
<rect x="720.029" y="-56.3365" width="148.673" height="148.673" stroke="white" stroke-opacity="0.2" stroke-width="1.32708"/>
<rect x="868.037" y="-57" width="150" height="150" fill="white" fill-opacity="0.3"/>
<rect x="868.701" y="-56.3365" width="148.673" height="148.673" stroke="white" stroke-opacity="0.2" stroke-width="1.32708"/>
<rect x="1017.37" y="-56.3365" width="148.673" height="148.673" stroke="white" stroke-opacity="0.2" stroke-width="1.32708"/>
<rect x="1166.05" y="-56.3365" width="148.673" height="148.673" stroke="white" stroke-opacity="0.2" stroke-width="1.32708"/>
<rect x="1314.72" y="-56.3365" width="148.673" height="148.673" stroke="white" stroke-opacity="0.2" stroke-width="1.32708"/>
<rect x="-23.3365" y="92.3364" width="148.673" height="148.673" stroke="white" stroke-opacity="0.2" stroke-width="1.32708"/>
<rect x="124.674" y="91.6729" width="150" height="150" fill="white" fill-opacity="0.3"/>
<rect x="125.337" y="92.3364" width="148.673" height="148.673" stroke="white" stroke-opacity="0.2" stroke-width="1.32708"/>
<rect x="274.009" y="92.3364" width="148.673" height="148.673" stroke="white" stroke-opacity="0.2" stroke-width="1.32708"/>
<rect x="422.683" y="92.3364" width="148.673" height="148.673" stroke="white" stroke-opacity="0.2" stroke-width="1.32708"/>
<rect x="571.355" y="92.3364" width="148.673" height="148.673" stroke="white" stroke-opacity="0.2" stroke-width="1.32708"/>
<rect x="720.029" y="92.3364" width="148.673" height="148.673" stroke="white" stroke-opacity="0.2" stroke-width="1.32708"/>
<rect x="868.701" y="92.3364" width="148.673" height="148.673" stroke="white" stroke-opacity="0.2" stroke-width="1.32708"/>
<rect x="1017.37" y="92.3364" width="148.673" height="148.673" stroke="white" stroke-opacity="0.2" stroke-width="1.32708"/>
<rect x="1165.38" y="91.6729" width="150" height="150" fill="white" fill-opacity="0.3"/>
<rect x="1166.05" y="92.3364" width="148.673" height="148.673" stroke="white" stroke-opacity="0.2" stroke-width="1.32708"/>
<rect x="1314.72" y="92.3364" width="148.673" height="148.673" stroke="white" stroke-opacity="0.2" stroke-width="1.32708"/>
<rect x="-23.3365" y="241.009" width="148.673" height="148.673" stroke="white" stroke-opacity="0.2" stroke-width="1.32708"/>
<rect x="125.337" y="241.009" width="148.673" height="148.673" stroke="white" stroke-opacity="0.2" stroke-width="1.32708"/>
<rect x="274.009" y="241.009" width="148.673" height="148.673" stroke="white" stroke-opacity="0.2" stroke-width="1.32708"/>
<rect x="422.683" y="241.009" width="148.673" height="148.673" stroke="white" stroke-opacity="0.2" stroke-width="1.32708"/>
<rect x="570.691" y="240.346" width="150" height="150" fill="white" fill-opacity="0.3"/>
<rect x="571.355" y="241.009" width="148.673" height="148.673" stroke="white" stroke-opacity="0.2" stroke-width="1.32708"/>
<rect x="720.029" y="241.009" width="148.673" height="148.673" stroke="white" stroke-opacity="0.2" stroke-width="1.32708"/>
<rect x="868.037" y="240.346" width="150" height="150" fill="white" fill-opacity="0.3"/>
<rect x="868.701" y="241.009" width="148.673" height="148.673" stroke="white" stroke-opacity="0.2" stroke-width="1.32708"/>
<rect x="1017.37" y="241.009" width="148.673" height="148.673" stroke="white" stroke-opacity="0.2" stroke-width="1.32708"/>
<rect x="1166.05" y="241.009" width="148.673" height="148.673" stroke="white" stroke-opacity="0.2" stroke-width="1.32708"/>
<rect x="1314.72" y="241.009" width="148.673" height="148.673" stroke="white" stroke-opacity="0.2" stroke-width="1.32708"/>
<rect x="-23.3365" y="389.682" width="148.673" height="148.673" stroke="white" stroke-opacity="0.2" stroke-width="1.32708"/>
<rect x="125.337" y="389.682" width="148.673" height="148.673" stroke="white" stroke-opacity="0.2" stroke-width="1.32708"/>
<rect x="274.009" y="389.682" width="148.673" height="148.673" stroke="white" stroke-opacity="0.2" stroke-width="1.32708"/>
<rect x="422.683" y="389.682" width="148.673" height="148.673" stroke="white" stroke-opacity="0.2" stroke-width="1.32708"/>
<rect x="571.355" y="389.682" width="148.673" height="148.673" stroke="white" stroke-opacity="0.2" stroke-width="1.32708"/>
<rect x="720.029" y="389.682" width="148.673" height="148.673" stroke="white" stroke-opacity="0.2" stroke-width="1.32708"/>
<rect x="868.701" y="389.682" width="148.673" height="148.673" stroke="white" stroke-opacity="0.2" stroke-width="1.32708"/>
<rect x="1017.37" y="389.682" width="148.673" height="148.673" stroke="white" stroke-opacity="0.2" stroke-width="1.32708"/>
<rect x="1166.05" y="389.682" width="148.673" height="148.673" stroke="white" stroke-opacity="0.2" stroke-width="1.32708"/>
<rect x="1314.06" y="389.019" width="150" height="150" fill="white" fill-opacity="0.3"/>
<rect x="1314.72" y="389.682" width="148.673" height="148.673" stroke="white" stroke-opacity="0.2" stroke-width="1.32708"/>
<rect x="-24" y="537.691" width="150" height="150" fill="white" fill-opacity="0.3"/>
<rect x="-23.3365" y="538.355" width="148.673" height="148.673" stroke="white" stroke-opacity="0.2" stroke-width="1.32708"/>
<rect x="125.337" y="538.355" width="148.673" height="148.673" stroke="white" stroke-opacity="0.2" stroke-width="1.32708"/>
<rect x="274.009" y="538.355" width="148.673" height="148.673" stroke="white" stroke-opacity="0.2" stroke-width="1.32708"/>
<rect x="422.02" y="537.691" width="150" height="150" fill="white" fill-opacity="0.3"/>
<rect x="422.683" y="538.355" width="148.673" height="148.673" stroke="white" stroke-opacity="0.2" stroke-width="1.32708"/>
<rect x="571.355" y="538.355" width="148.673" height="148.673" stroke="white" stroke-opacity="0.2" stroke-width="1.32708"/>
<rect x="720.029" y="538.355" width="148.673" height="148.673" stroke="white" stroke-opacity="0.2" stroke-width="1.32708"/>
<rect x="868.037" y="537.691" width="150" height="150" fill="white" fill-opacity="0.3"/>
<rect x="868.701" y="538.355" width="148.673" height="148.673" stroke="white" stroke-opacity="0.2" stroke-width="1.32708"/>
<rect x="1017.37" y="538.355" width="148.673" height="148.673" stroke="white" stroke-opacity="0.2" stroke-width="1.32708"/>
<rect x="1166.05" y="538.355" width="148.673" height="148.673" stroke="white" stroke-opacity="0.2" stroke-width="1.32708"/>
<rect x="1314.72" y="538.355" width="148.673" height="148.673" stroke="white" stroke-opacity="0.2" stroke-width="1.32708"/>
<rect x="-23.3365" y="687.028" width="148.673" height="148.673" stroke="white" stroke-opacity="0.2" stroke-width="1.32708"/>
<rect x="125.337" y="687.028" width="148.673" height="148.673" stroke="white" stroke-opacity="0.2" stroke-width="1.32708"/>
<rect x="274.009" y="687.028" width="148.673" height="148.673" stroke="white" stroke-opacity="0.2" stroke-width="1.32708"/>
<rect x="422.683" y="687.028" width="148.673" height="148.673" stroke="white" stroke-opacity="0.2" stroke-width="1.32708"/>
<rect x="571.355" y="687.028" width="148.673" height="148.673" stroke="white" stroke-opacity="0.2" stroke-width="1.32708"/>
<rect x="719.365" y="686.364" width="150" height="150" fill="white" fill-opacity="0.3"/>
<rect x="720.029" y="687.028" width="148.673" height="148.673" stroke="white" stroke-opacity="0.2" stroke-width="1.32708"/>
<rect x="868.701" y="687.028" width="148.673" height="148.673" stroke="white" stroke-opacity="0.2" stroke-width="1.32708"/>
<rect x="1017.37" y="687.028" width="148.673" height="148.673" stroke="white" stroke-opacity="0.2" stroke-width="1.32708"/>
<rect x="1166.05" y="687.028" width="148.673" height="148.673" stroke="white" stroke-opacity="0.2" stroke-width="1.32708"/>
<rect x="1314.72" y="687.028" width="148.673" height="148.673" stroke="white" stroke-opacity="0.2" stroke-width="1.32708"/>
</g>
<defs>
<radialGradient id="paint0_radial_3439_14737" cx="0" cy="0" r="1" gradientUnits="userSpaceOnUse" gradientTransform="translate(720 464.5) rotate(90) scale(663.321 947.602)">
<stop stop-color="white" stop-opacity="0.1"/>
<stop offset="0.615" stop-color="white" stop-opacity="0.05"/>
<stop offset="1" stop-color="white" stop-opacity="0"/>
</radialGradient>
</defs>
</svg>
