<svg width="48" height="48" viewBox="0 0 48 48" fill="none" xmlns="http://www.w3.org/2000/svg">
<circle cx="24" cy="24" r="23" stroke="white" stroke-opacity="0.25" stroke-width="2"/>
<path d="M24 2C36.1503 2 46 11.8497 46 24C46 27.9575 44.955 31.671 43.126 34.8795L44.8936 35.8177C46.8711 32.3291 48 28.2964 48 24C48 10.7452 37.2548 0 24 0V2Z" fill="#F2F2F2"/>
<path d="M17.7974 34.7673H20.7302C21.9159 34.7673 22.5274 34.1558 22.5274 32.9701V15.7972C22.5274 14.5866 21.9159 14.0125 20.7302 14H17.7974C16.6117 14 16.0002 14.6115 16.0002 15.7972V32.9701C15.9877 34.1558 16.5992 34.7673 17.7974 34.7673ZM27.2824 34.7673H30.2028C31.3885 34.7673 32 34.1558 32 32.9701V15.7972C32 14.5866 31.3885 14 30.2028 14H27.2824C26.0843 14 25.4853 14.6115 25.4853 15.7972V32.9701C25.4853 34.1558 26.0843 34.7673 27.2824 34.7673Z" fill="#F2F2F2"/>
</svg>
