<svg width="39" height="39" viewBox="0 0 39 39" fill="none" xmlns="http://www.w3.org/2000/svg">
<path fill-rule="evenodd" clip-rule="evenodd" d="M24.105 2.03955C24.1607 2.01989 24.2062 2.00379 24.2675 2.00124C24.4729 1.98967 24.6956 2.05909 24.846 2.20951L27.5767 4.96329H29.4974C29.5928 4.96329 29.6883 4.97486 29.7751 5.00957L37.1802 7.97162C37.3653 8.04683 37.5215 8.20303 37.5967 8.38816C37.6719 8.57329 37.6517 8.78445 37.5736 8.96669L35.3521 14.1503C35.2363 14.4222 34.976 14.59 34.681 14.59H30.9784V17.8297L22.2311 13.4098L23.5733 2.64919C23.608 2.3686 23.8162 2.14009 24.0824 2.04752C24.0901 2.04482 24.0977 2.04215 24.105 2.03955ZM30.9784 9.03611C30.9784 8.42287 30.4809 7.92534 29.8676 7.92534C29.2544 7.92534 28.7569 8.42287 28.7569 9.03611C28.7569 9.64935 29.2544 10.1469 29.8676 10.1469C30.4809 10.1469 30.9784 9.64935 30.9784 9.03611ZM1.75128 11.1188C2.02319 10.9481 2.39344 10.8411 2.76948 10.8411C3.36826 10.8411 3.94389 11.113 4.38936 11.5585L6.70346 13.8494H19.8013L25.3898 16.6611L30.9784 19.4727V21.2546C30.9784 21.35 30.9668 21.4455 30.9321 21.5323L29.4974 25.096V33.8433C29.4974 34.6243 29.1908 35.3532 28.618 35.9028C28.0511 36.4496 27.2874 36.7591 26.489 36.7591C26.1882 36.7591 25.8845 36.7041 25.5865 36.6202C24.3861 36.221 23.5733 35.0611 23.5733 33.7739V25.6977H9.50352V33.8433C9.50352 35.4487 8.15266 36.7591 6.49519 36.7591C6.19436 36.7591 5.89063 36.7041 5.59269 36.6202C4.39225 36.221 3.57942 35.0611 3.57942 33.7739V16.9735L1.21904 14.6825C0.712825 14.2284 0.440918 13.5515 0.524804 12.8544C0.611583 12.1225 1.06862 11.4862 1.75128 11.1188Z" fill="white"/>
<path opacity="0.35" d="M10.9844 27.1797V32.2013L12.8125 35.279C13.4026 36.2076 14.3861 36.7832 15.3812 36.7832C15.5865 36.7832 15.7717 36.7601 15.9597 36.7138C16.9229 36.4853 17.7097 35.846 18.0887 34.9551C18.4589 34.0873 18.3982 33.0951 17.9267 32.2939L14.9184 27.1797H10.9844Z" fill="white"/>
<path opacity="0.15" d="M29.8676 7.92578C30.4808 7.92578 30.9784 8.42331 30.9784 9.03655C30.9784 9.64979 30.4808 10.1473 29.8676 10.1473C29.2544 10.1473 28.7568 9.64979 28.7568 9.03655C28.7568 8.42331 29.2544 7.92578 29.8676 7.92578Z" fill="white"/>
</svg>
