<svg xmlns="http://www.w3.org/2000/svg" width="390" height="955" fill="none"><g clip-path="url(#a)"><mask id="c" width="896" height="1342" x="-306" y="-108" maskUnits="userSpaceOnUse" style="mask-type:alpha"><path fill="url(#b)" d="M-305.5 1234h1342v895h-1342z" transform="rotate(-90 -305.5 1234)"/></mask><g mask="url(#c)"><path stroke="#fff" stroke-opacity=".2" d="M-7 1084.5v-149h149v149z"/><path stroke="#fff" stroke-opacity=".2" d="M-7 935.501v-149h149v149zM-7 786.5v-149h149v149z"/><path fill="#fff" fill-opacity=".3" d="M-7.5 638V488h150v150z"/><path stroke="#fff" stroke-opacity=".2" d="M-7 637.5v-149h149v149zM-7 488.5v-149h149v149z"/><path fill="#fff" fill-opacity=".3" d="M-7.5 340V190h150v150z"/><path stroke="#fff" stroke-opacity=".2" d="M-7 339.5v-149h149v149zM-7 190.5v-149h149v149zM-7 41.5v-149h149v149z"/><path fill="#fff" fill-opacity=".3" d="M141.5 1085V935h150v150z"/><path stroke="#fff" stroke-opacity=".2" d="M142 1084.5v-149h149v149z"/><path stroke="#fff" stroke-opacity=".2" d="M142 935.501v-149h149v149z"/><path fill="#fff" fill-opacity=".3" d="M141.5 787V637h150v150z"/><path stroke="#fff" stroke-opacity=".2" d="M142 786.5v-149h149v149zM142 637.5v-149h149v149zM142 488.5v-149h149v149zM142 339.5v-149h149v149zM142 190.5v-149h149v149zM142 41.5v-149h149v149zM291 1084.5v-149h149v149z"/><path stroke="#fff" stroke-opacity=".2" d="M291 935.501v-149h149v149zM291 786.5v-149h149v149zM291 637.5v-149h149v149zM291 488.5v-149h149v149z"/><path fill="#fff" fill-opacity=".3" d="M290.5 340V190h150v150z"/><path stroke="#fff" stroke-opacity=".2" d="M291 339.5v-149h149v149zM291 190.5v-149h149v149zM291 41.5v-149h149v149z"/></g></g><defs><radialGradient id="b" cx="0" cy="0" r="1" gradientTransform="matrix(0 569.197 -853.477 0 365.5 1681.5)" gradientUnits="userSpaceOnUse"><stop stop-color="#fff" stop-opacity=".1"/><stop offset=".615" stop-color="#fff" stop-opacity=".05"/><stop offset="1" stop-color="#fff" stop-opacity="0"/></radialGradient><clipPath id="a"><path fill="#fff" d="M-305.5-108h895v1342h-895z"/></clipPath></defs></svg>