<svg width="86" height="64" viewBox="0 0 86 64" fill="none" xmlns="http://www.w3.org/2000/svg">
<path opacity="0.95" d="M57.4362 38.244C58.2042 37.502 59.4076 37.502 60.1496 38.244L63.9115 41.981L67.29 38.6025L60.0727 27.1358C59.4834 26.1891 58.1013 26.1891 57.5131 27.1358L50.5254 38.244L53.2128 42.4674L57.4351 38.244H57.4362Z" fill="white"/>
<path opacity="0.5" d="M69.3903 41.9297L65.2698 46.0762C64.5268 46.8192 63.2984 46.8192 62.5564 46.0762L58.7945 42.3142L55.2871 45.8205L63.1197 58.26C64.0415 59.7201 64.2451 61.5106 63.683 63.1235H79.9612C81.1647 63.1235 81.8807 61.8183 81.2405 60.7946L69.3903 41.9308V41.9297Z" fill="white"/>
<path d="M31.2235 33.1653C31.9427 32.445 33.2176 32.445 33.938 33.1653L38.795 38.0213L43.1354 33.6809L34.3734 19.7499V14.283H45.9235C46.5886 14.283 47.1952 13.9158 47.5082 13.3277C47.818 12.7416 47.778 12.0311 47.4064 11.4819L44.4493 7.14152L47.4064 2.80115C47.779 2.25197 47.8191 1.54139 47.5082 0.95538C47.1963 0.368287 46.5886 0 45.9235 0H32.5807C31.5918 0 30.7891 0.802649 30.7891 1.79269V19.7521L22.0293 33.6788L26.3697 38.0202L31.2246 33.1642L31.2235 33.1653Z" fill="white"/>
<path opacity="0.8" d="M45.2306 37.0148L40.1515 42.0939C39.4019 42.8445 38.1866 42.8445 37.437 42.0939L32.5799 37.2368L27.7261 42.0939C27.3654 42.4535 26.878 42.6571 26.3689 42.6571C25.8598 42.6571 25.3713 42.4535 25.0117 42.0939L19.9315 37.0137L5.28556 60.2981C4.51432 61.5243 5.39605 63.1198 6.84428 63.1198H58.3178C59.7671 63.1198 60.6488 61.5243 59.8765 60.2981L45.2306 37.0148Z" fill="white"/>
</svg>
