<svg width="25" height="29" viewBox="0 0 25 29" fill="none" xmlns="http://www.w3.org/2000/svg">
<path d="M12.3613 0.5C8.28051 0.5 4.9724 3.63401 4.9724 7.5C4.9724 11.366 8.28051 14.5 12.3613 14.5C16.4421 14.5 19.7502 11.366 19.7502 7.5C19.7502 3.63401 16.4421 0.5 12.3613 0.5ZM3.67925 17.3C1.94536 17.3 0.539078 18.6309 0.539065 20.2742L0.539062 20.8C0.539062 23.4289 1.97374 25.3968 4.17452 26.6661C6.33866 27.9143 9.24766 28.5 12.3613 28.5C15.4749 28.5 18.3839 27.9143 20.5481 26.6661C22.7488 25.3968 24.1835 23.4289 24.1835 20.8L24.1835 20.2741C24.1835 18.6308 22.7772 17.3 21.0434 17.3H3.67925Z" fill="#F2F2F2"/>
</svg>
