<svg width="26" height="108" viewBox="0 0 26 108" fill="none" xmlns="http://www.w3.org/2000/svg">
<path d="M12.9531 4V1" stroke="#DEDEDE" stroke-width="2" stroke-linecap="round"/>
<path d="M12.9531 13V10" stroke="#DEDEDE" stroke-width="2" stroke-linecap="round"/>
<path d="M12.9531 22V19" stroke="#DEDEDE" stroke-width="2" stroke-linecap="round"/>
<path d="M12.9531 31V28" stroke="#DEDEDE" stroke-width="2" stroke-linecap="round"/>
<path d="M12.9531 40V37" stroke="#DEDEDE" stroke-width="2" stroke-linecap="round"/>
<path d="M12.9531 49V46" stroke="#DEDEDE" stroke-width="2" stroke-linecap="round"/>
<path d="M12.9531 58V55" stroke="#DEDEDE" stroke-width="2" stroke-linecap="round"/>
<path d="M12.9531 67V64" stroke="#DEDEDE" stroke-width="2" stroke-linecap="round"/>
<path d="M12.9531 76V73" stroke="white" stroke-width="4" stroke-linecap="round"/>
<path d="M15.9246 91.4375L23.3317 90.5547L23.4245 90.5523C24.5449 90.5523 25.4531 91.4606 25.4531 92.581C25.4531 93.5931 24.924 94.5298 24.0228 95.0753L23.8202 95.1842L16.1431 98.8971L16.2891 103.886C16.3422 105.694 14.9199 107.202 13.0985 107.256L13.0162 107.257C11.2077 107.257 9.74166 105.791 9.74207 103.955L9.88839 98.9565L2.08614 95.1842C1.08756 94.7015 0.453126 93.6901 0.453126 92.581C0.453126 91.4606 1.36138 90.5523 2.50999 90.5527L2.6587 90.5609L10.108 91.4522L10.1865 88.764L9.25892 88.425C8.29147 88.0713 7.64799 87.1509 7.64799 86.1208C7.64799 85.0164 8.54329 84.1211 9.64813 84.1211L10.6058 84.1216L10.6465 83.9261C10.8807 82.804 11.8699 82 13.0162 82C14.1627 82 15.1518 82.8046 15.3851 83.9268L15.4256 84.1216L16.3848 84.1211C17.396 84.1211 18.2443 84.8753 18.3744 85.93L18.3844 86.1208C18.3844 87.0601 17.8484 87.9148 16.9634 88.3455L16.7741 88.4247L15.8463 88.7647L15.9246 91.4375ZM23.5619 92.581C23.5619 92.5051 23.5004 92.4435 23.4527 92.4431L14.0948 93.5607L13.9159 87.4578L16.0786 86.6667L16.1783 86.6257C16.3703 86.5319 16.4932 86.3359 16.495 86.1795L16.4923 86.106C16.4857 86.0536 16.4394 86.0124 16.3852 86.0124L13.8877 86.0136L13.5335 84.312C13.4825 84.0669 13.2666 83.8912 13.0162 83.8912C12.7655 83.8912 12.5491 84.0671 12.4979 84.3121L12.1437 86.0136L9.64768 86.0124C9.58779 86.0124 9.53923 86.0609 9.53923 86.1208C9.53923 86.3568 9.68665 86.5677 9.90824 86.6487L12.1167 87.4559L11.938 93.5758L2.51816 92.445L2.48178 92.4435C2.40589 92.4435 2.34436 92.5051 2.34436 92.581C2.34436 92.9647 2.56384 93.3145 2.90932 93.4816L11.8147 97.7871L11.6329 103.982C11.6329 104.746 12.2522 105.366 13.0023 105.366L13.0568 105.365C13.8203 105.343 14.4211 104.705 14.3987 103.942L14.2168 97.7279L22.957 93.502L23.0808 93.436C23.3788 93.2552 23.5619 92.9311 23.5619 92.581Z" fill="#DEDEDE"/>
</svg>
