<svg width="27" height="109" viewBox="0 0 27 109" fill="none" xmlns="http://www.w3.org/2000/svg">
<path d="M13.2812 4V1" stroke="#DEDEDE" stroke-width="2" stroke-linecap="round"/>
<path d="M13.2812 13V10" stroke="#DEDEDE" stroke-width="2" stroke-linecap="round"/>
<path d="M13.2812 22V19" stroke="#DEDEDE" stroke-width="2" stroke-linecap="round"/>
<path d="M13.2812 31V28" stroke="#DEDEDE" stroke-width="2" stroke-linecap="round"/>
<path d="M13.2812 40V37" stroke="#DEDEDE" stroke-width="2" stroke-linecap="round"/>
<path d="M13.2812 49V46" stroke="#DEDEDE" stroke-width="2" stroke-linecap="round"/>
<path d="M13.2812 58V55" stroke="#DEDEDE" stroke-width="2" stroke-linecap="round"/>
<path d="M13.2812 67V64" stroke="#DEDEDE" stroke-width="2" stroke-linecap="round"/>
<path d="M13.2812 76V73" stroke="#DEDEDE" stroke-width="2" stroke-linecap="round"/>
<path d="M16.3716 91.815L24.0749 90.8968L24.1714 90.8944C25.3367 90.8944 26.2812 91.839 26.2812 93.0042C26.2812 94.0568 25.731 95.031 24.7937 95.5983L24.5831 95.7115L16.5988 99.573L16.7507 104.762C16.8059 106.642 15.3267 108.21 13.4324 108.266L13.3469 108.267C11.466 108.267 9.94133 106.742 9.94175 104.833L10.0939 99.6347L1.97958 95.7116C0.941066 95.2096 0.281248 94.1577 0.281248 93.0042C0.281248 91.839 1.22584 90.8944 2.42038 90.8948L2.57504 90.9034L10.3223 91.8303L10.4039 89.0345L9.43928 88.6819C8.43313 88.3141 7.76391 87.3569 7.76391 86.2857C7.76391 85.1371 8.69502 84.206 9.84406 84.206L10.84 84.2065L10.8824 84.0032C11.126 82.8362 12.1547 82 13.3469 82C14.5392 82 15.5678 82.8368 15.8105 84.0039L15.8527 84.2065L16.8501 84.206C17.9018 84.206 18.784 84.9903 18.9194 86.0872L18.9298 86.2857C18.9298 87.2625 18.3723 88.1514 17.452 88.5993L17.2551 88.6817L16.2901 89.0353L16.3716 91.815ZM24.3144 93.0042C24.3144 92.9253 24.2504 92.8613 24.2008 92.8608L14.4686 94.0231L14.2826 87.6761L16.5317 86.8534L16.6354 86.8107C16.8351 86.7132 16.9629 86.5094 16.9648 86.3466L16.962 86.2703C16.9552 86.2157 16.907 86.1729 16.8506 86.1729L14.2533 86.1741L13.8848 84.4045C13.8318 84.1496 13.6072 83.9669 13.3469 83.9669C13.0861 83.9669 12.861 84.1498 12.8079 84.4046L12.4395 86.1741L9.84359 86.1729C9.7813 86.1729 9.7308 86.2234 9.7308 86.2857C9.7308 86.5311 9.88411 86.7504 10.1146 86.8346L12.4114 87.6741L12.2255 94.0389L2.42888 92.8628L2.39105 92.8613C2.31212 92.8613 2.24813 92.9253 2.24813 93.0042C2.24813 93.4032 2.47639 93.7671 2.83569 93.9408L12.0973 98.4186L11.9082 104.862C11.9082 105.656 12.5523 106.3 13.3324 106.3L13.3891 106.3C14.1831 106.276 14.8079 105.614 14.7846 104.82L14.5955 98.3571L23.6853 93.9621L23.8141 93.8934C24.1239 93.7054 24.3144 93.3683 24.3144 93.0042Z" fill="white"/>
</svg>
