<svg width="23" height="78" viewBox="0 0 23 78" fill="none" xmlns="http://www.w3.org/2000/svg">
<path d="M11.1387 4V1" stroke="#DEDEDE" stroke-linecap="round"/>
<path d="M11.1387 10V7" stroke="#DEDEDE" stroke-linecap="round"/>
<path d="M11.1387 16V13" stroke="#DEDEDE" stroke-linecap="round"/>
<path d="M11.1387 22V19" stroke="#DEDEDE" stroke-linecap="round"/>
<path d="M11.1387 28V25" stroke="#DEDEDE" stroke-linecap="round"/>
<path d="M11.1387 34V31" stroke="#DEDEDE" stroke-linecap="round"/>
<path d="M11.1387 40V37" stroke="#DEDEDE" stroke-linecap="round"/>
<path d="M11.1387 46V43" stroke="#DEDEDE" stroke-linecap="round"/>
<path d="M11.1387 52V49" stroke="#DEDEDE" stroke-linecap="round"/>
<path d="M13.7344 63.2408L20.2022 62.4699L20.2833 62.4679C21.2616 62.4679 22.0547 63.261 22.0547 64.2393C22.0547 65.1231 21.5927 65.941 20.8058 66.4173L20.6289 66.5124L13.9251 69.7546L14.0527 74.1112C14.099 75.6896 12.8571 77.0067 11.2666 77.0533L11.1948 77.0543C9.61561 77.0543 8.33544 75.7741 8.33579 74.1707L8.46356 69.8064L1.65063 66.5125C0.77868 66.0909 0.224687 65.2078 0.224687 64.2393C0.224687 63.261 1.01778 62.4679 2.02074 62.4682L2.15059 62.4754L8.65531 63.2536L8.72386 60.9063L7.91391 60.6103C7.06913 60.3014 6.50725 59.4978 6.50725 58.5983C6.50725 57.634 7.28902 56.8522 8.25377 56.8522L9.09001 56.8526L9.12555 56.6819C9.33009 55.702 10.1938 55 11.1948 55C12.1959 55 13.0595 55.7026 13.2633 56.6825L13.2987 56.8526L14.1362 56.8522C15.0192 56.8522 15.7599 57.5107 15.8736 58.4317L15.8823 58.5983C15.8823 59.4185 15.4142 60.1648 14.6415 60.5409L14.4762 60.6101L13.666 60.9069L13.7344 63.2408ZM20.4033 64.2393C20.4033 64.173 20.3495 64.1193 20.3079 64.1189L12.1366 65.0948L11.9804 59.7657L13.8688 59.075L13.9559 59.0391C14.1236 58.9573 14.2309 58.7861 14.2325 58.6495L14.2301 58.5854C14.2244 58.5396 14.1839 58.5036 14.1366 58.5036L11.9558 58.5046L11.6465 57.0189C11.602 56.8048 11.4134 56.6514 11.1948 56.6514C10.9758 56.6514 10.7869 56.805 10.7422 57.0189L10.4329 58.5046L8.25338 58.5036C8.20107 58.5036 8.15868 58.546 8.15868 58.5983C8.15868 58.8044 8.2874 58.9885 8.48089 59.0592L10.4093 59.7641L10.2533 65.108L2.02787 64.1206L1.99611 64.1193C1.92984 64.1193 1.87612 64.173 1.87612 64.2393C1.87612 64.5743 2.06776 64.8799 2.36944 65.0257L10.1456 68.7853L9.98686 74.1949C9.98686 74.862 10.5277 75.4029 11.1827 75.4029L11.2302 75.4023C11.8969 75.3827 12.4215 74.8264 12.4019 74.1596L12.2431 68.7336L19.8751 65.0436L19.9832 64.9859C20.2434 64.828 20.4033 64.545 20.4033 64.2393Z" fill="white"/>
</svg>
