<svg width="21" height="76" viewBox="0 0 21 76" fill="none" xmlns="http://www.w3.org/2000/svg">
<path d="M10.3105 4V1" stroke="#DEDEDE" stroke-linecap="round"/>
<path d="M10.3105 10V7" stroke="#DEDEDE" stroke-linecap="round"/>
<path d="M10.3105 16V13" stroke="#DEDEDE" stroke-linecap="round"/>
<path d="M10.3105 22V19" stroke="#DEDEDE" stroke-linecap="round"/>
<path d="M10.3105 28V25" stroke="#DEDEDE" stroke-linecap="round"/>
<path d="M10.3105 34V31" stroke="#DEDEDE" stroke-linecap="round"/>
<path d="M10.3105 40V37" stroke="#DEDEDE" stroke-linecap="round"/>
<path d="M10.3105 46V43" stroke="#DEDEDE" stroke-linecap="round"/>
<path d="M10.3105 52V49" stroke="white" stroke-width="2" stroke-linecap="round"/>
<path d="M12.6673 62.4852L18.542 61.785L18.6156 61.7831C19.5042 61.7831 20.2246 62.5035 20.2246 63.3921C20.2246 64.1949 19.8049 64.9378 19.0902 65.3704L18.9295 65.4568L12.8405 68.4017L12.9563 72.3588C12.9984 73.7925 11.8704 74.9888 10.4257 75.0311L10.3605 75.032C8.92612 75.032 7.76334 73.8692 7.76366 72.4129L7.87971 68.4487L1.69149 65.4569C0.899492 65.074 0.396297 64.2718 0.396297 63.3921C0.396297 62.5035 1.11667 61.7831 2.02766 61.7834L2.14561 61.7899L8.05388 62.4968L8.11614 60.3647L7.38046 60.0958C6.61315 59.8153 6.10278 59.0853 6.10278 58.2684C6.10278 57.3924 6.81287 56.6823 7.68916 56.6823L8.44872 56.6827L8.481 56.5277C8.66678 55.6377 9.45132 55 10.3605 55C11.2698 55 12.0543 55.6381 12.2393 56.5282L12.2715 56.6827L13.0322 56.6824C13.8342 56.6824 14.507 57.2805 14.6102 58.117L14.6182 58.2684C14.6182 59.0133 14.193 59.6912 13.4912 60.0328L13.341 60.0957L12.6051 60.3653L12.6673 62.4852ZM18.7246 63.3921C18.7246 63.3319 18.6758 63.2831 18.638 63.2828L11.216 64.1692L11.0741 59.3287L12.7894 58.7013L12.8684 58.6688C13.0207 58.5944 13.1182 58.439 13.1196 58.3149L13.1175 58.2566C13.1123 58.215 13.0755 58.1823 13.0325 58.1823L11.0517 58.1833L10.7708 56.8337C10.7304 56.6393 10.5591 56.5 10.3605 56.5C10.1616 56.5 9.98999 56.6395 9.94943 56.8338L9.6685 58.1833L7.6888 58.1823C7.64129 58.1823 7.60278 58.2209 7.60278 58.2684C7.60278 58.4555 7.7197 58.6228 7.89545 58.687L9.64708 59.3273L9.50534 64.1812L2.03414 63.2843L2.00529 63.2831C1.94509 63.2831 1.8963 63.3319 1.8963 63.3921C1.8963 63.6964 2.07037 63.9739 2.34438 64.1064L9.40751 67.5213L9.26334 72.4348C9.26334 73.0408 9.75455 73.5321 10.3495 73.5321L10.3927 73.5315C10.9983 73.5137 11.4747 73.0084 11.457 72.4028L11.3127 67.4743L18.2449 64.1226L18.3431 64.0702C18.5794 63.9269 18.7246 63.6698 18.7246 63.3921Z" fill="#DEDEDE"/>
</svg>
