<svg width="26" height="109" viewBox="0 0 26 109" fill="none" xmlns="http://www.w3.org/2000/svg">
<path d="M13.3281 5V2" stroke="white" stroke-width="4" stroke-linecap="round"/>
<path d="M13.3281 14V11" stroke="#DEDEDE" stroke-width="2" stroke-linecap="round"/>
<path d="M13.3281 23V20" stroke="#DEDEDE" stroke-width="2" stroke-linecap="round"/>
<path d="M13.3281 32V29" stroke="#DEDEDE" stroke-width="2" stroke-linecap="round"/>
<path d="M13.3281 41V38" stroke="#DEDEDE" stroke-width="2" stroke-linecap="round"/>
<path d="M13.3281 50V47" stroke="#DEDEDE" stroke-width="2" stroke-linecap="round"/>
<path d="M13.3281 59V56" stroke="#DEDEDE" stroke-width="2" stroke-linecap="round"/>
<path d="M13.3281 68V65" stroke="#DEDEDE" stroke-width="2" stroke-linecap="round"/>
<path d="M13.3281 77V74" stroke="#DEDEDE" stroke-width="2" stroke-linecap="round"/>
<path d="M16.2996 92.4375L23.7067 91.5547L23.7995 91.5523C24.9199 91.5523 25.8281 92.4606 25.8281 93.581C25.8281 94.5931 25.299 95.5298 24.3978 96.0753L24.1952 96.1842L16.5181 99.8971L16.6641 104.886C16.7172 106.694 15.2949 108.202 13.4735 108.256L13.3912 108.257C11.5827 108.257 10.1167 106.791 10.1171 104.955L10.2634 99.9565L2.46114 96.1842C1.46256 95.7015 0.828126 94.6901 0.828126 93.581C0.828126 92.4606 1.73638 91.5523 2.88499 91.5527L3.0337 91.5609L10.483 92.4522L10.5615 89.764L9.63392 89.425C8.66647 89.0713 8.02299 88.1509 8.02299 87.1208C8.02299 86.0164 8.91829 85.1211 10.0231 85.1211L10.9808 85.1216L11.0215 84.9261C11.2557 83.804 12.2449 83 13.3912 83C14.5377 83 15.5268 83.8046 15.7601 84.9268L15.8006 85.1216L16.7598 85.1211C17.771 85.1211 18.6193 85.8753 18.7494 86.93L18.7594 87.1208C18.7594 88.0601 18.2234 88.9148 17.3384 89.3455L17.1491 89.4247L16.2213 89.7647L16.2996 92.4375ZM23.9369 93.581C23.9369 93.5051 23.8754 93.4435 23.8277 93.4431L14.4698 94.5607L14.2909 88.4578L16.4536 87.6667L16.5533 87.6257C16.7453 87.5319 16.8682 87.3359 16.87 87.1795L16.8673 87.106C16.8607 87.0536 16.8144 87.0124 16.7602 87.0124L14.2627 87.0136L13.9085 85.312C13.8575 85.0669 13.6416 84.8912 13.3912 84.8912C13.1405 84.8912 12.9241 85.0671 12.8729 85.3121L12.5187 87.0136L10.0227 87.0124C9.96279 87.0124 9.91423 87.0609 9.91423 87.1208C9.91423 87.3568 10.0616 87.5677 10.2832 87.6487L12.4917 88.4559L12.313 94.5758L2.89316 93.445L2.85678 93.4435C2.78089 93.4435 2.71936 93.5051 2.71936 93.581C2.71936 93.9647 2.93884 94.3145 3.28432 94.4816L12.1897 98.7871L12.0079 104.982C12.0079 105.746 12.6272 106.366 13.3773 106.366L13.4318 106.365C14.1953 106.343 14.7961 105.705 14.7737 104.942L14.5918 98.7279L23.332 94.502L23.4558 94.436C23.7538 94.2552 23.9369 93.9311 23.9369 93.581Z" fill="#DEDEDE"/>
</svg>
