<svg width="21" height="76" viewBox="0 0 21 76" fill="none" xmlns="http://www.w3.org/2000/svg">
<path d="M10.6855 4V1" stroke="white" stroke-width="2" stroke-linecap="round"/>
<path d="M10.6855 10V7" stroke="#DEDEDE" stroke-linecap="round"/>
<path d="M10.6855 16V13" stroke="#DEDEDE" stroke-linecap="round"/>
<path d="M10.6855 22V19" stroke="#DEDEDE" stroke-linecap="round"/>
<path d="M10.6855 28V25" stroke="#DEDEDE" stroke-linecap="round"/>
<path d="M10.6855 34V31" stroke="#DEDEDE" stroke-linecap="round"/>
<path d="M10.6855 40V37" stroke="#DEDEDE" stroke-linecap="round"/>
<path d="M10.6855 46V43" stroke="#DEDEDE" stroke-linecap="round"/>
<path d="M10.6855 52V49" stroke="#DEDEDE" stroke-linecap="round"/>
<path d="M13.0423 62.4852L18.917 61.785L18.9906 61.7831C19.8792 61.7831 20.5996 62.5035 20.5996 63.3921C20.5996 64.1949 20.1799 64.9378 19.4652 65.3704L19.3045 65.4568L13.2155 68.4017L13.3313 72.3588C13.3734 73.7925 12.2454 74.9888 10.8007 75.0311L10.7355 75.032C9.30112 75.032 8.13834 73.8692 8.13866 72.4129L8.25471 68.4487L2.06649 65.4569C1.27449 65.074 0.771297 64.2718 0.771297 63.3921C0.771297 62.5035 1.49167 61.7831 2.40266 61.7834L2.52061 61.7899L8.42888 62.4968L8.49114 60.3647L7.75546 60.0958C6.98815 59.8153 6.47778 59.0853 6.47778 58.2684C6.47778 57.3924 7.18787 56.6823 8.06416 56.6823L8.82372 56.6827L8.856 56.5277C9.04178 55.6377 9.82632 55 10.7355 55C11.6448 55 12.4293 55.6381 12.6143 56.5282L12.6465 56.6827L13.4072 56.6824C14.2092 56.6824 14.882 57.2805 14.9852 58.117L14.9932 58.2684C14.9932 59.0133 14.568 59.6912 13.8662 60.0328L13.716 60.0957L12.9801 60.3653L13.0423 62.4852ZM19.0996 63.3921C19.0996 63.3319 19.0508 63.2831 19.013 63.2828L11.591 64.1692L11.4491 59.3287L13.1644 58.7013L13.2434 58.6688C13.3957 58.5944 13.4932 58.439 13.4946 58.3149L13.4925 58.2566C13.4873 58.215 13.4505 58.1823 13.4075 58.1823L11.4267 58.1833L11.1458 56.8337C11.1054 56.6393 10.9341 56.5 10.7355 56.5C10.5366 56.5 10.365 56.6395 10.3244 56.8338L10.0435 58.1833L8.0638 58.1823C8.01629 58.1823 7.97778 58.2209 7.97778 58.2684C7.97778 58.4555 8.0947 58.6228 8.27045 58.687L10.0221 59.3273L9.88034 64.1812L2.40914 63.2843L2.38029 63.2831C2.32009 63.2831 2.2713 63.3319 2.2713 63.3921C2.2713 63.6964 2.44537 63.9739 2.71938 64.1064L9.78251 67.5213L9.63834 72.4348C9.63834 73.0408 10.1296 73.5321 10.7245 73.5321L10.7677 73.5315C11.3733 73.5137 11.8497 73.0084 11.832 72.4028L11.6877 67.4743L18.6199 64.1226L18.7181 64.0702C18.9544 63.9269 19.0996 63.6698 19.0996 63.3921Z" fill="#DEDEDE"/>
</svg>
