<svg width="26" height="108" viewBox="0 0 26 108" fill="none" xmlns="http://www.w3.org/2000/svg">
<path d="M13.1562 4V1" stroke="#DEDEDE" stroke-width="2" stroke-linecap="round"/>
<path d="M13.1562 13V10" stroke="white" stroke-width="4" stroke-linecap="round"/>
<path d="M13.1562 22V19" stroke="#DEDEDE" stroke-width="2" stroke-linecap="round"/>
<path d="M13.1562 31V28" stroke="#DEDEDE" stroke-width="2" stroke-linecap="round"/>
<path d="M13.1562 40V37" stroke="#DEDEDE" stroke-width="2" stroke-linecap="round"/>
<path d="M13.1562 49V46" stroke="#DEDEDE" stroke-width="2" stroke-linecap="round"/>
<path d="M13.1562 58V55" stroke="#DEDEDE" stroke-width="2" stroke-linecap="round"/>
<path d="M13.1562 67V64" stroke="#DEDEDE" stroke-width="2" stroke-linecap="round"/>
<path d="M13.1562 76V73" stroke="#DEDEDE" stroke-width="2" stroke-linecap="round"/>
<path d="M16.1278 91.4375L23.5348 90.5547L23.6276 90.5523C24.748 90.5523 25.6562 91.4606 25.6562 92.581C25.6562 93.5931 25.1271 94.5298 24.226 95.0753L24.0234 95.1842L16.3462 98.8971L16.4922 103.886C16.5453 105.694 15.123 107.202 13.3016 107.256L13.2193 107.257C11.4109 107.257 9.94479 105.791 9.94519 103.955L10.0915 98.9565L2.28926 95.1842C1.29069 94.7015 0.656251 93.6901 0.656251 92.581C0.656251 91.4606 1.56451 90.5523 2.71311 90.5527L2.86182 90.5609L10.3111 91.4522L10.3896 88.764L9.46205 88.425C8.4946 88.0713 7.85112 87.1509 7.85112 86.1208C7.85112 85.0164 8.74641 84.1211 9.85126 84.1211L10.8089 84.1216L10.8496 83.9261C11.0839 82.804 12.073 82 13.2193 82C14.3658 82 15.3549 82.8046 15.5882 83.9268L15.6288 84.1216L16.5879 84.1211C17.5991 84.1211 18.4474 84.8753 18.5775 85.93L18.5876 86.1208C18.5876 87.0601 18.0515 87.9148 17.1666 88.3455L16.9773 88.4247L16.0494 88.7647L16.1278 91.4375ZM23.765 92.581C23.765 92.5051 23.7035 92.4435 23.6558 92.4431L14.2979 93.5607L14.1191 87.4578L16.2817 86.6667L16.3814 86.6257C16.5734 86.5319 16.6963 86.3359 16.6981 86.1795L16.6954 86.106C16.6889 86.0536 16.6425 86.0124 16.5883 86.0124L14.0909 86.0136L13.7366 84.312C13.6857 84.0669 13.4697 83.8912 13.2193 83.8912C12.9686 83.8912 12.7522 84.0671 12.7011 84.3121L12.3469 86.0136L9.85081 86.0124C9.79091 86.0124 9.74236 86.0609 9.74236 86.1208C9.74236 86.3568 9.88977 86.5677 10.1114 86.6487L12.3198 87.4559L12.1411 93.5758L2.72128 92.445L2.68491 92.4435C2.60901 92.4435 2.54748 92.5051 2.54748 92.581C2.54748 92.9647 2.76697 93.3145 3.11244 93.4816L12.0178 97.7871L11.836 103.982C11.836 104.746 12.4554 105.366 13.2055 105.366L13.2599 105.365C14.0235 105.343 14.6242 104.705 14.6018 103.942L14.4199 97.7279L23.1602 93.502L23.284 93.436C23.5819 93.2552 23.765 92.9311 23.765 92.581Z" fill="#DEDEDE"/>
</svg>
