<svg width="21" height="76" viewBox="0 0 21 76" fill="none" xmlns="http://www.w3.org/2000/svg">
<path d="M10.5137 4V1" stroke="#DEDEDE" stroke-linecap="round"/>
<path d="M10.5137 10V7" stroke="white" stroke-width="2" stroke-linecap="round"/>
<path d="M10.5137 16V13" stroke="#DEDEDE" stroke-linecap="round"/>
<path d="M10.5137 22V19" stroke="#DEDEDE" stroke-linecap="round"/>
<path d="M10.5137 28V25" stroke="#DEDEDE" stroke-linecap="round"/>
<path d="M10.5137 34V31" stroke="#DEDEDE" stroke-linecap="round"/>
<path d="M10.5137 40V37" stroke="#DEDEDE" stroke-linecap="round"/>
<path d="M10.5137 46V43" stroke="#DEDEDE" stroke-linecap="round"/>
<path d="M10.5137 52V49" stroke="#DEDEDE" stroke-linecap="round"/>
<path d="M12.8704 62.4852L18.7451 61.785L18.8187 61.7831C19.7074 61.7831 20.4277 62.5035 20.4277 63.3921C20.4277 64.1949 20.0081 64.9378 19.2933 65.3704L19.1326 65.4568L13.0436 68.4017L13.1594 72.3588C13.2015 73.7925 12.0735 74.9888 10.6289 75.0311L10.5636 75.032C9.12925 75.032 7.96646 73.8692 7.96678 72.4129L8.08284 68.4487L1.89462 65.4569C1.10262 65.074 0.599422 64.2718 0.599422 63.3921C0.599422 62.5035 1.31979 61.7831 2.23079 61.7834L2.34873 61.7899L8.25701 62.4968L8.31927 60.3647L7.58359 60.0958C6.81627 59.8153 6.30591 59.0853 6.30591 58.2684C6.30591 57.3924 7.01599 56.6823 7.89228 56.6823L8.65185 56.6827L8.68412 56.5277C8.86991 55.6377 9.65444 55 10.5636 55C11.4729 55 12.2574 55.6381 12.4425 56.5282L12.4746 56.6827L13.2353 56.6824C14.0373 56.6824 14.7102 57.2805 14.8134 58.117L14.8213 58.2684C14.8213 59.0133 14.3962 59.6912 13.6943 60.0328L13.5442 60.0957L12.8082 60.3653L12.8704 62.4852ZM18.9277 63.3921C18.9277 63.3319 18.8789 63.2831 18.8411 63.2828L11.4191 64.1692L11.2772 59.3287L12.9925 58.7013L13.0716 58.6688C13.2239 58.5944 13.3213 58.439 13.3228 58.3149L13.3206 58.2566C13.3154 58.215 13.2786 58.1823 13.2357 58.1823L11.2549 58.1833L10.9739 56.8337C10.9335 56.6393 10.7622 56.5 10.5636 56.5C10.3647 56.5 10.1931 56.6395 10.1526 56.8338L9.87162 58.1833L7.89192 58.1823C7.84442 58.1823 7.80591 58.2209 7.80591 58.2684C7.80591 58.4555 7.92283 58.6228 8.09858 58.687L9.8502 59.3273L9.70846 64.1812L2.23726 63.2843L2.20841 63.2831C2.14822 63.2831 2.09942 63.3319 2.09942 63.3921C2.09942 63.6964 2.2735 63.9739 2.54751 64.1064L9.61063 67.5213L9.46646 72.4348C9.46646 73.0408 9.95768 73.5321 10.5526 73.5321L10.5958 73.5315C11.2014 73.5137 11.6779 73.0084 11.6601 72.4028L11.5158 67.4743L18.448 64.1226L18.5462 64.0702C18.7825 63.9269 18.9277 63.6698 18.9277 63.3921Z" fill="#DEDEDE"/>
</svg>
