<svg width="26" height="108" viewBox="0 0 26 108" fill="none" xmlns="http://www.w3.org/2000/svg">
<path d="M12.9844 4V1" stroke="#DEDEDE" stroke-width="2" stroke-linecap="round"/>
<path d="M12.9844 13V10" stroke="#DEDEDE" stroke-width="2" stroke-linecap="round"/>
<path d="M12.9844 22V19" stroke="white" stroke-width="4" stroke-linecap="round"/>
<path d="M12.9844 31V28" stroke="#DEDEDE" stroke-width="2" stroke-linecap="round"/>
<path d="M12.9844 40V37" stroke="#DEDEDE" stroke-width="2" stroke-linecap="round"/>
<path d="M12.9844 49V46" stroke="#DEDEDE" stroke-width="2" stroke-linecap="round"/>
<path d="M12.9844 58V55" stroke="#DEDEDE" stroke-width="2" stroke-linecap="round"/>
<path d="M12.9844 67V64" stroke="#DEDEDE" stroke-width="2" stroke-linecap="round"/>
<path d="M12.9844 76V73" stroke="#DEDEDE" stroke-width="2" stroke-linecap="round"/>
<path d="M15.9559 91.4375L23.3629 90.5547L23.4557 90.5523C24.5761 90.5523 25.4844 91.4606 25.4844 92.581C25.4844 93.5931 24.9553 94.5298 24.0541 95.0753L23.8515 95.1842L16.1743 98.8971L16.3203 103.886C16.3734 105.694 14.9511 107.202 13.1297 107.256L13.0475 107.257C11.239 107.257 9.77291 105.791 9.77332 103.955L9.91964 98.9565L2.11739 95.1842C1.11881 94.7015 0.484376 93.6901 0.484376 92.581C0.484376 91.4606 1.39263 90.5523 2.54124 90.5527L2.68995 90.5609L10.1392 91.4522L10.2177 88.764L9.29017 88.425C8.32272 88.0713 7.67924 87.1509 7.67924 86.1208C7.67924 85.0164 8.57454 84.1211 9.67938 84.1211L10.6371 84.1216L10.6778 83.9261C10.912 82.804 11.9012 82 13.0475 82C14.1939 82 15.183 82.8046 15.4163 83.9268L15.4569 84.1216L16.416 84.1211C17.4272 84.1211 18.2755 84.8753 18.4057 85.93L18.4157 86.1208C18.4157 87.0601 17.8796 87.9148 16.9947 88.3455L16.8054 88.4247L15.8775 88.7647L15.9559 91.4375ZM23.5931 92.581C23.5931 92.5051 23.5316 92.4435 23.4839 92.4431L14.1261 93.5607L13.9472 87.4578L16.1098 86.6667L16.2095 86.6257C16.4016 86.5319 16.5245 86.3359 16.5263 86.1795L16.5236 86.106C16.517 86.0536 16.4706 86.0124 16.4165 86.0124L13.919 86.0136L13.5648 84.312C13.5138 84.0669 13.2978 83.8912 13.0475 83.8912C12.7967 83.8912 12.5803 84.0671 12.5292 84.3121L12.175 86.0136L9.67893 86.0124C9.61904 86.0124 9.57048 86.0609 9.57048 86.1208C9.57048 86.3568 9.7179 86.5677 9.93949 86.6487L12.148 87.4559L11.9693 93.5758L2.54941 92.445L2.51303 92.4435C2.43714 92.4435 2.37561 92.5051 2.37561 92.581C2.37561 92.9647 2.59509 93.3145 2.94057 93.4816L11.8459 97.7871L11.6641 103.982C11.6641 104.746 12.2835 105.366 13.0336 105.366L13.0881 105.365C13.8516 105.343 14.4523 104.705 14.4299 103.942L14.2481 97.7279L22.9883 93.502L23.1121 93.436C23.41 93.2552 23.5931 92.9311 23.5931 92.581Z" fill="#DEDEDE"/>
</svg>
