<svg width="21" height="76" viewBox="0 0 21 76" fill="none" xmlns="http://www.w3.org/2000/svg">
<path d="M10.3418 4V1" stroke="#DEDEDE" stroke-linecap="round"/>
<path d="M10.3418 10V7" stroke="#DEDEDE" stroke-linecap="round"/>
<path d="M10.3418 16V13" stroke="white" stroke-width="2" stroke-linecap="round"/>
<path d="M10.3418 22V19" stroke="#DEDEDE" stroke-linecap="round"/>
<path d="M10.3418 28V25" stroke="#DEDEDE" stroke-linecap="round"/>
<path d="M10.3418 34V31" stroke="#DEDEDE" stroke-linecap="round"/>
<path d="M10.3418 40V37" stroke="#DEDEDE" stroke-linecap="round"/>
<path d="M10.3418 46V43" stroke="#DEDEDE" stroke-linecap="round"/>
<path d="M10.3418 52V49" stroke="#DEDEDE" stroke-linecap="round"/>
<path d="M12.6985 62.4852L18.5733 61.785L18.6469 61.7831C19.5355 61.7831 20.2559 62.5035 20.2559 63.3921C20.2559 64.1949 19.8362 64.9378 19.1214 65.3704L18.9608 65.4568L12.8718 68.4017L12.9876 72.3588C13.0297 73.7925 11.9016 74.9888 10.457 75.0311L10.3917 75.032C8.95737 75.032 7.79459 73.8692 7.79491 72.4129L7.91096 68.4487L1.72274 65.4569C0.930742 65.074 0.427547 64.2718 0.427547 63.3921C0.427547 62.5035 1.14792 61.7831 2.05891 61.7834L2.17686 61.7899L8.08513 62.4968L8.14739 60.3647L7.41171 60.0958C6.6444 59.8153 6.13403 59.0853 6.13403 58.2684C6.13403 57.3924 6.84412 56.6823 7.72041 56.6823L8.47997 56.6827L8.51225 56.5277C8.69803 55.6377 9.48257 55 10.3917 55C11.301 55 12.0855 55.6381 12.2706 56.5282L12.3027 56.6827L13.0634 56.6824C13.8655 56.6824 14.5383 57.2805 14.6415 58.117L14.6495 58.2684C14.6495 59.0133 14.2243 59.6912 13.5224 60.0328L13.3723 60.0957L12.6364 60.3653L12.6985 62.4852ZM18.7559 63.3921C18.7559 63.3319 18.7071 63.2831 18.6692 63.2828L11.2472 64.1692L11.1053 59.3287L12.8206 58.7013L12.8997 58.6688C13.052 58.5944 13.1495 58.439 13.1509 58.3149L13.1487 58.2566C13.1435 58.215 13.1068 58.1823 13.0638 58.1823L11.083 58.1833L10.802 56.8337C10.7616 56.6393 10.5903 56.5 10.3917 56.5C10.1929 56.5 10.0212 56.6395 9.98068 56.8338L9.69975 58.1833L7.72005 58.1823C7.67254 58.1823 7.63403 58.2209 7.63403 58.2684C7.63403 58.4555 7.75095 58.6228 7.9267 58.687L9.67833 59.3273L9.53659 64.1812L2.06539 63.2843L2.03654 63.2831C1.97634 63.2831 1.92755 63.3319 1.92755 63.3921C1.92755 63.6964 2.10162 63.9739 2.37563 64.1064L9.43876 67.5213L9.29459 72.4348C9.29459 73.0408 9.7858 73.5321 10.3807 73.5321L10.4239 73.5315C11.0295 73.5137 11.506 73.0084 11.4882 72.4028L11.344 67.4743L18.2761 64.1226L18.3743 64.0702C18.6106 63.9269 18.7559 63.6698 18.7559 63.3921Z" fill="#DEDEDE"/>
</svg>
