<svg width="21" height="76" viewBox="0 0 21 76" fill="none" xmlns="http://www.w3.org/2000/svg">
<path d="M10.1699 4V1" stroke="#DEDEDE" stroke-linecap="round"/>
<path d="M10.1699 10V7" stroke="#DEDEDE" stroke-linecap="round"/>
<path d="M10.1699 16V13" stroke="#DEDEDE" stroke-linecap="round"/>
<path d="M10.1699 22V19" stroke="white" stroke-width="2" stroke-linecap="round"/>
<path d="M10.1699 28V25" stroke="#DEDEDE" stroke-linecap="round"/>
<path d="M10.1699 34V31" stroke="#DEDEDE" stroke-linecap="round"/>
<path d="M10.1699 40V37" stroke="#DEDEDE" stroke-linecap="round"/>
<path d="M10.1699 46V43" stroke="#DEDEDE" stroke-linecap="round"/>
<path d="M10.1699 52V49" stroke="#DEDEDE" stroke-linecap="round"/>
<path d="M12.5266 62.4852L18.4014 61.785L18.475 61.7831C19.3636 61.7831 20.084 62.5035 20.084 63.3921C20.084 64.1949 19.6643 64.9378 18.9496 65.3704L18.7889 65.4568L12.6999 68.4017L12.8157 72.3588C12.8578 73.7925 11.7297 74.9888 10.2851 75.0311L10.2199 75.032C8.7855 75.032 7.62271 73.8692 7.62303 72.4129L7.73909 68.4487L1.55087 65.4569C0.758867 65.074 0.255672 64.2718 0.255672 63.3921C0.255672 62.5035 0.976041 61.7831 1.88704 61.7834L2.00498 61.7899L7.91326 62.4968L7.97552 60.3647L7.23984 60.0958C6.47252 59.8153 5.96216 59.0853 5.96216 58.2684C5.96216 57.3924 6.67224 56.6823 7.54853 56.6823L8.3081 56.6827L8.34037 56.5277C8.52616 55.6377 9.31069 55 10.2199 55C11.1292 55 11.9136 55.6381 12.0987 56.5282L12.1309 56.6827L12.8916 56.6824C13.6936 56.6824 14.3664 57.2805 14.4696 58.117L14.4776 58.2684C14.4776 59.0133 14.0524 59.6912 13.3505 60.0328L13.2004 60.0957L12.4645 60.3653L12.5266 62.4852ZM18.584 63.3921C18.584 63.3319 18.5352 63.2831 18.4974 63.2828L11.0753 64.1692L10.9335 59.3287L12.6487 58.7013L12.7278 58.6688C12.8801 58.5944 12.9776 58.439 12.979 58.3149L12.9769 58.2566C12.9717 58.215 12.9349 58.1823 12.8919 58.1823L10.9111 58.1833L10.6301 56.8337C10.5897 56.6393 10.4184 56.5 10.2199 56.5C10.021 56.5 9.84936 56.6395 9.80881 56.8338L9.52787 58.1833L7.54817 58.1823C7.50067 58.1823 7.46216 58.2209 7.46216 58.2684C7.46216 58.4555 7.57908 58.6228 7.75483 58.687L9.50645 59.3273L9.36471 64.1812L1.89351 63.2843L1.86466 63.2831C1.80447 63.2831 1.75567 63.3319 1.75567 63.3921C1.75567 63.6964 1.92975 63.9739 2.20376 64.1064L9.26688 67.5213L9.12271 72.4348C9.12271 73.0408 9.61393 73.5321 10.2089 73.5321L10.2521 73.5315C10.8576 73.5137 11.3341 73.0084 11.3163 72.4028L11.1721 67.4743L18.1043 64.1226L18.2025 64.0702C18.4388 63.9269 18.584 63.6698 18.584 63.3921Z" fill="#DEDEDE"/>
</svg>
