<svg width="26" height="108" viewBox="0 0 26 108" fill="none" xmlns="http://www.w3.org/2000/svg">
<path d="M12.8125 4V1" stroke="#DEDEDE" stroke-width="2" stroke-linecap="round"/>
<path d="M12.8125 13V10" stroke="#DEDEDE" stroke-width="2" stroke-linecap="round"/>
<path d="M12.8125 22V19" stroke="#DEDEDE" stroke-width="2" stroke-linecap="round"/>
<path d="M12.8125 31V28" stroke="white" stroke-width="4" stroke-linecap="round"/>
<path d="M12.8125 40V37" stroke="#DEDEDE" stroke-width="2" stroke-linecap="round"/>
<path d="M12.8125 49V46" stroke="#DEDEDE" stroke-width="2" stroke-linecap="round"/>
<path d="M12.8125 58V55" stroke="#DEDEDE" stroke-width="2" stroke-linecap="round"/>
<path d="M12.8125 67V64" stroke="#DEDEDE" stroke-width="2" stroke-linecap="round"/>
<path d="M12.8125 76V73" stroke="#DEDEDE" stroke-width="2" stroke-linecap="round"/>
<path d="M15.784 91.4375L23.1911 90.5547L23.2838 90.5523C24.4042 90.5523 25.3125 91.4606 25.3125 92.581C25.3125 93.5931 24.7834 94.5298 23.8822 95.0753L23.6796 95.1842L16.0024 98.8971L16.1485 103.886C16.2016 105.694 14.7793 107.202 12.9578 107.256L12.8756 107.257C11.0671 107.257 9.60104 105.791 9.60144 103.955L9.74776 98.9565L1.94551 95.1842C0.946939 94.7015 0.312501 93.6901 0.312501 92.581C0.312501 91.4606 1.22076 90.5523 2.36936 90.5527L2.51807 90.5609L9.96736 91.4522L10.0459 88.764L9.1183 88.425C8.15085 88.0713 7.50737 87.1509 7.50737 86.1208C7.50737 85.0164 8.40266 84.1211 9.50751 84.1211L10.4652 84.1216L10.5059 83.9261C10.7401 82.804 11.7293 82 12.8756 82C14.0221 82 15.0111 82.8046 15.2445 83.9268L15.285 84.1216L16.2441 84.1211C17.2553 84.1211 18.1036 84.8753 18.2338 85.93L18.2438 86.1208C18.2438 87.0601 17.7078 87.9148 16.8228 88.3455L16.6335 88.4247L15.7057 88.7647L15.784 91.4375ZM23.4213 92.581C23.4213 92.5051 23.3597 92.4435 23.3121 92.4431L13.9542 93.5607L13.7753 87.4578L15.938 86.6667L16.0377 86.6257C16.2297 86.5319 16.3526 86.3359 16.3544 86.1795L16.3517 86.106C16.3451 86.0536 16.2988 86.0124 16.2446 86.0124L13.7471 86.0136L13.3929 84.312C13.3419 84.0669 13.1259 83.8912 12.8756 83.8912C12.6248 83.8912 12.4085 84.0671 12.3573 84.3121L12.0031 86.0136L9.50706 86.0124C9.44716 86.0124 9.39861 86.0609 9.39861 86.1208C9.39861 86.3568 9.54602 86.5677 9.76761 86.6487L11.9761 87.4559L11.7974 93.5758L2.37753 92.445L2.34116 92.4435C2.26526 92.4435 2.20373 92.5051 2.20373 92.581C2.20373 92.9647 2.42322 93.3145 2.76869 93.4816L11.674 97.7871L11.4923 103.982C11.4923 104.746 12.1116 105.366 12.8617 105.366L12.9162 105.365C13.6797 105.343 14.2805 104.705 14.258 103.942L14.0762 97.7279L22.8164 93.502L22.9402 93.436C23.2382 93.2552 23.4213 92.9311 23.4213 92.581Z" fill="#DEDEDE"/>
</svg>
