<svg width="20" height="76" viewBox="0 0 20 76" fill="none" xmlns="http://www.w3.org/2000/svg">
<path d="M9.99805 4V1" stroke="#DEDEDE" stroke-linecap="round"/>
<path d="M9.99805 10V7" stroke="#DEDEDE" stroke-linecap="round"/>
<path d="M9.99805 16V13" stroke="#DEDEDE" stroke-linecap="round"/>
<path d="M9.99805 22V19" stroke="#DEDEDE" stroke-linecap="round"/>
<path d="M9.99805 28V25" stroke="white" stroke-width="2" stroke-linecap="round"/>
<path d="M9.99805 34V31" stroke="#DEDEDE" stroke-linecap="round"/>
<path d="M9.99805 40V37" stroke="#DEDEDE" stroke-linecap="round"/>
<path d="M9.99805 46V43" stroke="#DEDEDE" stroke-linecap="round"/>
<path d="M9.99805 52V49" stroke="#DEDEDE" stroke-linecap="round"/>
<path d="M12.3548 62.4852L18.2295 61.785L18.3031 61.7831C19.1917 61.7831 19.9121 62.5035 19.9121 63.3921C19.9121 64.1949 19.4924 64.9378 18.7777 65.3704L18.617 65.4568L12.528 68.4017L12.6438 72.3588C12.6859 73.7925 11.5579 74.9888 10.1132 75.0311L10.048 75.032C8.61362 75.032 7.45084 73.8692 7.45116 72.4129L7.56721 68.4487L1.37899 65.4569C0.586992 65.074 0.083797 64.2718 0.0837971 63.3921C0.0837971 62.5035 0.804166 61.7831 1.71516 61.7834L1.83311 61.7899L7.74138 62.4968L7.80364 60.3647L7.06796 60.0958C6.30065 59.8153 5.79028 59.0853 5.79028 58.2684C5.79028 57.3924 6.50037 56.6823 7.37666 56.6823L8.13622 56.6827L8.1685 56.5277C8.35428 55.6377 9.13882 55 10.048 55C10.9573 55 11.7418 55.6381 11.9268 56.5282L11.959 56.6827L12.7197 56.6824C13.5217 56.6824 14.1945 57.2805 14.2977 58.117L14.3057 58.2684C14.3057 59.0133 13.8805 59.6912 13.1787 60.0328L13.0285 60.0957L12.2926 60.3653L12.3548 62.4852ZM18.4121 63.3921C18.4121 63.3319 18.3633 63.2831 18.3255 63.2828L10.9035 64.1692L10.7616 59.3287L12.4769 58.7013L12.5559 58.6688C12.7082 58.5944 12.8057 58.439 12.8071 58.3149L12.805 58.2566C12.7998 58.215 12.763 58.1823 12.72 58.1823L10.7392 58.1833L10.4583 56.8337C10.4179 56.6393 10.2466 56.5 10.048 56.5C9.84911 56.5 9.67749 56.6395 9.63693 56.8338L9.356 58.1833L7.3763 58.1823C7.32879 58.1823 7.29028 58.2209 7.29028 58.2684C7.29028 58.4555 7.4072 58.6228 7.58295 58.687L9.33458 59.3273L9.19284 64.1812L1.72164 63.2843L1.69279 63.2831C1.63259 63.2831 1.5838 63.3319 1.5838 63.3921C1.5838 63.6964 1.75787 63.9739 2.03188 64.1064L9.09501 67.5213L8.95084 72.4348C8.95084 73.0408 9.44205 73.5321 10.037 73.5321L10.0802 73.5315C10.6858 73.5137 11.1622 73.0084 11.1445 72.4028L11.0002 67.4743L17.9324 64.1226L18.0306 64.0702C18.2669 63.9269 18.4121 63.6698 18.4121 63.3921Z" fill="#DEDEDE"/>
</svg>
