<svg width="26" height="108" viewBox="0 0 26 108" fill="none" xmlns="http://www.w3.org/2000/svg">
<path d="M12.6406 4V1" stroke="#DEDEDE" stroke-width="2" stroke-linecap="round"/>
<path d="M12.6406 13V10" stroke="#DEDEDE" stroke-width="2" stroke-linecap="round"/>
<path d="M12.6406 22V19" stroke="#DEDEDE" stroke-width="2" stroke-linecap="round"/>
<path d="M12.6406 31V28" stroke="#DEDEDE" stroke-width="2" stroke-linecap="round"/>
<path d="M12.6406 40V37" stroke="white" stroke-width="4" stroke-linecap="round"/>
<path d="M12.6406 49V46" stroke="#DEDEDE" stroke-width="2" stroke-linecap="round"/>
<path d="M12.6406 58V55" stroke="#DEDEDE" stroke-width="2" stroke-linecap="round"/>
<path d="M12.6406 67V64" stroke="#DEDEDE" stroke-width="2" stroke-linecap="round"/>
<path d="M12.6406 76V73" stroke="#DEDEDE" stroke-width="2" stroke-linecap="round"/>
<path d="M15.6121 91.4375L23.0192 90.5547L23.112 90.5523C24.2324 90.5523 25.1406 91.4606 25.1406 92.581C25.1406 93.5931 24.6115 94.5298 23.7103 95.0753L23.5077 95.1842L15.8306 98.8971L15.9766 103.886C16.0297 105.694 14.6074 107.202 12.786 107.256L12.7037 107.257C10.8952 107.257 9.42916 105.791 9.42957 103.955L9.57589 98.9565L1.77364 95.1842C0.775064 94.7015 0.140626 93.6901 0.140626 92.581C0.140626 91.4606 1.04888 90.5523 2.19749 90.5527L2.3462 90.5609L9.79549 91.4522L9.87399 88.764L8.94642 88.425C7.97897 88.0713 7.33549 87.1509 7.33549 86.1208C7.33549 85.0164 8.23079 84.1211 9.33563 84.1211L10.2933 84.1216L10.334 83.9261C10.5682 82.804 11.5574 82 12.7037 82C13.8502 82 14.8393 82.8046 15.0726 83.9268L15.1131 84.1216L16.0723 84.1211C17.0835 84.1211 17.9318 84.8753 18.0619 85.93L18.0719 86.1208C18.0719 87.0601 17.5359 87.9148 16.6509 88.3455L16.4616 88.4247L15.5338 88.7647L15.6121 91.4375ZM23.2494 92.581C23.2494 92.5051 23.1879 92.4435 23.1402 92.4431L13.7823 93.5607L13.6034 87.4578L15.7661 86.6667L15.8658 86.6257C16.0578 86.5319 16.1807 86.3359 16.1825 86.1795L16.1798 86.106C16.1732 86.0536 16.1269 86.0124 16.0727 86.0124L13.5752 86.0136L13.221 84.312C13.17 84.0669 12.9541 83.8912 12.7037 83.8912C12.453 83.8912 12.2366 84.0671 12.1854 84.3121L11.8312 86.0136L9.33518 86.0124C9.27529 86.0124 9.22673 86.0609 9.22673 86.1208C9.22673 86.3568 9.37415 86.5677 9.59574 86.6487L11.8042 87.4559L11.6255 93.5758L2.20566 92.445L2.16928 92.4435C2.09339 92.4435 2.03186 92.5051 2.03186 92.581C2.03186 92.9647 2.25134 93.3145 2.59682 93.4816L11.5022 97.7871L11.3204 103.982C11.3204 104.746 11.9397 105.366 12.6898 105.366L12.7443 105.365C13.5078 105.343 14.1086 104.705 14.0862 103.942L13.9043 97.7279L22.6445 93.502L22.7683 93.436C23.0663 93.2552 23.2494 92.9311 23.2494 92.581Z" fill="#DEDEDE"/>
</svg>
