<svg width="26" height="108" viewBox="0 0 26 108" fill="none" xmlns="http://www.w3.org/2000/svg">
<path d="M13.4688 4V1" stroke="#DEDEDE" stroke-width="2" stroke-linecap="round"/>
<path d="M13.4688 13V10" stroke="#DEDEDE" stroke-width="2" stroke-linecap="round"/>
<path d="M13.4688 22V19" stroke="#DEDEDE" stroke-width="2" stroke-linecap="round"/>
<path d="M13.4688 31V28" stroke="#DEDEDE" stroke-width="2" stroke-linecap="round"/>
<path d="M13.4688 40V37" stroke="#DEDEDE" stroke-width="2" stroke-linecap="round"/>
<path d="M13.4688 49V46" stroke="white" stroke-width="4" stroke-linecap="round"/>
<path d="M13.4688 58V55" stroke="#DEDEDE" stroke-width="2" stroke-linecap="round"/>
<path d="M13.4688 67V64" stroke="#DEDEDE" stroke-width="2" stroke-linecap="round"/>
<path d="M13.4688 76V73" stroke="#DEDEDE" stroke-width="2" stroke-linecap="round"/>
<path d="M16.4403 91.4375L23.8473 90.5547L23.9401 90.5523C25.0605 90.5523 25.9687 91.4606 25.9687 92.581C25.9687 93.5931 25.4396 94.5298 24.5385 95.0753L24.3359 95.1842L16.6587 98.8971L16.8047 103.886C16.8578 105.694 15.4355 107.202 13.6141 107.256L13.5318 107.257C11.7234 107.257 10.2573 105.791 10.2577 103.955L10.404 98.9565L2.60176 95.1842C1.60319 94.7015 0.968751 93.6901 0.968751 92.581C0.968751 91.4606 1.87701 90.5523 3.02561 90.5527L3.17432 90.5609L10.6236 91.4522L10.7021 88.764L9.77455 88.425C8.8071 88.0713 8.16362 87.1509 8.16362 86.1208C8.16362 85.0164 9.05891 84.1211 10.1638 84.1211L11.1214 84.1216L11.1621 83.9261C11.3964 82.804 12.3855 82 13.5318 82C14.6783 82 15.6674 82.8046 15.9007 83.9268L15.9413 84.1216L16.9004 84.1211C17.9116 84.1211 18.7599 84.8753 18.89 85.93L18.9001 86.1208C18.9001 87.0601 18.364 87.9148 17.4791 88.3455L17.2898 88.4247L16.3619 88.7647L16.4403 91.4375ZM24.0775 92.581C24.0775 92.5051 24.016 92.4435 23.9683 92.4431L14.6104 93.5607L14.4316 87.4578L16.5942 86.6667L16.6939 86.6257C16.8859 86.5319 17.0088 86.3359 17.0106 86.1795L17.0079 86.106C17.0014 86.0536 16.955 86.0124 16.9008 86.0124L14.4034 86.0136L14.0491 84.312C13.9982 84.0669 13.7822 83.8912 13.5318 83.8912C13.2811 83.8912 13.0647 84.0671 13.0136 84.3121L12.6594 86.0136L10.1633 86.0124C10.1034 86.0124 10.0549 86.0609 10.0549 86.1208C10.0549 86.3568 10.2023 86.5677 10.4239 86.6487L12.6323 87.4559L12.4536 93.5758L3.03378 92.445L2.99741 92.4435C2.92151 92.4435 2.85998 92.5051 2.85998 92.581C2.85998 92.9647 3.07947 93.3145 3.42494 93.4816L12.3303 97.7871L12.1485 103.982C12.1485 104.746 12.7679 105.366 13.518 105.366L13.5724 105.365C14.336 105.343 14.9367 104.705 14.9143 103.942L14.7324 97.7279L23.4727 93.502L23.5965 93.436C23.8944 93.2552 24.0775 92.9311 24.0775 92.581Z" fill="#DEDEDE"/>
</svg>
