<svg width="21" height="76" viewBox="0 0 21 76" fill="none" xmlns="http://www.w3.org/2000/svg">
<path d="M10.8262 4V1" stroke="#DEDEDE" stroke-linecap="round"/>
<path d="M10.8262 10V7" stroke="#DEDEDE" stroke-linecap="round"/>
<path d="M10.8262 16V13" stroke="#DEDEDE" stroke-linecap="round"/>
<path d="M10.8262 22V19" stroke="#DEDEDE" stroke-linecap="round"/>
<path d="M10.8262 28V25" stroke="#DEDEDE" stroke-linecap="round"/>
<path d="M10.8262 34V31" stroke="white" stroke-width="2" stroke-linecap="round"/>
<path d="M10.8262 40V37" stroke="#DEDEDE" stroke-linecap="round"/>
<path d="M10.8262 46V43" stroke="#DEDEDE" stroke-linecap="round"/>
<path d="M10.8262 52V49" stroke="#DEDEDE" stroke-linecap="round"/>
<path d="M13.1829 62.4852L19.0576 61.785L19.1312 61.7831C20.0199 61.7831 20.7402 62.5035 20.7402 63.3921C20.7402 64.1949 20.3206 64.9378 19.6058 65.3704L19.4451 65.4568L13.3561 68.4017L13.4719 72.3588C13.514 73.7925 12.386 74.9888 10.9414 75.0311L10.8761 75.032C9.44175 75.032 8.27896 73.8692 8.27928 72.4129L8.39534 68.4487L2.20712 65.4569C1.41512 65.074 0.911922 64.2718 0.911922 63.3921C0.911922 62.5035 1.63229 61.7831 2.54329 61.7834L2.66123 61.7899L8.56951 62.4968L8.63177 60.3647L7.89609 60.0958C7.12877 59.8153 6.61841 59.0853 6.61841 58.2684C6.61841 57.3924 7.32849 56.6823 8.20478 56.6823L8.96435 56.6827L8.99662 56.5277C9.18241 55.6377 9.96694 55 10.8761 55C11.7854 55 12.5699 55.6381 12.755 56.5282L12.7871 56.6827L13.5478 56.6824C14.3498 56.6824 15.0227 57.2805 15.1259 58.117L15.1338 58.2684C15.1338 59.0133 14.7087 59.6912 14.0068 60.0328L13.8567 60.0957L13.1207 60.3653L13.1829 62.4852ZM19.2402 63.3921C19.2402 63.3319 19.1914 63.2831 19.1536 63.2828L11.7316 64.1692L11.5897 59.3287L13.305 58.7013L13.3841 58.6688C13.5364 58.5944 13.6338 58.439 13.6353 58.3149L13.6331 58.2566C13.6279 58.215 13.5911 58.1823 13.5482 58.1823L11.5674 58.1833L11.2864 56.8337C11.246 56.6393 11.0747 56.5 10.8761 56.5C10.6772 56.5 10.5056 56.6395 10.4651 56.8338L10.1841 58.1833L8.20442 58.1823C8.15692 58.1823 8.11841 58.2209 8.11841 58.2684C8.11841 58.4555 8.23533 58.6228 8.41108 58.687L10.1627 59.3273L10.021 64.1812L2.54976 63.2843L2.52091 63.2831C2.46072 63.2831 2.41192 63.3319 2.41192 63.3921C2.41192 63.6964 2.586 63.9739 2.86001 64.1064L9.92313 67.5213L9.77896 72.4348C9.77896 73.0408 10.2702 73.5321 10.8651 73.5321L10.9083 73.5315C11.5139 73.5137 11.9904 73.0084 11.9726 72.4028L11.8283 67.4743L18.7605 64.1226L18.8587 64.0702C19.095 63.9269 19.2402 63.6698 19.2402 63.3921Z" fill="#DEDEDE"/>
</svg>
