<svg width="21" height="76" viewBox="0 0 21 76" fill="none" xmlns="http://www.w3.org/2000/svg">
<path d="M10.6543 4V1" stroke="#DEDEDE" stroke-linecap="round"/>
<path d="M10.6543 10V7" stroke="#DEDEDE" stroke-linecap="round"/>
<path d="M10.6543 16V13" stroke="#DEDEDE" stroke-linecap="round"/>
<path d="M10.6543 22V19" stroke="#DEDEDE" stroke-linecap="round"/>
<path d="M10.6543 28V25" stroke="#DEDEDE" stroke-linecap="round"/>
<path d="M10.6543 34V31" stroke="#DEDEDE" stroke-linecap="round"/>
<path d="M10.6543 40V37" stroke="white" stroke-width="2" stroke-linecap="round"/>
<path d="M10.6543 46V43" stroke="#DEDEDE" stroke-linecap="round"/>
<path d="M10.6543 52V49" stroke="#DEDEDE" stroke-linecap="round"/>
<path d="M13.011 62.4852L18.8858 61.785L18.9594 61.7831C19.848 61.7831 20.5684 62.5035 20.5684 63.3921C20.5684 64.1949 20.1487 64.9378 19.4339 65.3704L19.2733 65.4568L13.1843 68.4017L13.3001 72.3588C13.3422 73.7925 12.2141 74.9888 10.7695 75.0311L10.7042 75.032C9.26987 75.032 8.10709 73.8692 8.10741 72.4129L8.22346 68.4487L2.03524 65.4569C1.24324 65.074 0.740047 64.2718 0.740047 63.3921C0.740047 62.5035 1.46042 61.7831 2.37141 61.7834L2.48936 61.7899L8.39763 62.4968L8.45989 60.3647L7.72421 60.0958C6.9569 59.8153 6.44653 59.0853 6.44653 58.2684C6.44653 57.3924 7.15662 56.6823 8.03291 56.6823L8.79247 56.6827L8.82475 56.5277C9.01053 55.6377 9.79507 55 10.7042 55C11.6135 55 12.398 55.6381 12.5831 56.5282L12.6152 56.6827L13.3759 56.6824C14.178 56.6824 14.8508 57.2805 14.954 58.117L14.962 58.2684C14.962 59.0133 14.5368 59.6912 13.8349 60.0328L13.6848 60.0957L12.9489 60.3653L13.011 62.4852ZM19.0684 63.3921C19.0684 63.3319 19.0196 63.2831 18.9817 63.2828L11.5597 64.1692L11.4178 59.3287L13.1331 58.7013L13.2122 58.6688C13.3645 58.5944 13.462 58.439 13.4634 58.3149L13.4612 58.2566C13.456 58.215 13.4193 58.1823 13.3763 58.1823L11.3955 58.1833L11.1145 56.8337C11.0741 56.6393 10.9028 56.5 10.7042 56.5C10.5054 56.5 10.3337 56.6395 10.2932 56.8338L10.0122 58.1833L8.03255 58.1823C7.98504 58.1823 7.94653 58.2209 7.94653 58.2684C7.94653 58.4555 8.06345 58.6228 8.2392 58.687L9.99083 59.3273L9.84909 64.1812L2.37789 63.2843L2.34904 63.2831C2.28884 63.2831 2.24005 63.3319 2.24005 63.3921C2.24005 63.6964 2.41412 63.9739 2.68813 64.1064L9.75126 67.5213L9.60709 72.4348C9.60709 73.0408 10.0983 73.5321 10.6932 73.5321L10.7364 73.5315C11.342 73.5137 11.8185 73.0084 11.8007 72.4028L11.6565 67.4743L18.5886 64.1226L18.6868 64.0702C18.9231 63.9269 19.0684 63.6698 19.0684 63.3921Z" fill="#DEDEDE"/>
</svg>
