<svg width="26" height="108" viewBox="0 0 26 108" fill="none" xmlns="http://www.w3.org/2000/svg">
<path d="M13.2969 4V1" stroke="#DEDEDE" stroke-width="2" stroke-linecap="round"/>
<path d="M13.2969 13V10" stroke="#DEDEDE" stroke-width="2" stroke-linecap="round"/>
<path d="M13.2969 22V19" stroke="#DEDEDE" stroke-width="2" stroke-linecap="round"/>
<path d="M13.2969 31V28" stroke="#DEDEDE" stroke-width="2" stroke-linecap="round"/>
<path d="M13.2969 40V37" stroke="#DEDEDE" stroke-width="2" stroke-linecap="round"/>
<path d="M13.2969 49V46" stroke="#DEDEDE" stroke-width="2" stroke-linecap="round"/>
<path d="M13.2969 58V55" stroke="white" stroke-width="4" stroke-linecap="round"/>
<path d="M13.2969 67V64" stroke="#DEDEDE" stroke-width="2" stroke-linecap="round"/>
<path d="M13.2969 76V73" stroke="#DEDEDE" stroke-width="2" stroke-linecap="round"/>
<path d="M16.2684 91.4375L23.6754 90.5547L23.7682 90.5523C24.8886 90.5523 25.7969 91.4606 25.7969 92.581C25.7969 93.5931 25.2678 94.5298 24.3666 95.0753L24.164 95.1842L16.4868 98.8971L16.6328 103.886C16.6859 105.694 15.2636 107.202 13.4422 107.256L13.36 107.257C11.5515 107.257 10.0854 105.791 10.0858 103.955L10.2321 98.9565L2.42989 95.1842C1.43131 94.7015 0.796876 93.6901 0.796876 92.581C0.796876 91.4606 1.70513 90.5523 2.85374 90.5527L3.00245 90.5609L10.4517 91.4522L10.5302 88.764L9.60267 88.425C8.63522 88.0713 7.99174 87.1509 7.99174 86.1208C7.99174 85.0164 8.88704 84.1211 9.99188 84.1211L10.9496 84.1216L10.9903 83.9261C11.2245 82.804 12.2137 82 13.36 82C14.5064 82 15.4955 82.8046 15.7288 83.9268L15.7694 84.1216L16.7285 84.1211C17.7397 84.1211 18.588 84.8753 18.7182 85.93L18.7282 86.1208C18.7282 87.0601 18.1921 87.9148 17.3072 88.3455L17.1179 88.4247L16.19 88.7647L16.2684 91.4375ZM23.9056 92.581C23.9056 92.5051 23.8441 92.4435 23.7964 92.4431L14.4386 93.5607L14.2597 87.4578L16.4223 86.6667L16.522 86.6257C16.7141 86.5319 16.837 86.3359 16.8388 86.1795L16.8361 86.106C16.8295 86.0536 16.7831 86.0124 16.729 86.0124L14.2315 86.0136L13.8773 84.312C13.8263 84.0669 13.6103 83.8912 13.36 83.8912C13.1092 83.8912 12.8928 84.0671 12.8417 84.3121L12.4875 86.0136L9.99143 86.0124C9.93154 86.0124 9.88298 86.0609 9.88298 86.1208C9.88298 86.3568 10.0304 86.5677 10.252 86.6487L12.4605 87.4559L12.2818 93.5758L2.86191 92.445L2.82553 92.4435C2.74964 92.4435 2.68811 92.5051 2.68811 92.581C2.68811 92.9647 2.90759 93.3145 3.25307 93.4816L12.1584 97.7871L11.9766 103.982C11.9766 104.746 12.596 105.366 13.3461 105.366L13.4006 105.365C14.1641 105.343 14.7648 104.705 14.7424 103.942L14.5606 97.7279L23.3008 93.502L23.4246 93.436C23.7225 93.2552 23.9056 92.9311 23.9056 92.581Z" fill="#DEDEDE"/>
</svg>
