<svg width="26" height="108" viewBox="0 0 26 108" fill="none" xmlns="http://www.w3.org/2000/svg">
<path d="M13.125 4V1" stroke="#DEDEDE" stroke-width="2" stroke-linecap="round"/>
<path d="M13.125 13V10" stroke="#DEDEDE" stroke-width="2" stroke-linecap="round"/>
<path d="M13.125 22V19" stroke="#DEDEDE" stroke-width="2" stroke-linecap="round"/>
<path d="M13.125 31V28" stroke="#DEDEDE" stroke-width="2" stroke-linecap="round"/>
<path d="M13.125 40V37" stroke="#DEDEDE" stroke-width="2" stroke-linecap="round"/>
<path d="M13.125 49V46" stroke="#DEDEDE" stroke-width="2" stroke-linecap="round"/>
<path d="M13.125 58V55" stroke="#DEDEDE" stroke-width="2" stroke-linecap="round"/>
<path d="M13.125 67V64" stroke="white" stroke-width="4" stroke-linecap="round"/>
<path d="M13.125 76V73" stroke="#DEDEDE" stroke-width="2" stroke-linecap="round"/>
<path d="M16.0965 91.4375L23.5036 90.5547L23.5963 90.5523C24.7167 90.5523 25.625 91.4606 25.625 92.581C25.625 93.5931 25.0959 94.5298 24.1947 95.0753L23.9921 95.1842L16.3149 98.8971L16.461 103.886C16.5141 105.694 15.0918 107.202 13.2703 107.256L13.1881 107.257C11.3796 107.257 9.91354 105.791 9.91394 103.955L10.0603 98.9565L2.25801 95.1842C1.25944 94.7015 0.625001 93.6901 0.625001 92.581C0.625001 91.4606 1.53326 90.5523 2.68186 90.5527L2.83057 90.5609L10.2799 91.4522L10.3584 88.764L9.4308 88.425C8.46335 88.0713 7.81987 87.1509 7.81987 86.1208C7.81987 85.0164 8.71516 84.1211 9.82001 84.1211L10.7777 84.1216L10.8184 83.9261C11.0526 82.804 12.0418 82 13.1881 82C14.3346 82 15.3236 82.8046 15.557 83.9268L15.5975 84.1216L16.5566 84.1211C17.5678 84.1211 18.4161 84.8753 18.5463 85.93L18.5563 86.1208C18.5563 87.0601 18.0203 87.9148 17.1353 88.3455L16.946 88.4247L16.0182 88.7647L16.0965 91.4375ZM23.7338 92.581C23.7338 92.5051 23.6722 92.4435 23.6246 92.4431L14.2667 93.5607L14.0878 87.4578L16.2505 86.6667L16.3502 86.6257C16.5422 86.5319 16.6651 86.3359 16.6669 86.1795L16.6642 86.106C16.6576 86.0536 16.6113 86.0124 16.5571 86.0124L14.0596 86.0136L13.7054 84.312C13.6544 84.0669 13.4384 83.8912 13.1881 83.8912C12.9373 83.8912 12.721 84.0671 12.6698 84.3121L12.3156 86.0136L9.81956 86.0124C9.75966 86.0124 9.71111 86.0609 9.71111 86.1208C9.71111 86.3568 9.85852 86.5677 10.0801 86.6487L12.2886 87.4559L12.1099 93.5758L2.69003 92.445L2.65366 92.4435C2.57776 92.4435 2.51623 92.5051 2.51623 92.581C2.51623 92.9647 2.73572 93.3145 3.08119 93.4816L11.9865 97.7871L11.8048 103.982C11.8048 104.746 12.4241 105.366 13.1742 105.366L13.2287 105.365C13.9922 105.343 14.593 104.705 14.5705 103.942L14.3887 97.7279L23.1289 93.502L23.2527 93.436C23.5507 93.2552 23.7338 92.9311 23.7338 92.581Z" fill="#DEDEDE"/>
</svg>
