<svg width="21" height="76" viewBox="0 0 21 76" fill="none" xmlns="http://www.w3.org/2000/svg">
<path d="M10.4824 4V1" stroke="#DEDEDE" stroke-linecap="round"/>
<path d="M10.4824 10V7" stroke="#DEDEDE" stroke-linecap="round"/>
<path d="M10.4824 16V13" stroke="#DEDEDE" stroke-linecap="round"/>
<path d="M10.4824 22V19" stroke="#DEDEDE" stroke-linecap="round"/>
<path d="M10.4824 28V25" stroke="#DEDEDE" stroke-linecap="round"/>
<path d="M10.4824 34V31" stroke="#DEDEDE" stroke-linecap="round"/>
<path d="M10.4824 40V37" stroke="#DEDEDE" stroke-linecap="round"/>
<path d="M10.4824 46V43" stroke="white" stroke-width="2" stroke-linecap="round"/>
<path d="M10.4824 52V49" stroke="#DEDEDE" stroke-linecap="round"/>
<path d="M12.8391 62.4852L18.7139 61.785L18.7875 61.7831C19.6761 61.7831 20.3965 62.5035 20.3965 63.3921C20.3965 64.1949 19.9768 64.9378 19.2621 65.3704L19.1014 65.4568L13.0124 68.4017L13.1282 72.3588C13.1703 73.7925 12.0422 74.9888 10.5976 75.0311L10.5324 75.032C9.098 75.032 7.93521 73.8692 7.93553 72.4129L8.05159 68.4487L1.86337 65.4569C1.07137 65.074 0.568172 64.2718 0.568172 63.3921C0.568172 62.5035 1.28854 61.7831 2.19954 61.7834L2.31748 61.7899L8.22576 62.4968L8.28802 60.3647L7.55234 60.0958C6.78502 59.8153 6.27466 59.0853 6.27466 58.2684C6.27466 57.3924 6.98474 56.6823 7.86103 56.6823L8.6206 56.6827L8.65287 56.5277C8.83866 55.6377 9.62319 55 10.5324 55C11.4417 55 12.2261 55.6381 12.4112 56.5282L12.4434 56.6827L13.2041 56.6824C14.0061 56.6824 14.6789 57.2805 14.7821 58.117L14.7901 58.2684C14.7901 59.0133 14.3649 59.6912 13.663 60.0328L13.5129 60.0957L12.777 60.3653L12.8391 62.4852ZM18.8965 63.3921C18.8965 63.3319 18.8477 63.2831 18.8099 63.2828L11.3878 64.1692L11.246 59.3287L12.9612 58.7013L13.0403 58.6688C13.1926 58.5944 13.2901 58.439 13.2915 58.3149L13.2894 58.2566C13.2842 58.215 13.2474 58.1823 13.2044 58.1823L11.2236 58.1833L10.9426 56.8337C10.9022 56.6393 10.7309 56.5 10.5324 56.5C10.3335 56.5 10.1619 56.6395 10.1213 56.8338L9.84037 58.1833L7.86067 58.1823C7.81317 58.1823 7.77466 58.2209 7.77466 58.2684C7.77466 58.4555 7.89158 58.6228 8.06733 58.687L9.81895 59.3273L9.67721 64.1812L2.20601 63.2843L2.17716 63.2831C2.11697 63.2831 2.06817 63.3319 2.06817 63.3921C2.06817 63.6964 2.24225 63.9739 2.51626 64.1064L9.57938 67.5213L9.43521 72.4348C9.43521 73.0408 9.92643 73.5321 10.5214 73.5321L10.5646 73.5315C11.1701 73.5137 11.6466 73.0084 11.6288 72.4028L11.4846 67.4743L18.4168 64.1226L18.515 64.0702C18.7513 63.9269 18.8965 63.6698 18.8965 63.3921Z" fill="#DEDEDE"/>
</svg>
