<svg width="16" height="15" viewBox="0 0 16 15" fill="none" xmlns="http://www.w3.org/2000/svg">
<path d="M10.5798 10.3377L15.0769 5.91512L15.1341 5.84968C15.3058 5.62058 15.2867 5.28916 15.0768 5.08283L10.5797 0.661651L10.518 0.608643C10.1578 0.339639 9.62757 0.598053 9.62757 1.07782V3.20757L9.40299 3.22268C5.84039 3.50547 3.75344 5.75989 3.25472 9.8501C3.19067 10.3754 3.79318 10.7042 4.18261 10.3564C5.61448 9.07792 7.09382 8.28398 8.62757 7.96573C8.8736 7.91468 9.12103 7.87587 9.36989 7.84926L9.62757 7.82611V9.92161L9.63294 10.0039C9.6929 10.4566 10.242 10.6699 10.5798 10.3377ZM9.4763 4.22L10.6276 4.14256V2.11104L14.0738 5.49905L10.6276 8.88816V6.73223L9.27198 6.85403L9.26358 6.85493C7.56135 7.03692 5.95337 7.71889 4.43674 8.85551C4.73493 7.51744 5.24417 6.51008 5.9132 5.78852C6.74235 4.89426 7.90261 4.34605 9.4763 4.22ZM2.75 1.5C1.36929 1.5 0.25 2.61929 0.25 4V12C0.25 13.3807 1.36929 14.5 2.75 14.5H10.75C12.1307 14.5 13.25 13.3807 13.25 12V11C13.25 10.7239 13.0261 10.5 12.75 10.5C12.4739 10.5 12.25 10.7239 12.25 11V12C12.25 12.8284 11.5784 13.5 10.75 13.5H2.75C1.92157 13.5 1.25 12.8284 1.25 12V4C1.25 3.17157 1.92157 2.5 2.75 2.5H5.75C6.02614 2.5 6.25 2.27614 6.25 2C6.25 1.72386 6.02614 1.5 5.75 1.5H2.75Z" fill="#141414"/>
</svg>
