<svg width="31" height="33" viewBox="0 0 31 33" fill="none" xmlns="http://www.w3.org/2000/svg">
<path d="M11.7647 23.0885V13.6768L9.88232 15.4415" stroke="white" stroke-width="1.5" stroke-linecap="round" stroke-linejoin="round"/>
<path d="M15.5294 22.5005C16.021 22.8697 16.632 23.0885 17.2941 23.0885C18.9185 23.0885 20.2353 21.7717 20.2353 20.1473C20.2353 18.523 18.9185 17.2062 17.2941 17.2062C16.632 17.2062 16.021 17.425 15.5294 17.7942L16.1177 13.6768H20.2353" stroke="white" stroke-width="1.5" stroke-linecap="round" stroke-linejoin="round"/>
<path d="M6.07258 8.42531C0.750424 13.3557 0.459262 21.6387 5.42226 26.9259C10.3853 32.2131 18.723 32.5023 24.0452 27.5719C29.3673 22.6415 29.6585 14.3586 24.6955 9.07137C21.8725 6.064 17.9577 4.67365 14.1271 4.94111M16.0001 1.91211L12.644 5.09115L16.0001 8.50034" stroke="white" stroke-width="2.5" stroke-linecap="round" stroke-linejoin="round"/>
</svg>
