<svg width="31" height="33" viewBox="0 0 31 33" fill="none" xmlns="http://www.w3.org/2000/svg">
<path d="M11.8824 23.0885V13.6768L10 15.4415" stroke="white" stroke-width="1.5" stroke-linecap="round" stroke-linejoin="round"/>
<path d="M15.6471 22.5005C16.1387 22.8697 16.7497 23.0885 17.4118 23.0885C19.0362 23.0885 20.353 21.7717 20.353 20.1473C20.353 18.523 19.0362 17.2062 17.4118 17.2062C16.7497 17.2062 16.1387 17.425 15.6471 17.7942L16.2353 13.6768H20.353" stroke="white" stroke-width="1.5" stroke-linecap="round" stroke-linejoin="round"/>
<path d="M24.1628 8.42531C29.4849 13.3557 29.7761 21.6387 24.8131 26.9259C19.8501 32.2131 11.5123 32.5023 6.19017 27.5719C0.868013 22.6415 0.576852 14.3586 5.53985 9.07137C8.36281 6.064 12.2776 4.67365 16.1083 4.94111M14.2353 1.91211L17.5913 5.09115L14.2353 8.50034" stroke="white" stroke-width="2.5" stroke-linecap="round" stroke-linejoin="round"/>
</svg>
