<svg width="32" height="27" viewBox="0 0 32 27" fill="none" xmlns="http://www.w3.org/2000/svg">
<g id="Black Jet Logo">
<path id="Vector" d="M22.5692 25.6071C21.5152 25.6071 20.3103 25.5989 19.3989 25.5948H18.8657L14.7571 25.5928L17.2226 10.59H24.1875C24.2846 10.5859 25.2642 10.5201 25.6755 10.4296C27.3495 10.0616 28.5957 9.13639 29.0959 7.89044C29.3666 7.21401 29.3584 6.5602 29.3274 6.23124C29.3046 5.96601 29.2612 5.47051 28.9533 4.938C28.9285 4.89277 28.697 4.50213 28.2961 4.167C27.6802 3.65094 26.7626 3.36104 25.5742 3.30347C24.5161 3.25412 23.3174 3.2274 22.0091 3.2274C20.3847 3.2274 17.9398 3.2788 17.1978 3.30552L13.424 25.6092L1.19116 25.5948L1.69337 23.0412L7.57937 23.07L10.8985 3.33225L6.40961 3.30347L6.92628 0.791016H25.1733C25.5536 0.793072 25.9338 0.823912 26.3058 0.883536C26.8494 0.969889 28.4986 1.23306 29.9184 2.5448C30.5385 3.11843 30.9043 3.69822 31.0655 3.99018C31.2804 4.37877 31.6545 5.19295 31.7433 6.28881C31.8239 7.27981 31.6669 8.25641 31.2866 9.11172C30.7265 10.3721 29.6849 11.4021 28.3147 12.0683C28.4697 12.1793 28.6206 12.2965 28.7652 12.4198C29.3935 12.9606 29.8978 13.5938 30.2677 14.3052C30.7183 15.1626 30.9725 16.0981 31.0241 17.085C31.1481 19.3342 30.1726 21.5979 28.3477 23.2921C28.1059 23.5265 25.8718 25.6051 22.5713 25.6051L22.5692 25.6071ZM17.6794 23.0474C18.5536 23.0536 20.6017 23.0638 22.1807 23.0638C24.5615 23.0638 26.3079 21.4992 26.498 21.3203C27.8641 20.0518 28.6267 18.3412 28.5399 16.7457C28.5069 16.1186 28.3498 15.5368 28.077 15.0166C27.8807 14.6383 27.612 14.3011 27.2834 14.0174C26.5208 13.3656 25.4295 13.0202 24.1317 13.0202H19.3596L17.6794 23.0453V23.0474Z" fill="white" stroke="white" stroke-width="0.0448658" stroke-miterlimit="10"/>
</g>
</svg>
