<svg width="38" height="40" viewBox="0 0 38 40" fill="none" xmlns="http://www.w3.org/2000/svg">
<path opacity="0.8" d="M34.5954 21.7419C34.6318 21.9728 34.6692 22.2088 34.7056 22.4408L34.733 22.6146C34.8725 23.5034 34.9928 24.2849 34.9979 24.3694C35.0067 24.5109 34.9656 24.605 34.9475 24.6388C34.8874 24.7509 34.7853 24.8175 34.6743 24.8175H34.5752C34.4303 24.8175 34.3048 24.7047 34.263 24.5368L33.4322 21.2155C33.4028 21.2036 33.3735 21.1917 33.3438 21.1798C33.338 21.1847 33.3322 21.1894 33.3264 21.1943C33.1425 21.3441 32.9501 21.4686 32.7519 21.568L33.4926 26.3422C33.5139 26.4801 33.481 26.6224 33.4046 26.7234C33.3392 26.81 33.2458 26.8595 33.1486 26.8595H33.0246C32.87 26.8595 32.7356 26.7376 32.6901 26.5561L31.5219 21.886C30.7615 21.9741 29.9658 22.0363 29.1373 22.0637C28.6945 22.0784 28.2604 22.0823 27.8349 22.0774L27.214 24.5592C27.1722 24.7269 27.0466 24.8397 26.9018 24.8397H26.8027C26.7112 24.8397 26.6237 24.7933 26.5624 24.7124C26.4926 24.6202 26.4624 24.4905 26.4819 24.3655L26.8412 22.0487C26.72 22.043 26.5996 22.0371 26.48 22.0299L26.3823 22.4204L25.3478 26.5561C25.3023 26.7376 25.1679 26.8595 25.0133 26.8595H24.8893C24.7921 26.8595 24.6988 26.81 24.6333 26.7234C24.5569 26.6224 24.524 26.4799 24.5451 26.3422L25.0279 23.2293L25.2296 21.9291C25.0177 21.9074 24.8083 21.8842 24.6024 21.8586C24.5365 21.8591 24.4525 21.8498 24.3626 21.8095C24.361 21.8088 24.3592 21.808 24.3575 21.8072C24.3473 21.8026 24.3371 21.7974 24.3267 21.792C24.3253 21.7912 24.3237 21.7904 24.3223 21.7896C24.3116 21.7837 24.3007 21.7772 24.29 21.7705C24.287 21.7687 24.284 21.7667 24.2812 21.7648C24.27 21.7576 24.2589 21.7499 24.2477 21.7416C23.7457 21.3627 23.5247 20.0325 23.7735 19.1667C22.6656 19.0709 21.5173 19.0079 20.3389 18.981C20.3289 20.6478 20.3486 22.3016 20.4932 23.6245C20.5979 24.5812 22.2954 25.2783 23.1909 25.7282C24.2032 26.2368 19.0439 26.1374 19.0439 26.1374C19.0439 26.1374 13.8451 26.2412 14.9871 25.7282C15.9186 25.3098 17.5365 24.5453 17.6674 23.6245C17.7948 22.2956 17.8136 20.6436 17.8081 18.9795C16.6076 19.0053 15.4381 19.0689 14.3105 19.1665C14.5593 20.0325 14.3386 21.363 13.8363 21.7416C13.8251 21.7501 13.814 21.7576 13.8029 21.7648C13.7998 21.7669 13.7968 21.7687 13.794 21.7705C13.7831 21.7772 13.7725 21.7837 13.7618 21.7896C13.7604 21.7904 13.7588 21.7912 13.7574 21.792C13.7469 21.7974 13.7367 21.8026 13.7265 21.8072C13.7249 21.808 13.723 21.8088 13.7214 21.8095C13.6316 21.8496 13.5475 21.8591 13.4816 21.8586C13.2757 21.8842 13.0663 21.9074 12.8544 21.9291L13.0561 23.2293L13.5389 26.3419C13.5603 26.4799 13.5273 26.6222 13.451 26.7232C13.3855 26.8097 13.2922 26.8593 13.1949 26.8593H13.071C12.9164 26.8593 12.782 26.7374 12.7365 26.5558L11.6042 22.0296C11.4847 22.0366 11.3642 22.0428 11.2433 22.0484L11.6026 24.3655C11.6219 24.4903 11.5919 24.6199 11.5221 24.7122C11.4608 24.793 11.3733 24.8395 11.2818 24.8395H11.1827C11.0379 24.8395 10.9123 24.7266 10.8705 24.5587L10.3842 22.6146L10.2498 22.0771C9.82434 22.082 9.39028 22.0782 8.94739 22.0634C8.11896 22.0358 7.32326 21.9738 6.56284 21.8857L5.39458 26.5558C5.34932 26.7374 5.21469 26.8593 5.0601 26.8593H4.93615C4.83889 26.8593 4.74558 26.8097 4.68012 26.7232C4.60375 26.6222 4.57079 26.4796 4.59215 26.3419L5.33284 21.5678C5.13461 21.4683 4.94218 21.3438 4.75834 21.194C4.75254 21.1891 4.7465 21.1845 4.7407 21.1796C4.71122 21.1915 4.68174 21.2031 4.6525 21.215L3.82151 24.5368C3.77973 24.7044 3.65415 24.8173 3.50931 24.8173H3.4102C3.29924 24.8173 3.19711 24.7504 3.13699 24.6385C3.11889 24.6047 3.07757 24.5107 3.08662 24.3691C3.09196 24.2842 3.21057 23.5129 3.35147 22.6146L3.3575 22.5761C3.40021 22.3036 3.44501 22.0206 3.48912 21.7419C1.67603 22.6632 0.625 23.7542 0.625 24.919C0.625 28.1874 8.8961 30.8333 19.039 30.8333C29.1819 30.8333 37.4583 28.1874 37.4583 24.919C37.4583 23.7542 36.4073 22.6634 34.5954 21.7419Z" fill="white"/>
<path opacity="0.65" d="M17.6675 23.6242C17.5363 24.545 15.9184 25.3095 14.9872 25.728C13.8452 26.2409 19.0439 26.1371 19.0439 26.1371C19.0439 26.1371 24.203 26.2363 23.191 25.728C22.2952 25.278 20.598 24.5809 20.4933 23.6242C20.3484 22.3013 20.3289 20.6472 20.3389 18.9808C20.3489 17.3078 20.3884 15.6225 20.3607 14.2456H17.8021C17.7724 15.6259 17.8028 17.3086 17.8084 18.9792C17.8139 20.6434 17.7949 22.2956 17.6677 23.6242H17.6675Z" fill="white"/>
<path opacity="0.3" d="M25.2452 14.2454C25.3984 14.2454 25.5237 14.1059 25.5237 13.9354V12.3309C25.5237 12.1605 25.3984 12.021 25.2452 12.021H12.8391C12.6859 12.021 12.5605 12.1605 12.5605 12.3309V13.9354C12.5605 14.1059 12.6859 14.2454 12.8391 14.2454H25.2452Z" fill="white"/>
<path opacity="0.2" d="M26.179 23.2289H25.0273L24.5445 26.3417C24.5231 26.4794 24.5561 26.622 24.6327 26.723C24.6981 26.8095 24.7914 26.8591 24.8887 26.8591H25.0127C25.1672 26.8591 25.3016 26.7372 25.3471 26.5556L26.3817 22.4199L26.1793 23.2291L26.179 23.2289Z" fill="white"/>
<path opacity="0.2" d="M33.4922 26.342L32.7515 21.5679L33.0091 23.2281L32.7738 23.2289H32.7336H32.0985H31.8576L31.5215 21.8853L32.6897 26.5554C32.7352 26.7369 32.8696 26.8589 33.0242 26.8589H33.1482C33.2454 26.8589 33.3387 26.8093 33.4042 26.7227C33.4806 26.6218 33.5135 26.4792 33.4922 26.3415V26.342Z" fill="white"/>
<path opacity="0.2" d="M27.8342 22.077L27.6998 22.6145H26.753L26.8407 22.0483L26.4814 24.3652C26.4619 24.4899 26.4921 24.6196 26.5619 24.712C26.6232 24.7929 26.7107 24.8394 26.8022 24.8394H26.9013C27.0461 24.8394 27.1717 24.7265 27.2135 24.5589L27.8344 22.077H27.8342Z" fill="white"/>
<path d="M34.3339 20.0981L34.3174 19.9966V19.9968L34.3339 20.0981Z" fill="#424242"/>
<path d="M34.6852 22.3114L34.7056 22.4405C34.6692 22.2088 34.6318 21.9725 34.5954 21.7416C34.5253 21.2984 34.4582 20.8758 34.4053 20.5444C34.4731 20.9701 34.5801 21.6442 34.6852 22.3114Z" fill="#424242"/>
<path opacity="0.2" d="M34.9976 24.3689C34.9922 24.2844 34.872 23.5028 34.7327 22.6141H33.782L33.4092 21.124L33.4319 21.2149L34.2627 24.5362C34.3045 24.7041 34.43 24.817 34.5749 24.817H34.674C34.7849 24.817 34.8871 24.7501 34.9472 24.6383C34.9653 24.6044 35.0066 24.5104 34.9976 24.3689Z" fill="white"/>
<path opacity="0.05" d="M32.7515 21.5679C32.6788 21.6043 32.6055 21.6374 32.5314 21.6673C32.3086 21.7569 32.0797 21.8166 31.8485 21.846C31.8177 21.8499 31.7863 21.8535 31.7552 21.8574C31.6775 21.867 31.5999 21.8768 31.5215 21.8858L31.8576 23.2294H32.7738L33.0091 23.2284L32.7515 21.5681V21.5679Z" fill="white"/>
<path opacity="0.05" d="M26.242 22.0147C25.9776 21.9971 25.7174 21.9759 25.4612 21.9519C25.3834 21.9447 25.3061 21.9369 25.2291 21.9292L25.0273 23.2294H26.1791L26.3815 22.4202L26.4792 22.0297C26.3999 22.025 26.3207 22.0199 26.242 22.0147Z" fill="white"/>
<path opacity="0.05" d="M27.5941 22.0729C27.4196 22.0693 27.2462 22.0644 27.0746 22.0579C26.9962 22.0548 26.9184 22.0515 26.8407 22.0479L26.7529 22.614H27.6997L27.8341 22.0765C27.7538 22.0755 27.6737 22.0745 27.5941 22.0729Z" fill="white"/>
<path opacity="0.05" d="M34.7053 22.4405L34.6849 22.3113C34.5798 21.6442 34.4727 20.9701 34.405 20.5444C34.3741 20.3497 34.3511 20.2071 34.3407 20.1407L34.3339 20.0978L34.3177 19.9966C34.2562 20.103 34.1935 20.2032 34.1301 20.2977C33.9584 20.5524 33.7803 20.7647 33.6044 20.9414C33.5661 20.9799 33.528 21.0168 33.49 21.0519C33.4633 21.0767 33.4363 21.1008 33.4092 21.1243L33.782 22.6143H34.733L34.7056 22.4405H34.7053Z" fill="white"/>
<path d="M26.1401 18.1404C25.6803 18.1794 25.2212 18.2391 24.7637 18.3189C25.2151 18.2398 25.6682 18.1812 26.122 18.1422C26.1281 18.1417 26.1341 18.1409 26.1401 18.1401V18.1404Z" fill="#909090"/>
<path d="M26.2309 17.1659C26.2511 16.9536 26.2718 16.7405 26.2929 16.5263C26.3261 16.1883 26.3602 15.8489 26.3969 15.5059C26.3017 16.3993 26.2168 17.278 26.1406 18.1404C26.1689 17.8186 26.2 17.4923 26.2309 17.1661V17.1656V17.1659Z" fill="#909090"/>
<path d="M26.6514 13.2731C26.6603 13.2003 26.6698 13.1282 26.6788 13.0557C26.6696 13.1282 26.6603 13.2003 26.6514 13.2731Z" fill="#909090"/>
<path d="M33.3555 21.1695C33.3722 21.1554 33.3889 21.1416 33.4054 21.127C33.3889 21.1413 33.3722 21.1554 33.3555 21.1695Z" fill="#909090"/>
<path d="M26.9404 11.0585C26.9896 10.749 27.0853 10.461 27.2206 10.2139C27.0853 10.461 26.9894 10.749 26.9404 11.0585Z" fill="#909090"/>
<path opacity="0.6" d="M33.2931 21.1688C33.5788 20.9043 33.8748 20.5492 34.1447 20.0726C34.8819 18.7698 34.975 17.3495 34.9924 16.8818C35.0606 15.8205 35.0966 14.6326 35.0713 13.3396C35.0572 12.6273 35.0258 11.9508 34.9824 11.3139C34.9488 10.8198 34.8025 10.3577 34.5637 10.0096L34.5586 10.0023C34.1045 9.34421 33.5143 9.27447 33.2216 9.28455C33.2197 9.28455 33.2176 9.28455 33.2158 9.28455C33.2791 9.32897 33.3406 9.37882 33.3991 9.43538C33.6921 9.71872 33.8332 10.2092 33.93 10.6873C33.9504 10.7878 33.969 10.889 33.9878 10.99C33.9878 10.9916 33.9883 10.9934 33.9885 10.9949C34.0588 12.0278 34.0546 12.7928 34.0493 13.5073C34.0372 15.0975 34.034 15.5493 33.7561 16.8379C33.6956 17.1186 33.6118 17.3898 33.4966 17.63C33.17 18.3119 32.7617 18.6206 32.3606 18.9238C32.3105 18.9615 32.2555 19.0013 32.1954 19.0423C31.6645 19.4026 31.0865 19.5754 30.5032 19.5997C29.8619 19.6263 25.6478 19.5824 25.1805 19.4564C24.9788 19.4179 24.9268 19.3244 24.9245 19.2177C24.9382 18.7554 25.4704 18.6895 26.0816 18.6164C26.0816 18.6164 26.1099 18.3881 26.1306 18.222C25.9479 18.2391 25.7613 18.2597 25.5707 18.2848C25.3625 18.3122 25.1594 18.3434 24.9614 18.3778L24.7365 18.417C24.6552 18.4312 24.5742 18.4524 24.4967 18.4919C24.3419 18.5712 24.2383 18.6846 24.1692 18.7846C23.6471 19.5406 23.8458 21.3478 24.4451 21.7998C24.4751 21.8223 24.5048 21.8396 24.5343 21.8546C24.4825 21.8491 24.424 21.8362 24.3632 21.8091C24.453 21.8491 24.5371 21.8587 24.603 21.8582C24.8089 21.8837 25.0182 21.907 25.2302 21.9287C25.3072 21.9364 25.3845 21.9442 25.4623 21.9514C25.7186 21.9754 25.9788 21.9966 26.2431 22.0142C26.3218 22.0193 26.401 22.0245 26.4804 22.0292C26.5999 22.0361 26.7204 22.0423 26.8415 22.048C26.9193 22.0516 26.9971 22.055 27.0755 22.0581C27.2471 22.0645 27.4204 22.0694 27.595 22.0731C27.6746 22.0746 27.7547 22.0759 27.835 22.0767C28.2605 22.0816 28.6945 22.0777 29.1374 22.063C29.9659 22.0354 30.7616 21.9734 31.522 21.8853C31.6004 21.8762 31.6782 21.8664 31.7557 21.8569C31.7868 21.853 31.8182 21.8494 31.849 21.8455C32.0802 21.8161 32.3089 21.7564 32.5319 21.6668C32.606 21.6371 32.6793 21.604 32.752 21.5673C32.9502 21.4679 33.1426 21.3434 33.3265 21.1936C33.1691 21.3212 33.0055 21.4299 32.8376 21.5211C32.9946 21.4199 33.1475 21.3039 33.2935 21.1688H33.2931Z" fill="white"/>
<path d="M24.2816 21.7655C24.2701 21.7581 24.2586 21.7502 24.2471 21.7417C24.2586 21.7504 24.2701 21.7581 24.2816 21.7655Z" fill="#909090"/>
<path d="M24.3233 21.7901C24.3123 21.784 24.3011 21.7774 24.29 21.7705C24.3013 21.7774 24.3123 21.784 24.3233 21.7901Z" fill="#909090"/>
<path opacity="0.7" d="M24.2472 21.7411C24.2583 21.7497 24.2695 21.7571 24.2806 21.7644C24.2836 21.7664 24.2866 21.7683 24.2894 21.7701C24.3003 21.7768 24.311 21.7835 24.3217 21.7892C24.3231 21.7899 24.3247 21.7907 24.3261 21.7915C24.3365 21.7969 24.3467 21.8021 24.357 21.8067C24.3586 21.8075 24.3604 21.8083 24.3621 21.8091C24.4231 21.8362 24.4814 21.8491 24.5331 21.8545C24.5037 21.8395 24.4739 21.8222 24.444 21.7998C23.8447 21.3475 23.646 19.5403 24.168 18.7845C24.2372 18.6843 24.3407 18.5712 24.4955 18.4919C24.5728 18.4524 24.6541 18.4309 24.7353 18.417L24.9602 18.3777C25.1582 18.3434 25.3613 18.3121 25.5695 18.2847C25.7601 18.2597 25.9467 18.239 26.1294 18.222C26.1331 18.1923 26.1366 18.1646 26.1394 18.1406C26.1334 18.1414 26.1273 18.1419 26.1213 18.1427C25.6675 18.1817 25.2144 18.2403 24.7629 18.3194L24.538 18.3586C24.467 18.371 24.396 18.3888 24.3275 18.4196C24.3177 18.424 24.308 18.4286 24.2982 18.4335C24.1434 18.5128 24.0399 18.6262 23.9707 18.7262C23.8862 18.8486 23.8205 18.9989 23.7725 19.1663C23.5239 20.0323 23.7446 21.3625 24.2467 21.7411H24.2472Z" fill="white"/>
<path opacity="0.7" d="M33.2155 9.28462C33.2174 9.28462 33.2194 9.28462 33.2213 9.28462C33.514 9.27455 34.1045 9.34428 34.5583 10.0024L34.5634 10.0096C34.802 10.3578 34.9485 10.8196 34.9822 11.314C35.0256 11.9509 35.0569 12.6274 35.0711 13.3397C35.0966 14.6327 35.0604 15.8205 34.9921 16.8818C34.9747 17.3496 34.8817 18.7699 34.1444 20.0727C33.8745 20.5495 33.5785 20.9047 33.2928 21.1689C33.1468 21.304 32.9941 21.4202 32.8369 21.5212C33.0047 21.43 33.1684 21.3213 33.3258 21.1937C33.3316 21.189 33.3374 21.1841 33.3432 21.1792C33.3473 21.1759 33.3513 21.1722 33.3555 21.1689C33.3722 21.1549 33.3889 21.1412 33.4054 21.1268C33.4065 21.1257 33.4077 21.125 33.4089 21.1239C33.436 21.1004 33.4629 21.0764 33.4896 21.0516C33.5277 21.0165 33.5658 20.9796 33.6041 20.9411C33.78 20.7644 33.9581 20.5521 34.1298 20.2974C34.1934 20.2031 34.2561 20.1027 34.3174 19.9963C34.3253 19.9826 34.3332 19.9691 34.341 19.9552C35.0783 18.6524 35.1713 17.2321 35.1887 16.7643C35.257 15.703 35.293 14.5152 35.2677 13.2222C35.2535 12.5098 35.2222 11.8334 35.1788 11.1965C35.1451 10.7024 34.9986 10.2403 34.76 9.89211L34.7549 9.88462C34.3016 9.22702 33.7113 9.15728 33.4186 9.16736C33.2935 9.17175 33.1686 9.17614 33.0437 9.17924C33.1022 9.21049 33.1598 9.24562 33.2155 9.28462Z" fill="white"/>
<path opacity="0.4" d="M26.0809 18.6165C25.4698 18.6896 24.9375 18.7554 24.9238 19.2178C24.9261 19.3244 24.9781 19.4179 25.1799 19.4564C25.6471 19.5825 29.8612 19.6264 30.5026 19.5998C31.0859 19.5755 31.6639 19.4027 32.1947 19.0424C32.2548 19.0016 32.3101 18.9618 32.36 18.9238C32.7611 18.6206 33.1694 18.312 33.496 17.6301C33.6111 17.3899 33.6949 17.1187 33.7555 16.8379C34.0331 15.5493 34.0366 15.0979 34.0487 13.5073C34.054 12.7932 34.0582 12.0281 33.9878 10.995C33.9878 10.9934 33.9874 10.9919 33.9871 10.9901C33.9683 10.8891 33.9498 10.7878 33.9294 10.6874C33.8323 10.209 33.6912 9.71853 33.3985 9.43545C33.34 9.37888 33.2787 9.32903 33.2151 9.28461C33.1594 9.24535 33.1018 9.21048 33.0434 9.17923C33.0434 9.17923 33.0429 9.17897 33.0427 9.17871C32.9637 9.18052 32.885 9.18259 32.8061 9.18259H28.8606C28.8559 9.18259 28.8506 9.18259 28.8452 9.18259C28.6159 9.18568 27.755 9.24277 27.2241 10.2072L27.2206 10.2137C27.0853 10.4608 26.9897 10.7491 26.9405 11.0583C26.9372 11.0789 26.9335 11.0996 26.9305 11.1202C26.8435 11.7543 26.7592 12.4001 26.6782 13.0558C26.6691 13.1284 26.6601 13.2005 26.6513 13.2733C26.6508 13.2777 26.6503 13.2821 26.6496 13.2865C26.5832 13.8304 26.5192 14.3816 26.4574 14.9403C26.4368 15.1281 26.4164 15.3166 26.3962 15.5059C26.3597 15.8492 26.3256 16.1886 26.2922 16.5264C26.271 16.7406 26.2502 16.9536 26.2302 17.1659C26.2302 17.1659 26.2302 17.1659 26.2302 17.1665C26.1993 17.4927 26.1682 17.8189 26.1399 18.1407C26.1369 18.1647 26.1334 18.1924 26.1299 18.2221C26.1093 18.3882 26.0809 18.6165 26.0809 18.6165Z" fill="white"/>
<path opacity="0.2" d="M13.5382 26.3419L13.0554 23.2293H11.9036L11.6035 22.0298L12.7358 26.556C12.7813 26.7376 12.9157 26.8595 13.0703 26.8595H13.1942C13.2915 26.8595 13.3848 26.8099 13.4503 26.7234C13.5266 26.6224 13.5596 26.4798 13.5382 26.3421V26.3419Z" fill="white"/>
<path opacity="0.2" d="M6.56227 21.8856L6.22616 23.2292H5.07438L5.33204 21.5679L4.59134 26.342C4.56999 26.4797 4.60295 26.6223 4.67932 26.7233C4.74477 26.8098 4.83809 26.8594 4.93534 26.8594H5.0593C5.21389 26.8594 5.34852 26.7375 5.39378 26.5559L6.56203 21.8858L6.56227 21.8856Z" fill="white"/>
<path opacity="0.2" d="M11.6022 24.3649L11.2429 22.0479L11.3306 22.614H10.3838L10.8701 24.5581C10.9119 24.726 11.0374 24.8389 11.1823 24.8389H11.2814C11.3728 24.8389 11.4604 24.7924 11.5216 24.7116C11.5915 24.6193 11.6217 24.4897 11.6022 24.3649Z" fill="white"/>
<path d="M3.76631 19.9966L3.74316 20.1384L3.76631 19.9968V19.9966Z" fill="#424242"/>
<path d="M3.39823 22.3114C3.49804 21.6776 3.6004 21.0337 3.66841 20.6055C3.61456 20.9436 3.55189 21.338 3.48806 21.7417C3.44395 22.0204 3.39939 22.3037 3.35645 22.5759L3.39799 22.3114H3.39823Z" fill="#424242"/>
<path opacity="0.2" d="M4.67389 21.1243L4.3011 22.6143H3.35011C3.20922 23.5129 3.0906 24.2842 3.08526 24.3689C3.07621 24.5107 3.11753 24.6044 3.13563 24.6383C3.19575 24.7501 3.29789 24.817 3.40884 24.817H3.50795C3.65279 24.817 3.77837 24.7041 3.82015 24.5365L4.65114 21.2147L4.67389 21.124V21.1243Z" fill="white"/>
<path opacity="0.05" d="M6.32813 21.8574C6.29702 21.8535 6.26569 21.8499 6.23481 21.846C6.00362 21.8166 5.77499 21.7569 5.55192 21.6673C5.47787 21.6376 5.40452 21.6045 5.33187 21.5679L5.07422 23.2292H6.22599L6.5621 21.8856C6.48365 21.8765 6.40589 21.8667 6.32836 21.8572L6.32813 21.8574Z" fill="white"/>
<path opacity="0.05" d="M12.8537 21.929C12.7766 21.9367 12.6993 21.9445 12.6216 21.9517C12.3653 21.9757 12.1051 21.9969 11.8407 22.0145C11.7621 22.0196 11.6829 22.0248 11.6035 22.0294L11.9036 23.2289H13.0554L12.8537 21.9287V21.929Z" fill="white"/>
<path opacity="0.05" d="M11.2425 22.0483C11.1647 22.052 11.087 22.0553 11.0085 22.0584C10.837 22.0649 10.6636 22.0698 10.489 22.0734C10.4094 22.0749 10.3293 22.0762 10.249 22.077L10.3834 22.6145H11.3302L11.2425 22.0483Z" fill="white"/>
<path opacity="0.05" d="M4.59312 21.0519C4.55505 21.0168 4.51698 20.9799 4.47868 20.9414C4.30274 20.7647 4.1247 20.5524 3.95293 20.2977C3.88933 20.2035 3.82666 20.103 3.76538 19.9966L3.74287 20.1381L3.7424 20.1407C3.7308 20.2141 3.70434 20.3799 3.66836 20.6054C3.60011 21.0339 3.49798 21.6775 3.39817 22.3113L3.35662 22.5758L3.35059 22.6143H4.30158L4.67436 21.1243C4.6472 21.1008 4.62028 21.0767 4.59358 21.0519H4.59312Z" fill="white"/>
<path d="M10.8623 10.2139C10.9976 10.461 11.0933 10.7493 11.1425 11.0585C11.0935 10.749 10.9979 10.461 10.8623 10.2139Z" fill="#909090"/>
<path d="M11.4502 13.4268C11.5105 13.9253 11.5693 14.4294 11.6254 14.9403C11.569 14.4297 11.5105 13.9255 11.4502 13.4268Z" fill="#909090"/>
<path d="M11.8525 17.1661C11.8525 17.1661 11.8525 17.1661 11.8525 17.1666C11.8834 17.4928 11.9145 17.819 11.9428 18.1409C11.8666 17.2782 11.7815 16.3998 11.6865 15.5063C11.723 15.8496 11.7571 16.189 11.7905 16.5268C11.8116 16.741 11.8325 16.954 11.8525 17.1664V17.1661Z" fill="#909090"/>
<path d="M13.3198 18.3191C12.8623 18.239 12.4032 18.1796 11.9434 18.1406C11.9494 18.1414 11.9554 18.1419 11.9615 18.1427C12.4153 18.1817 12.8684 18.2403 13.3198 18.3194V18.3191Z" fill="#909090"/>
<path d="M5.03991 9.17948C4.91503 9.17635 4.78992 9.17192 4.66504 9.16748C4.79015 9.17192 4.91503 9.17635 5.03991 9.17948Z" fill="#909090"/>
<path d="M13.795 21.7705C13.7838 21.7774 13.7727 21.7843 13.7617 21.7901C13.7727 21.784 13.784 21.7774 13.795 21.7705Z" fill="#909090"/>
<path d="M13.8372 21.7412C13.8257 21.7499 13.8142 21.7576 13.8027 21.765C13.8142 21.7576 13.8257 21.7497 13.8372 21.7412Z" fill="#909090"/>
<path opacity="0.6" d="M13.6383 21.7998C14.2376 21.3475 14.4363 19.5403 13.9143 18.7846C13.8451 18.6843 13.7416 18.5712 13.5868 18.4919C13.5095 18.4524 13.4282 18.431 13.347 18.417L13.1221 18.3778C12.9241 18.3434 12.721 18.3122 12.5127 18.2848C12.3222 18.2597 12.1355 18.2391 11.9529 18.222C11.9735 18.3881 12.0018 18.6164 12.0018 18.6164C12.613 18.6895 13.1453 18.7554 13.159 19.2177C13.1566 19.3244 13.1046 19.4179 12.9029 19.4564C12.4357 19.5824 8.22156 19.6263 7.58021 19.5997C6.9969 19.5754 6.41892 19.4026 5.88806 19.0423C5.82795 19.0015 5.7727 18.9617 5.7228 18.9238C5.32169 18.6206 4.9134 18.3119 4.5868 17.63C4.47167 17.3898 4.38788 17.1186 4.3273 16.8379C4.04968 15.5493 4.0462 15.0978 4.03413 13.5073C4.02879 12.7931 4.02461 12.0281 4.09494 10.9949C4.09494 10.9934 4.09541 10.9918 4.09564 10.99C4.11444 10.889 4.13301 10.7878 4.15344 10.6873C4.25046 10.209 4.39159 9.71847 4.68429 9.43538C4.74279 9.37882 4.80407 9.32897 4.86767 9.28455C4.86581 9.28455 4.86372 9.28455 4.86187 9.28455C4.56916 9.27447 3.97865 9.34421 3.52486 10.0023L3.51975 10.0096C3.28114 10.3577 3.13467 10.8195 3.10101 11.3139C3.05761 11.9508 3.02627 12.6273 3.01211 13.3396C2.98658 14.6326 3.02279 15.8205 3.09103 16.8818C3.10844 17.3495 3.20152 18.7698 3.93873 20.0726C4.20868 20.5494 4.50463 20.9046 4.79037 21.1688C4.93638 21.3039 5.08911 21.4201 5.24626 21.5211C5.07843 21.4299 4.91479 21.3212 4.75741 21.1936C4.94125 21.3434 5.13368 21.4679 5.33191 21.5673C5.40456 21.6038 5.47791 21.6368 5.55196 21.6668C5.77479 21.7564 6.00366 21.8161 6.23485 21.8455C6.26572 21.8494 6.29706 21.853 6.32816 21.8569C6.40592 21.8664 6.48345 21.8762 6.56191 21.8853C7.32233 21.9734 8.11803 22.0356 8.94646 22.063C9.38935 22.0777 9.82341 22.0816 10.2489 22.0767C10.3292 22.0756 10.4093 22.0746 10.4889 22.0731C10.6634 22.0694 10.8368 22.0645 11.0084 22.0581C11.0868 22.055 11.1646 22.0516 11.2424 22.048C11.3635 22.0423 11.484 22.0364 11.6033 22.0292C11.6827 22.0245 11.7618 22.0193 11.8405 22.0142C12.1049 21.9966 12.3651 21.9754 12.6214 21.9514C12.6991 21.9442 12.7764 21.9364 12.8535 21.9287C13.0654 21.907 13.2748 21.8837 13.4807 21.8582C13.5466 21.8587 13.6306 21.8494 13.7205 21.8091C13.6594 21.8362 13.6011 21.8491 13.5494 21.8546C13.5789 21.8396 13.6086 21.8223 13.6385 21.7998H13.6383Z" fill="white"/>
<path opacity="0.7" d="M12.5137 18.2847C12.7219 18.3121 12.925 18.3434 13.123 18.3777L13.3479 18.417C13.4292 18.4312 13.5102 18.4524 13.5877 18.4919C13.7425 18.5712 13.846 18.6846 13.9152 18.7845C14.4372 19.5405 14.2386 21.3478 13.6392 21.7998C13.6093 21.8222 13.5796 21.8395 13.5501 21.8545C13.6018 21.8491 13.6603 21.8362 13.7212 21.8091C13.7228 21.8083 13.7246 21.8075 13.7263 21.8067C13.7365 21.8021 13.7467 21.7969 13.7571 21.7915C13.7585 21.7907 13.7602 21.7899 13.7615 21.7892C13.7722 21.7832 13.7831 21.7768 13.7938 21.7701C13.7968 21.7683 13.7998 21.7662 13.8026 21.7644C13.8138 21.7571 13.8249 21.7494 13.8361 21.7411C14.3384 21.3622 14.5591 20.0318 14.3103 19.166C14.2622 18.9987 14.1968 18.8486 14.112 18.7262C14.0429 18.6259 13.9393 18.5128 13.7845 18.4335C13.7748 18.4286 13.765 18.424 13.7553 18.4196C13.6868 18.3888 13.6158 18.371 13.5447 18.3586L13.3198 18.3194C12.8684 18.2403 12.4153 18.1817 11.9615 18.1427C11.9554 18.1422 11.9494 18.1414 11.9434 18.1406C11.9464 18.1646 11.9499 18.1923 11.9533 18.222C12.136 18.239 12.3226 18.2597 12.5132 18.2847H12.5137Z" fill="white"/>
<path opacity="0.7" d="M3.95318 20.2979C4.12495 20.5526 4.30298 20.7649 4.47893 20.9416C4.51723 20.98 4.5553 21.017 4.59337 21.0521C4.62006 21.0769 4.64699 21.1009 4.67414 21.1244C4.6753 21.1255 4.67646 21.1262 4.67762 21.1273C4.69411 21.1415 4.71082 21.1554 4.72753 21.1694C4.73171 21.1727 4.73565 21.1763 4.73983 21.1797C4.74564 21.1846 4.75167 21.1895 4.75747 21.1942C4.91485 21.3218 5.07849 21.4305 5.24632 21.5217C5.0894 21.4204 4.93644 21.3045 4.79043 21.1694C4.5047 20.9049 4.20874 20.5497 3.93879 20.0732C3.20158 18.7704 3.1085 17.3501 3.09109 16.8823C3.02285 15.821 2.98687 14.6332 3.01217 13.3402C3.02633 12.6278 3.05767 11.9514 3.10107 11.3145C3.13473 10.8204 3.28097 10.3583 3.51982 10.0101L3.52492 10.0029C3.97895 9.34477 4.56923 9.27503 4.86193 9.28511C4.86378 9.28511 4.86587 9.28511 4.86773 9.28511C4.92344 9.24585 4.981 9.21098 5.0395 9.17973C4.91462 9.17663 4.78951 9.17224 4.66463 9.16785C4.37192 9.15777 3.78141 9.22751 3.32762 9.88562L3.32251 9.89311C3.0839 10.241 2.93743 10.7031 2.90377 11.1975C2.86037 11.8344 2.82903 12.5106 2.81487 13.2232C2.78934 14.5162 2.82532 15.704 2.89379 16.7653C2.9112 17.2331 3.00428 18.6534 3.74149 19.9562C3.74938 19.9701 3.75727 19.9836 3.76517 19.9973C3.82668 20.1037 3.88912 20.2039 3.95272 20.2984L3.95318 20.2979Z" fill="white"/>
<path opacity="0.4" d="M4.86743 9.28484C4.80406 9.32926 4.74255 9.37911 4.68406 9.43568C4.39112 9.71902 4.24999 10.2095 4.1532 10.6876C4.13277 10.7881 4.1142 10.8893 4.0954 10.9903C4.0954 10.9919 4.09494 10.9937 4.09471 10.9952C4.02437 12.0281 4.02855 12.7931 4.03389 13.5076C4.04596 15.0978 4.04921 15.5496 4.32706 16.8382C4.38764 17.1189 4.47144 17.3901 4.58657 17.6303C4.91316 18.3122 5.32146 18.6208 5.72256 18.9241C5.77269 18.9618 5.82771 19.0016 5.88783 19.0426C6.41868 19.4029 6.99666 19.5757 7.57997 19.6C8.22132 19.6266 12.4354 19.5827 12.9027 19.4567C13.1044 19.4182 13.1564 19.3247 13.1587 19.218C13.145 18.7557 12.6128 18.6898 12.0016 18.6167C12.0016 18.6167 11.9733 18.3884 11.9526 18.2223C11.9489 18.1926 11.9454 18.165 11.9426 18.141C11.9143 17.8191 11.8832 17.4929 11.8524 17.1667V17.1662C11.8322 16.9539 11.8115 16.7408 11.7904 16.5267C11.7572 16.1886 11.7231 15.8492 11.6864 15.5062C11.6662 15.3169 11.6458 15.1283 11.6251 14.9405C11.5687 14.4299 11.5102 13.9257 11.4499 13.427C11.4436 13.3758 11.4376 13.3242 11.4313 13.2733C11.4243 13.217 11.4174 13.1615 11.4104 13.1054C11.3275 12.4326 11.2412 11.7706 11.1518 11.1207C11.149 11.0998 11.1453 11.0794 11.1418 11.0587C11.0926 10.7493 10.997 10.4613 10.8617 10.2142L10.8582 10.2077C10.3276 9.243 9.46664 9.18617 9.2373 9.18307C9.23196 9.18307 9.22662 9.18307 9.22198 9.18307H5.27642C5.1975 9.18307 5.11858 9.18127 5.0399 9.1792C5.03966 9.1792 5.03943 9.17946 5.0392 9.17972C4.9807 9.21097 4.92314 9.2461 4.86743 9.2851V9.28484Z" fill="white"/>
</svg>
