<svg width="28" height="28" viewBox="0 0 28 28" fill="none" xmlns="http://www.w3.org/2000/svg">
<path d="M17.989 2.15995C17.5137 1.63299 16.694 1.61198 16.1923 2.11388L2.11294 16.1992C1.61549 16.6969 1.63128 17.5085 2.14771 17.9864L3.75199 19.471C3.7955 19.5113 3.87288 19.5535 4.02354 19.5598C4.1806 19.5664 4.37735 19.5299 4.57657 19.4489C5.00691 19.2739 5.47683 19.178 5.96699 19.178C8.00724 19.178 9.66119 20.8327 9.66119 22.8738C9.66119 23.2626 9.60089 23.639 9.4885 23.9931C9.42328 24.1986 9.40224 24.3981 9.42106 24.5545C9.43911 24.7046 9.48721 24.7785 9.53069 24.8188L10.7202 25.9196C11.2058 26.3689 11.9585 26.3577 12.4304 25.894L25.8791 12.6799C26.353 12.2143 26.3758 11.4577 25.9308 10.9644L24.6766 9.5739C24.6379 9.53102 24.567 9.4832 24.4233 9.46185C24.2734 9.43958 24.0809 9.45373 23.8793 9.51017C23.5612 9.59918 23.2267 9.64649 22.8825 9.64649C20.8423 9.64649 19.1883 7.99179 19.1883 5.95062C19.1883 5.47302 19.2793 5.01458 19.4457 4.59319C19.5224 4.39887 19.5562 4.20924 19.5494 4.05819C19.5428 3.91339 19.5026 3.83797 19.4639 3.79506L17.989 2.15995ZM14.955 0.87594C16.165 -0.334526 18.1417 -0.283836 19.2881 0.987057L20.763 2.62216C21.5034 3.44294 21.3445 4.54937 21.0732 5.2364C20.9864 5.45635 20.9382 5.6968 20.9382 5.95062C20.9382 7.02492 21.8087 7.89581 22.8825 7.89581C23.0658 7.89581 23.2418 7.87068 23.4079 7.8242C24.1181 7.62546 25.235 7.57992 25.9757 8.40101L27.2299 9.79146C28.3031 10.9813 28.2482 12.806 27.1053 13.9289L13.6565 27.143C12.5184 28.2613 10.7031 28.2885 9.53198 27.2048L8.34244 26.1039C7.50932 25.333 7.59287 24.1812 7.82065 23.4634C7.87932 23.2785 7.91131 23.0808 7.91131 22.8738C7.91131 21.7995 7.04081 20.9286 5.96699 20.9286C5.70656 20.9286 5.46014 20.9794 5.23549 21.0708C4.53746 21.3546 3.39659 21.527 2.56375 20.7562L0.959471 19.2716C-0.286044 18.119 -0.324129 16.1615 0.875609 14.9613L14.955 0.87594Z" fill="white"/>
</svg>
