<svg width="21" height="15" viewBox="0 0 21 15" fill="none" xmlns="http://www.w3.org/2000/svg">
<g clip-path="url(#clip0_10437_43982)">
<path d="M0.752812 13.0007H19.2528C19.667 13.0007 20.0028 13.3365 20.0028 13.7507C20.0028 14.1304 19.7207 14.4442 19.3546 14.4938L19.2528 14.5007H0.752812C0.338599 14.5007 0.00281239 14.1649 0.00281239 13.7507C0.00281239 13.371 0.284966 13.0572 0.651042 13.0075L0.752812 13.0007H19.2528H0.752812ZM0.752812 6.50367H19.2528C19.667 6.50367 20.0028 6.83946 20.0028 7.25367C20.0028 7.63337 19.7207 7.94716 19.3546 7.99683L19.2528 8.00367H0.752812C0.338599 8.00367 0.00281239 7.66789 0.00281239 7.25367C0.00281239 6.87398 0.284966 6.56018 0.651042 6.51052L0.752812 6.50367H19.2528H0.752812ZM0.751953 0.00390625H19.252C19.6662 0.00390625 20.002 0.339693 20.002 0.753906C20.002 1.1336 19.7198 1.4474 19.3537 1.49706L19.252 1.50391H0.751953C0.33774 1.50391 0.00195312 1.16812 0.00195312 0.753906C0.00195312 0.37421 0.284107 0.0604151 0.650183 0.0107527L0.751953 0.00390625H19.252H0.751953Z" fill="white"/>
</g>
<defs>
<clipPath id="clip0_10437_43982">
<rect width="21" height="15" fill="white"/>
</clipPath>
</defs>
</svg>
