<svg width="48" height="48" viewBox="0 0 48 48" fill="none" xmlns="http://www.w3.org/2000/svg">
<circle cx="24" cy="24" r="24" fill="black" fill-opacity="0.1"/>
<g opacity="0.65" clip-path="url(#clip0_242_1896)">
<path d="M32.2929 14.2929C32.6834 13.9024 33.3166 13.9024 33.7071 14.2929C34.0976 14.6834 34.0976 15.3166 33.7071 15.7071L25.4142 24L33.7071 32.2929C34.0976 32.6834 34.0976 33.3166 33.7071 33.7071C33.3166 34.0976 32.6834 34.0976 32.2929 33.7071L24 25.4142L15.7071 33.7071C15.3166 34.0976 14.6834 34.0976 14.2929 33.7071C13.9024 33.3166 13.9024 32.6834 14.2929 32.2929L22.5858 24L14.2929 15.7071C13.9024 15.3166 13.9024 14.6834 14.2929 14.2929C14.6834 13.9024 15.3166 13.9024 15.7071 14.2929L24 22.5858L32.2929 14.2929Z" fill="white"/>
</g>
<defs>
<clipPath id="clip0_242_1896">
<rect width="16" height="16" fill="white" transform="translate(16 16)"/>
</clipPath>
</defs>
</svg>
