<svg width="36" height="36" viewBox="0 0 36 36" fill="none" xmlns="http://www.w3.org/2000/svg">
<circle cx="18" cy="18" r="18" fill="black" fill-opacity="0.1"/>
<g opacity="0.65" clip-path="url(#clip0_242_1894)">
<path d="M12.3971 12.5538L12.4697 12.4697C12.7359 12.2034 13.1526 12.1792 13.4462 12.3971L13.5303 12.4697L18 16.939L22.4697 12.4697C22.7626 12.1768 23.2374 12.1768 23.5303 12.4697C23.8232 12.7626 23.8232 13.2374 23.5303 13.5303L19.061 18L23.5303 22.4697C23.7966 22.7359 23.8208 23.1526 23.6029 23.4462L23.5303 23.5303C23.2641 23.7966 22.8474 23.8208 22.5538 23.6029L22.4697 23.5303L18 19.061L13.5303 23.5303C13.2374 23.8232 12.7626 23.8232 12.4697 23.5303C12.1768 23.2374 12.1768 22.7626 12.4697 22.4697L16.939 18L12.4697 13.5303C12.2034 13.2641 12.1792 12.8474 12.3971 12.5538L12.4697 12.4697L12.3971 12.5538Z" fill="white"/>
</g>
<defs>
<clipPath id="clip0_242_1894">
<rect width="12" height="12" fill="white" transform="translate(12 12)"/>
</clipPath>
</defs>
</svg>
