<svg width="17" height="16" viewBox="0 0 17 16" fill="none" xmlns="http://www.w3.org/2000/svg">
<g clip-path="url(#clip0_2815_13084)">
<path d="M17.2817 -1.53033C17.5746 -1.82322 18.0494 -1.82322 18.3423 -1.53033C18.6352 -1.23744 18.6352 -0.762563 18.3423 -0.46967L9.87267 8L18.3423 16.4697C18.6352 16.7626 18.6352 17.2374 18.3423 17.5303C18.0494 17.8232 17.5746 17.8232 17.2817 17.5303L8.81201 9.06066L0.342342 17.5303C0.049448 17.8232 -0.425425 17.8232 -0.718319 17.5303C-1.01121 17.2374 -1.01121 16.7626 -0.718319 16.4697L7.75135 8L-0.718318 -0.46967C-1.01121 -0.762563 -1.01121 -1.23744 -0.718318 -1.53033C-0.425425 -1.82322 0.0494486 -1.82322 0.342342 -1.53033L8.81201 6.93934L17.2817 -1.53033Z" fill="white"/>
</g>
<defs>
<clipPath id="clip0_2815_13084">
<rect width="16" height="16" fill="white" transform="translate(0.812012)"/>
</clipPath>
</defs>
</svg>
