<svg width="72" height="72" viewBox="0 0 72 72" fill="none" xmlns="http://www.w3.org/2000/svg">
<circle cx="36" cy="36" r="36" fill="black" fill-opacity="0.1"/>
<g opacity="0.65">
<path d="M46.1133 24.1161C46.6015 23.628 47.3929 23.628 47.8811 24.1161C48.3693 24.6043 48.3693 25.3957 47.8811 25.8839L37.7664 35.9985L47.8812 46.1133C48.3694 46.6015 48.3694 47.3929 47.8812 47.8811C47.3931 48.3693 46.6016 48.3693 46.1135 47.8811L35.9987 37.7663L25.8839 47.8811C25.3957 48.3693 24.6043 48.3693 24.1161 47.8811C23.628 47.3929 23.628 46.6015 24.1161 46.1133L34.2309 35.9985L24.1163 25.8839C23.6281 25.3957 23.6281 24.6043 24.1163 24.1161C24.6044 23.628 25.3959 23.628 25.884 24.1161L35.9987 34.2308L46.1133 24.1161Z" fill="white"/>
</g>
</svg>
