<svg width="48" height="48" viewBox="0 0 48 48" fill="none" xmlns="http://www.w3.org/2000/svg">
<circle cx="24" cy="24" r="24" fill="white" fill-opacity="0.05"/>
<circle cx="24" cy="24" r="23.5" stroke="white" stroke-opacity="0.25"/>
<path d="M22.8437 35C23.7227 35 24.3672 34.3438 24.3672 33.4766V15.582C24.3672 14.7031 23.7227 14 22.8203 14C22.2227 14 21.8008 14.2578 21.1562 14.8672L16.2578 19.4492C16.1875 19.5195 16.0937 19.5547 15.9883 19.5547H12.6719C10.9375 19.5547 10 20.5156 10 22.332V26.6914C10 28.5078 10.9375 29.4688 12.6719 29.4688H15.9883C16.0937 29.4688 16.1758 29.5039 16.2578 29.5742L21.1562 34.1914C21.7422 34.7539 22.2344 35 22.8437 35ZM33.2617 32.8555C33.8008 33.1836 34.457 33.0664 34.832 32.5156C36.3555 30.3594 37.2461 27.4648 37.2461 24.4883C37.2461 21.5117 36.3672 18.6055 34.832 16.4609C34.457 15.9102 33.8008 15.7812 33.2617 16.1211C32.6992 16.4727 32.6172 17.1758 33.0391 17.7969C34.2812 19.625 34.9961 22.0039 34.9961 24.4883C34.9961 26.9609 34.2695 29.3398 33.0391 31.1797C32.6289 31.8008 32.6992 32.4922 33.2617 32.8555ZM28.5508 29.7148C29.0547 30.043 29.7109 29.9258 30.0742 29.4102C31.0234 28.1445 31.5859 26.3516 31.5859 24.4883C31.5859 22.625 31.0234 20.8438 30.0742 19.5664C29.7109 19.0508 29.0547 18.9336 28.5508 19.2734C27.9766 19.6484 27.8594 20.3398 28.3281 21.0195C28.9727 21.9453 29.3359 23.1875 29.3359 24.4883C29.3359 25.7891 28.9609 27.0195 28.3281 27.957C27.8711 28.6367 27.9766 29.3281 28.5508 29.7148Z" fill="white"/>
</svg>
