<svg width="281" height="188" viewBox="0 0 281 188" fill="none" xmlns="http://www.w3.org/2000/svg">
<path d="M200.406 62.7494C198.83 62.7494 197.658 61.2766 198.026 59.7416C199.379 54.0527 204.498 49.821 210.602 49.821C211.463 49.821 212.308 49.9039 213.122 50.0647C216.503 50.7337 219.988 49.8261 222.612 47.5962C225.164 45.4285 228.472 44.1164 232.087 44.1164C238.238 44.1164 243.501 47.9073 245.669 53.2851C246.374 55.038 248.101 56.1426 249.989 56.0959C250.041 56.0959 250.098 56.0959 250.15 56.0959C252.395 56.0959 254.376 57.2057 255.584 58.9067C256.725 60.5195 255.553 62.7494 253.577 62.7494H200.406Z" fill="#EAEAEA"/>
<path d="M241.997 18.4724C241.997 18.4724 241.997 18.4879 241.997 18.4983C241.997 19.8466 240.893 20.9305 239.544 20.9305H191.751C189.957 20.9305 188.764 19.0687 189.526 17.4455C191.066 14.1525 194.406 11.8499 198.254 11.8188C198.752 11.8188 199.239 11.8448 199.716 11.9174C203.041 12.3893 206.323 10.9424 208.201 8.16275C211.509 3.25169 217.105 0.0208622 223.463 0.000118514C233.664 -0.0361829 241.997 8.27166 241.997 18.4724Z" fill="#EAEAEA"/>
<path d="M90.8793 39.0239C89.3027 39.0239 88.1307 37.5511 88.4989 36.0161C89.8524 30.3271 94.9709 26.0954 101.075 26.0954C101.936 26.0954 102.781 26.1784 103.595 26.3391C106.976 27.0081 110.461 26.1006 113.085 23.8706C115.637 21.7029 118.945 20.3909 122.56 20.3909C128.711 20.3909 133.974 24.1818 136.142 29.5596C136.847 31.3124 138.574 32.417 140.462 32.3704C140.514 32.3704 140.571 32.3704 140.623 32.3704C142.868 32.3704 144.849 33.4801 146.057 35.1811C147.198 36.7939 146.026 39.0239 144.05 39.0239H90.8793Z" fill="#EAEAEA"/>
<path d="M60.0545 22.787C60.0545 22.8182 60.0545 22.8441 60.0545 22.8752C60.0078 24.5191 58.6595 25.8208 57.0156 25.8208H19.0961C17.4522 25.8208 16.1038 24.5088 16.0572 22.8648C16.0572 22.8233 16.0572 22.787 16.0572 22.7456C16.0053 18.1456 19.7392 14.3599 24.3391 14.3651C25.2103 14.3651 26.0504 14.4999 26.8387 14.7489C28.6745 15.3297 30.6815 14.9304 32.1076 13.6339C34.2701 11.6684 37.1431 10.4653 40.3013 10.4653C43.4596 10.4653 46.2029 11.6114 48.3499 13.4991C49.5115 14.5207 51.0103 15.0548 52.5557 15.0704C52.6231 15.0704 52.6853 15.0704 52.7527 15.0704C56.8652 15.2104 60.1375 18.6694 60.0597 22.7819L60.0545 22.787Z" fill="#EAEAEA"/>
<path d="M135.016 155.521C135.079 155.475 139.124 153.831 142.51 153.343C145.896 152.856 146.975 153.219 147.53 153.297C148.085 153.374 149.138 153.66 148.961 152.877C148.78 152.094 147.001 151.57 146.519 151.471C146.042 151.373 135.934 151.29 134.913 151.699C133.896 152.109 135.016 155.516 135.016 155.516V155.521Z" fill="#A0A0A0"/>
<path d="M219.796 88.4971C219.718 88.4971 215.471 87.5014 212.427 85.9352C209.383 84.3691 208.714 83.4512 208.304 83.0674C207.895 82.6837 207.205 81.8384 206.899 82.58C206.593 83.3215 207.744 84.7788 208.076 85.1418C208.408 85.5048 216.607 91.4116 217.675 91.6709C218.743 91.9302 219.801 88.4971 219.801 88.4971H219.796Z" fill="#A0A0A0"/>
<path d="M195.282 132.984C203.103 129.224 204.788 148.464 205.094 153.505C207.49 150.513 209.984 147.204 212.562 143.595C212.499 143.553 212.442 143.496 212.38 143.429C211.374 142.303 195.23 123.541 203.559 120.092C211.374 116.856 213.531 138.16 214.024 141.531C214.911 140.26 215.808 138.958 216.716 137.62C218.214 135.406 219.64 133.238 220.973 131.18C218.982 127.083 210.617 108.875 218.629 107.485C226.035 106.204 224.142 121.943 223.219 127.664C225.008 124.827 226.553 122.291 227.782 120.242C228.851 118.459 229.338 116.389 229.172 114.315C228.503 106.028 228.55 90.3975 238.709 92.0466C250.071 93.8876 236.562 111.229 231.501 117.229C231.231 117.551 230.987 117.898 230.769 118.261C229.514 120.398 227.528 123.727 225.034 127.705C228.451 124.536 238.248 116.535 242.78 124.215C247.888 132.86 225.952 131.947 222.467 131.75C221.082 133.897 219.594 136.163 218.022 138.487C217.805 138.808 217.592 139.124 217.374 139.441C221.129 137.838 233.528 133.109 234.913 139.907C236.495 147.65 217.457 146.68 213.874 144.466C211.343 148.018 208.89 151.285 206.525 154.247C209.3 154.278 226.813 154.822 224.629 163.991C222.487 172.988 207.785 158.924 204.985 156.145C204.788 156.383 204.591 156.622 204.399 156.855C199.068 163.265 194.245 168.005 190.065 170.94L189.168 169.659C193.12 166.885 197.72 162.378 202.802 156.321C200.966 154.148 186.886 137.034 195.298 132.989L195.282 132.984Z" fill="#E6E6E6"/>
<path d="M259.541 124.42L259.209 123.534C258.877 123.658 252.742 125.971 248.666 127.864C249.75 126.879 251.062 125.789 252.249 125.079C254.562 123.694 256.772 121.371 257.881 120.111L257.928 120.054L257.223 119.426L257.171 119.483C256.097 120.702 253.966 122.948 251.762 124.265C250.351 125.11 248.816 126.422 247.639 127.516C250.035 122.854 254.09 116.102 254.137 116.024L253.328 115.537C253.121 115.879 248.863 122.979 246.519 127.63C246.783 124.638 247.624 119.115 248.251 115.412L247.318 115.257C247.022 117.015 245.777 124.488 245.539 128.102C245.051 127.159 244.533 125.8 244.486 124.27C244.393 121.164 242.956 113.022 242.899 112.674L241.966 112.84C241.981 112.923 243.449 121.257 243.542 124.301C243.61 126.557 244.574 128.429 245.181 129.389C245.347 129.653 245.347 129.99 245.181 130.26C244.191 131.867 241.561 135.99 237.879 140.751C233.533 146.367 226.797 154.042 219.36 158.715L219.863 159.519C227.419 154.774 234.239 147.005 238.631 141.321C242.427 136.41 245.119 132.168 246.057 130.633C246.275 130.275 246.581 129.985 246.949 129.783C250.377 127.885 259.442 124.467 259.541 124.431V124.42Z" fill="#E6E6E6"/>
<path d="M261.444 125.535C262.767 125.535 263.84 124.463 263.84 123.139C263.84 121.816 262.767 120.744 261.444 120.744C260.121 120.744 259.048 121.816 259.048 123.139C259.048 124.463 260.121 125.535 261.444 125.535Z" fill="#A9A9A9"/>
<path d="M259.022 120.51C260.345 120.51 261.418 119.438 261.418 118.114C261.418 116.791 260.345 115.718 259.022 115.718C257.699 115.718 256.626 116.791 256.626 118.114C256.626 119.438 257.699 120.51 259.022 120.51Z" fill="#A9A9A9"/>
<path d="M254.931 116.367C256.254 116.367 257.326 115.294 257.326 113.971C257.326 112.648 256.254 111.575 254.931 111.575C253.607 111.575 252.535 112.648 252.535 113.971C252.535 115.294 253.607 116.367 254.931 116.367Z" fill="#A9A9A9"/>
<path d="M248.142 115.464C249.465 115.464 250.538 114.392 250.538 113.068C250.538 111.745 249.465 110.673 248.142 110.673C246.819 110.673 245.746 111.745 245.746 113.068C245.746 114.392 246.819 115.464 248.142 115.464Z" fill="#A9A9A9"/>
<path d="M244.696 111.241C245.016 109.957 244.234 108.657 242.95 108.337C241.666 108.017 240.366 108.799 240.047 110.083C239.727 111.367 240.509 112.667 241.793 112.987C243.077 113.307 244.377 112.525 244.696 111.241Z" fill="#A9A9A9"/>
<path d="M224.203 178.912C224.203 178.912 217.846 170.091 225.547 157.438C227.289 154.31 228.337 163.541 228.337 163.541C228.337 163.541 231.116 144.291 234.938 144.037C237.049 143.809 236.1 151.775 236.1 151.775C236.1 151.775 243.848 131.498 246.71 131.695C249.573 131.892 246.861 138.716 246.861 138.716C246.861 138.716 255.646 125.399 261.501 127.567C265.027 128.848 251.45 144.136 251.45 144.136C251.45 144.136 258.109 139.111 261.807 141.335C265.509 143.565 244.6 158.542 244.6 158.542C244.6 158.542 252.933 155.311 254.111 158.309C255.288 161.306 240.601 167.581 240.601 167.581C240.601 167.581 249.589 165.953 249.64 169.064C249.692 172.176 231.08 180.199 224.193 178.902L224.203 178.912Z" fill="#E6E6E6"/>
<path d="M259.851 127.987C256.543 132.001 253.312 136.066 250.128 140.168L248.94 141.714C248.546 142.227 248.142 142.736 247.753 143.254L245.404 146.36L243.08 149.482C242.297 150.52 241.545 151.572 240.783 152.625C240.021 153.673 239.248 154.715 238.506 155.783L236.25 158.957L234.036 162.157L232.931 163.759L231.848 165.377L229.675 168.608L227.554 171.875C227.196 172.42 226.838 172.959 226.485 173.504C226.143 174.053 225.801 174.603 225.448 175.153L224.406 176.802C224.053 177.346 223.706 177.896 223.353 178.441C223.659 177.865 223.965 177.294 224.276 176.719L225.21 175.007C225.521 174.437 225.837 173.867 226.148 173.296C226.47 172.731 226.802 172.171 227.128 171.611L229.115 168.25C229.446 167.69 229.799 167.146 230.147 166.591L232.221 163.282C232.574 162.738 232.937 162.198 233.3 161.654L235.462 158.402C236.945 156.266 238.418 154.119 239.964 152.023C241.483 149.913 243.065 147.844 244.646 145.774L247.058 142.704C247.867 141.688 248.691 140.682 249.516 139.671C249.926 139.162 250.346 138.67 250.766 138.172C251.181 137.674 251.601 137.171 252.021 136.678C252.441 136.181 252.871 135.693 253.297 135.2C253.722 134.708 254.147 134.215 254.577 133.728C256.304 131.783 258.047 129.849 259.872 127.992L259.851 127.987Z" fill="#E1E1E1"/>
<path d="M218.769 64.8227C218.764 63.3862 218.639 61.9445 218.401 60.5288C219.817 60.171 221.222 59.7976 222.633 59.3983C222.332 57.7595 221.896 56.1467 221.331 54.5754C220.755 53.0092 220.055 51.4949 219.231 50.0481C217.898 50.6496 216.576 51.2667 215.263 51.8994C214.532 50.66 213.703 49.4776 212.779 48.373C211.856 47.2684 210.835 46.2468 209.74 45.3185C210.596 44.1361 211.431 42.9382 212.256 41.7298C210.97 40.6719 209.6 39.7229 208.159 38.888C207.796 38.6805 207.438 38.4679 207.065 38.2864L206.51 38.0012C206.323 37.9078 206.141 37.8093 205.95 37.7263C205.571 37.5552 205.192 37.3789 204.809 37.2129L203.647 36.7514C203.331 37.41 203.014 38.0634 202.708 38.7272C202.397 39.391 202.096 40.0548 201.796 40.7186L200.774 40.3711L199.737 40.0755C199.566 40.0237 199.389 39.9874 199.213 39.9459L198.689 39.8266C198.342 39.7384 197.984 39.6866 197.631 39.6192L197.097 39.5258L196.029 39.391C195.941 39.3806 195.853 39.3651 195.759 39.3599L195.49 39.3391C195.132 39.3132 194.774 39.2821 194.411 39.2613L193.332 39.2354C193.28 38.5094 193.218 37.7782 193.156 37.0521C193.094 36.3261 193.021 35.6001 192.948 34.8741L191.704 34.9052C191.289 34.9311 190.874 34.9622 190.459 34.9933L190.148 35.0193C190.044 35.0296 189.941 35.0452 189.837 35.0556L189.22 35.1334C189.012 35.1593 188.805 35.1852 188.603 35.2163L187.986 35.3252C186.347 35.6105 184.724 36.0253 183.157 36.5906C183.515 38.0063 183.889 39.4117 184.288 40.8171L183.282 41.2112C182.95 41.3513 182.623 41.5068 182.297 41.6521C182.214 41.6884 182.131 41.7247 182.053 41.7661L181.814 41.8906L181.332 42.1343L180.974 42.321L180.855 42.3884L180.388 42.6581C179.144 43.379 177.956 44.2035 176.846 45.1214C175.83 44.0791 174.798 43.0471 173.75 42.0306C171.214 44.1828 169.057 46.7706 167.361 49.6384C168.544 50.494 169.741 51.3342 170.945 52.1535C170.229 53.4033 169.622 54.7154 169.124 56.0637C168.632 57.4172 168.263 58.8123 168.004 60.2332C166.552 60.088 165.1 59.9635 163.643 59.8598C163.373 61.5037 163.233 63.1632 163.228 64.8227C163.238 66.4822 163.373 68.1417 163.643 69.7857C165.1 69.6819 166.557 69.5575 168.004 69.4123C168.263 70.828 168.632 72.223 169.124 73.5817C169.622 74.9353 170.229 76.2421 170.945 77.4919C169.741 78.3113 168.544 79.1514 167.361 80.0071C169.057 82.8697 171.209 85.4627 173.75 87.6148C174.798 86.5984 175.83 85.5664 176.846 84.524C177.956 85.4419 179.144 86.2665 180.388 86.9873L180.855 87.257L180.974 87.3244L181.332 87.5111L181.814 87.7549L182.053 87.8793C182.136 87.9208 182.219 87.9571 182.297 87.9934C182.623 88.1386 182.95 88.2942 183.282 88.4342L184.288 88.8283C183.889 90.2389 183.515 91.6391 183.157 93.0549C184.724 93.6201 186.347 94.035 187.986 94.3202L188.603 94.4291C188.81 94.4602 189.018 94.4862 189.22 94.5121L189.837 94.5899C189.941 94.6003 190.044 94.6158 190.148 94.6262L190.459 94.6521C190.874 94.6833 191.289 94.7195 191.704 94.7403L192.948 94.7714C193.021 94.0454 193.088 93.3193 193.156 92.5933C193.218 91.8673 193.28 91.1361 193.332 90.41L194.411 90.3841C194.769 90.3634 195.127 90.3323 195.49 90.3063L195.759 90.2856C195.847 90.2804 195.936 90.2648 196.029 90.2545L197.097 90.1196L197.631 90.0263C197.984 89.9589 198.342 89.907 198.689 89.8189L199.213 89.6996C199.389 89.6581 199.566 89.6218 199.737 89.5699L200.774 89.2743L201.796 88.9269C202.096 89.5907 202.402 90.2545 202.708 90.9183C203.02 91.5821 203.331 92.2355 203.647 92.8941L204.809 92.4326C205.192 92.2666 205.571 92.0903 205.95 91.9192C206.141 91.8362 206.323 91.7376 206.51 91.6443L207.065 91.3591C207.438 91.1724 207.796 90.9649 208.159 90.7575C209.6 89.9226 210.97 88.9735 212.256 87.9156C211.431 86.7073 210.596 85.5094 209.74 84.327C210.84 83.3987 211.862 82.3771 212.779 81.2725C213.703 80.1679 214.537 78.9907 215.263 77.746C216.576 78.3787 217.898 78.9958 219.231 79.5974C220.05 78.1505 220.755 76.6311 221.331 75.0701C221.901 73.504 222.332 71.886 222.633 70.2472C221.227 69.8531 219.817 69.4745 218.401 69.1167C218.639 67.6957 218.759 66.2592 218.769 64.8227ZM207.075 77.0096L206.945 77.1652C206.904 77.2171 206.857 77.2689 206.81 77.3156C206.624 77.5075 206.437 77.7046 206.256 77.9016C206.058 78.0883 205.867 78.2698 205.67 78.4565C205.623 78.5032 205.571 78.5499 205.519 78.5913L205.364 78.721L205.058 78.9855C204.233 79.6752 203.346 80.2975 202.418 80.8368C201.49 81.3762 200.51 81.8325 199.503 82.2059C198.492 82.5741 197.455 82.8438 196.397 83.0305C195.339 83.2172 194.26 83.3105 193.182 83.3157C192.098 83.3105 191.024 83.2172 189.967 83.0305C188.909 82.8438 187.866 82.5741 186.86 82.2059C185.854 81.8377 184.879 81.3762 183.946 80.8368C183.017 80.2975 182.131 79.6804 181.306 78.9855L181 78.721L180.845 78.5913C180.793 78.5499 180.741 78.5032 180.694 78.4565C180.502 78.2698 180.305 78.0831 180.108 77.9016C179.921 77.7046 179.74 77.5127 179.553 77.3156C179.507 77.2689 179.46 77.2171 179.418 77.1652L179.289 77.0096L179.024 76.7037C177.64 75.0494 176.551 73.1617 175.809 71.1495C175.078 69.1322 174.715 66.9904 174.699 64.8227C174.71 62.6602 175.078 60.5184 175.809 58.4959C176.551 56.4838 177.64 54.5961 179.024 52.9418L179.289 52.6358L179.418 52.4802C179.46 52.4284 179.507 52.3765 179.553 52.3299C179.74 52.138 179.927 51.9409 180.108 51.7438C180.305 51.5572 180.497 51.3756 180.694 51.189C180.741 51.1423 180.793 51.0956 180.845 51.0541L181 50.9245L181.306 50.66C182.131 49.9703 183.017 49.348 183.946 48.8086C184.874 48.2693 185.854 47.8129 186.86 47.4395C187.871 47.0713 188.909 46.8017 189.967 46.615C191.024 46.4283 192.103 46.3349 193.182 46.3297C194.266 46.3349 195.339 46.4283 196.397 46.615C197.455 46.8017 198.497 47.0713 199.503 47.4395C200.51 47.8077 201.484 48.2693 202.418 48.8086C203.346 49.348 204.233 49.9651 205.058 50.66L205.364 50.9245L205.519 51.0541C205.571 51.0956 205.623 51.1423 205.67 51.189C205.861 51.3756 206.058 51.5623 206.256 51.7438C206.442 51.9409 206.624 52.1328 206.81 52.3299C206.857 52.3765 206.904 52.4284 206.945 52.4802L207.075 52.6358L207.339 52.9418C208.724 54.5961 209.813 56.4838 210.555 58.4959C211.286 60.5132 211.649 62.655 211.664 64.8227C211.654 66.9853 211.286 69.127 210.555 71.1495C209.813 73.1617 208.724 75.0494 207.339 76.7037L207.075 77.0096Z" fill="#DCDCDC"/>
<path d="M193.177 48.3419C184.075 48.3419 176.696 55.7214 176.696 64.8227C176.696 73.924 184.075 81.3036 193.177 81.3036C202.278 81.3036 209.657 73.924 209.657 64.8227C209.657 55.7214 202.278 48.3419 193.177 48.3419ZM193.177 68.0639C191.388 68.0639 189.935 66.6119 189.935 64.8227C189.935 63.0336 191.388 61.5815 193.177 61.5815C194.966 61.5815 196.418 63.0336 196.418 64.8227C196.418 66.6119 194.966 68.0639 193.177 68.0639Z" fill="#DCDCDC"/>
<path d="M199.934 122.915C199.815 121.577 199.618 120.245 199.343 118.927C200.743 118.528 202.143 118.113 203.538 117.683C203.222 116.22 202.817 114.773 202.33 113.358C201.848 111.942 201.282 110.547 200.634 109.199C199.27 109.717 197.911 110.246 196.558 110.785C196.413 110.479 196.257 110.184 196.102 109.883C195.946 109.587 195.78 109.292 195.619 108.996C195.282 108.415 194.94 107.835 194.572 107.269C193.841 106.139 193.052 105.05 192.191 104.013C193.244 103.001 194.287 101.985 195.324 100.953C194.364 99.8068 193.332 98.7178 192.243 97.691C191.154 96.6642 190.013 95.6996 188.815 94.8024C187.846 95.8967 186.886 96.9961 185.942 98.1007C184.859 97.302 183.728 96.576 182.556 95.907C181.975 95.5699 181.374 95.264 180.772 94.9632C180.466 94.818 180.165 94.6676 179.859 94.5328C179.553 94.3979 179.247 94.2527 178.936 94.1283C179.403 92.7488 179.854 91.359 180.295 89.9692C178.91 89.3987 177.489 88.9112 176.048 88.5067C174.606 88.1022 173.138 87.7755 171.66 87.5421C171.313 88.9579 170.976 90.3788 170.654 91.7998C169.322 91.5975 167.984 91.4783 166.635 91.4368C165.292 91.3953 163.944 91.4368 162.606 91.5457C162.372 90.104 162.129 88.6675 161.869 87.231C158.898 87.5162 155.947 88.1281 153.11 89.0875C153.458 90.5033 153.816 91.9191 154.189 93.3296C152.918 93.7652 151.674 94.2838 150.46 94.875C149.252 95.461 148.07 96.1145 146.939 96.8457C146.063 95.6788 145.181 94.5224 144.279 93.3711C143.024 94.1853 141.821 95.0773 140.669 96.0367C139.518 96.9961 138.424 98.0125 137.392 99.0964C138.362 100.191 139.337 101.274 140.322 102.348C139.399 103.328 138.538 104.365 137.739 105.444C137.335 105.983 136.956 106.538 136.588 107.098C136.407 107.383 136.225 107.664 136.049 107.949C135.878 108.239 135.696 108.524 135.535 108.815C134.218 108.187 132.896 107.57 131.568 106.963C130.832 108.265 130.183 109.619 129.603 110.998C129.027 112.377 128.524 113.793 128.114 115.235C129.478 115.754 130.847 116.262 132.216 116.754C131.853 118.051 131.573 119.368 131.371 120.701C131.169 122.028 131.039 123.372 130.992 124.715C129.535 124.772 128.078 124.844 126.626 124.927C126.59 126.421 126.636 127.92 126.766 129.403C126.901 130.891 127.119 132.369 127.419 133.837C128.866 133.666 130.313 133.479 131.76 133.277C132.04 134.594 132.408 135.89 132.839 137.161C133.274 138.437 133.782 139.681 134.368 140.895C133.103 141.621 131.848 142.362 130.598 143.114C131.257 144.463 131.998 145.764 132.807 147.025C133.622 148.28 134.498 149.498 135.452 150.65C136.655 149.82 137.848 148.98 139.031 148.129C139.243 148.389 139.466 148.637 139.689 148.892C139.912 149.146 140.14 149.389 140.369 149.638C140.835 150.126 141.302 150.603 141.795 151.064C142.77 151.988 143.802 152.859 144.88 153.657C144.097 154.886 143.33 156.126 142.567 157.371C143.771 158.257 145.036 159.066 146.332 159.803C147.634 160.544 148.977 161.208 150.357 161.789C151.036 160.498 151.705 159.201 152.358 157.899C153.603 158.418 154.874 158.854 156.17 159.217C157.467 159.58 158.784 159.87 160.111 160.078C159.992 161.53 159.888 162.987 159.795 164.444C162.756 164.89 165.774 164.968 168.746 164.724C168.746 163.267 168.736 161.81 168.71 160.347C170.048 160.223 171.38 160.021 172.698 159.746C174.015 159.471 175.311 159.113 176.587 158.683C177.157 160.026 177.738 161.364 178.329 162.696C179.745 162.209 181.13 161.628 182.478 160.975C183.827 160.321 185.139 159.595 186.399 158.786C185.719 157.495 185.03 156.209 184.33 154.928C184.615 154.746 184.89 154.555 185.17 154.368C185.445 154.176 185.719 153.979 185.989 153.782C186.528 153.377 187.063 152.968 187.576 152.537C188.608 151.676 189.598 150.758 190.522 149.784C191.647 150.707 192.788 151.619 193.934 152.522C194.956 151.433 195.91 150.276 196.802 149.073C197.688 147.87 198.513 146.62 199.255 145.318C198.057 144.489 196.848 143.669 195.635 142.86C196.299 141.688 196.885 140.475 197.403 139.235C197.668 138.618 197.901 137.986 198.129 137.353C198.238 137.037 198.347 136.715 198.446 136.393C198.544 136.072 198.648 135.75 198.736 135.429C200.162 135.725 201.594 136.005 203.03 136.274C203.429 134.833 203.74 133.36 203.969 131.882C204.197 130.399 204.337 128.905 204.394 127.411C202.942 127.235 201.495 127.074 200.043 126.929C200.079 125.586 200.038 124.238 199.918 122.9L199.934 122.915ZM190.703 136.902L190.532 137.28L190.449 137.467L190.184 138.027C189.936 138.52 189.687 139.012 189.407 139.489C189.137 139.972 188.841 140.438 188.546 140.905C188.24 141.367 187.929 141.823 187.597 142.269C187.27 142.715 186.923 143.146 186.57 143.576C186.212 143.996 185.849 144.416 185.465 144.815C185.087 145.22 184.693 145.604 184.293 145.987C183.889 146.361 183.479 146.734 183.049 147.087C182.623 147.445 182.188 147.777 181.742 148.108L181.405 148.352L181.239 148.471L181.068 148.586L180.725 148.819C180.611 148.897 180.492 148.969 180.378 149.047C179.916 149.348 179.439 149.628 178.962 149.903C178.48 150.167 177.992 150.432 177.495 150.67C177.002 150.914 176.494 151.132 175.985 151.35C175.472 151.552 174.959 151.754 174.435 151.93C173.392 152.288 172.324 152.584 171.246 152.812C170.162 153.04 169.067 153.206 167.963 153.305C166.858 153.398 165.748 153.434 164.644 153.398C163.539 153.367 162.44 153.263 161.346 153.097C160.801 153.02 160.257 152.911 159.717 152.802C159.178 152.677 158.644 152.553 158.11 152.402C157.575 152.257 157.052 152.086 156.528 151.91C156.009 151.723 155.491 151.531 154.982 151.319C154.853 151.267 154.728 151.215 154.599 151.158L154.22 150.987L154.033 150.904L153.473 150.639C152.981 150.39 152.488 150.141 152.011 149.861C151.529 149.592 151.062 149.296 150.595 149C150.134 148.694 149.677 148.383 149.231 148.051C148.785 147.725 148.355 147.377 147.924 147.025C147.504 146.667 147.084 146.304 146.685 145.92C146.28 145.541 145.897 145.147 145.513 144.748C145.14 144.343 144.766 143.934 144.414 143.503C144.056 143.078 143.724 142.643 143.392 142.197L143.148 141.859L143.029 141.694L142.915 141.522L142.681 141.18C142.604 141.066 142.531 140.947 142.453 140.833C142.153 140.371 141.872 139.894 141.598 139.417C141.333 138.935 141.069 138.447 140.83 137.949C140.586 137.457 140.369 136.948 140.151 136.44C139.949 135.927 139.746 135.413 139.57 134.89C138.849 132.805 138.398 130.627 138.196 128.412C138.004 126.203 138.066 123.978 138.403 121.795C138.481 121.251 138.59 120.706 138.699 120.167C138.823 119.627 138.948 119.093 139.098 118.559C139.243 118.025 139.414 117.501 139.591 116.977C139.777 116.459 139.969 115.94 140.182 115.432C140.234 115.302 140.286 115.178 140.343 115.048L140.514 114.67L140.597 114.483L140.861 113.923C141.11 113.43 141.359 112.938 141.639 112.46C141.909 111.978 142.204 111.511 142.5 111.045C142.806 110.583 143.117 110.127 143.449 109.681C143.776 109.235 144.123 108.804 144.476 108.374C144.834 107.954 145.197 107.534 145.58 107.135C145.959 106.73 146.353 106.346 146.752 105.963C147.157 105.589 147.567 105.216 147.997 104.863C148.422 104.505 148.858 104.173 149.304 103.841L149.641 103.598L149.807 103.478L149.978 103.364L150.32 103.131C150.434 103.053 150.554 102.981 150.668 102.903C151.129 102.602 151.606 102.322 152.084 102.047C152.566 101.783 153.053 101.518 153.551 101.28C154.044 101.036 154.552 100.818 155.06 100.6C155.574 100.398 156.087 100.196 156.611 100.019C157.653 99.6616 158.722 99.366 159.8 99.1379C160.884 98.9097 161.978 98.7437 163.083 98.6452C164.187 98.5518 165.297 98.5155 166.402 98.5518C167.506 98.583 168.606 98.6867 169.7 98.8526C170.245 98.9304 170.789 99.0393 171.328 99.1482C171.868 99.2727 172.402 99.3972 172.936 99.5475C173.47 99.6927 173.994 99.8639 174.518 100.04C175.036 100.227 175.555 100.419 176.063 100.631C176.193 100.683 176.317 100.735 176.447 100.792L176.826 100.963L177.012 101.046L177.572 101.311C178.065 101.56 178.558 101.809 179.035 102.089C179.517 102.358 179.984 102.654 180.451 102.95C180.912 103.255 181.368 103.567 181.814 103.899C182.26 104.225 182.691 104.573 183.121 104.925C183.541 105.283 183.961 105.646 184.361 106.03C184.765 106.409 185.149 106.803 185.533 107.202C185.906 107.606 186.279 108.016 186.632 108.447C186.99 108.872 187.322 109.307 187.654 109.753L187.897 110.091L188.017 110.256L188.131 110.428L188.364 110.77C188.442 110.884 188.515 111.003 188.592 111.117C188.893 111.579 189.173 112.056 189.448 112.533C189.713 113.015 189.977 113.503 190.216 114.001C190.459 114.493 190.677 115.002 190.895 115.51C191.097 116.023 191.299 116.537 191.476 117.06C192.197 119.145 192.648 121.323 192.85 123.538C193.042 125.747 192.98 127.972 192.643 130.155C192.565 130.699 192.456 131.244 192.347 131.783C192.223 132.323 192.098 132.857 191.948 133.391C191.802 133.925 191.631 134.449 191.455 134.973C191.268 135.491 191.076 136.01 190.864 136.518C190.812 136.648 190.76 136.772 190.703 136.902Z" fill="#DCDCDC"/>
<path d="M165.531 101.715C152.125 101.715 141.255 112.585 141.255 125.991C141.255 139.396 152.125 150.266 165.531 150.266C178.936 150.266 189.806 139.396 189.806 125.991C189.806 112.585 178.936 101.715 165.531 101.715ZM165.531 129.232C163.741 129.232 162.289 127.78 162.289 125.991C162.289 124.201 163.741 122.749 165.531 122.749C167.32 122.749 168.772 124.201 168.772 125.991C168.772 127.78 167.32 129.232 165.531 129.232Z" fill="#DCDCDC"/>
<path d="M155.039 47.2111C154.127 46.0235 153.121 44.9086 152.026 43.8869C152.97 42.6994 153.898 41.5014 154.816 40.2827C153.535 39.1159 152.156 38.0528 150.699 37.1141C149.236 36.1807 147.696 35.3717 146.104 34.6923C145.378 36.0303 144.673 37.3734 143.988 38.7269C142.604 38.1617 141.167 37.7105 139.71 37.3786C138.247 37.0415 136.759 36.8445 135.265 36.7667C135.224 35.2472 135.167 33.7277 135.084 32.2082C133.357 32.146 131.62 32.2238 129.903 32.4416C129.473 32.4987 129.042 32.5505 128.617 32.6335L127.979 32.7476C127.767 32.7839 127.554 32.8254 127.341 32.8772C126.921 32.9758 126.496 33.0691 126.076 33.1728L124.826 33.5255C124.977 34.2671 125.132 35.0086 125.293 35.7502C125.454 36.4918 125.62 37.2334 125.796 37.975L124.733 38.3328L123.685 38.7425C123.509 38.8099 123.343 38.8929 123.172 38.9655L122.659 39.1989C122.316 39.3441 121.984 39.5256 121.652 39.6967L121.155 39.956L120.18 40.5161C120.097 40.5628 120.019 40.6094 119.936 40.6613L119.703 40.8117C119.391 41.0191 119.07 41.2162 118.764 41.4288L117.856 42.0874C117.353 41.517 116.845 40.9517 116.332 40.3916C115.823 39.8315 115.305 39.2715 114.786 38.7218L113.775 39.5308C113.448 39.8108 113.127 40.1012 112.805 40.3916L112.562 40.6094C112.484 40.682 112.406 40.7598 112.328 40.8376L111.867 41.294C111.711 41.4444 111.555 41.5999 111.405 41.7503L110.964 42.2274C109.787 43.498 108.708 44.8671 107.765 46.3243C108.952 47.2681 110.15 48.1964 111.369 49.1091L110.788 50.0685C110.601 50.3953 110.43 50.7272 110.249 51.0539C110.207 51.1368 110.16 51.2198 110.119 51.3028L110 51.5569L109.756 52.0651L109.637 52.3192L109.574 52.4437L109.517 52.5733L109.3 53.0919C108.724 54.4766 108.262 55.9027 107.92 57.3651C106.421 57.1421 104.917 56.9399 103.408 56.7584C102.662 60.1396 102.516 63.6401 102.921 67.0835C104.44 67.0472 105.96 66.985 107.474 66.9072C107.671 68.3904 107.993 69.858 108.434 71.2945C108.88 72.7258 109.455 74.1156 110.135 75.4484C108.843 76.2419 107.557 77.0561 106.287 77.891C107.101 79.4208 108.034 80.8833 109.071 82.2627C110.124 83.6318 111.286 84.9179 112.546 86.1107C113.687 85.1046 114.812 84.083 115.922 83.0458C117.027 84.057 118.214 84.9749 119.48 85.7891C120.745 86.593 122.073 87.2931 123.452 87.8791C122.975 89.3208 122.513 90.7676 122.073 92.2249C125.283 93.5265 128.7 94.3148 132.154 94.4911C132.377 92.9872 132.584 91.4833 132.766 89.9794C134.265 90.0364 135.763 89.9742 137.252 89.7823L137.807 89.7097L137.947 89.6889L138.087 89.663L138.361 89.6112L138.916 89.5126L139.191 89.4608C139.285 89.4452 139.373 89.4193 139.466 89.3985C139.829 89.3156 140.197 89.2326 140.56 89.1444L141.644 88.8385C142.204 90.2542 142.78 91.6544 143.376 93.0494C145.031 92.5308 146.633 91.8463 148.173 91.0528L148.749 90.7521C148.936 90.6483 149.122 90.5394 149.314 90.4305L149.874 90.1038C149.968 90.0468 150.061 89.9949 150.154 89.9379L150.429 89.7616C150.792 89.5282 151.155 89.2948 151.513 89.0511L152.561 88.2939C152.161 87.6457 151.762 87.0026 151.357 86.3648C150.953 85.7217 150.538 85.0839 150.128 84.446L151.005 83.7407C151.29 83.497 151.565 83.248 151.845 82.9991L152.052 82.8124C152.12 82.7502 152.187 82.6828 152.255 82.6154L153.053 81.8271L153.432 81.4122C153.686 81.1374 153.945 80.8677 154.179 80.5721L154.536 80.1417C154.656 79.9965 154.78 79.8565 154.889 79.7061L155.563 78.8089L156.191 77.8754C156.86 78.2384 157.529 78.5963 158.203 78.9489C158.877 79.3016 159.551 79.649 160.225 79.9913L160.899 78.8763C161.112 78.4977 161.314 78.114 161.522 77.7354C161.626 77.5435 161.719 77.3517 161.812 77.1546L162.092 76.5686C162.284 76.1796 162.45 75.7803 162.616 75.381C163.28 73.7837 163.819 72.1294 164.213 70.444C162.772 69.9617 161.32 69.5002 159.867 69.0594C160.189 67.5969 160.391 66.1086 160.459 64.6099C160.526 63.1163 160.469 61.6124 160.293 60.124C161.781 59.8233 163.264 59.4965 164.742 59.1543C164.509 57.4377 164.135 55.7419 163.622 54.0824C163.103 52.4281 162.445 50.8153 161.662 49.2699C160.246 49.83 158.846 50.4056 157.451 51.002C156.751 49.6744 155.947 48.409 155.045 47.2163L155.039 47.2111ZM153.043 64.6721L153.032 64.8795C153.032 64.9469 153.027 65.0195 153.017 65.087C152.986 65.367 152.955 65.6419 152.924 65.9219C152.877 66.1968 152.835 66.4768 152.789 66.7516C152.778 66.8191 152.763 66.8917 152.747 66.9591L152.706 67.1665L152.623 67.5762C152.374 68.6704 152.032 69.7387 151.601 70.7707C151.171 71.8027 150.652 72.7984 150.051 73.7371C149.449 74.6757 148.754 75.5573 147.997 76.3819C147.24 77.2013 146.405 77.9584 145.513 78.6481C144.611 79.3275 143.661 79.9239 142.671 80.4425C141.68 80.9559 140.643 81.3863 139.58 81.7182C138.512 82.0449 137.418 82.2835 136.308 82.4235C135.198 82.5635 134.073 82.6102 132.953 82.5583L132.533 82.5324L132.325 82.522C132.258 82.522 132.185 82.5168 132.118 82.5065C131.838 82.4753 131.563 82.4442 131.283 82.4131C131.008 82.3664 130.728 82.325 130.453 82.2783C130.386 82.2679 130.313 82.2523 130.246 82.2368L130.038 82.1953L129.628 82.1123C127.44 81.6197 125.345 80.7432 123.462 79.5453C121.585 78.337 119.931 76.7916 118.556 75.0076C117.203 73.2081 116.155 71.2063 115.486 69.0749C114.828 66.9383 114.543 64.6876 114.646 62.4473L114.672 62.0273L114.683 61.8198C114.683 61.7524 114.688 61.6798 114.698 61.6124C114.729 61.3324 114.76 61.0575 114.791 60.7775C114.838 60.5026 114.88 60.2226 114.926 59.9477C114.937 59.8803 114.952 59.8077 114.968 59.7403L115.009 59.5328L115.092 59.1232C115.341 58.0289 115.683 56.9606 116.114 55.9286C116.544 54.8966 117.063 53.9009 117.664 52.9623C118.266 52.0236 118.961 51.142 119.718 50.3175C120.475 49.4981 121.31 48.7409 122.202 48.0512C123.105 47.3719 124.054 46.7755 125.044 46.2569C126.035 45.7435 127.072 45.3131 128.135 44.9812C129.203 44.6544 130.297 44.4159 131.407 44.2759C132.517 44.1359 133.642 44.0892 134.762 44.141L135.183 44.167L135.39 44.1773C135.457 44.1773 135.53 44.1825 135.597 44.1929C135.877 44.224 136.152 44.2551 136.432 44.2862C136.707 44.3329 136.987 44.3744 137.262 44.4211C137.329 44.4315 137.402 44.447 137.469 44.4626L137.677 44.5041L138.087 44.587C140.275 45.0797 142.37 45.9561 144.253 47.1541C146.13 48.3624 147.784 49.9078 149.159 51.6917C150.512 53.4912 151.56 55.493 152.229 57.6244C152.887 59.761 153.172 62.0117 153.069 64.252L153.043 64.6721Z" fill="#DCDCDC"/>
<path d="M123.462 49.7107C115.927 55.4515 114.475 66.2123 120.216 73.7474C125.957 81.2826 136.718 82.7346 144.253 76.9938C151.788 71.253 153.24 60.4922 147.499 52.9571C141.758 45.422 130.997 43.9699 123.462 49.7107ZM135.903 66.036C134.42 67.1665 132.304 66.8813 131.174 65.3981C130.043 63.9149 130.328 61.7991 131.812 60.6686C133.295 59.538 135.411 59.8233 136.541 61.3064C137.672 62.7896 137.387 64.9054 135.903 66.036Z" fill="#DCDCDC"/>
<path d="M96.029 171.509C96.029 171.509 87.6849 173.039 81.3425 163.382C79.7245 161.111 86.5751 163.455 86.5751 163.455C86.5751 163.455 73.937 155.059 75.0416 152.279C75.5861 150.718 80.8809 154.048 80.8809 154.048C80.8809 154.048 69.1815 141.809 70.2809 139.859C71.3751 137.909 75.2801 142.105 75.2801 142.105C75.2801 142.105 68.8289 131.463 72.319 128.061C74.3985 126.002 80.6372 140.684 80.6372 140.684C80.6372 140.684 79.32 134.31 82.1255 132.448C84.9311 130.587 88.499 150.324 88.499 150.324C88.499 150.324 89.0073 143.37 91.5172 143.541C94.0272 143.712 93.5346 156.164 93.5346 156.164C93.5346 156.164 95.3911 149.287 97.6055 150.288C99.8147 151.294 99.2443 167.09 96.0342 171.509H96.029Z" fill="#E6E6E6"/>
<path d="M72.0597 129.368C73.7814 133.04 75.5654 136.68 77.3908 140.295L78.0857 141.648C78.3191 142.099 78.5421 142.551 78.7755 143.002L80.1756 145.693L81.6018 148.374C82.0685 149.272 82.5612 150.158 83.0435 151.045C83.5257 151.932 84.0029 152.829 84.5059 153.706L85.9891 156.356L88.2605 160.297L90.589 164.212L92.181 166.8C92.4455 167.23 92.7048 167.666 92.9693 168.097C93.2442 168.522 93.5138 168.947 93.7835 169.377L94.5925 170.664C94.8622 171.094 95.1318 171.524 95.3963 171.955C95.0904 171.55 94.7948 171.141 94.494 170.731L93.5968 169.502C93.296 169.092 93.0004 168.677 92.7048 168.268C92.4144 167.853 92.1292 167.433 91.844 167.013L90.1378 164.492C89.8578 164.072 89.5881 163.637 89.3132 163.211L87.6745 160.639C87.41 160.209 87.1507 159.768 86.8862 159.337L85.3201 156.729C84.3088 154.966 83.2924 153.213 82.3278 151.424C81.3477 149.645 80.4142 147.84 79.4911 146.036L78.1376 143.308C77.6916 142.395 77.256 141.477 76.8255 140.559C76.6077 140.103 76.4003 139.641 76.1825 139.18C75.9699 138.718 75.7572 138.257 75.5498 137.795C75.3372 137.334 75.1401 136.867 74.9327 136.405C74.7304 135.939 74.523 135.477 74.3207 135.01C73.5273 133.143 72.7494 131.266 72.0493 129.363L72.0597 129.368Z" fill="#E1E1E1"/>
<path d="M85.8849 181.699C82.4622 177.322 79.5633 172.935 77.1103 168.661L82.6074 164.129C82.8822 163.906 82.9185 163.501 82.6955 163.227C82.4726 162.952 82.0681 162.915 81.7932 163.138L76.4673 167.526C76.1302 166.924 75.8035 166.323 75.4819 165.726L79.1847 161.691C79.4232 161.432 79.4077 161.028 79.1432 160.789C78.8839 160.551 78.4794 160.566 78.2408 160.831L74.8493 164.528C74.5018 163.854 74.1647 163.185 73.8328 162.521L78.5001 157.138C78.7335 156.869 78.7024 156.469 78.4379 156.236C78.1682 156.003 77.7637 156.034 77.5356 156.298L73.2261 161.266C72.9979 160.789 72.7749 160.312 72.5571 159.84L76.5606 155.624C76.8043 155.37 76.794 154.96 76.5399 154.716C76.2858 154.473 75.8761 154.483 75.6323 154.737L71.9866 158.575C71.7325 158.009 71.4888 157.449 71.2502 156.889L74.9893 152.44C75.2175 152.17 75.1812 151.766 74.9115 151.537C74.6418 151.309 74.2373 151.346 74.0091 151.615L70.6953 155.557C70.5086 155.105 70.3323 154.659 70.156 154.213L73.921 150.288C74.1647 150.034 74.1595 149.629 73.9002 149.38C73.6461 149.136 73.2416 149.142 72.9927 149.401L69.6374 152.896C69.2692 151.937 68.9269 150.988 68.6054 150.065L72.0592 146.331C72.2978 146.072 72.2822 145.667 72.0229 145.428C71.7636 145.19 71.3591 145.205 71.1206 145.465L68.1387 148.69C67.9105 148.006 67.6927 147.332 67.4852 146.668L70.3012 143.587C70.5398 143.328 70.5242 142.924 70.2597 142.685C70.0004 142.447 69.5959 142.467 69.3574 142.727L67.0548 145.247C66.8629 144.609 66.6866 143.982 66.5155 143.37L70.742 138.443C70.9702 138.173 70.9391 137.769 70.6746 137.541C70.4049 137.312 70.0004 137.344 69.7722 137.608L66.1162 141.871C65.9761 141.342 65.8465 140.823 65.722 140.32C65.6961 140.227 65.6754 140.128 65.6546 140.035L70.2027 134.88C70.436 134.616 70.4101 134.211 70.1456 133.978C69.8811 133.745 69.4766 133.77 69.2433 134.035L65.2968 138.505C65.0945 137.608 64.913 136.737 64.7471 135.897L68.9114 132.002C69.1707 131.758 69.181 131.354 68.9425 131.095C68.6988 130.835 68.2943 130.825 68.0401 131.063L64.467 134.403C64.3011 133.485 64.1507 132.604 64.0262 131.764L67.4904 127.153C67.7031 126.868 67.646 126.469 67.3608 126.256C67.0756 126.043 66.6762 126.101 66.4636 126.386L63.7669 129.98C63.6425 129.041 63.5388 128.17 63.4558 127.371L66.4273 122.393C66.6088 122.087 66.5103 121.698 66.2043 121.516C65.8984 121.335 65.5094 121.433 65.3279 121.739L63.2639 125.198C63.0824 122.782 63.1083 121.407 63.1083 121.376C63.1135 121.024 62.8335 120.728 62.4808 120.723C62.1282 120.718 61.8326 120.998 61.8274 121.35C61.8274 121.387 61.8015 122.901 62.0089 125.546L59.0841 122.631C58.8351 122.382 58.4306 122.382 58.1765 122.631C57.9276 122.88 57.9276 123.285 58.1765 123.539L62.1852 127.532C62.2682 128.325 62.3667 129.181 62.4912 130.099L58.7988 127.138C58.524 126.915 58.1195 126.961 57.8965 127.236C57.6735 127.511 57.7202 127.916 57.995 128.139L62.7505 131.955C62.875 132.764 63.015 133.615 63.1758 134.502L58.1195 131.862C57.8083 131.696 57.4194 131.821 57.2534 132.132C57.0875 132.443 57.2119 132.832 57.5231 132.998L63.4765 136.104C63.6321 136.898 63.8032 137.717 63.9899 138.557C63.3884 138.313 62.5431 138.028 61.3451 137.696C59.6597 137.23 58.0365 136.877 58.0209 136.877C57.6735 136.804 57.3364 137.022 57.2586 137.37C57.186 137.717 57.4038 138.054 57.7513 138.132C57.7668 138.132 59.3071 138.469 60.9199 138.91C63.4765 139.615 64.1818 140.04 64.3633 140.18C64.3944 140.315 64.4307 140.45 64.4619 140.585C64.6071 141.176 64.7575 141.762 64.913 142.348C63.321 141.98 60.3028 141.311 58.6484 141.119C58.2958 141.077 57.9795 141.332 57.938 141.684C57.8965 142.037 58.1506 142.353 58.5032 142.395C60.3391 142.607 64.1092 143.479 65.2916 143.753C65.4627 144.371 65.6339 144.982 65.8154 145.594C65.0894 145.532 64.0055 145.563 62.3304 145.734C60.4065 145.937 58.5551 146.248 58.5344 146.253C58.1869 146.31 57.9535 146.642 58.0106 146.989C58.0676 147.337 58.3995 147.57 58.747 147.513C58.7625 147.513 60.4583 147.223 62.2734 147.026C65.0375 146.725 65.9502 146.865 66.2251 146.943C66.4584 147.7 66.7022 148.457 66.9563 149.209C65.0894 149.09 61.2258 148.996 59.5456 150.132C59.2552 150.329 59.1774 150.728 59.3745 151.019C59.4989 151.206 59.7064 151.304 59.9138 151.299C60.0331 151.299 60.1575 151.263 60.2613 151.19C61.6303 150.262 65.5613 150.371 67.4075 150.521C67.7549 151.522 68.1231 152.523 68.5017 153.518L61.5681 154.151C61.2155 154.182 60.9562 154.493 60.9873 154.846C61.0184 155.183 61.3036 155.432 61.6303 155.427C61.6459 155.427 61.6615 155.427 61.6822 155.427L68.9788 154.763C69.181 155.282 69.3885 155.795 69.6011 156.308L63.4454 157.475C63.098 157.543 62.8698 157.875 62.9372 158.222C62.9942 158.533 63.2691 158.746 63.5751 158.741C63.6114 158.741 63.6477 158.741 63.6892 158.73L70.1093 157.512C70.3686 158.124 70.6383 158.73 70.908 159.337L64.7367 161.458C64.4048 161.572 64.2233 161.935 64.3374 162.272C64.4307 162.542 64.6797 162.708 64.9493 162.703C65.0168 162.703 65.0842 162.692 65.1464 162.666L71.4317 160.509C71.6858 161.064 71.9451 161.614 72.2148 162.163L66.6918 165.296C66.3858 165.472 66.2769 165.861 66.4533 166.167C66.5725 166.38 66.7955 166.494 67.0185 166.494C67.1222 166.494 67.226 166.468 67.3245 166.411L72.7801 163.315C73.1379 164.03 73.5009 164.741 73.8691 165.451L68.232 169.776C67.952 169.994 67.9001 170.393 68.1127 170.673C68.2424 170.839 68.4343 170.928 68.6313 170.922C68.7662 170.922 68.901 170.876 69.0099 170.788L74.4759 166.592C74.8078 167.209 75.15 167.826 75.4975 168.438L71.1984 173.816C70.9754 174.091 71.022 174.496 71.2969 174.719C71.4162 174.817 71.5614 174.859 71.7066 174.859C71.8933 174.859 72.0748 174.776 72.1992 174.62L76.182 169.641C78.7698 174.101 81.6739 178.395 84.8685 182.477C84.9981 182.643 85.19 182.726 85.3819 182.72C85.5167 182.72 85.6515 182.674 85.7656 182.586C86.0457 182.368 86.0923 181.963 85.8745 181.688L85.8849 181.699Z" fill="#E6E6E6"/>
<path d="M127.403 108.157L126.667 107.902C126.568 108.182 124.8 113.301 123.851 116.89C123.799 115.681 123.799 114.271 123.97 113.14C124.313 110.941 124.001 108.312 123.789 106.938L123.778 106.876L123.006 106.995L123.016 107.057C123.224 108.385 123.524 110.921 123.198 113.016C122.99 114.359 123.011 116.029 123.089 117.351C121.393 113.363 119.241 107.228 119.22 107.156L118.484 107.415C118.592 107.731 120.854 114.183 122.575 118.124C120.812 116.376 117.747 112.922 115.725 110.573L115.133 111.081C116.093 112.202 120.185 116.931 122.357 118.995C121.502 118.803 120.361 118.419 119.365 117.642C117.337 116.06 111.41 112.673 111.161 112.528L110.772 113.208C110.834 113.244 116.902 116.713 118.883 118.259C120.356 119.405 122.051 119.783 122.98 119.903C123.239 119.939 123.452 120.115 123.535 120.359C124.033 121.837 125.262 125.685 126.345 130.534C127.621 136.259 128.938 144.593 127.984 151.78L128.757 151.884C129.732 144.577 128.394 136.14 127.108 130.352C125.993 125.348 124.717 121.396 124.24 119.991C124.131 119.664 124.105 119.317 124.167 118.974C124.774 115.795 127.388 108.229 127.414 108.151L127.403 108.157Z" fill="#E6E6E6"/>
<path d="M129.331 107.207C129.849 106.243 129.487 105.042 128.523 104.525C127.56 104.007 126.359 104.369 125.841 105.333C125.323 106.296 125.685 107.498 126.649 108.015C127.613 108.533 128.814 108.171 129.331 107.207Z" fill="#A9A9A9"/>
<path d="M124.86 106.091C125.377 105.127 125.016 103.926 124.052 103.408C123.088 102.89 121.887 103.252 121.369 104.216C120.852 105.18 121.213 106.381 122.177 106.899C123.141 107.416 124.342 107.054 124.86 106.091Z" fill="#A9A9A9"/>
<path d="M118.328 107.55C119.422 107.55 120.309 106.663 120.309 105.569C120.309 104.475 119.422 103.588 118.328 103.588C117.234 103.588 116.347 104.475 116.347 105.569C116.347 106.663 117.234 107.55 118.328 107.55Z" fill="#A9A9A9"/>
<path d="M115.297 111.041C116.197 110.418 116.421 109.184 115.799 108.285C115.176 107.385 113.942 107.161 113.042 107.783C112.143 108.406 111.918 109.64 112.541 110.54C113.164 111.439 114.398 111.664 115.297 111.041Z" fill="#A9A9A9"/>
<path d="M109.585 113.783C110.679 113.783 111.566 112.896 111.566 111.802C111.566 110.708 110.679 109.821 109.585 109.821C108.49 109.821 107.604 110.708 107.604 111.802C107.604 112.896 108.49 113.783 109.585 113.783Z" fill="#A9A9A9"/>
<path d="M127.565 139.912C121.134 135.545 117.094 152.368 116.156 156.792C114.429 153.825 112.655 150.563 110.85 147.021C110.907 146.99 110.97 146.949 111.037 146.897C112.079 146.036 128.861 131.547 121.938 127.388C115.445 123.488 110.71 142.074 109.829 144.994C109.212 143.754 108.589 142.479 107.962 141.177C106.925 139.014 105.95 136.909 105.042 134.907C107.35 131.541 117.167 116.518 110.254 114.226C103.865 112.11 103.46 126.304 103.517 131.495C102.309 128.741 101.272 126.293 100.458 124.317C99.7473 122.596 99.5865 120.698 100.012 118.883C101.702 111.628 103.73 97.7811 94.5095 97.8952C84.1999 98.0249 93.8716 115.175 97.564 121.159C97.7611 121.481 97.9322 121.818 98.0722 122.171C98.9019 124.229 100.219 127.439 101.905 131.298C99.2961 128.036 91.678 119.655 86.6476 125.858C80.9794 132.843 100.536 134.938 103.647 135.223C104.591 137.308 105.607 139.517 106.691 141.778C106.842 142.09 106.992 142.401 107.137 142.707C104.026 140.788 93.6642 134.959 91.538 140.798C89.1161 147.452 106.105 149.106 109.575 147.623C111.343 151.103 113.091 154.323 114.792 157.258C112.333 156.916 96.7446 155.086 97.4655 163.497C98.1707 171.753 113.06 161.236 115.907 159.146C116.047 159.385 116.192 159.618 116.332 159.851C120.206 166.235 123.851 171.074 127.165 174.222L128.13 173.205C124.997 170.228 121.518 165.623 117.82 159.582C119.734 157.901 134.472 144.6 127.554 139.906L127.565 139.912Z" fill="#E6E6E6"/>
<path d="M234.203 181.42C238.855 178.381 243.014 175.166 246.717 171.914L242.972 165.852C242.786 165.551 242.879 165.157 243.18 164.97C243.481 164.784 243.875 164.877 244.061 165.178L247.686 171.054C248.2 170.592 248.703 170.13 249.201 169.664L247.002 164.649C246.862 164.327 247.007 163.949 247.328 163.804C247.65 163.664 248.029 163.809 248.174 164.13L250.191 168.725C250.741 168.201 251.275 167.678 251.799 167.154L249.118 160.552C248.983 160.225 249.144 159.852 249.47 159.717C249.797 159.582 250.17 159.743 250.305 160.07L252.779 166.163C253.147 165.785 253.515 165.406 253.873 165.033L251.446 159.753C251.301 159.432 251.441 159.053 251.762 158.903C252.084 158.758 252.463 158.898 252.613 159.219L254.827 164.027C255.247 163.57 255.662 163.119 256.067 162.668L253.966 157.249C253.837 156.917 254.003 156.549 254.329 156.419C254.661 156.289 255.03 156.455 255.159 156.782L257.021 161.584C257.342 161.216 257.654 160.853 257.965 160.49L255.667 155.558C255.517 155.236 255.657 154.858 255.979 154.708C256.3 154.557 256.679 154.697 256.829 155.019L258.878 159.406C259.536 158.613 260.164 157.829 260.77 157.057L258.706 152.405C258.561 152.083 258.706 151.705 259.033 151.56C259.355 151.414 259.733 151.56 259.878 151.886L261.662 155.905C262.103 155.33 262.523 154.759 262.933 154.204L261.263 150.377C261.123 150.056 261.268 149.677 261.595 149.532C261.916 149.392 262.295 149.537 262.44 149.864L263.809 152.996C264.198 152.452 264.566 151.917 264.929 151.394L262.518 145.368C262.388 145.041 262.544 144.668 262.876 144.538C263.203 144.408 263.576 144.564 263.706 144.896L265.79 150.113C266.091 149.656 266.382 149.21 266.662 148.77C266.713 148.687 266.765 148.604 266.817 148.521L264.172 142.173C264.037 141.846 264.193 141.473 264.52 141.338C264.846 141.203 265.22 141.359 265.355 141.686L267.647 147.188C268.129 146.405 268.58 145.643 269.011 144.896L266.324 139.865C266.159 139.554 266.278 139.165 266.589 138.999C266.9 138.833 267.289 138.953 267.455 139.264L269.763 143.579C270.219 142.764 270.639 141.976 271.033 141.224L269.244 135.743C269.135 135.406 269.317 135.043 269.654 134.934C269.991 134.825 270.354 135.006 270.463 135.343L271.858 139.611C272.278 138.766 272.656 137.973 272.994 137.241L271.79 131.568C271.718 131.221 271.936 130.883 272.283 130.811C272.631 130.738 272.968 130.956 273.04 131.303L273.875 135.245C274.824 133.015 275.249 131.708 275.26 131.677C275.369 131.34 275.727 131.153 276.064 131.262C276.401 131.371 276.587 131.729 276.479 132.066C276.468 132.097 276.001 133.539 274.954 135.981L278.667 134.166C278.983 134.011 279.367 134.14 279.523 134.462C279.678 134.778 279.549 135.162 279.227 135.317L274.14 137.807C273.808 138.527 273.434 139.311 273.025 140.14L277.474 138.527C277.806 138.408 278.174 138.579 278.294 138.911C278.413 139.243 278.242 139.611 277.91 139.731L272.174 141.81C271.796 142.536 271.386 143.299 270.95 144.082L276.587 143.216C276.935 143.164 277.262 143.402 277.319 143.75C277.37 144.097 277.132 144.424 276.784 144.481L270.152 145.503C269.747 146.203 269.322 146.923 268.871 147.655C269.519 147.618 270.411 147.624 271.65 147.691C273.393 147.79 275.047 147.987 275.063 147.987C275.415 148.028 275.664 148.344 275.623 148.697C275.581 149.05 275.265 149.299 274.912 149.257C274.897 149.257 273.336 149.07 271.661 148.972C269.016 148.816 268.207 148.987 267.994 149.065C267.922 149.185 267.844 149.299 267.771 149.418C267.445 149.931 267.113 150.44 266.776 150.943C268.404 151.108 271.474 151.446 273.102 151.798C273.45 151.876 273.668 152.213 273.59 152.561C273.517 152.908 273.175 153.126 272.828 153.048C271.023 152.654 267.175 152.265 265.967 152.146C265.609 152.675 265.246 153.198 264.878 153.717C265.583 153.893 266.605 154.272 268.129 154.977C269.887 155.791 271.536 156.683 271.552 156.694C271.863 156.865 271.977 157.249 271.811 157.56C271.64 157.871 271.251 157.985 270.945 157.819C270.93 157.809 269.42 156.995 267.766 156.222C265.251 155.05 264.338 154.884 264.053 154.868C263.586 155.511 263.109 156.149 262.632 156.782C264.437 157.269 268.124 158.431 269.348 160.049C269.56 160.329 269.503 160.734 269.223 160.946C269.047 161.081 268.819 161.107 268.622 161.04C268.508 160.998 268.404 160.925 268.326 160.822C267.331 159.504 263.576 158.338 261.782 157.881C261.128 158.716 260.459 159.546 259.78 160.365L266.138 163.197C266.459 163.342 266.605 163.721 266.459 164.042C266.324 164.348 265.972 164.493 265.661 164.384C265.645 164.379 265.63 164.374 265.614 164.364L258.924 161.382C258.566 161.807 258.203 162.227 257.835 162.642L263.28 165.733C263.586 165.909 263.695 166.298 263.519 166.604C263.363 166.879 263.037 166.993 262.746 166.889C262.71 166.879 262.679 166.863 262.642 166.843L256.959 163.617C256.513 164.11 256.067 164.602 255.616 165.085L260.77 169.083C261.05 169.301 261.102 169.7 260.884 169.98C260.708 170.203 260.418 170.281 260.164 170.193C260.101 170.172 260.039 170.136 259.987 170.094L254.734 166.023C254.314 166.464 253.889 166.9 253.463 167.335L257.68 172.086C257.913 172.35 257.892 172.755 257.628 172.988C257.446 173.149 257.202 173.19 256.99 173.112C256.891 173.076 256.798 173.019 256.725 172.936L252.561 168.243C251.996 168.803 251.42 169.363 250.839 169.913L254.781 175.83C254.978 176.125 254.895 176.519 254.604 176.717C254.428 176.831 254.221 176.851 254.034 176.789C253.909 176.742 253.795 176.66 253.718 176.54L249.895 170.805C249.382 171.282 248.858 171.754 248.335 172.226L250.668 178.703C250.787 179.035 250.616 179.403 250.284 179.522C250.139 179.574 249.989 179.569 249.854 179.522C249.678 179.46 249.532 179.325 249.465 179.138L247.303 173.138C243.413 176.525 239.28 179.652 234.939 182.483C234.763 182.597 234.556 182.613 234.374 182.551C234.244 182.504 234.13 182.421 234.052 182.297C233.861 182.001 233.944 181.602 234.239 181.41L234.203 181.42Z" fill="#E6E6E6"/>
<path d="M134.482 188C208.471 188 268.45 182.316 268.45 175.305C268.45 168.293 208.471 162.609 134.482 162.609C60.4941 162.609 0.514648 168.293 0.514648 175.305C0.514648 182.316 60.4941 188 134.482 188Z" fill="#EAEAEA"/>
<path d="M42.6241 131.587C42.6241 131.587 48.6086 127.656 50.3096 124.98C52.0106 122.304 51.6476 122.024 51.8135 121.848C51.9795 121.671 51.9794 122.719 52.2906 122.823C52.6018 122.926 52.5343 121.64 53.0581 121.573C53.5819 121.506 53.2656 122.755 53.0581 123.103C52.8507 123.45 50.0295 128.74 49.511 129.295C48.9872 129.85 46.1712 135.067 43.2152 134.688C40.2593 134.304 42.6241 131.592 42.6241 131.592V131.587Z" fill="#B3B3B3"/>
<path d="M72.9832 120.828H50.0615C47.3377 120.828 45.1297 123.035 45.1297 125.757C45.1297 128.479 47.3377 130.686 50.0615 130.686H72.9832C75.707 130.686 77.915 128.479 77.915 125.757C77.915 123.035 75.707 120.828 72.9832 120.828Z" fill="#DCDCDC"/>
<path d="M72.9259 130.686H50.1183C48.6347 130.686 47.432 131.889 47.432 133.372C47.432 134.856 48.6347 136.059 50.1183 136.059H72.9259C74.4096 136.059 75.6122 134.856 75.6122 133.372C75.6122 131.889 74.4096 130.686 72.9259 130.686Z" fill="#F5F5F5"/>
<path d="M73.9942 138.211V139.284C73.9942 140.467 73.2578 141.436 72.3607 141.436H50.6939C49.7967 141.436 49.0603 140.467 49.0603 139.284V138.211C49.0603 137.028 49.7967 136.059 50.6939 136.059H72.3607C73.2578 136.059 73.9942 137.028 73.9942 138.211Z" fill="#EBEBEB"/>
<path d="M68.8964 142.51V143.049C68.8964 143.64 68.4608 144.123 67.9319 144.123H55.1226C54.5885 144.123 54.1581 143.64 54.1581 143.049V142.51C54.1581 141.919 54.5937 141.436 55.1226 141.436H67.9319C68.466 141.436 68.8964 141.919 68.8964 142.51Z" fill="#DCDCDC"/>
<path d="M95.9152 69.4249C95.9152 50.3252 80.4197 34.8452 61.3147 34.8711C42.0542 34.8971 26.595 50.5585 26.8128 69.819C26.9062 78.298 30.0592 86.0458 35.214 92.0096C42.1528 100.037 46.1044 110.217 46.4571 120.828H75.9079C76.3798 110.274 80.3626 100.151 87.3325 92.2118C92.674 86.1287 95.91 78.158 95.91 69.4249H95.9152Z" fill="url(#paint0_linear_9193_22289)"/>
<path d="M45.8449 139.3C45.8449 139.3 47.9556 139.393 50.9686 139.092C53.9816 138.792 56.0249 138.766 56.2531 138.444C56.4864 138.118 57.3214 137.329 57.3214 137.749C57.3214 138.169 56.948 138.652 57.3214 138.724C57.6947 138.792 59.3387 138.584 59.4787 138.958C59.6187 139.331 59.0379 140.327 57.6014 140.441C56.1649 140.555 54.0542 140.602 51.8969 141.763C49.7395 142.925 44.5899 142.878 43.9884 142.137C43.3868 141.395 45.8449 139.305 45.8449 139.305V139.3Z" fill="#B3B3B3"/>
<path d="M14.8025 173.348L12.9355 174.862L13.9935 176.112L14.4395 175.795L15.7671 174.841L14.8025 173.348Z" fill="#B3B3B3"/>
<path d="M46.042 174.504L46.6228 176.573H48.0126L48.1682 174.639L46.042 174.504Z" fill="#B3B3B3"/>
<path d="M47.4886 175.526H46.6848C46.2388 175.526 45.8551 175.225 45.7462 174.794C45.1965 172.621 43.6355 166.113 43.5473 161.933C43.5318 161.166 42.8835 160.569 42.116 160.621C40.2802 160.751 37.2413 160.891 36.0744 160.502C34.3527 159.926 36.9094 155.492 36.9094 155.492L39.466 152.832L47.3694 156.737C48.2147 157.157 48.7436 158.023 48.7281 158.967C48.671 162.613 48.5258 171.657 48.4584 174.577C48.448 175.106 48.0176 175.526 47.4886 175.526Z" fill="#C7C7C7"/>
<path d="M14.5896 175.704C14.5896 175.704 14.6466 176.606 14.8748 177.114C15.103 177.622 16.4409 177.389 16.4409 177.897C16.4409 178.405 15.5801 178.665 14.74 178.348C13.8998 178.032 12.2922 176.585 11.9499 175.698C11.6077 174.817 12.4478 174.267 12.9249 174.091C13.402 173.914 13.5161 173.956 13.7443 174.698C13.9724 175.444 14.5844 175.698 14.5844 175.698L14.5896 175.704Z" fill="#D3D3D3"/>
<path d="M46.9446 176.176C46.9446 176.176 46.7268 176.119 46.4986 176.02C46.2704 175.916 45.7207 176.783 45.9489 177.519C46.1771 178.255 46.6334 178.172 47.9714 178.198C49.3042 178.224 51.3785 178.224 51.7208 178.198C52.0631 178.172 52.2446 177.675 51.8453 177.374C51.446 177.073 50.9948 177.332 49.9628 176.891C48.9308 176.451 48.2877 176.01 47.8469 176.082C47.4061 176.15 47.7795 176.316 46.9446 176.181V176.176Z" fill="#D3D3D3"/>
<path d="M39.6224 131.174C39.6224 131.174 39.3112 129.504 40.0373 128.877C40.7685 128.249 42.7495 127.835 41.0796 125.433C39.4098 123.032 37.5325 122.094 36.8687 122.094C36.2049 122.094 35.4062 124.91 35.4062 124.91V131.553L38.886 132.979L39.6172 131.169L39.6224 131.174Z" fill="#B3B3B3"/>
<path d="M37.7236 125.262C37.7236 125.262 36.1004 123.105 36.4841 122.856C36.8679 122.602 38.0295 122.358 38.1903 121.891C38.3459 121.419 38.0295 119.023 36.4271 118.655C34.8246 118.292 33.4089 119.117 32.911 119.77C32.2939 120.574 31.21 122.737 31.1789 123.551C31.153 124.381 30.9715 125.718 32.1798 127.622C32.6932 128.426 35.6233 128.986 36.5775 128.187C37.5317 127.388 36.0744 127.285 36.2145 126.325C36.3545 125.371 37.8117 125.978 37.7236 125.262Z" fill="#EBEBEB"/>
<path d="M40.0887 145.104C40.0887 145.104 40.1561 139.244 40.3999 139.436C40.5762 139.576 42.5054 141.35 43.5114 142.283C43.8329 142.584 44.3464 142.527 44.6005 142.164C45.1294 141.407 45.9592 140.204 46.3014 139.602C46.4207 139.395 46.3844 139.13 46.2133 138.959L42.2772 135.106H42.9876C43.3092 135.106 43.5581 134.821 43.5114 134.499L43.081 131.579C43.0395 131.299 42.7802 131.097 42.5002 131.128C41.7015 131.216 40.1821 131.372 39.5286 131.346C38.6263 131.31 35.5977 129.64 34.9391 129.884C34.2805 130.127 32.6417 131.657 32.7143 136.356C32.7818 141.049 31.5319 145.436 31.0445 146.375C30.557 147.314 29.582 149.995 29.7584 150.586C29.9347 151.177 32.3306 154.309 32.5432 154.309H38.6989L39.4664 152.831C39.4664 152.831 39.8813 146.728 40.0939 145.11L40.0887 145.104Z" fill="#CDCDCD"/>
<path d="M29.7581 150.586C29.7581 150.586 28.5083 158.832 30.8004 164.36C30.8004 164.36 21.0613 165.993 14.4337 172.719C14.1173 173.041 14.0655 173.544 14.3144 173.928L14.9263 174.866C15.1753 175.25 15.6627 175.406 16.0932 175.24C19.4381 173.933 33.1185 168.555 34.3995 167.596C35.8619 166.502 38.6778 157.525 39.4609 152.831C39.4609 152.831 34.2957 153.459 29.7581 150.586Z" fill="#D4D4D4"/>
<path d="M145.545 175.331L145.654 177.769L147.697 178.334L149.761 177.805C149.761 177.805 147.713 177.478 146.945 175.145L145.545 175.331Z" fill="#B3B3B3"/>
<path d="M136.059 157.414C136.059 157.414 139.217 159.732 140.581 159.804C141.945 159.877 154.096 160.043 154.573 159.976C155.05 159.908 155.802 159.742 155.403 159.115C155.003 158.487 154.236 158.617 154.314 158.14C154.391 157.663 153.852 157.31 152.83 157.808C151.809 158.306 146.301 157.268 144.694 157.196C143.086 157.123 138.294 156.019 137.065 153.41L133.15 153.949L132.74 156.916L136.059 157.419V157.414Z" fill="#B3B3B3"/>
<path d="M124.168 165.077C124.168 165.077 127.342 156.785 128.519 153.969C129.696 151.153 131.796 147.57 133.943 149.924C136.09 152.278 137.065 153.404 137.065 153.404C137.065 153.404 134.711 155.348 134.815 155.914C134.918 156.479 136.562 157.77 136.562 157.77C136.562 157.77 136.759 158.491 134.97 159.342C134.089 159.757 135.224 163.029 135.224 163.029L133.331 168.095L125.143 167.172L124.168 165.072V165.077Z" fill="#EBEBEB"/>
<path d="M148.48 164.364L147.609 175.337H145.187C143.517 170.592 143.787 165.748 143.787 165.748L136.858 170.493C136.957 170.571 139.752 172.734 143.175 175.145H143.18C143.299 175.233 143.424 175.321 143.543 175.404C145.965 178.952 141.152 179.429 141.152 179.429L124.158 178.168L124.91 175.575C124.91 175.575 127.078 175.627 129.484 175.627C131.89 175.627 131.787 175.015 131.787 175.015C131.787 175.015 131.273 174.813 126.461 173.174C121.648 171.536 124.158 165.084 124.158 165.084C126.533 166.241 128.717 166.21 130.501 165.733C133.368 164.965 135.215 163.036 135.215 163.036C135.215 163.036 142.942 160.785 146.167 160.427C149.393 160.07 148.47 164.369 148.47 164.369L148.48 164.364Z" fill="#D4D4D4"/>
<path d="M122.836 175.569H124.92L124.168 178.162L120.569 177.996L122.478 174.988L122.836 175.569Z" fill="#B3B3B3"/>
<path d="M137.247 144.424C137.247 144.424 137.579 147.597 136.251 148.443C134.923 149.288 134.55 148.007 134.135 150.128C133.72 152.254 130.904 146.726 130.904 146.726C130.904 146.726 134.54 143.065 134.69 143.013C134.84 142.961 137.252 144.418 137.252 144.418L137.247 144.424Z" fill="#D4D4D4"/>
<path d="M134.944 144.833C134.944 144.833 137.91 144.859 137.864 143.936C137.817 143.013 135.867 140.098 132.745 141.478C129.623 142.862 130.137 144.548 129.266 145.855C128.394 147.162 127.295 147.955 126.704 149.36C126.112 150.766 126.652 152.28 127.01 152.762C127.367 153.245 128.493 153.582 128.903 153.4C129.312 153.219 131.693 149.64 132.896 148.536C134.099 147.431 132.745 145.082 134.944 144.823V144.833Z" fill="#D2D2D2"/>
<path d="M122.835 175.571C122.835 175.571 121.7 176.058 120.683 178.231C120.46 178.703 120.092 179.087 119.625 179.315C118.417 179.896 117.131 179.948 117.551 179.18C118.064 178.231 121.544 174.342 121.985 174.238C122.426 174.134 123.468 175.125 122.841 175.571H122.835Z" fill="#D3D3D3"/>
<path d="M145.637 177.454C145.637 177.454 145.051 178.694 145.7 178.984C146.348 179.275 151.243 179.223 151.435 179.067C151.627 178.912 151.959 177.952 149.88 177.61C149.283 177.61 149.065 177.869 147.919 177.906C146.773 177.942 145.897 177.843 145.643 177.449L145.637 177.454Z" fill="#D3D3D3"/>
<path d="M148.48 164.364L147.609 175.337H145.187C143.517 170.592 143.787 165.748 143.787 165.748L136.859 170.493C136.859 170.493 132.731 167.729 130.506 165.733C133.374 164.965 135.22 163.036 135.22 163.036C135.22 163.036 142.947 160.785 146.173 160.427C149.398 160.07 148.475 164.369 148.475 164.369L148.48 164.364Z" fill="#C7C7C7"/>
<path d="M216.446 149.602C216.446 149.602 216.523 151.982 212.836 152.137C212.323 152.392 211.711 153.341 213.526 153.341H218.437C218.738 153.341 218.976 153.097 218.976 152.801V149.607H216.44L216.446 149.602Z" fill="#D3D3D3"/>
<path d="M216.353 143.438L216.446 149.604H218.982V143.438H216.353Z" fill="#B3B3B3"/>
<path d="M224.054 142.797L225.63 148.761L228.088 148.154L226.605 142.164L224.054 142.797Z" fill="#B3B3B3"/>
<path d="M225.63 148.76C225.63 148.76 226.278 151.053 222.736 152.09C222.301 152.463 221.933 153.526 223.696 153.091L228.462 151.908C228.752 151.836 228.928 151.54 228.856 151.25L228.088 148.148L225.63 148.755V148.76Z" fill="#D3D3D3"/>
<path d="M225.024 145.877L227.14 145.224C227.772 145.026 228.109 144.347 227.886 143.725C227.409 142.402 226.678 140.198 226.496 138.58C226.222 136.122 224.277 131.004 224.173 129.572C224.069 128.141 224.738 121.534 227.451 115.29C229.494 109.378 227.503 109.607 227.503 109.607L218.904 123.837L220.336 135.915C220.336 135.915 222.213 135.355 223.541 144.928C223.639 145.633 224.344 146.09 225.029 145.877H225.024Z" fill="#C7C7C7"/>
<path d="M228.063 103.95C228.063 103.95 226.17 99.4175 226.58 96.2955C226.989 93.1736 228.151 90.6118 226.523 88.4648C224.894 86.3178 221.357 86.7742 220.284 87.2876C219.21 87.801 217.214 90.9748 216.954 91.483C216.695 91.9912 216.187 92.9143 216.389 93.5314C216.591 94.1486 217.976 95.3206 218.132 95.9896C218.287 96.6586 219.615 99.2671 219.003 103.95C218.391 108.633 228.063 103.95 228.063 103.95Z" fill="#EBEBEB"/>
<path d="M220.579 84.4472C220.859 84.5199 221.046 84.7843 221.035 85.0696C221.004 85.863 220.911 87.3099 220.641 87.9063C220.257 88.7516 221.082 89.0575 222.202 88.1604C223.327 87.2632 223.53 86.7757 223.608 85.7282C223.685 84.6806 223.81 82.7826 224.147 81.8387C224.484 80.8949 224.204 78.3019 222.347 77.996C220.491 77.69 219.158 80.48 219.158 81.455C219.158 82.3521 218.899 84.0064 220.579 84.4421V84.4472Z" fill="#B3B3B3"/>
<path d="M225.998 89.7472C225.086 87.6676 221.73 89.7472 219.755 91.1474C217.779 92.5475 216.378 94.4923 213.951 92.3764C211.524 90.2606 205.861 86.7134 205.659 85.5517C205.457 84.3901 205.395 84.219 205.659 83.6848C205.924 83.1507 205.54 82.7928 204.949 83.3426C204.684 83.5759 204.311 83.8663 204.223 83.4722C204.135 83.0781 203.88 81.4238 202.994 81.9683C202.107 82.5128 202.548 84.1671 203.829 86.283C205.109 88.3988 212.136 94.4923 213.505 95.9236C214.869 97.3549 216.135 97.9357 219.92 95.7524C223.706 93.5692 227.082 92.2312 225.993 89.7472H225.998Z" fill="#B3B3B3"/>
<path d="M221.248 78.9697C221.196 78.6171 221.233 78.2593 221.362 77.9274C221.694 77.0613 222.628 75.7078 225.081 76.7761C228.529 78.28 228.047 83.8393 228.732 86.6708C229.416 89.5023 229.515 92.0227 227.197 92.8784C224.878 93.734 222.042 84.8765 222.042 84.6276C222.042 84.4201 221.445 80.2973 221.248 78.9594V78.9697Z" fill="#D2D2D2"/>
<path d="M219.003 103.95C219.003 103.95 215.404 121.992 215.362 124.99C215.326 127.52 215.352 140.968 215.362 145.085C215.362 145.739 215.907 146.262 216.566 146.242L218.987 146.148C219.615 146.122 220.113 145.604 220.102 144.971C220.071 142.964 220.128 138.779 221.093 136.601C221.845 133.495 220.445 128.957 220.647 127.624C220.849 126.291 222.249 120.457 226.502 115.619C230.754 110.78 229.836 106.02 228.068 103.945H219.008L219.003 103.95Z" fill="#D4D4D4"/>
<path d="M240.472 180.974L237.662 174.46L233.15 163.99C233.139 163.85 233.082 163.72 232.994 163.622L223.836 142.37L219.283 131.806L214.688 121.144L210.093 110.487C210.093 110.487 210.093 110.487 210.093 110.482L205.498 99.8246C205.498 99.8246 205.498 99.8246 205.498 99.8194L200.904 89.1624C200.904 89.1624 200.904 89.1624 200.904 89.1572L196.309 78.5001L192.549 69.7826C192.42 69.4766 192.062 69.3366 191.756 69.4663C191.45 69.5959 191.31 69.9537 191.439 70.2597L194.831 78.1319H179.548L175.949 69.7826C175.819 69.4766 175.462 69.3366 175.156 69.4663C174.85 69.5959 174.71 69.9537 174.839 70.2597L178.594 78.9721C178.594 78.9721 178.594 78.9721 178.594 78.9772L183.189 89.6343C183.189 89.6343 183.189 89.6343 183.189 89.6395L187.783 100.297C187.783 100.297 187.783 100.297 187.783 100.302L192.378 110.959L196.973 121.616L201.568 132.273C201.568 132.273 201.568 132.273 201.568 132.278L210.684 153.431C210.695 153.556 210.747 153.67 210.83 153.763L219.957 174.932L222.768 181.456C222.866 181.684 223.089 181.819 223.322 181.819C223.4 181.819 223.483 181.804 223.561 181.767C223.867 181.638 224.007 181.28 223.877 180.974L221.43 175.295H236.713L239.368 181.451C239.466 181.679 239.689 181.814 239.923 181.814C240 181.814 240.083 181.798 240.161 181.762C240.467 181.632 240.607 181.275 240.477 180.969L240.472 180.974ZM212.23 153.966H227.513L231.589 163.42H216.306L212.23 153.966ZM204.005 99.4357H188.722L184.646 89.9818H199.929L204.005 99.4357ZM204.529 100.644L208.605 110.098H193.322L189.246 100.644H204.529ZM209.123 111.311L213.2 120.765H197.917L193.841 111.311H209.123ZM213.723 121.974L217.799 131.428H202.517L198.44 121.974H213.723ZM218.318 132.641L222.353 142.002H207.07L203.035 132.641H218.318ZM222.876 143.205L226.994 152.757H211.711L207.594 143.205H222.876ZM195.334 79.3195L199.41 88.7734H184.127L180.051 79.3195H195.334ZM220.906 174.087L216.83 164.633H232.113L236.189 174.087H220.906Z" fill="#E0E0E0"/>
<defs>
<linearGradient id="paint0_linear_9193_22289" x1="60.3605" y1="116.612" x2="62.0304" y2="37.8945" gradientUnits="userSpaceOnUse">
<stop stop-color="#C9C9C9"/>
<stop offset="1" stop-color="#BDBDBD"/>
</linearGradient>
</defs>
</svg>
