<svg width="223" height="206" viewBox="0 0 223 206" fill="none" xmlns="http://www.w3.org/2000/svg">
<path d="M173.061 66.7756C149.055 60.0762 133.09 37.4889 133.874 14.7086C134.658 -8.07177 160.913 -3.761 169.535 23.2778C178.156 50.3167 206.763 76.1813 173.061 66.7756Z" fill="#DDDFDF"/>
<path d="M0.401445 109.65C0.401445 140.469 27.4001 169.442 75.5263 178.639C139.066 190.783 222.004 191.587 222.004 130.947C222.004 108.179 223.009 45.978 210.033 37.5816H176.785V114.428L158.553 144.161V83.0217H146.224V57.9734L111.581 31.6463V66.5105H82.2257V21.3398C73.395 22.4537 64.9504 26.4709 57.5031 32.8084V98.0491H44.2169V83.2469L0.87193 63.2573C-0.221848 69.5184 0.401445 102.814 0.401445 109.65ZM77.36 128.598H100.225V143.401H77.36V128.598ZM91.5188 74.6374H102.058V117.363H91.5188V74.6374ZM76.0933 43.8749H64.0416V34.7668H76.0933V43.8749ZM76.0933 55.4279H64.0416V46.3198H76.0933V55.4279ZM76.0933 66.981H64.0416V57.8728H76.0933V66.981ZM76.0933 78.538H64.0416V69.4299H76.0933V78.538ZM196.702 63.587H181.82V41.8844H196.702V63.587ZM196.702 91.1124H181.82V69.4098H196.702V91.1124ZM196.702 118.638H181.82V96.9352H196.702V118.638ZM196.702 146.163H181.82V124.461H196.702V146.163ZM63.4264 96.4124H80.6413V116.108H63.4264V96.4124Z" fill="#EDEEEE"/>
<path d="M184.442 37.582H184.04V169.696H184.442V37.582Z" fill="white"/>
<path d="M221.147 112.516H220.745V141.143H221.147V112.516Z" fill="white"/>
<path d="M147.334 169.694H147.732V0.130286L147.334 0.0820312V169.694Z" fill="white"/>
<path d="M111.03 66.5117H110.628V169.697H111.03V66.5117Z" fill="white"/>
<path d="M73.918 172.884H74.3201V23.1367L73.918 23.2694V172.884Z" fill="white"/>
<path d="M37.614 57.6602H37.2119V169.696H37.614V57.6602Z" fill="white"/>
<path d="M0.907984 84.293H0.505859V112.92H0.907984V84.293Z" fill="white"/>
<path d="M221.147 170.207H0.505859V187.607H221.147V170.207Z" fill="#D1D4D4"/>
<path d="M221.147 187.602H0.505859V188H221.147V187.602Z" fill="black"/>
<path d="M221.147 168.172H0.505859V170.195H221.147V168.172Z" fill="white"/>
<path d="M10.4707 141.148H220.886V140.75H10.1973L10.4707 141.148Z" fill="white"/>
<path d="M220.886 112.516H0.505859V112.914H220.886V112.516Z" fill="white"/>
<path d="M0.505859 84.6873H220.741L220.725 84.2852H0.505859V84.6873Z" fill="white"/>
<path d="M57.5068 56.4529H218.027L217.958 56.0508H57.5068V56.4529Z" fill="white"/>
<path d="M135.343 28.2184H171.321L171.16 27.8203H135.242L135.343 28.2184Z" fill="white"/>
<path d="M25.3125 73.48V179.352C25.3125 183.792 28.9235 187.407 33.3628 187.407H54.5421V187.391H81.2625C83.2128 187.278 84.9861 186.458 86.3211 185.195C87.8693 183.727 88.8343 181.652 88.8343 179.356V73.48C88.8343 71.1839 87.8693 69.109 86.3211 67.6413C84.8775 66.2701 82.9233 65.4297 80.78 65.4297H33.3628C28.9235 65.4297 25.3125 69.0407 25.3125 73.48Z" fill="black"/>
<path d="M28.5781 73.484V179.356C28.5781 183.796 32.1931 187.407 36.6325 187.407H57.8118V187.395H84.5322C88.7504 187.141 92.104 183.635 92.104 179.356V73.484C92.104 69.0447 88.489 65.4297 84.0497 65.4297H36.6325C32.1931 65.4297 28.5781 69.0447 28.5781 73.484Z" fill="black"/>
<path d="M36.6321 67.2189H84.0493C87.5075 67.2189 90.3142 70.0256 90.3142 73.4838V179.356C90.3142 182.814 87.5075 185.617 84.0533 185.617H36.6321C33.1739 185.617 30.3672 182.81 30.3672 179.352V73.4798C30.3672 70.0216 33.1739 67.2148 36.6321 67.2148V67.2189Z" fill="white"/>
<path d="M52.8734 68.2617H67.635C67.9648 68.2617 68.2302 68.5271 68.2302 68.8569C68.2302 69.1866 67.9648 69.452 67.635 69.452H52.8734C52.5437 69.452 52.2783 69.1866 52.2783 68.8569C52.2783 68.5271 52.5437 68.2617 52.8734 68.2617Z" fill="black"/>
<path d="M72.4453 107.329C71.6411 103.452 70.8167 99.5598 69.7873 95.9207C68.7619 92.2816 67.5113 88.8757 66.0959 86.5394C63.6511 82.5062 60.3779 83.3306 58.6528 86.3705C56.5136 90.1424 57.2454 98.1927 57.2333 100.915C57.2052 107.755 57.3821 114.796 57.7561 121.962C57.8244 123.293 57.9209 124.736 58.2788 125.979C58.8136 127.836 59.6902 128.444 60.4301 128.802C62.4367 129.771 64.4312 130.515 66.3975 131.041C68.1789 131.516 69.9562 131.809 71.5767 131.134C73.1972 130.458 75.244 129.791 75.5576 125.492C75.6863 123.723 75.2802 121.495 74.8861 119.468C74.0939 115.411 73.2777 111.362 72.4453 107.329Z" fill="black"/>
<path d="M95.0191 108.347L94.806 108.532L91.0824 111.809L90.636 112.2L82.8994 119.007L80.5028 116.402L77.4105 113.032L72.3238 107.491C68.7249 107.181 70.6792 113.917 67.5186 115.991L73.7996 122.65L74.1574 123.028C74.7928 123.704 75.4804 124.335 76.2002 124.91C77.684 126.097 79.3326 127.058 81.0899 127.765C82.7546 128.437 84.6727 127.926 85.8268 126.547L92.1158 118.991H92.1198L92.5581 118.456L97.7816 112.187L97.7615 112.163L95.0151 108.351L95.0191 108.347Z" fill="#A0A3A3"/>
<path d="M99.1007 102.538C98.7308 102.691 97.4842 104.577 97.1062 104.995C95.7511 106.499 94.8142 108.055 94.5809 109.346C94.3115 110.846 95.4415 111.288 96.8891 112.036C98.019 112.623 99.913 111.212 100.488 110.323C101.063 109.439 101.111 108.284 101.296 107.215C101.481 106.153 104.779 100.154 99.1007 102.534V102.538Z" fill="#A0A3A3"/>
<path d="M82.6066 118.806C81.5772 119.16 80.7006 119.916 80.21 120.889C80.1738 120.961 80.2019 121.054 80.2783 121.09C80.2984 121.102 80.3226 121.106 80.3467 121.106C80.403 121.106 80.4553 121.078 80.4794 121.022C80.9378 120.121 81.7501 119.413 82.7071 119.087C82.7835 119.059 82.8277 118.975 82.7996 118.894C82.7714 118.814 82.687 118.774 82.6066 118.802V118.806Z" fill="black"/>
<path d="M101.293 104.413C100.5 104.341 99.6882 104.481 98.9724 104.831C98.2566 105.177 97.6414 105.736 97.2433 106.424C97.0061 106.83 96.8412 107.296 96.8693 107.767C96.8935 108.161 97.1347 108.792 97.573 108.901C98.0757 109.021 98.7271 108.691 99.1051 108.39C99.5353 108.044 99.857 107.578 100.11 107.087C100.416 106.496 100.665 105.832 101.2 105.442C101.349 105.334 101.522 105.245 101.642 105.109C101.767 104.968 101.827 104.747 101.719 104.598C101.626 104.469 101.449 104.433 101.293 104.421V104.413Z" fill="#A0A3A3"/>
<path d="M76.0033 113.386C74.9257 114.025 74.4793 115.34 74.1536 116.55C73.852 117.66 73.5746 118.79 73.5062 119.944C73.4419 120.857 73.5223 121.782 73.8038 122.642L74.1617 123.02C74.797 123.696 75.4846 124.327 76.2044 124.902C76.4376 123.985 76.6146 123.048 76.8277 122.124C77.1172 120.885 77.4791 119.647 78.1426 118.557C78.4482 118.054 78.8222 117.588 79.2605 117.194C79.6465 116.84 80.0767 116.643 80.507 116.397L77.4148 113.028C76.9242 113.02 76.4296 113.132 76.0074 113.386H76.0033Z" fill="black"/>
<path d="M71.9467 103.749C71.3314 103.335 68.6212 101.682 67.9778 102.269C67.439 102.756 69.0675 105.12 68.9469 105.804C68.6091 107.714 68.6212 109.684 68.9911 111.59C69.3249 113.303 69.9643 115 71.1304 116.299C72.2965 117.598 74.0417 118.454 75.7748 118.257C76.9932 118.117 78.091 117.497 79.1485 116.878C80.001 116.379 80.9178 115.792 81.1993 114.847C81.525 113.75 80.8696 112.62 80.194 111.691C77.9341 108.591 75.1274 105.892 71.9427 103.749H71.9467Z" fill="#C6C8C8"/>
<path d="M75.4123 129.602C76.7554 125.714 77.443 122.324 77.2902 116.783C77.2821 116.509 77.1535 116.256 77.0891 116.003C77.0891 115.99 77.0811 115.986 77.0811 115.978C76.494 113.767 75.9833 112.102 75.6496 111.447C74.8051 109.802 73.0318 103.859 69.5897 102.475C69.5495 102.459 69.5093 102.443 69.4771 102.427C69.4771 102.427 69.4248 102.407 69.4047 102.403C68.8659 102.19 68.3512 102.005 67.8888 101.856C67.8486 101.848 67.8164 101.836 67.7842 101.824C67.7641 101.816 67.74 101.812 67.7199 101.804C65.2951 101.028 62.6492 101.313 60.4456 102.592C60.4255 102.604 60.4054 102.616 60.3853 102.628C60.1119 102.793 59.8264 102.958 59.5369 103.139C59.4565 103.183 59.376 103.239 59.2916 103.288C56.3763 105.017 53.0588 106.85 53.2559 108.744C53.2559 108.744 52.7251 126.104 56.3401 134.287C57.269 136.394 56.1068 145.441 56.1068 145.441C56.5492 150.484 74.5317 147.034 76.9604 145.972C79.0193 145.071 72.4648 138.159 75.4123 129.61V129.602Z" fill="#B9BBBC"/>
<path d="M67.7805 101.828C65.6412 101.14 63.9242 100.742 63.9242 100.742C63.9242 100.742 62.3198 101.506 60.3856 102.632C60.1122 102.797 59.8267 102.962 59.5372 103.143C59.513 103.364 67.6599 110.14 67.6599 110.14C67.6599 110.14 67.9856 102.077 67.8891 101.86C67.8488 101.852 67.8167 101.84 67.7845 101.828H67.7805Z" fill="#A0A3A3"/>
<path d="M67.9131 88.6523C67.0727 88.7167 66.4575 89.6496 66.5419 90.7353C66.6264 91.821 66.7832 93.341 67.6236 93.2766C68.464 93.2123 69.6744 91.5837 69.59 90.5021C69.5055 89.4164 68.7576 88.592 67.9131 88.6564V88.6523Z" fill="#A0A3A3"/>
<path d="M68.6166 89.4288C68.7011 89.4047 68.7533 89.3162 68.7292 89.2318C68.7051 89.1473 68.6206 89.0951 68.5322 89.1192C67.9612 89.272 67.354 89.6902 67.1931 91.6203C67.1851 91.7008 67.2414 91.7772 67.3218 91.7932C67.3339 91.7932 67.3419 91.7932 67.354 91.7932C67.4224 91.7932 67.4867 91.749 67.5068 91.6806C67.5551 91.5238 67.5792 91.367 67.5993 91.2102C67.6395 90.9448 67.6717 90.7116 67.8245 90.5949C67.9572 90.4944 68.1984 90.4663 68.5442 90.5185C68.6367 90.5306 68.7131 90.4703 68.7292 90.3818C68.7413 90.2934 68.681 90.2129 68.5925 90.2009C68.2507 90.1526 67.9893 90.1687 67.7923 90.2491C68.0135 89.6862 68.3191 89.5133 68.6166 89.4328V89.4288Z" fill="black"/>
<path d="M68.2063 92.537C67.7117 92.6094 67.3699 93.0718 67.4423 93.5664C67.5147 94.061 67.9771 94.4028 68.4717 94.3304C68.9663 94.2581 69.3081 93.7956 69.2357 93.301C69.1633 92.8064 68.7009 92.4646 68.2063 92.537Z" fill="#B9BBBC"/>
<path d="M65.3277 97.1602L60.9688 97.8116L61.0854 99.7176L61.3105 103.361L66.7873 102.54L65.8464 99.0702L65.3277 97.1602Z" fill="#A0A3A3"/>
<path d="M60.9688 97.8116L61.0854 99.7176C61.3025 99.8061 61.966 99.8985 62.8386 99.7699C63.671 99.6452 64.9376 98.9938 65.5971 98.1936L65.3277 97.1602L60.9688 97.8116Z" fill="black"/>
<path d="M61.2339 83.6466C58.0854 84.1171 55.8939 86.8836 56.3322 89.8271C56.7705 92.7706 59.6777 94.7731 62.8263 94.3026C65.9748 93.8322 68.1664 91.0656 67.7281 88.1222C67.2897 85.1787 64.3825 83.1762 61.2339 83.6466Z" fill="black"/>
<path d="M61.3547 84.942C58.3147 85.3964 56.3282 88.939 56.9153 92.8556C57.5024 96.7722 60.4378 99.5749 63.4778 99.1246C66.5138 98.6702 68.5042 95.1276 67.9171 91.211C67.3341 87.2944 64.3946 84.4917 61.3587 84.942H61.3547Z" fill="#A0A3A3"/>
<path d="M55.6403 90.4863C54.8159 90.6713 54.3414 91.6806 54.5787 92.7421C54.8159 93.8037 56.4485 95.006 57.2688 94.8211C58.0932 94.6361 57.7956 93.1362 57.5583 92.0746C57.3211 91.013 56.4606 90.3013 55.6362 90.4863H55.6403Z" fill="#A0A3A3"/>
<path d="M55.1863 91.1154C55.0978 91.1154 55.0254 91.1918 55.0295 91.2843C55.0295 91.3728 55.1059 91.4451 55.1943 91.4411C55.504 91.4331 55.8457 91.5095 56.2197 91.98C56.0106 91.9558 55.7533 92.0202 55.4436 92.1689C55.3632 92.2051 55.327 92.3016 55.3672 92.3821C55.4034 92.4625 55.504 92.4987 55.5804 92.4585C55.894 92.3097 56.1312 92.2655 56.2921 92.3218C56.473 92.3861 56.5736 92.5992 56.6862 92.8445C56.7505 92.9852 56.8189 93.134 56.9154 93.2667C56.9475 93.3109 56.9958 93.3351 57.0481 93.3351C57.0762 93.3351 57.1003 93.327 57.1245 93.315C57.1969 93.2748 57.229 93.1903 57.1968 93.1139C56.4771 91.3165 55.7693 91.0873 55.1863 91.1154Z" fill="black"/>
<path d="M64.0167 93.7279C63.7956 93.9049 63.5342 94.0255 63.2527 94.0738C63.1924 94.0818 63.12 94.0898 63.0718 94.0697C62.9873 94.0295 62.9672 93.8606 62.9592 93.74L62.8184 91.7777C62.8104 91.6892 62.734 91.6329 62.6455 91.6289C62.5571 91.6369 62.4887 91.7134 62.4967 91.8018L62.6375 93.7601C62.6495 93.9008 62.6696 94.2266 62.931 94.3552C63.0034 94.3914 63.0838 94.4035 63.1562 94.4035C63.2085 94.4035 63.2608 94.3954 63.309 94.3914C63.6468 94.3351 63.9604 94.1944 64.2258 93.9773C64.2942 93.921 64.3062 93.8204 64.25 93.748C64.1937 93.6797 64.0931 93.6676 64.0207 93.7239L64.0167 93.7279Z" fill="black"/>
<path d="M60.3813 91.1115C60.1722 91.1437 60.0475 91.4453 60.0998 91.7911C60.1521 92.1329 60.3612 92.3862 60.5662 92.3581C60.7753 92.3259 60.9 92.0243 60.8477 91.6785C60.7954 91.3367 60.5864 91.0834 60.3813 91.1115Z" fill="black"/>
<path d="M64.6879 90.467C64.4788 90.4991 64.3542 90.8007 64.4064 91.1466C64.4587 91.4883 64.6678 91.7417 64.8769 91.7135C65.086 91.6814 65.2107 91.3798 65.1584 91.034C65.1061 90.6922 64.897 90.4388 64.6919 90.467H64.6879Z" fill="black"/>
<path d="M65.6654 89.9119C65.4081 89.7872 65.1467 89.6625 64.8893 89.5379C64.7808 89.4856 64.6521 89.4333 64.5395 89.4776C64.4028 89.5298 64.3063 89.759 64.3867 89.8917C64.4551 90.0043 64.632 90.0084 64.7486 90.0445C64.9577 90.1049 65.1588 90.1732 65.3558 90.2617C65.4402 90.2979 65.8665 90.5914 65.9268 90.5673C66.0716 90.515 66.0997 90.3099 66.0233 90.1813C65.9469 90.0486 65.8021 89.9762 65.6654 89.9119Z" fill="black"/>
<path d="M60.2088 90.1255C60.0882 90.1175 59.9836 90.2059 59.8911 90.2864C59.682 90.4794 59.4689 90.6764 59.2598 90.8694C59.1472 90.974 59.0306 91.0825 58.9944 91.2313C58.9582 91.3801 59.0467 91.5651 59.1995 91.5731C59.2638 91.5731 59.5855 91.175 59.6539 91.1147C59.8187 90.974 59.9916 90.8453 60.1726 90.7287C60.2731 90.6643 60.442 90.608 60.4742 90.4794C60.5144 90.3266 60.3535 90.1376 60.2088 90.1255Z" fill="black"/>
<path d="M58.2708 86.5195C57.925 86.5718 55.9627 88.7191 56.6543 90.5326C57.4304 92.5794 57.8124 93.9305 57.8124 93.9305C57.8124 93.9305 58.7936 92.9252 58.4679 90.7578C58.1422 88.5904 58.6167 86.4713 58.2708 86.5236V86.5195Z" fill="black"/>
<path d="M65.7939 85.3951C65.5446 85.4312 66.4011 87.3533 66.7228 89.5207C67.0485 91.6881 67.9693 92.4119 67.9693 92.4119C67.9693 92.4119 67.9492 91.5554 67.6235 89.388C67.2978 87.2206 66.0432 85.3589 65.7939 85.3951Z" fill="black"/>
<path d="M60.6305 94.4688C60.4053 95.2931 60.8115 96.1456 61.5353 96.6C62.2591 97.0543 63.2241 96.994 63.8715 96.4351C62.5566 96.3788 61.29 95.6108 60.6305 94.4688Z" fill="white"/>
<path d="M62.3997 84.4349C61.6357 84.5234 60.9119 84.8089 60.1961 85.0904C59.5849 85.3317 58.9576 85.585 58.4992 86.0555C58.0488 86.5179 57.8076 87.1532 57.703 87.7926C57.5261 88.8944 57.7352 90.0525 58.2821 91.0216C58.7525 90.1128 59.6935 89.5498 60.6264 89.1357C61.5633 88.7215 62.5565 88.3917 63.3527 87.7484C64.0846 87.1573 64.5711 86.2605 64.4987 85.3035C64.4304 84.3827 63.1074 84.3505 62.3957 84.4309L62.3997 84.4349Z" fill="black"/>
<path d="M66.0194 85.6907C65.5168 85.1961 64.8171 84.8784 64.1134 84.9267C63.462 84.9709 62.706 85.4133 62.4527 86.0446C62.1993 86.6759 63.092 87.5364 63.5263 87.8621C64.1335 88.3085 64.8372 88.598 65.4886 88.98C66.136 89.362 66.7553 89.8807 67.0046 90.5925C67.2499 90.3512 67.266 89.9652 67.2579 89.6194C67.2418 88.9157 67.1976 88.2039 67.0167 87.5244C66.8397 86.8408 66.5221 86.1853 66.0194 85.6867V85.6907Z" fill="black"/>
<path d="M64.9294 93.3559C64.1694 93.3559 63.4738 92.8453 63.2727 92.0772C63.1561 91.6349 63.2205 91.1765 63.4497 90.7824C63.6829 90.3883 64.0528 90.1069 64.4952 89.9943C64.9375 89.8777 65.3999 89.942 65.79 90.1752C66.184 90.4084 66.4655 90.7784 66.5781 91.2207C66.6947 91.663 66.6304 92.1215 66.3972 92.5155C66.1639 92.9096 65.794 93.1911 65.3517 93.3037C65.2069 93.3399 65.0621 93.36 64.9214 93.36L64.9294 93.3559ZM64.9335 90.2355C64.8128 90.2355 64.6922 90.2516 64.5756 90.2838C64.2097 90.3803 63.9041 90.6095 63.7151 90.9352C63.5261 91.2609 63.4738 91.6389 63.5663 92.0048C63.7633 92.7568 64.5354 93.2072 65.2873 93.0141C65.6532 92.9176 65.9589 92.6884 66.1478 92.3627C66.3368 92.037 66.3891 91.659 66.2966 91.2931C66.2001 90.9272 65.9709 90.6216 65.6452 90.4326C65.4281 90.3039 65.1828 90.2396 64.9335 90.2396V90.2355Z" fill="white"/>
<path d="M60.7673 93.9536C60.0073 93.9536 59.3117 93.4429 59.1106 92.6749C58.994 92.2326 59.0583 91.7741 59.2876 91.3801C59.5208 90.986 59.8907 90.7045 60.333 90.5919C60.7754 90.4753 61.2378 90.5397 61.6279 90.7729C62.0219 91.0061 62.3034 91.3761 62.416 91.8184C62.5326 92.2607 62.4683 92.7191 62.235 93.1132C62.0018 93.5073 61.6319 93.7887 61.1895 93.9013C61.0448 93.9375 60.9 93.9576 60.7593 93.9576L60.7673 93.9536ZM60.7673 90.8332C60.6507 90.8332 60.5301 90.8493 60.4135 90.8774C59.6615 91.0745 59.2112 91.8465 59.4042 92.5985C59.6012 93.3504 60.3692 93.8008 61.1252 93.6038C61.4911 93.5073 61.7967 93.278 61.9857 92.9523C62.1747 92.6266 62.227 92.2486 62.1345 91.8827C61.9697 91.2514 61.3946 90.8292 60.7714 90.8292L60.7673 90.8332Z" fill="white"/>
<path d="M62.0978 91.816L62.2948 92.0452C62.5602 91.812 62.9623 91.7356 63.3001 91.8482L63.3966 91.5627C62.9543 91.4099 62.4436 91.5104 62.0938 91.816H62.0978Z" fill="white"/>
<path d="M56.9358 94.0448C56.4412 94.1172 56.0994 94.5796 56.1718 95.0742C56.2442 95.5688 56.7066 95.9106 57.2012 95.8383C57.6958 95.7659 58.0376 95.3034 57.9652 94.8088C57.8928 94.3142 57.4304 93.9724 56.9358 94.0448Z" fill="#B9BBBC"/>
<path d="M63.0439 187.471C60.6151 187.314 58.2547 190.438 56.1074 191.797L56.9559 202.007C56.9921 202.224 57.0323 202.437 57.0805 202.646C57.165 203 57.2655 203.334 57.3861 203.648C57.5349 204.03 57.7199 204.375 57.9411 204.677C58.0134 204.777 58.0898 204.874 58.1783 204.966C58.7131 205.55 59.4329 205.911 60.398 205.944C61.6485 205.984 61.8134 205.558 61.8255 204.661C61.8255 204.323 61.8134 203.909 61.8255 203.426L63.0439 187.467V187.471Z" fill="#A0A3A3"/>
<path d="M51.7357 151.3C51.7839 156.592 53.9996 195.854 53.9996 195.854C53.9996 195.854 55.1858 197.222 58.7083 197.656C62.2308 198.09 68.5722 196.357 68.5722 196.357L72.0223 138.811L56.8787 136.551C56.8787 136.551 51.6874 146.004 51.7357 151.296V151.3Z" fill="#D9DADB"/>
<path d="M62.4043 137.379C62.4043 137.379 63.9766 146.696 64.0248 151.988C64.0731 157.279 66.2887 196.546 66.2887 196.546C66.2887 196.546 67.4749 197.913 70.9975 198.347C74.52 198.782 76.993 198.818 78.4607 196.811C79.9686 153.532 76.7557 139.884 76.7557 139.884L62.4043 137.379Z" fill="#D9DADB"/>
<path d="M72.5738 135.271C71.1343 134.793 69.8676 133.261 68.42 133.699C67.5112 133.973 66.5663 134.986 65.8143 134.387C65.5369 134.166 65.38 133.751 65.0382 133.671C64.5919 133.566 64.2742 134.097 63.8721 134.322C62.5733 135.05 61.3187 132.457 59.9073 132.899C59.477 133.036 59.1634 133.438 58.7452 133.615C57.957 133.948 57.1086 133.41 56.3566 132.995C55.6891 132.626 54.5793 132.292 54.0605 133.052C55.6891 134.56 56.1475 136.305 56.1757 138.521C56.1958 140.073 56.3647 140.861 57.7801 141.581C59.7022 142.562 61.958 143.097 64.0531 143.442C66.2446 143.804 68.4803 143.893 70.692 143.692C71.2831 143.639 76.8724 142.92 76.8483 142.357C76.6995 138.907 78.4929 135.44 81.3238 133.703C78.4246 132.798 75.457 136.22 72.5738 135.263V135.271Z" fill="#D9DADB"/>
<path d="M76.7189 139.735C70.6511 141.303 63.9358 140.639 58.2941 137.925C58.2217 137.889 58.1293 137.921 58.0931 137.993C58.0569 138.07 58.089 138.158 58.1614 138.195C61.8327 139.964 65.9544 140.869 70.06 140.869C72.3359 140.869 74.6079 140.591 76.7913 140.024C76.8718 140.004 76.92 139.92 76.8999 139.839C76.8798 139.759 76.7954 139.71 76.7149 139.731L76.7189 139.735Z" fill="black"/>
<path d="M67.4906 151.434C67.4061 151.434 67.3418 151.506 67.3418 151.586L68.4235 196.362C68.4235 196.442 68.4918 196.51 68.5723 196.51C68.6567 196.51 68.721 196.438 68.721 196.358L67.6394 151.582C67.6394 151.502 67.571 151.434 67.4906 151.434Z" fill="black"/>
<path d="M59.2519 135.098C59.1675 135.078 59.0911 135.126 59.071 135.207C59.0509 135.287 59.0991 135.368 59.1795 135.388C60.1446 135.625 60.9086 136.554 60.9569 137.543C60.9569 137.624 61.0252 137.688 61.1057 137.688C61.1057 137.688 61.1097 137.688 61.1137 137.688C61.1981 137.688 61.2585 137.616 61.2544 137.531C61.1981 136.413 60.3376 135.364 59.2479 135.098H59.2519Z" fill="black"/>
<path d="M64.5639 135.465C64.4795 135.477 64.4232 135.549 64.4352 135.634L64.8856 139.084C64.8936 139.16 64.962 139.217 65.0344 139.217C65.0424 139.217 65.0464 139.217 65.0545 139.217C65.1349 139.204 65.1952 139.132 65.1831 139.048L64.7328 135.598C64.7207 135.513 64.6443 135.457 64.5639 135.469V135.465Z" fill="black"/>
<path d="M69.3968 135.493C68.4398 136.358 67.8768 137.649 67.8929 138.94C67.8929 139.024 67.9613 139.088 68.0457 139.088C68.1302 139.088 68.1945 139.02 68.1945 138.936C68.1824 137.729 68.7052 136.527 69.5979 135.719C69.6582 135.662 69.6662 135.566 69.6099 135.505C69.5536 135.445 69.4571 135.441 69.3968 135.493Z" fill="black"/>
<path d="M75.6654 136.504C74.3787 136.769 73.2246 137.666 72.6536 138.852C72.6174 138.929 72.6496 139.017 72.722 139.053C72.7421 139.065 72.7662 139.069 72.7863 139.069C72.8426 139.069 72.8949 139.037 72.923 138.985C73.4538 137.883 74.5275 137.047 75.7258 136.802C75.8062 136.785 75.8585 136.705 75.8424 136.625C75.8263 136.544 75.7459 136.488 75.6654 136.508V136.504Z" fill="black"/>
<path d="M71.8939 136.066C70.8645 136.573 70.1487 137.643 70.0764 138.789C70.0723 138.873 70.1327 138.942 70.2171 138.95H70.2251C70.3056 138.95 70.3699 138.889 70.3739 138.809C70.4423 137.767 71.0897 136.798 72.0226 136.336C72.099 136.3 72.1271 136.207 72.0909 136.135C72.0548 136.058 71.9623 136.03 71.8899 136.066H71.8939Z" fill="black"/>
<path d="M75.8344 141.561C69.5735 143.68 62.5044 142.831 56.923 139.297C56.8547 139.253 56.7582 139.273 56.7139 139.345C56.6697 139.413 56.6898 139.51 56.7582 139.554C60.3611 141.834 64.5752 143.012 68.8015 143.012C71.2141 143.012 73.6268 142.63 75.9309 141.85C76.0114 141.822 76.0516 141.738 76.0234 141.657C75.9993 141.581 75.9148 141.541 75.8344 141.565V141.561Z" fill="black"/>
<path d="M94.8268 99.429C87.5888 103.289 86.3623 105.316 86.3623 105.316C86.3623 105.316 83.1615 102.783 75.9154 102.537C67.9777 102.272 62.6055 103.398 62.6055 103.398L69.5902 129.29C69.5902 129.29 81.2997 126.56 89.4867 130.231C96.009 124.533 99.8733 124.392 99.8733 124.392L102.322 97.4908C102.322 97.4908 98.7474 97.338 94.8308 99.4249L94.8268 99.429Z" fill="black"/>
<path d="M101.623 105.692C101.313 105.612 100.947 105.733 100.782 106.006C100.67 106.187 100.654 106.416 100.694 106.625C100.738 106.835 100.835 107.028 100.943 107.212C101.056 107.405 101.414 108.093 101.663 108.113C101.956 108.133 102.226 107.498 102.294 107.281C102.387 106.975 102.403 106.637 102.294 106.336C102.186 106.034 101.936 105.777 101.627 105.697L101.623 105.692Z" fill="#A0A3A3"/>
<path d="M101.811 103.142C101.501 103.061 101.135 103.182 100.971 103.455C100.858 103.636 100.842 103.866 100.886 104.075C100.93 104.284 101.027 104.477 101.135 104.662C101.248 104.855 101.606 105.542 101.855 105.562C102.149 105.583 102.418 104.947 102.486 104.73C102.579 104.424 102.595 104.087 102.486 103.785C102.378 103.484 102.129 103.226 101.819 103.146L101.811 103.142Z" fill="#A0A3A3"/>
<path d="M101.767 102.11C101.498 102.038 101.184 102.13 101.043 102.347C100.951 102.492 100.939 102.677 100.979 102.846C101.019 103.015 101.108 103.176 101.204 103.325C101.305 103.481 101.622 104.044 101.839 104.064C102.093 104.085 102.318 103.578 102.37 103.401C102.447 103.156 102.455 102.882 102.354 102.637C102.254 102.392 102.036 102.179 101.767 102.11Z" fill="#A0A3A3"/>
<path d="M101.498 104.269C101.12 104.168 100.689 104.269 100.5 104.542C100.376 104.719 100.368 104.952 100.428 105.165C100.488 105.378 100.617 105.58 100.758 105.773C100.903 105.974 101.369 106.689 101.671 106.722C102.025 106.758 102.318 106.126 102.386 105.909C102.483 105.604 102.483 105.262 102.334 104.952C102.185 104.643 101.876 104.365 101.498 104.269Z" fill="#A0A3A3"/>
<path d="M64.7689 112.79C64.6322 112.73 64.4673 112.839 64.411 112.975C64.3547 113.112 64.3748 113.269 64.3909 113.418C64.5839 114.97 64.5759 116.542 64.3708 118.094C64.2663 118.895 63.5063 121.351 65.0785 121.436C65.6455 121.468 65.9953 120.837 66.1481 120.29C66.8438 117.825 66.3854 115.058 64.9297 112.947C64.8855 112.883 64.8372 112.819 64.7689 112.79Z" fill="#A0A3A3"/>
<path d="M67.1526 109.977C67.0199 109.716 66.7385 109.519 66.4932 109.607C66.1916 109.716 66.1071 110.154 66.075 110.516C65.9182 112.197 65.7734 113.882 65.6005 115.559C65.5 116.54 65.1139 117.605 65.2507 118.607C65.3673 119.443 66.272 121.534 66.7264 119.914C67.1044 118.558 67.1124 116.829 67.229 115.406C67.3497 113.898 67.406 112.374 67.3296 110.85C67.3135 110.548 67.2894 110.239 67.1567 109.977H67.1526Z" fill="#A0A3A3"/>
<path d="M68.565 109.145C68.4926 108.992 68.3358 108.868 68.1709 108.88C67.8894 108.9 67.7728 109.242 67.7206 109.519C67.2863 111.908 66.8681 114.296 66.4539 116.689C66.3091 117.521 66.1644 118.354 66.0156 119.19C65.9352 119.648 65.5129 120.638 66.1201 120.911C66.4056 121.04 66.7515 120.939 66.9927 120.742C67.234 120.545 67.3868 120.26 67.5235 119.978C68.2835 118.398 68.6333 116.645 68.75 114.895C68.8706 113.146 68.766 111.389 68.6615 109.64C68.6494 109.471 68.6414 109.298 68.565 109.149V109.145Z" fill="#A0A3A3"/>
<path d="M70.1288 110.49C69.9036 110.305 69.5417 110.398 69.3406 110.607C69.1396 110.82 69.0551 111.113 68.9747 111.395C68.5806 112.822 68.1906 114.254 67.7965 115.681C67.6799 116.108 66.7912 118.492 67.5713 118.737C67.7081 118.782 67.8568 118.725 67.9855 118.661C68.657 118.307 69.0873 117.624 69.409 116.932C70.2575 115.118 70.5912 113.072 70.366 111.081C70.3419 110.864 70.2977 110.623 70.1288 110.486V110.49Z" fill="#A0A3A3"/>
<path d="M70.744 113.136C70.5631 113.249 70.4626 113.884 70.35 114.061C69.3889 115.577 68.4078 116.643 67.4467 118.159C67.2457 118.476 67.0406 118.806 67.0044 119.18C66.9602 119.626 66.4736 121.444 66.731 121.79C67.0728 122.256 67.2537 122.304 67.5472 121.798C68.0579 120.909 69.2683 118.617 69.779 117.732C70.1851 117.029 70.5912 116.321 70.8767 115.557C71.1622 114.789 71.6448 113.912 71.3352 113.156C71.2547 112.959 70.929 113.028 70.7481 113.14L70.744 113.136Z" fill="#A0A3A3"/>
<path d="M65.2592 118.082L64.8209 117.648L64.4067 117.978L64.3384 118.03L64.0046 118.295L55.2466 125.216L55.2305 123.366L55.2225 122.441L55.138 113.281C49.5165 110.844 48.6037 114.725 47.4335 118.315C47.4335 118.315 47.3853 120.302 47.4939 122.952C47.5622 124.516 47.6828 126.305 47.908 128.067C48.4428 132.233 49.5285 136.205 51.7442 136.423C57.5668 137.002 67.1009 122.497 68.0418 121.042V121.034C68.0941 120.961 68.1182 120.925 68.1182 120.925L65.4281 118.255L65.2592 118.082Z" fill="#A0A3A3"/>
<path d="M49.0863 122.286C48.5957 122.447 48.0971 122.624 47.6508 122.857C47.6065 124.023 47.5945 125.354 47.687 126.657C48.5636 126.21 49.4321 125.74 50.3288 125.318C54.0283 123.573 54.2977 123.512 55.2306 123.355L55.2587 121.916C55.2467 121.892 55.2306 121.872 55.2145 121.848C54.354 120.734 50.4374 121.848 49.0903 122.282L49.0863 122.286Z" fill="black"/>
<path d="M59.2998 109.227C59.0948 108.069 60.6509 103.779 59.0827 103.662C57.8522 103.57 53.7748 106.927 52.9424 107.703C50.4252 110.044 48.5473 113.031 47.353 116.244C46.6735 118.074 46.211 119.984 45.9859 121.922C45.8733 122.875 45.8612 123.965 46.5448 124.64C47.4335 125.517 48.9092 125.163 50.0914 124.749C52.1864 124.013 54.2815 123.277 56.3724 122.545C57.5828 122.119 58.8736 121.636 59.6054 120.583C60.3815 119.469 60.3453 118.001 60.2408 116.646C60.0478 114.161 59.7341 111.684 59.2998 109.231V109.227Z" fill="#B9BBBC"/>
<path d="M70.446 91.5989C70.5546 93.0666 69.9434 94.3091 69.0869 94.3734C68.2304 94.4338 67.4463 93.2958 67.3377 91.8241C67.2291 90.3523 67.8403 89.1138 68.6968 89.0495C69.5533 88.9851 70.3375 90.1271 70.446 91.5989Z" fill="#D9DADB"/>
<path d="M70.5224 91.7081C70.5868 92.5686 70.2289 93.2964 69.7262 93.3326C69.2236 93.3688 68.7652 92.7013 68.7008 91.8408C68.6365 90.9803 68.9944 90.2524 69.497 90.2162C69.9997 90.1801 70.4581 90.8476 70.5224 91.7081Z" fill="#B9BBBC"/>
<path d="M57.6151 92.6145C57.7196 94.0822 57.1124 95.3247 56.2519 95.3891C55.3954 95.4494 54.6113 94.3114 54.5027 92.8397C54.3942 91.372 55.0054 90.1294 55.8619 90.0651C56.7224 90.0008 57.5025 91.1428 57.6111 92.6145H57.6151Z" fill="#D9DADB"/>
<path d="M56.2597 92.7393C56.32 93.5999 55.9662 94.3277 55.4635 94.3639C54.9609 94.4001 54.5025 93.7326 54.4381 92.872C54.3738 92.0115 54.7317 91.2837 55.2343 91.2475C55.737 91.2113 56.1954 91.8788 56.2597 92.7393Z" fill="#B9BBBC"/>
<path d="M69.5257 90.5653C69.2884 90.5814 69.0632 90.4286 69.0029 90.1873C68.9386 89.9299 67.3543 83.9103 61.8493 84.3084C56.1755 84.7186 55.8779 90.8025 55.8699 91.0599C55.8578 91.3373 55.6367 91.5545 55.3512 91.5424C55.0737 91.5344 54.8566 91.3011 54.8686 91.0237C54.8686 90.9513 55.2024 83.7816 61.781 83.3031C68.1344 82.8407 69.964 89.8656 69.9841 89.938C70.0524 90.2074 69.8876 90.4808 69.6182 90.5492C69.59 90.5572 69.5619 90.5613 69.5297 90.5653H69.5257Z" fill="#B9BBBC"/>
<path d="M61.0048 96.7836C61.2782 96.6549 61.6039 96.7675 61.7326 97.0409C61.8613 97.3103 61.7487 97.6361 61.4793 97.7688C61.2098 97.8974 60.8841 97.7848 60.7514 97.5154C60.6228 97.246 60.7353 96.9203 61.0048 96.7876V96.7836Z" fill="black"/>
<path d="M55.6486 93.441L58.6403 97.3616C58.9781 97.804 59.5853 97.9487 60.088 97.7074L60.8761 97.3295C60.9605 97.2892 61.0571 97.3254 61.0973 97.4059C61.1375 97.4863 61.1013 97.5868 61.0209 97.627L60.2327 98.005C59.9754 98.1256 59.6979 98.1699 59.4325 98.1458C59.0264 98.1055 58.6404 97.9005 58.383 97.5627L55.3913 93.6421C55.335 93.5697 55.3511 93.4651 55.4234 93.4089C55.4958 93.3526 55.6004 93.3686 55.6567 93.441H55.6486Z" fill="black"/>
<path d="M147.965 81.7618C147.378 81.1425 146.646 80.6359 145.822 80.4227C144.805 80.1573 143.707 80.3463 142.75 80.7846C142.207 81.0339 141.672 81.3918 141.427 81.9347C141.234 82.3609 141.238 82.8595 141.35 83.3139C141.443 83.6839 141.616 84.3393 141.885 84.6208C142.159 84.9063 142.883 84.9706 143.261 85.0792C144.302 85.3768 145.348 85.6663 146.397 85.9437C147.262 86.1729 148.223 86.3861 149.019 85.9799C149.409 85.7789 149.739 85.4049 149.779 84.9666C149.815 84.5725 149.622 84.1986 149.429 83.8528C149.011 83.1088 148.552 82.377 147.965 81.7618Z" fill="#AEB1B1"/>
<path d="M145.525 83.7694C144.664 83.5442 143.752 83.5965 142.879 83.7855C142.65 83.8378 142.417 83.8981 142.216 84.0268C142.091 84.1032 141.769 84.3806 141.846 84.5616C141.91 84.7144 142.324 84.6702 142.469 84.6862C142.984 84.7385 143.498 84.8189 144.005 84.9315C145.018 85.1487 146.011 85.4784 146.956 85.9087C147.206 86.0212 147.535 86.1258 147.716 85.9207C147.869 85.7438 147.777 85.4663 147.652 85.2653C147.186 84.5093 146.381 83.9946 145.521 83.7694H145.525Z" fill="black"/>
<path d="M139.859 87.8332C139.24 87.8011 138.701 88.4243 138.66 89.2205C138.62 90.0207 139.537 91.1949 140.16 91.2271C140.784 91.2592 140.868 90.1373 140.908 89.3371C140.948 88.5369 140.482 87.8654 139.859 87.8332Z" fill="#A0A3A3"/>
<path d="M139.417 88.1871C139.348 88.1711 139.288 88.2113 139.272 88.2756C139.256 88.3399 139.296 88.4043 139.361 88.4204C139.578 88.4726 139.807 88.5973 139.98 89.0034C139.831 88.9471 139.642 88.9391 139.393 88.9833C139.328 88.9954 139.284 89.0557 139.296 89.12C139.308 89.1844 139.369 89.2286 139.433 89.2165C139.686 89.1723 139.863 89.1884 139.964 89.2608C140.08 89.3452 140.108 89.5141 140.141 89.7071C140.161 89.8197 140.181 89.9363 140.217 90.0489C140.233 90.0972 140.281 90.1293 140.33 90.1293C140.338 90.1293 140.346 90.1293 140.358 90.1293C140.418 90.1173 140.458 90.061 140.45 90.0007C140.293 88.5852 139.839 88.2917 139.417 88.1871Z" fill="black"/>
<path d="M146.377 93.9219L141.994 94.0546L141.886 95.2529L141.608 98.2687L146.828 98.7553L146.462 94.7784L146.377 93.9219Z" fill="#A0A3A3"/>
<path d="M144.555 84.0148C142.231 83.7293 140.132 85.2573 139.863 87.4287C139.593 89.6001 141.258 91.5946 143.582 91.8801C145.906 92.1656 148.005 90.6376 148.275 88.4662C148.544 86.2948 146.879 84.3003 144.555 84.0148Z" fill="#AEB1B1"/>
<path d="M141.994 94.0545L141.886 95.2528C142.348 95.5986 142.883 95.8238 143.462 95.8961C143.78 95.9363 144.097 95.9283 144.407 95.872C145.155 95.7433 145.867 95.3573 146.466 94.7823L146.385 93.9258L141.998 94.0545H141.994Z" fill="black"/>
<path d="M144.387 84.9541C142.143 84.6766 140.036 86.7958 139.678 89.687C139.606 90.266 139.61 90.833 139.682 91.3678C139.964 93.5111 141.299 95.1999 143.092 95.4211C143.41 95.4613 143.728 95.4533 144.037 95.397C145.903 95.0833 147.495 93.1693 147.801 90.6882C148.159 87.797 146.635 85.2316 144.387 84.9541Z" fill="#A0A3A3"/>
<path d="M144.781 93.261C144.64 93.1766 144.463 93.265 144.314 93.3455C143.751 93.6471 143.257 93.9004 142.621 93.8401C142.079 93.7918 141.343 93.7878 140.949 93.4098C140.651 93.1243 139.831 92.1029 139.807 91.918C140.088 94.0612 141.298 95.1992 143.092 95.4204C143.41 95.4606 143.727 95.4525 144.037 95.3963C144.049 95.2555 144.057 95.1148 144.093 94.9821C144.178 94.6564 145.295 93.5666 144.781 93.261Z" fill="black"/>
<path d="M148.717 88.927C148.11 88.8064 147.491 89.3452 147.334 90.1334C147.181 90.9175 146.988 92.0273 147.6 92.148C148.211 92.2686 149.385 91.3518 149.542 90.5677C149.695 89.7835 149.329 89.0477 148.717 88.9311V88.927Z" fill="#A0A3A3"/>
<path d="M149.064 89.3789H149.051C148.617 89.3789 148.11 89.5639 147.62 90.8868C147.6 90.9431 147.62 91.0075 147.676 91.0356C147.692 91.0437 147.712 91.0477 147.728 91.0477C147.769 91.0477 147.805 91.0276 147.829 90.9954C147.893 90.8949 147.942 90.7863 147.99 90.6817C148.07 90.5008 148.139 90.344 148.271 90.2917C148.388 90.2475 148.565 90.2756 148.794 90.3802C148.854 90.4083 148.923 90.3802 148.951 90.3198C148.979 90.2595 148.951 90.1912 148.891 90.163C148.657 90.0625 148.468 90.0223 148.316 90.0384C148.581 89.6885 148.83 89.6202 149.051 89.6202C149.051 89.6202 149.059 89.6202 149.064 89.6202C149.128 89.6202 149.18 89.5679 149.18 89.5036C149.18 89.4392 149.128 89.3829 149.064 89.3829V89.3789Z" fill="black"/>
<path d="M143.759 91.2411C143.566 91.3256 143.357 91.3578 143.148 91.3336C143.104 91.3296 143.051 91.3216 143.023 91.2934C142.971 91.2452 142.991 91.1245 143.007 91.0361L143.293 89.6206C143.305 89.5563 143.265 89.4919 143.2 89.4799C143.136 89.4638 143.072 89.508 143.059 89.5724L142.774 90.9878C142.754 91.0883 142.706 91.3256 142.862 91.4703C142.943 91.5427 143.043 91.5588 143.124 91.5709C143.176 91.5749 143.228 91.5789 143.277 91.5789C143.474 91.5789 143.671 91.5387 143.856 91.4583C143.916 91.4301 143.944 91.3618 143.916 91.3015C143.888 91.2411 143.819 91.213 143.759 91.2411Z" fill="black"/>
<path d="M144.359 92.5556C143.599 93.018 142.569 93.022 141.805 92.5676C141.749 92.5355 141.677 92.5516 141.64 92.6078C141.608 92.6641 141.624 92.7365 141.681 92.7687C142.095 93.014 142.581 93.1386 143.068 93.1386C143.554 93.1386 144.057 93.01 144.475 92.7566C144.532 92.7204 144.548 92.6481 144.516 92.5918C144.483 92.5355 144.407 92.5194 144.351 92.5516L144.359 92.5556Z" fill="black"/>
<path d="M143.583 93.3744C143.205 93.5916 142.674 93.5353 142.348 93.2417C142.3 93.1975 142.223 93.2015 142.179 93.2498C142.135 93.298 142.139 93.3744 142.187 93.4187C142.425 93.6358 142.746 93.7484 143.064 93.7484C143.285 93.7484 143.506 93.6961 143.699 93.5835C143.756 93.5514 143.776 93.479 143.743 93.4227C143.711 93.3664 143.639 93.3463 143.583 93.3785V93.3744Z" fill="black"/>
<path d="M141.701 88.6655C141.548 88.6454 141.399 88.8384 141.367 89.0917C141.335 89.3451 141.436 89.5662 141.588 89.5863C141.741 89.6064 141.89 89.4134 141.922 89.1601C141.954 88.9068 141.854 88.6856 141.701 88.6655Z" fill="black"/>
<path d="M145.292 89.1108C145.139 89.0907 144.99 89.2837 144.958 89.5371C144.926 89.7904 145.027 90.0115 145.179 90.0317C145.332 90.0518 145.481 89.8587 145.513 89.6054C145.545 89.3521 145.445 89.1309 145.292 89.1108Z" fill="black"/>
<path d="M140.438 90.15C140.401 90.158 140.377 90.1942 140.385 90.2344C140.393 90.2706 140.43 90.2947 140.47 90.2867C140.506 90.2787 140.53 90.2425 140.522 90.2023C140.514 90.1661 140.478 90.1419 140.438 90.15Z" fill="#D8DBDB"/>
<path d="M140.341 90.9351C140.305 90.9432 140.281 90.9794 140.289 91.0196C140.297 91.0558 140.333 91.0799 140.369 91.0719C140.405 91.0638 140.429 91.0276 140.421 90.9874C140.413 90.9512 140.377 90.9271 140.337 90.9351H140.341Z" fill="#D8DBDB"/>
<path d="M140.864 89.9859C140.828 89.994 140.804 90.0302 140.812 90.0704C140.82 90.1066 140.856 90.1307 140.897 90.1226C140.933 90.1146 140.957 90.0784 140.949 90.0382C140.941 90.002 140.905 89.9779 140.864 89.9859Z" fill="#D8DBDB"/>
<path d="M141.085 90.4703C141.049 90.4783 141.025 90.5145 141.033 90.5547C141.041 90.5909 141.077 90.6151 141.117 90.607C141.153 90.599 141.178 90.5628 141.17 90.5226C141.161 90.4864 141.125 90.4623 141.085 90.4703Z" fill="#D8DBDB"/>
<path d="M141.632 90.1773C141.596 90.1854 141.572 90.2216 141.58 90.2618C141.588 90.302 141.624 90.3221 141.664 90.3141C141.7 90.306 141.724 90.2698 141.716 90.2296C141.708 90.1934 141.672 90.1693 141.632 90.1773Z" fill="#D8DBDB"/>
<path d="M141.801 90.6148C141.765 90.6229 141.741 90.6591 141.749 90.6993C141.757 90.7355 141.793 90.7596 141.833 90.7515C141.869 90.7435 141.893 90.7073 141.885 90.6671C141.877 90.6309 141.841 90.6068 141.801 90.6148Z" fill="#D8DBDB"/>
<path d="M141.286 90.8375C141.25 90.8455 141.226 90.8817 141.234 90.9219C141.242 90.9581 141.278 90.9823 141.318 90.9742C141.355 90.9662 141.379 90.93 141.371 90.8898C141.363 90.8536 141.326 90.8294 141.286 90.8375Z" fill="#D8DBDB"/>
<path d="M141.817 91.0484C141.781 91.0565 141.757 91.0927 141.765 91.1329C141.773 91.1691 141.809 91.1932 141.85 91.1851C141.886 91.1771 141.91 91.1409 141.902 91.1007C141.894 91.0645 141.858 91.0404 141.817 91.0484Z" fill="#D8DBDB"/>
<path d="M140.687 90.6059C140.651 90.6018 140.615 90.63 140.611 90.6662C140.607 90.7024 140.635 90.7385 140.671 90.7426C140.707 90.7466 140.743 90.7184 140.747 90.6822C140.751 90.6461 140.723 90.6099 140.687 90.6059Z" fill="#D8DBDB"/>
<path d="M140.036 90.4574C139.996 90.4534 139.963 90.4815 139.959 90.5177C139.955 90.5579 139.983 90.5901 140.02 90.5941C140.056 90.5982 140.092 90.57 140.096 90.5338C140.1 90.4976 140.072 90.4614 140.036 90.4574Z" fill="#D8DBDB"/>
<path d="M142.3 90.439C142.264 90.4471 142.24 90.4833 142.248 90.5235C142.256 90.5597 142.292 90.5838 142.332 90.5758C142.368 90.5677 142.392 90.5315 142.384 90.4913C142.376 90.4551 142.34 90.431 142.3 90.439Z" fill="#D8DBDB"/>
<path d="M146.028 90.8822C146.012 90.9184 146.028 90.9586 146.06 90.9747C146.092 90.9908 146.136 90.9747 146.152 90.9426C146.169 90.9064 146.152 90.8661 146.12 90.8501C146.088 90.834 146.044 90.8501 146.028 90.8822Z" fill="#D8DBDB"/>
<path d="M145.931 91.6674C145.915 91.7036 145.931 91.7438 145.963 91.7599C145.999 91.776 146.04 91.7599 146.056 91.7277C146.072 91.6915 146.056 91.6513 146.024 91.6352C145.991 91.6191 145.947 91.6352 145.931 91.6674Z" fill="#D8DBDB"/>
<path d="M145.658 90.6205C145.642 90.6567 145.658 90.6969 145.69 90.713C145.726 90.7291 145.766 90.713 145.782 90.6808C145.798 90.6446 145.782 90.6044 145.75 90.5883C145.714 90.5723 145.674 90.5883 145.658 90.6205Z" fill="#D8DBDB"/>
<path d="M145.324 91.0346C145.308 91.0708 145.324 91.111 145.356 91.1271C145.392 91.1431 145.432 91.1271 145.448 91.0949C145.464 91.0587 145.448 91.0185 145.416 91.0024C145.38 90.9863 145.34 91.0024 145.324 91.0346Z" fill="#D8DBDB"/>
<path d="M144.862 90.6205C144.846 90.6567 144.862 90.6969 144.894 90.713C144.93 90.7291 144.97 90.713 144.986 90.6808C145.003 90.6446 144.986 90.6044 144.954 90.5883C144.922 90.5723 144.878 90.5883 144.862 90.6205Z" fill="#D8DBDB"/>
<path d="M144.592 91.0033C144.576 91.0395 144.592 91.0797 144.624 91.0958C144.661 91.1119 144.701 91.0958 144.717 91.0636C144.733 91.0275 144.717 90.9872 144.685 90.9712C144.653 90.9551 144.608 90.9712 144.592 91.0033Z" fill="#D8DBDB"/>
<path d="M145.039 91.3432C145.022 91.3794 145.039 91.4196 145.071 91.4357C145.103 91.4517 145.147 91.4357 145.163 91.4035C145.179 91.3673 145.163 91.3271 145.131 91.311C145.095 91.2949 145.055 91.311 145.039 91.3432Z" fill="#D8DBDB"/>
<path d="M144.471 91.4174C144.455 91.4536 144.471 91.4938 144.503 91.5099C144.535 91.526 144.58 91.5099 144.596 91.4777C144.612 91.4455 144.596 91.4013 144.564 91.3852C144.527 91.3691 144.487 91.3852 144.471 91.4174Z" fill="#D8DBDB"/>
<path d="M145.77 91.2348C145.734 91.2307 145.698 91.2589 145.694 91.2951C145.69 91.3353 145.714 91.3675 145.754 91.3715C145.79 91.3755 145.826 91.3474 145.831 91.3112C145.835 91.2709 145.806 91.2388 145.77 91.2348Z" fill="#D8DBDB"/>
<path d="M146.438 91.2465C146.402 91.2425 146.366 91.2706 146.362 91.3068C146.358 91.347 146.386 91.3792 146.422 91.3832C146.462 91.3872 146.494 91.3591 146.498 91.3229C146.502 91.2867 146.474 91.2505 146.438 91.2465Z" fill="#D8DBDB"/>
<path d="M144.154 90.7143C144.138 90.7505 144.154 90.7907 144.186 90.8068C144.222 90.8228 144.262 90.8068 144.278 90.7746C144.295 90.7384 144.278 90.6982 144.246 90.6821C144.214 90.666 144.17 90.6821 144.154 90.7143Z" fill="#D8DBDB"/>
<path d="M146.003 85.125C144.918 84.5661 143.595 84.3368 142.469 84.8113C141.343 85.2858 139.549 87.409 139.927 88.5711C139.811 88.2092 140.309 87.7106 140.527 87.4854C140.824 87.1717 141.13 86.846 141.496 86.5967C142.252 86.086 143.201 85.8488 144.105 85.9855C146.233 86.3032 146.956 88.2092 147.761 89.9222C148.368 89.4075 148.026 87.4613 147.7 86.7375C147.375 86.0137 146.711 85.4909 146.003 85.129V85.125Z" fill="#AEB1B1"/>
<path d="M152.236 121.029C152.473 119.196 153.084 117.43 153.691 115.681C147.696 114.945 140.478 114.451 134.482 113.719C136.256 115.814 137.012 118.572 137.1 121.262C137.193 123.953 135.086 126.663 134.571 129.305C140.514 130.314 148.504 128.468 154.447 129.478C151.11 123.595 151.998 122.863 152.236 121.029Z" fill="black"/>
<path d="M148.175 99.0352C148.135 99.0151 148.091 98.999 148.05 98.9829C147.162 98.633 146.257 98.3194 145.332 98.0822C144.632 97.9012 143.917 97.7645 143.197 97.7042C142.871 97.676 142.553 97.6841 142.236 97.7243C141.484 97.8127 140.748 98.0862 140.044 98.4923C137.282 100.069 134.974 103.663 133.779 106.334C133.172 107.701 132.875 109.229 132.995 110.717C133.047 111.396 133.192 112.064 133.429 112.703C134.33 115.096 136.506 116.841 138.89 117.77C141.275 118.694 143.868 118.904 146.426 119.004C148.107 119.072 149.924 119.052 151.368 118.252C151.581 118.136 151.79 117.995 151.987 117.838C153.612 116.555 154.078 114.319 154.303 112.257C154.492 110.552 154.585 108.778 153.961 107.178C152.924 104.496 150.829 100.185 148.175 99.0392V99.0352Z" fill="black"/>
<path d="M151.789 100.108C151.086 99.4201 149.73 98.4309 148.412 97.88C147.161 97.3532 145.947 97.2125 145.331 98.0811C145.054 98.4631 144.901 99.0501 144.917 99.8825C144.933 100.944 145.347 101.957 145.613 102.987C145.689 103.272 145.75 103.562 145.806 103.851C146.128 105.58 146.124 107.362 146.204 109.127C146.296 111.186 146.534 113.301 147.511 115.115C148.315 116.618 149.739 117.881 151.371 118.247C151.709 118.323 152.063 118.36 152.417 118.352C155.079 118.287 157.157 115.69 157.471 113.048C157.785 110.398 156.747 107.784 155.517 105.42C154.512 103.493 153.354 101.616 151.793 100.104L151.789 100.108Z" fill="black"/>
<path d="M131.499 176.187C131.029 177.562 130.289 183.292 128.737 183.831C127.189 184.374 125.998 185.693 124.325 185.777C123.533 185.817 122.87 185.846 122.608 185.926C122.6 185.926 122.592 185.93 122.584 185.934C121.824 186.179 122.041 187.321 122.838 187.313C126.473 187.281 129.054 187.197 133.522 187.305C134.101 187.321 135.179 187.112 135.179 186.035C135.174 183.666 131.218 183.328 136.337 178.065C136.904 177.482 133.731 176.106 131.495 176.183L131.499 176.187Z" fill="#A0A3A3"/>
<path d="M134.788 184.376C134.72 184.279 134.603 184.243 134.494 184.283C133.734 184.569 130.767 185.626 129.303 185.24C128.354 184.991 127.972 184.633 127.819 184.372C127.723 184.207 127.522 184.134 127.353 184.231C126.738 184.581 125.499 185.24 124.836 185.26C123.931 185.288 123.054 185.445 122.322 185.847C121.989 186.032 121.908 186.479 121.904 186.853C121.904 187.186 122.17 187.456 122.499 187.456L134.796 187.448C135.001 187.448 135.182 187.323 135.254 187.134C135.383 186.808 135.54 186.286 135.456 185.815C135.359 185.26 134.981 184.657 134.784 184.372L134.788 184.376Z" fill="#B9BBBC"/>
<path d="M161.835 178.38C161.98 177.483 159.76 177.113 158.095 177.189C157.741 178.754 158.634 183.672 156.973 184.464C153.576 186.076 155.61 187.339 156.696 187.331C158.031 187.323 159.434 187.246 161.24 187.415C162.997 187.58 162.989 186.362 162.313 185.344C161.208 183.68 160.934 183.917 161.831 178.384L161.835 178.38Z" fill="#A0A3A3"/>
<path d="M161.714 184.488C161.259 184.685 160.721 184.644 160.234 184.52C159.683 184.379 159.16 184.138 158.597 184.045C158.135 183.965 157.62 184.005 157.234 184.254C157.069 184.359 156.884 184.439 156.695 184.48C156.1 184.608 155.541 185.006 155.143 185.461C154.753 185.907 154.54 186.615 154.516 187.246C154.508 187.443 154.669 187.604 154.866 187.604H162.687C162.896 187.604 163.069 187.435 163.077 187.226C163.125 186.237 162.735 185.227 162.031 184.532C161.947 184.451 161.822 184.443 161.714 184.488Z" fill="#B9BBBC"/>
<path d="M142.235 97.7253C141.656 97.5484 140.892 97.5765 140.084 97.7132C138.295 98.0229 136.268 98.8753 135.52 99.193C132.356 100.512 129.388 102.39 126.782 104.738C125.306 106.061 123.24 105.39 122.033 106.994C119.958 109.752 121.209 112.913 121.571 113.633C122.069 114.61 123.171 115.04 124.213 115.125C126.022 115.278 127.844 114.626 129.424 113.629C130.715 112.821 131.873 111.787 132.995 110.718C133.244 110.48 133.498 110.239 133.747 109.998C136.079 107.754 138.415 105.51 140.748 103.262C140.961 103.057 141.174 102.856 141.383 102.651C142.171 101.899 142.995 101.063 143.221 99.9651C143.486 98.6421 143.036 97.9867 142.235 97.7293V97.7253Z" fill="black"/>
<path d="M157.873 143.147C156.703 136.902 156.184 129.323 152.095 124.457C146.091 124.606 141.849 125.708 135.91 124.823C128.008 143.746 131.981 157.853 129.496 177.934C129.331 179.281 130.28 180.508 131.623 180.701C142.014 182.188 152.654 182.313 163.036 180.813C165.043 180.524 166.161 178.296 165.172 176.527C159.401 166.192 159.984 154.423 157.873 143.147Z" fill="#B9BBBC"/>
<path d="M127.321 92.7383C127.321 92.7383 122.536 102.634 122.612 108.441C122.636 110.138 124.205 111.42 125.861 111.042C126.565 110.882 127.257 110.596 127.84 110.218C129.726 108.67 129.34 104.886 129.34 104.886L129.794 94.9338L127.317 92.7423L127.321 92.7383Z" fill="#A0A3A3"/>
<path d="M145.408 124.503C142.581 124.278 135.544 123.434 135.544 123.434L135.223 125.714C135.223 125.714 144.483 126.518 145.384 126.502C146.285 126.486 153.386 125.814 153.386 125.814L152.779 123.55C152.779 123.55 148.235 124.732 145.408 124.503Z" fill="black"/>
<path d="M130.594 86.5687C130.51 86.2108 130.148 85.9896 129.786 86.0781L127.811 86.5687C127.458 86.6571 127.24 87.015 127.325 87.3729L129.062 94.434C129.15 94.7919 129.512 95.009 129.87 94.9206L131.792 94.434C132.146 94.3455 132.359 93.9877 132.275 93.6338L130.59 86.5646L130.594 86.5687Z" fill="black"/>
<path d="M131.84 91.2003C132.094 90.9309 131.901 90.3196 131.611 90.38C131.812 90.0502 131.643 89.5516 131.281 89.4149C131.386 89.061 131.076 88.6871 130.714 88.6107C130.357 88.5343 129.983 88.679 129.669 88.868C128.764 89.4109 128.121 90.3156 127.711 91.2887C127.341 92.1653 127.124 93.1183 126.955 94.0553C126.826 94.7831 127.28 95.4586 127.763 95.9975C128.105 96.3795 128.66 96.7092 129.106 96.4559C129.424 96.2709 129.528 95.8688 129.633 95.519C129.918 94.5539 130.417 93.6491 131.088 92.9012C131.426 92.5232 131.812 92.1694 131.997 91.6989C132.114 91.4053 132.041 91.2445 131.84 91.2003Z" fill="#A0A3A3"/>
<path d="M127.623 89.6624C127.595 89.6906 127.591 89.7348 127.591 89.775C127.555 90.3903 127.543 91.0135 127.478 91.6288C127.422 92.1797 127.229 92.6944 127.253 93.2614C127.261 93.4745 127.329 93.7318 127.539 93.772C127.667 93.7962 127.796 93.7198 127.868 93.6152C127.945 93.5107 127.973 93.382 128.005 93.2533C128.146 92.6662 128.282 92.0751 128.299 91.476C128.315 90.8768 128.194 90.2536 127.852 89.7549C127.8 89.6785 127.691 89.5981 127.623 89.6665V89.6624Z" fill="#A0A3A3"/>
<path d="M151.021 139.149C151.029 139.085 150.981 139.025 150.917 139.017C150.844 139.008 150.792 139.057 150.784 139.121C149.702 148.904 151.926 158.921 157.041 167.333C157.061 167.37 157.101 167.39 157.141 167.39C157.161 167.39 157.186 167.386 157.202 167.374C157.258 167.337 157.274 167.265 157.242 167.209C152.155 158.845 149.944 148.876 151.021 139.145V139.149Z" fill="black"/>
<path d="M140.804 114.947C139.594 116.133 137.655 116.519 136.083 115.888C136.027 115.864 135.959 115.892 135.934 115.952C135.91 116.013 135.938 116.077 135.999 116.101C136.53 116.314 137.101 116.419 137.676 116.419C138.886 116.419 140.104 115.96 140.965 115.112C141.009 115.068 141.009 114.995 140.965 114.951C140.921 114.907 140.848 114.907 140.804 114.951V114.947Z" fill="white"/>
<path d="M146.699 117.419C146.654 117.419 146.606 117.419 146.562 117.419C144.712 117.419 142.899 116.2 142.211 114.479C142.187 114.419 142.123 114.391 142.062 114.415C142.002 114.439 141.974 114.503 141.998 114.564C142.718 116.369 144.62 117.648 146.562 117.648C146.61 117.648 146.658 117.648 146.707 117.648C146.771 117.648 146.819 117.592 146.819 117.531C146.819 117.471 146.767 117.419 146.707 117.419H146.699Z" fill="white"/>
<path d="M147.954 115.282C147.085 114.212 146.51 112.423 147.306 111.028C147.339 110.971 147.318 110.903 147.262 110.871C147.21 110.839 147.138 110.859 147.105 110.915C146.253 112.411 146.828 114.257 147.777 115.427C148.818 116.71 150.375 117.518 151.625 118.165C151.641 118.173 151.661 118.177 151.677 118.177C151.718 118.177 151.758 118.153 151.778 118.117C151.806 118.061 151.786 117.992 151.73 117.964C150.499 117.329 148.967 116.533 147.954 115.286V115.282Z" fill="white"/>
<path d="M129.5 105.25C129.456 105.205 129.384 105.209 129.339 105.258C129.295 105.306 129.299 105.378 129.347 105.418C130.333 106.327 130.988 107.614 131.141 108.949C131.298 110.28 130.956 111.683 130.204 112.797C130.168 112.85 130.184 112.922 130.236 112.954C130.256 112.966 130.276 112.974 130.3 112.974C130.337 112.974 130.373 112.958 130.397 112.926C131.177 111.768 131.531 110.312 131.37 108.925C131.209 107.538 130.53 106.203 129.504 105.254L129.5 105.25Z" fill="white"/>
<path d="M137.712 137.633C137.648 137.633 137.591 137.677 137.583 137.741L135.46 164.876C135.456 164.94 135.504 165.001 135.569 165.005H135.577C135.637 165.005 135.689 164.956 135.693 164.896L137.817 137.761C137.821 137.697 137.772 137.641 137.708 137.633H137.712Z" fill="black"/>
<path d="M162.293 175.676C156.764 177.361 150.74 177.164 145.332 175.117C145.271 175.093 145.203 175.125 145.179 175.186C145.155 175.246 145.187 175.314 145.247 175.339C148.251 176.473 151.444 177.044 154.641 177.044C157.246 177.044 159.856 176.666 162.361 175.902C162.426 175.881 162.458 175.817 162.442 175.753C162.422 175.688 162.357 175.656 162.293 175.672V175.676Z" fill="black"/>
<path d="M143.828 95.9531L141.182 97.4249L148.122 111.901C148.392 112.456 149.445 113.304 149.445 113.304C151.99 114.881 153.362 114.241 154.287 113.079C155.03 111.969 155.867 109.858 153.997 107.405C153.309 106.501 143.828 95.9572 143.828 95.9572V95.9531Z" fill="#A0A3A3"/>
<path d="M142.497 94.2973C142.252 94.0359 141.303 93.7987 141.11 93.6338C139.771 92.4998 139.887 92.6687 140.016 93.3362C140.145 94.0118 140.181 97.1241 140.555 97.6791C140.929 98.234 142.143 99.1066 142.855 98.7245C143.764 98.234 144.476 97.9444 144.287 96.9955C144.126 96.1792 143.37 95.2382 142.497 94.2973Z" fill="#A0A3A3"/>
<path d="M140 95.5552C139.891 95.3984 139.778 95.2376 139.597 95.1491C139.421 95.0606 139.155 95.0727 139.006 95.2255C138.866 95.4065 139.69 96.5605 139.811 96.7374C139.959 96.9586 141.194 98.7882 141.592 98.0443C141.737 97.7789 141.069 97.1074 140.92 96.8943C140.611 96.4479 140.305 96.0056 139.996 95.5593L140 95.5552Z" fill="#A0A3A3"/>
<path d="M139.686 94.2244C139.578 94.0676 139.465 93.9067 139.284 93.8183C139.107 93.7298 138.842 93.7378 138.693 93.8947C138.552 94.0756 139.376 95.2297 139.497 95.4066C139.646 95.6278 140.88 97.4574 141.278 96.7135C141.419 96.4481 140.756 95.7766 140.607 95.5634C140.297 95.1171 139.992 94.6748 139.682 94.2284L139.686 94.2244Z" fill="#A0A3A3"/>
<path d="M139.513 92.99C139.405 92.8332 139.292 92.6724 139.111 92.5839C138.934 92.4954 138.669 92.5035 138.52 92.6603C138.379 92.8412 139.204 93.9953 139.324 94.1722C139.473 94.3934 140.708 96.223 141.106 95.4791C141.25 95.2137 140.583 94.5462 140.434 94.3291C140.124 93.8827 139.819 93.4404 139.509 92.994L139.513 92.99Z" fill="#A0A3A3"/>
<path d="M139.73 91.9119C139.621 91.7551 139.509 91.5942 139.328 91.5058C139.147 91.4173 138.886 91.4253 138.737 91.5822C138.596 91.7631 139.42 92.9172 139.541 93.0941C139.69 93.3153 140.924 95.1449 141.322 94.401C141.467 94.1356 140.8 93.4641 140.651 93.2509C140.341 92.8046 140.036 92.3623 139.726 91.9159L139.73 91.9119Z" fill="#A0A3A3"/>
<path d="M144.081 93.5582C143.606 93.8276 143.06 93.9603 142.517 93.9563C142.171 93.9563 141.347 93.5904 141.113 93.9201C140.872 94.2579 141.351 94.9616 141.544 95.235C141.825 95.6331 142.195 95.9709 142.625 96.2041C142.939 96.373 143.365 96.4695 143.615 96.2202C143.864 95.9669 143.767 95.5446 143.856 95.2028C143.988 94.6881 144.555 94.3624 144.656 93.8397C144.68 93.711 144.664 93.5542 144.555 93.4778C144.415 93.3813 144.23 93.4778 144.081 93.5622V93.5582Z" fill="#A0A3A3"/>
<path d="M145.449 87.818C145.087 87.9145 144.91 88.2282 145.248 88.4453C145.589 88.6665 145.887 88.7992 146.092 89.1812C146.209 89.1651 146.313 89.0807 146.366 88.9721C146.422 88.8676 146.434 88.7429 146.426 88.6223C146.41 88.381 146.305 88.1438 146.124 87.9869C145.943 87.8301 145.682 87.7577 145.449 87.818Z" fill="#AEB1B1"/>
<path d="M142.159 87.2775C141.95 87.1568 141.681 87.1609 141.464 87.2694C141.246 87.378 141.086 87.5791 141.009 87.8083C140.973 87.9209 140.953 88.0455 140.981 88.1621C141.009 88.2787 141.086 88.3873 141.194 88.4315C141.488 88.1179 141.809 88.0616 142.195 87.9369C142.577 87.8123 142.485 87.4625 142.159 87.2775Z" fill="#AEB1B1"/>
<path d="M13.5747 56.8984H55.8006C59.492 56.8984 62.4838 59.8902 62.4838 63.5816C62.4838 67.273 59.492 70.2647 55.8006 70.2647H13.5747C9.88332 70.2647 6.8916 67.273 6.8916 63.5816C6.8916 59.8902 9.88332 56.8984 13.5747 56.8984Z" fill="#B9BBBC"/>
<path d="M41.0833 69.6615L52.9014 80.7639L51.5382 69.6615H41.0833Z" fill="#B9BBBC"/>
<path d="M57.5659 66.6831H27.8498V67.7125H57.5659V66.6831Z" fill="white"/>
<path d="M57.57 63.0681H45.9288V64.0975H57.57V63.0681Z" fill="white"/>
<path d="M42.2736 63.0681H36.3585V64.0975H42.2736V63.0681Z" fill="white"/>
<path d="M57.5659 59.4531H36.6641V60.4825H57.5659V59.4531Z" fill="white"/>
<path d="M34.2876 59.4531H13.3857V60.4825H34.2876V59.4531Z" fill="white"/>
<path d="M156.068 77.2561L153.048 76.6891C153.12 76.2549 153.169 75.9895 153.185 75.893C153.37 74.9158 153.683 74.1397 154.126 73.5687C154.568 72.9977 155.348 72.4107 156.47 71.8035C157.588 71.1963 158.267 70.7901 158.501 70.581C158.866 70.2513 159.092 69.8492 159.18 69.3868C159.301 68.7394 159.148 68.1362 158.718 67.5772C158.287 67.0183 157.636 66.6564 156.759 66.4915C155.915 66.3347 155.163 66.4393 154.504 66.8173C153.844 67.1912 153.317 67.8507 152.919 68.7997L149.936 67.8467C150.289 66.4513 151.114 65.3656 152.421 64.5855C153.723 63.8094 155.28 63.5923 157.097 63.9341C159.007 64.292 160.435 65.0801 161.372 66.2905C162.313 67.5008 162.658 68.7675 162.409 70.0945C162.272 70.8263 161.935 71.4858 161.396 72.0608C160.857 72.6399 159.803 73.3637 158.235 74.2362C157.423 74.6866 156.896 75.0767 156.663 75.3983C156.426 75.72 156.229 76.3433 156.072 77.2601L156.068 77.2561ZM152.207 81.1647L152.835 77.8392L156.16 78.4665L155.533 81.792L152.207 81.1647Z" fill="#D9DADB"/>
<path d="M105.027 69.4548C105.027 76.5923 99.2408 82.3787 92.1033 82.3787C84.9658 82.3787 79.1793 76.5923 79.1793 69.4548C79.1793 62.3173 84.9658 56.5309 92.1033 56.5309C99.2408 56.5309 105.027 62.3173 105.027 69.4548Z" fill="#D9DADB"/>
<path d="M91.2226 71.7067L90.8406 72.1128C90.712 72.2455 90.724 72.2013 90.6597 72.2294C90.5632 72.2455 90.4586 72.1972 90.4265 72.1329L87.9333 68.3812C87.9052 68.341 87.873 68.2927 87.8409 68.2565C87.4066 67.7499 86.6667 67.6614 86.1882 68.0555C85.7097 68.4536 85.6695 69.1894 86.1037 69.6961L87.6519 71.5136L88.4279 72.4224L89.0191 73.1181C89.1357 73.2548 89.2684 73.3835 89.4171 73.484C90.0083 73.9143 90.7803 73.9866 91.3754 73.7052C91.6569 73.5885 91.9505 73.287 92.051 73.1301L98.8668 63.6081L91.2226 71.7067Z" fill="white"/>
<path d="M92.1153 84.9683V84.5099C92.7225 84.5099 93.3337 84.4737 93.9289 84.4014L93.9851 84.8558C93.3699 84.9322 92.7426 84.9683 92.1153 84.9683ZM90.2455 84.8558C89.6262 84.7834 89.007 84.6708 88.4038 84.522L88.5124 84.0757C89.0995 84.2204 89.6986 84.329 90.3018 84.4014L90.2455 84.8558ZM95.8228 84.518L95.7142 84.0716C96.3013 83.9269 96.8844 83.7459 97.4473 83.5328L97.6122 83.9631C97.0291 84.1842 96.426 84.3732 95.8228 84.522V84.518ZM86.6144 83.9671C86.0313 83.7459 85.4563 83.4886 84.9054 83.199L85.1186 82.7929C85.6534 83.0744 86.2123 83.3237 86.7753 83.5368L86.6144 83.9671ZM99.3172 83.191L99.104 82.7849C99.6389 82.5034 100.162 82.1857 100.656 81.8439L100.918 82.2219C100.407 82.5758 99.8681 82.9015 99.3172 83.191ZM83.301 82.23C82.7903 81.8761 82.2917 81.486 81.8252 81.0759L82.1309 80.7341C82.5852 81.1362 83.0638 81.5102 83.5624 81.856L83.301 82.234V82.23ZM102.393 81.0638L102.088 80.722C102.538 80.3199 102.972 79.8897 103.374 79.4353L103.716 79.7409C103.302 80.2073 102.856 80.6537 102.393 81.0638ZM80.5023 79.7489C80.0881 79.2825 79.6981 78.7879 79.3442 78.2772L79.7222 78.0158C80.068 78.5144 80.446 78.9929 80.8441 79.4433L80.5023 79.7489ZM104.874 78.2651L104.496 78.0037C104.842 77.5051 105.156 76.9824 105.437 76.4476L105.843 76.6607C105.554 77.2116 105.228 77.7504 104.874 78.2611V78.2651ZM78.3711 76.6768C78.0816 76.1259 77.8202 75.5509 77.599 74.9718L78.0293 74.8069C78.2464 75.3699 78.4957 75.9288 78.7772 76.4637L78.3711 76.6768ZM106.612 74.9557L106.181 74.7949C106.394 74.2279 106.579 73.6448 106.72 73.0578L107.166 73.1663C107.018 73.7695 106.833 74.3727 106.607 74.9557H106.612ZM77.0441 73.1824C76.8953 72.5792 76.7827 71.96 76.7063 71.3407L77.1607 71.2844C77.2331 71.8836 77.3417 72.4867 77.4864 73.0738L77.0401 73.1824H77.0441ZM107.504 71.3246L107.05 71.2684C107.122 70.6692 107.158 70.062 107.158 69.4548V69.4226H107.617V69.4548C107.617 70.0781 107.581 70.7094 107.504 71.3246ZM76.7023 69.4669H76.5938C76.5938 68.8356 76.6299 68.2123 76.7023 67.6011L77.1567 67.6534C77.0884 68.2445 77.0522 68.8516 77.0522 69.4508L76.7023 69.4629V69.4669ZM107.046 67.6091C106.973 67.01 106.861 66.4068 106.716 65.8237L107.162 65.7152C107.311 66.3183 107.428 66.9376 107.5 67.5568L107.046 67.6131V67.6091ZM77.4824 65.868L77.0361 65.7594C77.1849 65.1562 77.3698 64.5531 77.591 63.97L78.0213 64.1308C77.8081 64.6978 77.6272 65.2809 77.4824 65.868ZM106.173 64.0866C105.956 63.5237 105.707 62.9647 105.421 62.4299L105.827 62.2168C106.117 62.7677 106.378 63.3427 106.599 63.9217L106.169 64.0866H106.173ZM78.7652 62.4741L78.359 62.261C78.6485 61.7101 78.9743 61.1713 79.3281 60.6566L79.7061 60.918C79.3603 61.4166 79.0466 61.9393 78.7652 62.4741ZM104.48 60.8818C104.134 60.3872 103.761 59.9046 103.358 59.4543L103.7 59.1487C104.114 59.6151 104.504 60.1097 104.858 60.6204L104.48 60.8818ZM80.824 59.4864L80.4782 59.1808C80.8923 58.7144 81.3347 58.268 81.8011 57.8539L82.1067 58.1956C81.6564 58.5978 81.2221 59.028 80.824 59.4824V59.4864ZM102.068 58.1715C101.613 57.7694 101.131 57.3954 100.636 57.0536L100.897 56.6757C101.408 57.0295 101.907 57.4156 102.373 57.8297L102.068 58.1755V58.1715ZM83.5382 57.0778L83.2769 56.6998C83.7876 56.3459 84.3264 56.0162 84.8773 55.7267L85.0904 56.1328C84.5556 56.4143 84.0328 56.732 83.5382 57.0778ZM99.0799 56.1127C98.5451 55.8312 97.9862 55.5819 97.4232 55.3688L97.5841 54.9385C98.1671 55.1597 98.7421 55.417 99.293 55.7066L99.0799 56.1127ZM86.7471 55.3849L86.5822 54.9546C87.1653 54.7335 87.7645 54.5445 88.3717 54.3957L88.4802 54.842C87.8931 54.9868 87.3101 55.1677 86.7471 55.3849ZM95.6821 54.83C95.095 54.6892 94.4958 54.5806 93.8927 54.5083L93.9449 54.0539C94.5642 54.1263 95.1834 54.2389 95.7866 54.3876L95.678 54.834L95.6821 54.83ZM90.2656 54.5123L90.2093 54.0579C90.8245 53.9815 91.4518 53.9453 92.0791 53.9453V54.4037C91.4719 54.4037 90.8647 54.4439 90.2656 54.5163V54.5123Z" fill="#D9DADB"/>
</svg>
