<svg width="28" height="27" viewBox="0 0 28 27" fill="none" xmlns="http://www.w3.org/2000/svg">
<path d="M19.4094 16.0112V2.33685C19.4094 1.31638 18.6611 0.5 17.6134 0.5C16.9195 0.5 16.4296 0.799339 15.6813 1.50687L10.402 6.39154C10.3476 6.44596 10.2796 6.48678 10.2115 6.48678H9.87139L19.4094 16.0112ZM24.1716 26.1887C24.5934 26.5969 25.2873 26.6105 25.6955 26.1887C26.1173 25.7533 26.1173 25.073 25.6955 24.6512L1.85726 0.826552C1.43547 0.404756 0.741545 0.391149 0.306142 0.826552C-0.102047 1.23474 -0.102047 1.94227 0.306142 2.35046L24.1716 26.1887ZM5.76228 18.4603H9.59926C9.72172 18.4603 9.83057 18.5012 9.9122 18.5828L15.6813 23.9437C16.3616 24.5968 16.9331 24.8825 17.627 24.8825C18.4162 24.8825 19.0148 24.4743 19.287 23.6716L3.4356 7.83381C2.97298 8.35085 2.72807 9.1128 2.72807 10.1197V15.2901C2.72807 17.4127 3.76215 18.4603 5.76228 18.4603Z" fill="white"/>
</svg>
