<svg xmlns="http://www.w3.org/2000/svg" viewBox="0 0 118.336 96.574">
    <path
        d="M82.703 96.449c-4.073-.003-8.724-.028-12.24-.047l-2.06-.01H52.538l9.518-58.235h26.891c.372-.012 4.155-.273 5.743-.623 6.465-1.43 11.28-5.021 13.206-9.854 1.048-2.627 1.012-5.165.897-6.443-.091-1.033-.259-2.95-1.445-5.019a12.2 12.2 0 0 0-2.537-2.996c-2.382-2.005-5.918-3.132-10.512-3.349-4.086-.195-8.717-.293-13.765-.293-6.273 0-15.717.202-18.577.3L47.385 96.45.151 96.393l1.94-9.915 22.725.109 12.822-76.6-17.332-.109L22.299.125H92.76c1.466.008 2.936.129 4.374.359 2.095.335 8.467 1.353 13.947 6.45 2.397 2.23 3.804 4.474 4.429 5.614.83 1.508 2.271 4.673 2.62 8.921.314 3.847-.295 7.636-1.762 10.959-2.16 4.889-6.186 8.893-11.479 11.473q.902.647 1.737 1.364c2.424 2.095 4.376 4.557 5.802 7.322 1.736 3.33 2.721 6.962 2.922 10.792.476 8.733-3.291 17.516-10.335 24.094-.932.912-9.558 8.978-22.309 8.978h-.004Zm-18.882-9.934c3.377.021 11.285.064 17.381.064 9.19 0 15.935-6.073 16.674-6.765 5.277-4.926 8.223-11.563 7.887-17.756-.13-2.431-.731-4.689-1.785-6.712a13 13 0 0 0-3.067-3.879c-2.945-2.531-7.157-3.87-12.174-3.87H70.306l-6.485 38.917Z"
        style="stroke:#000;stroke-miterlimit:10;stroke-width:.25px" />
</svg>