<svg width="36" height="36" viewBox="0 0 36 36" fill="none" xmlns="http://www.w3.org/2000/svg">
<circle cx="18" cy="18" r="17.5" fill="white" fill-opacity="0.05" stroke="white"/>
<path d="M13.5544 16.8437H10.2822V19.1562H13.5544L16.0635 21.6652V17.3177L14.5719 15.8262L13.5544 16.8437Z" fill="white" fill-opacity="0.95"/>
<path d="M9.51898 7.51282L7.88867 9.14313L12.9299 14.1844L12.5946 14.5313H7.96961V21.4688H12.5946L18.3759 27.25V19.6303L23.209 24.4634C22.4574 25.03 21.6134 25.4809 20.6884 25.7469V28.1288C22.2377 27.7819 23.6599 27.065 24.8624 26.1053L27.2327 28.4756L28.863 26.8453L9.51898 7.51282ZM16.0635 21.6652L13.5544 19.1562H10.2822V16.8437H13.5544L14.5719 15.8262L16.0635 17.3177V21.6652ZM26.4696 18C26.4696 18.9481 26.2962 19.8616 25.9955 20.7056L27.7646 22.4747C28.4121 21.1219 28.7821 19.6072 28.7821 18C28.7821 13.0513 25.3249 8.91188 20.6884 7.85969V10.2416C24.0299 11.2359 26.4696 14.3347 26.4696 18ZM18.3759 8.75L16.2021 10.9238L18.3759 13.0975V8.75ZM23.579 18C23.579 15.9534 22.3996 14.1959 20.6884 13.3403V15.41L23.5559 18.2775C23.5674 18.185 23.579 18.0925 23.579 18Z" fill="white" fill-opacity="0.95"/>
</svg>
